<svg width="50" height="50" viewBox="0 0 50 50" fill="none" xmlns="http://www.w3.org/2000/svg">
<g clip-path="url(#clip0_5554_9124)">
<path d="M9.73684 2.01379H40V5.01379L41 7.01379H45V48.0138H11.3158C10.7895 48.0138 8.15789 48.0138 6.57895 46.4456C5 44.8774 5 43.3092 5 42.7865V6.71834C5 5.67288 5.73684 4.41834 6.57895 3.58198C7.42105 2.74561 8.68421 2.01379 9.73684 2.01379Z" fill="#FAA21E"/>
<path d="M9.73684 2.01379H40V5.01379L41 7.01379H45V48.0138H11.3158C10.7895 48.0138 8.15789 48.0138 6.57895 46.4456C5 44.8774 5 43.3092 5 42.7865V6.71834C5 5.67288 5.73684 4.41834 6.57895 3.58198C7.42105 2.74561 8.68421 2.01379 9.73684 2.01379Z" fill="black" fill-opacity="0.1"/>
<path d="M43 9L40 5V40.0312H38L43 46V9Z" fill="#898989"/>
<path d="M43 9L40 5V40.0312H38L43 46V9Z" fill="white" fill-opacity="0.2"/>
<path d="M10.093 40H38.0001L43.0001 46H10.093C9.58856 46 6.97412 45.0823 6.97412 42.8406C6.97412 40.599 9.58856 40 10.093 40Z" fill="#898989"/>
<path d="M10.093 40H38.0001L43.0001 46H10.093C9.58856 46 6.97412 45.0823 6.97412 42.8406C6.97412 40.599 9.58856 40 10.093 40Z" fill="white" fill-opacity="0.6"/>
<g clip-path="url(#clip1_5554_9124)">
<path d="M26.4478 6.04797L26.5929 6.42071L26.5929 6.42072L26.4478 6.04797ZM27.9004 6.4372L28.2125 6.18696L28.2125 6.18696L27.9004 6.4372ZM25.8422 6.28376L25.9873 6.65651L25.9873 6.65651L25.8422 6.28376ZM24.7533 6.20446L24.5557 6.55224L24.5557 6.55224L24.7533 6.20446ZM24.2633 5.92607L24.4609 5.57829L24.4609 5.57829L24.2633 5.92607ZM22.8219 6.05467L23.0779 6.36198L23.0779 6.36198L22.8219 6.05467ZM22.0837 6.6697L21.8277 6.36239L21.8277 6.36239L22.0837 6.6697ZM21.1335 6.95684L21.1765 6.55916L21.1765 6.55916L21.1335 6.95684ZM20.4066 6.87823L20.3636 7.27592L20.3636 7.27592L20.4066 6.87823ZM19.2211 7.42408L19.5512 7.64997L19.5512 7.64997L19.2211 7.42408ZM18.468 8.52464L18.7981 8.75053L18.7981 8.75053L18.468 8.52464ZM17.7727 9.02768L17.8839 9.41189L17.8839 9.41189L17.7727 9.02768ZM16.7687 9.31847L16.6574 8.93426L16.6574 8.93426L16.7687 9.31847ZM15.9292 10.1011L15.5537 9.96321L15.5537 9.96321L15.9292 10.1011ZM15.3759 11.6078L15.0004 11.4699L15.0004 11.4699L15.3759 11.6078ZM14.9204 12.2047L15.1526 12.5304L15.1526 12.5304L14.9204 12.2047ZM13.8042 13.0001L13.5721 12.6743L13.5721 12.6743L13.8042 13.0001ZM13.2788 13.8939L13.6763 13.9384L13.6763 13.9384L13.2788 13.8939ZM13.0901 15.5819L12.6926 15.5374L12.6926 15.5374L13.0901 15.5819ZM12.8268 16.2254L12.5121 15.9784L12.5121 15.9784L12.8268 16.2254ZM11.8334 17.4911L11.5187 17.2441L11.5187 17.2441L11.8334 17.4911ZM11.575 18.4554L11.179 18.512L11.179 18.512L11.575 18.4554ZM11.8025 20.0483L11.4065 20.1048L11.4065 20.1048L11.8025 20.0483ZM11.7087 20.7372L11.3423 20.5769L11.3423 20.5769L11.7087 20.7372ZM11.0281 22.2933L11.3946 22.4536L11.3946 22.4536L11.0281 22.2933ZM11.0363 23.3302L11.4002 23.1641L11.4002 23.1641L11.0363 23.3302ZM11.6052 24.5771L11.9692 24.4111L11.9692 24.4111L11.6052 24.5771ZM11.7012 25.3218L11.3071 25.2534L11.3071 25.2534L11.7012 25.3218ZM11.4271 26.9032L11.033 26.8349L11.033 26.8349L11.4271 26.9032ZM11.7628 28.0007L11.4743 28.2778L11.4743 28.2778L11.7628 28.0007ZM12.4868 28.7546L12.7753 28.4775L12.7753 28.4775L12.4868 28.7546ZM12.8375 29.5379L13.2363 29.5073L13.2363 29.5073L12.8375 29.5379ZM12.9394 30.8675L13.3382 30.837L13.3382 30.837L12.9394 30.8675ZM13.6932 31.933L13.8548 31.5671L13.8548 31.5671L13.6932 31.933ZM14.362 32.2284L14.2004 32.5943L14.2004 32.5943L14.362 32.2284ZM15.0414 32.9522L14.666 33.0903L14.666 33.0903L15.0414 32.9522ZM15.3731 33.8539L15.7485 33.7158L15.7485 33.7158L15.3731 33.8539ZM16.5571 34.686L16.5543 35.086L16.5543 35.086L16.5571 34.686ZM17.1206 34.6899L17.1234 34.2899L17.1234 34.2899L17.1206 34.6899ZM18.1033 35.1657L18.4154 34.9154L18.4154 34.9154L18.1033 35.1657ZM18.5099 35.6727L18.1979 35.9229L18.1979 35.9229L18.5099 35.6727ZM19.9625 36.0619L20.1077 36.4346L20.1077 36.4346L19.9625 36.0619ZM20.5681 35.8261L20.423 35.4534L20.423 35.4534L20.5681 35.8261ZM21.6571 35.9054L21.8547 35.5576L21.8547 35.5576L21.6571 35.9054ZM22.1471 36.1838L21.9495 36.5316L21.9495 36.5316L22.1471 36.1838ZM23.5885 36.0552L23.3324 35.7479L23.3324 35.7479L23.5885 36.0552ZM24.3266 35.4402L24.5827 35.7475L24.5827 35.7475L24.3266 35.4402ZM25.2768 35.153L25.2338 35.5507L25.2338 35.5507L25.2768 35.153ZM26.0038 35.2316L26.0468 34.8339L26.0468 34.8339L26.0038 35.2316ZM27.1893 34.6858L27.5194 34.9117L27.5194 34.9117L27.1893 34.6858ZM27.9424 33.5852L28.2725 33.8111L28.2725 33.8111L27.9424 33.5852ZM28.6377 33.0822L28.749 33.4664L28.749 33.4664L28.6377 33.0822ZM29.6417 32.7914L29.5304 32.4072L29.6417 32.7914ZM30.4812 32.0088L30.1057 31.8709L30.1057 31.8709L30.4812 32.0088ZM31.0345 30.5021L30.659 30.3642L31.0345 30.5021ZM31.4899 29.9052L31.2578 29.5794L31.2578 29.5794L31.4899 29.9052ZM32.6061 29.1098L32.8382 29.4355L32.8382 29.4355L32.6061 29.1098ZM33.1316 28.2159L33.5291 28.2604L33.5291 28.2604L33.1316 28.2159ZM33.3202 26.528L33.7178 26.5724L33.7178 26.5724L33.3202 26.528ZM33.5835 25.8845L33.8982 26.1314L33.8982 26.1314L33.5835 25.8845ZM34.577 24.6188L34.2623 24.3718L34.2623 24.3718L34.577 24.6188ZM34.8354 23.6544L35.2313 23.5979L35.2313 23.5979L34.8354 23.6544ZM34.6079 22.0616L34.2119 22.1182L34.2119 22.1182L34.6079 22.0616ZM34.7016 21.3726L35.0681 21.5329L35.0681 21.5329L34.7016 21.3726ZM35.3822 19.8165L35.0157 19.6563L35.3822 19.8165ZM35.374 18.7797L35.0101 18.9457L35.0101 18.9457L35.374 18.7797ZM34.8051 17.5328L34.4412 17.6988L34.4412 17.6988L34.8051 17.5328ZM34.7091 16.7881L34.315 16.7198L34.315 16.7198L34.7091 16.7881ZM34.9833 15.2066L35.3774 15.2749L35.3774 15.2749L34.9833 15.2066ZM34.6476 14.1091L34.3591 14.3862L34.3591 14.3862L34.6476 14.1091ZM33.9235 13.3553L34.212 13.0782L34.212 13.0782L33.9235 13.3553ZM33.5729 12.572L33.9717 12.5414L33.9717 12.5414L33.5729 12.572ZM33.4709 11.2423L33.0721 11.2729L33.0721 11.2729L33.4709 11.2423ZM32.7172 10.1769L32.8788 9.81095L32.8788 9.81095L32.7172 10.1769ZM32.0483 9.88144L31.8867 10.2473L31.8867 10.2473L32.0483 9.88144ZM31.369 9.15768L30.9936 9.29579L30.9936 9.29579L31.369 9.15768ZM31.0372 8.25597L30.6618 8.39408L30.6618 8.39408L31.0372 8.25597ZM29.8533 7.4239L29.8505 7.82389L29.8505 7.82389L29.8533 7.4239ZM29.2897 7.42L29.287 7.81999L29.287 7.81999L29.2897 7.42ZM28.307 6.9442L28.6191 6.69396L28.6191 6.69396L28.307 6.9442ZM26.3027 5.67523C26.9827 5.41045 27.7559 5.61764 28.2125 6.18696L27.5884 6.68744C27.3504 6.3907 26.9474 6.28271 26.5929 6.42071L26.3027 5.67523ZM25.6971 5.91102L26.3027 5.67523L26.5929 6.42072L25.9873 6.65651L25.6971 5.91102ZM24.9509 5.85667C25.1787 5.98615 25.4528 6.00611 25.6971 5.91102L25.9873 6.65651C25.5187 6.83895 24.9929 6.80066 24.5557 6.55224L24.9509 5.85667ZM24.4609 5.57829L24.9509 5.85667L24.5557 6.55224L24.0657 6.27385L24.4609 5.57829ZM22.5658 5.74736C23.1006 5.30177 23.8557 5.23441 24.4609 5.57829L24.0657 6.27385C23.7502 6.09462 23.3567 6.12973 23.0779 6.36198L22.5658 5.74736ZM21.8277 6.36239L22.5658 5.74736L23.0779 6.36198L22.3398 6.97701L21.8277 6.36239ZM21.1765 6.55916C21.4113 6.58455 21.6463 6.51353 21.8277 6.36239L22.3398 6.97701C21.9918 7.26698 21.5409 7.40323 21.0905 7.35453L21.1765 6.55916ZM20.4496 6.48055L21.1765 6.55916L21.0905 7.35453L20.3636 7.27592L20.4496 6.48055ZM18.8909 7.19819C19.2386 6.69011 19.8375 6.41437 20.4496 6.48055L20.3636 7.27592C20.0445 7.24142 19.7324 7.38514 19.5512 7.64997L18.8909 7.19819ZM18.1379 8.29875L18.8909 7.19819L19.5512 7.64997L18.7981 8.75053L18.1379 8.29875ZM17.6614 8.64347C17.8554 8.58728 18.0238 8.46543 18.1379 8.29875L18.7981 8.75053C18.5793 9.0703 18.2561 9.30409 17.8839 9.41189L17.6614 8.64347ZM16.6574 8.93426L17.6614 8.64347L17.8839 9.41189L16.8799 9.70268L16.6574 8.93426ZM15.5537 9.96321C15.737 9.46419 16.1468 9.08215 16.6574 8.93426L16.8799 9.70268C16.6138 9.77976 16.4002 9.97889 16.3047 10.239L15.5537 9.96321ZM15.0004 11.4699L15.5537 9.96321L16.3047 10.239L15.7514 11.7457L15.0004 11.4699ZM14.6883 11.8789C14.8311 11.7771 14.9399 11.6346 15.0004 11.4699L15.7514 11.7457C15.6353 12.0616 15.4266 12.3351 15.1526 12.5304L14.6883 11.8789ZM13.5721 12.6743L14.6883 11.8789L15.1526 12.5304L14.0364 13.3258L13.5721 12.6743ZM12.8812 13.8495C12.934 13.3774 13.1852 12.95 13.5721 12.6743L14.0364 13.3258C13.8347 13.4695 13.7038 13.6923 13.6763 13.9384L12.8812 13.8495ZM12.6926 15.5374L12.8812 13.8495L13.6763 13.9384L13.4876 15.6263L12.6926 15.5374ZM12.5121 15.9784C12.6121 15.8511 12.6746 15.6983 12.6926 15.5374L13.4876 15.6263C13.4531 15.935 13.3333 16.228 13.1415 16.4724L12.5121 15.9784ZM11.5187 17.2441L12.5121 15.9784L13.1415 16.4724L12.148 17.738L11.5187 17.2441ZM11.179 18.512C11.1146 18.0607 11.2373 17.6027 11.5187 17.2441L12.148 17.738C12.0013 17.9249 11.9374 18.1637 11.971 18.3989L11.179 18.512ZM11.4065 20.1048L11.179 18.512L11.971 18.3989L12.1984 19.9917L11.4065 20.1048ZM11.3423 20.5769C11.4071 20.4286 11.4294 20.2651 11.4065 20.1048L12.1984 19.9917C12.2424 20.2992 12.1997 20.6129 12.0752 20.8975L11.3423 20.5769ZM10.6617 22.133L11.3423 20.5769L12.0752 20.8975L11.3946 22.4536L10.6617 22.133ZM10.6724 23.4962C10.4752 23.064 10.4713 22.5683 10.6617 22.133L11.3946 22.4536C11.2954 22.6805 11.2974 22.9389 11.4002 23.1641L10.6724 23.4962ZM11.2413 24.7431L10.6724 23.4962L11.4002 23.1641L11.9692 24.4111L11.2413 24.7431ZM11.3071 25.2534C11.3371 25.0806 11.3141 24.9027 11.2413 24.7431L11.9692 24.4111C12.1088 24.7172 12.1528 25.0585 12.0954 25.3901L11.3071 25.2534ZM11.033 26.8349L11.3071 25.2534L12.0954 25.3901L11.8212 26.9716L11.033 26.8349ZM11.4743 28.2778C11.106 27.8945 10.9422 27.3587 11.033 26.8349L11.8212 26.9716C11.7739 27.2446 11.8593 27.5238 12.0512 27.7237L11.4743 28.2778ZM12.1984 29.0317L11.4743 28.2778L12.0512 27.7237L12.7753 28.4775L12.1984 29.0317ZM12.4387 29.5684C12.4232 29.3671 12.3383 29.1773 12.1984 29.0317L12.7753 28.4775C13.0437 28.7569 13.2067 29.121 13.2363 29.5073L12.4387 29.5684ZM12.5406 30.8981L12.4387 29.5684L13.2363 29.5073L13.3382 30.837L12.5406 30.8981ZM13.5316 32.2989C12.9684 32.0502 12.5876 31.5119 12.5406 30.8981L13.3382 30.837C13.3628 31.1569 13.5612 31.4375 13.8548 31.5671L13.5316 32.2989ZM14.2004 32.5943L13.5316 32.2989L13.8548 31.5671L14.5237 31.8625L14.2004 32.5943ZM14.666 33.0903C14.5844 32.8687 14.4164 32.6897 14.2004 32.5943L14.5236 31.8625C14.938 32.0455 15.2603 32.3889 15.4168 32.8141L14.666 33.0903ZM14.9977 33.992L14.666 33.0903L15.4168 32.8141L15.7485 33.7158L14.9977 33.992ZM16.5543 35.086C15.8582 35.0811 15.2381 34.6453 14.9977 33.992L15.7485 33.7158C15.8738 34.0563 16.197 34.2835 16.5599 34.286L16.5543 35.086ZM17.1178 35.0899L16.5543 35.086L16.5599 34.286L17.1234 34.2899L17.1178 35.0899ZM17.7913 35.4159C17.6273 35.2114 17.38 35.0917 17.1178 35.0899L17.1234 34.2899C17.6262 34.2934 18.1008 34.5231 18.4154 34.9154L17.7913 35.4159ZM18.1979 35.9229L17.7913 35.4159L18.4154 34.9154L18.822 35.4224L18.1979 35.9229ZM20.1077 36.4346C19.4276 36.6994 18.6544 36.4922 18.1979 35.9229L18.822 35.4224C19.0599 35.7192 19.4629 35.8272 19.8174 35.6891L20.1077 36.4346ZM20.7133 36.1988L20.1077 36.4346L19.8174 35.6891L20.423 35.4534L20.7133 36.1988ZM21.4595 36.2532C21.2316 36.1237 20.9575 36.1038 20.7133 36.1988L20.423 35.4534C20.8916 35.2709 21.4175 35.3092 21.8547 35.5576L21.4595 36.2532ZM21.9495 36.5316L21.4595 36.2532L21.8547 35.5576L22.3447 35.836L21.9495 36.5316ZM23.8445 36.3625C23.3097 36.8081 22.5547 36.8755 21.9495 36.5316L22.3447 35.836C22.6601 36.0152 23.0537 35.9801 23.3324 35.7479L23.8445 36.3625ZM24.5827 35.7475L23.8445 36.3625L23.3324 35.7479L24.0706 35.1329L24.5827 35.7475ZM25.2338 35.5507C24.9991 35.5253 24.7641 35.5963 24.5827 35.7475L24.0706 35.1329C24.4186 34.8429 24.8694 34.7066 25.3198 34.7553L25.2338 35.5507ZM25.9608 35.6293L25.2338 35.5507L25.3198 34.7553L26.0468 34.8339L25.9608 35.6293ZM27.5194 34.9117C27.1717 35.4197 26.5729 35.6955 25.9608 35.6293L26.0468 34.8339C26.3658 34.8684 26.678 34.7247 26.8592 34.4599L27.5194 34.9117ZM28.2725 33.8111L27.5194 34.9117L26.8592 34.4599L27.6123 33.3593L28.2725 33.8111ZM28.749 33.4664C28.555 33.5226 28.3865 33.6444 28.2725 33.8111L27.6123 33.3593C27.8311 33.0396 28.1542 32.8058 28.5264 32.698L28.749 33.4664ZM29.753 33.1756L28.749 33.4664L28.5264 32.698L29.5304 32.4072L29.753 33.1756ZM30.8566 32.1467C30.6734 32.6457 30.2636 33.0277 29.753 33.1756L29.5304 32.4072C29.7966 32.3301 30.0101 32.131 30.1057 31.8709L30.8566 32.1467ZM31.4099 30.64L30.8566 32.1467L30.1057 31.8709L30.659 30.3642L31.4099 30.64ZM31.7221 30.2309C31.5792 30.3327 31.4704 30.4753 31.4099 30.64L30.659 30.3642C30.775 30.0483 30.9837 29.7748 31.2578 29.5794L31.7221 30.2309ZM32.8382 29.4355L31.7221 30.2309L31.2578 29.5794L32.374 28.784L32.8382 29.4355ZM33.5291 28.2604C33.4763 28.7325 33.2251 29.1598 32.8382 29.4355L32.374 28.784C32.5756 28.6403 32.7066 28.4176 32.7341 28.1715L33.5291 28.2604ZM33.7178 26.5724L33.5291 28.2604L32.7341 28.1715L32.9227 26.4836L33.7178 26.5724ZM33.8982 26.1314C33.7982 26.2588 33.7357 26.4115 33.7178 26.5724L32.9227 26.4836C32.9572 26.1749 33.0771 25.8819 33.2689 25.6375L33.8982 26.1314ZM34.8916 24.8658L33.8982 26.1314L33.2689 25.6375L34.2623 24.3718L34.8916 24.8658ZM35.2313 23.5979C35.2958 24.0491 35.1731 24.5072 34.8916 24.8658L34.2623 24.3718C34.409 24.1849 34.473 23.9462 34.4394 23.711L35.2313 23.5979ZM35.0039 22.0051L35.2313 23.5979L34.4394 23.711L34.2119 22.1182L35.0039 22.0051ZM35.0681 21.5329C35.0032 21.6813 34.981 21.8448 35.0039 22.0051L34.2119 22.1182C34.168 21.8106 34.2107 21.497 34.3351 21.2124L35.0681 21.5329ZM35.7487 19.9768L35.0681 21.5329L34.3351 21.2124L35.0157 19.6563L35.7487 19.9768ZM35.7379 18.6137C35.9351 19.0459 35.939 19.5416 35.7487 19.9768L35.0157 19.6563C35.1149 19.4294 35.1129 19.171 35.0101 18.9457L35.7379 18.6137ZM35.169 17.3667L35.7379 18.6137L35.0101 18.9457L34.4412 17.6988L35.169 17.3667ZM35.1032 16.8564C35.0733 17.0293 35.0962 17.2071 35.169 17.3667L34.4412 17.6988C34.3015 17.3926 34.2575 17.0514 34.315 16.7198L35.1032 16.8564ZM35.3774 15.2749L35.1032 16.8564L34.315 16.7198L34.5891 15.1383L35.3774 15.2749ZM34.9361 13.832C35.3043 14.2154 35.4682 14.7512 35.3774 15.2749L34.5891 15.1383C34.6365 14.8653 34.5511 14.586 34.3591 14.3862L34.9361 13.832ZM34.212 13.0782L34.9361 13.832L34.3591 14.3862L33.635 13.6324L34.212 13.0782ZM33.9717 12.5414C33.9871 12.7428 34.0721 12.9325 34.212 13.0782L33.635 13.6324C33.3666 13.3529 33.2036 12.9889 33.174 12.6026L33.9717 12.5414ZM33.8698 11.2118L33.9717 12.5414L33.174 12.6026L33.0721 11.2729L33.8698 11.2118ZM32.8788 9.81095C33.442 10.0597 33.8227 10.5979 33.8698 11.2118L33.0721 11.2729C33.0476 10.9529 32.8491 10.6724 32.5556 10.5428L32.8788 9.81095ZM32.2099 9.51554L32.8788 9.81095L32.5556 10.5428L31.8867 10.2473L32.2099 9.51554ZM31.7444 9.01957C31.8259 9.24116 31.9939 9.42015 32.2099 9.51554L31.8867 10.2473C31.4723 10.0643 31.15 9.72093 30.9936 9.29579L31.7444 9.01957ZM31.4126 8.11785L31.7444 9.01957L30.9936 9.29579L30.6618 8.39408L31.4126 8.11785ZM29.856 7.02391C30.5521 7.02872 31.1723 7.46456 31.4126 8.11785L30.6618 8.39408C30.5366 8.05357 30.2133 7.82639 29.8505 7.82389L29.856 7.02391ZM29.2925 7.02001L29.856 7.02391L29.8505 7.82389L29.287 7.81999L29.2925 7.02001ZM28.6191 6.69396C28.783 6.89844 29.0304 7.0182 29.2925 7.02001L29.287 7.81999C28.7841 7.81651 28.3096 7.58675 27.995 7.19445L28.6191 6.69396ZM28.2125 6.18696L28.6191 6.69396L27.995 7.19445L27.5884 6.68744L28.2125 6.18696ZM32.4292 23.5265C31.4897 27.0328 29.6019 29.9461 27.29 31.8164C24.9785 33.6864 22.216 34.5307 19.5648 33.8203L19.7718 33.0475C22.1149 33.6754 24.6196 32.9477 26.7868 31.1945C28.9537 29.4415 30.756 26.6802 31.6565 23.3195L32.4292 23.5265ZM26.4352 8.17961C29.0864 8.89 31.0566 11.0024 32.1235 13.7776C33.1905 16.5533 33.3687 20.0202 32.4292 23.5265L31.6565 23.3195C32.557 19.9587 32.3768 16.6662 31.3767 14.0647C30.3765 11.4627 28.5712 9.58017 26.2281 8.95236L26.4352 8.17961ZM13.5707 18.4734C14.5102 14.9671 16.3981 12.0538 18.71 10.1835C21.0215 8.3135 23.784 7.46923 26.4352 8.17961L26.2281 8.95236C23.8851 8.32454 21.3803 9.05218 19.2131 10.8054C17.0463 12.5584 15.244 15.3197 14.3435 18.6804L13.5707 18.4734ZM19.5648 33.8203C16.9136 33.1099 14.9433 30.9975 13.8765 28.2223C12.8095 25.4466 12.6312 21.9797 13.5707 18.4734L14.3435 18.6804C13.443 22.0412 13.6232 25.3337 14.6232 27.9352C15.6234 30.5372 17.4288 32.4197 19.7718 33.0475L19.5648 33.8203Z" fill="#FEFEFE"/>
<ellipse cx="23.0001" cy="21" rx="9.3366" ry="12.8378" transform="rotate(14.7654 23.0001 21)" fill="#FAA21E"/>
<path d="M18.2 11.4L15.64 14.6L25.5941 32.7295L28.76 29.6399L31 25.7999L21.4 9.15998L18.2 11.4Z" fill="#FAA21E"/>
<path d="M18.2 11.4L15.64 14.6L25.5941 32.7295L28.76 29.6399L31 25.7999L21.4 9.15998L18.2 11.4Z" fill="white" fill-opacity="0.2"/>
<path d="M30.6801 12.04C32.8055 15.9511 32.7714 18.3501 32.1888 22.7161L31.0001 26.12L21.0801 9.16001L23.9269 8.40597C27.1614 8.46512 28.6122 9.3224 30.6801 12.04Z" fill="#FAA21E"/>
<path d="M30.6801 12.04C32.8055 15.9511 32.7714 18.3501 32.1888 22.7161L31.0001 26.12L21.0801 9.16001L23.9269 8.40597C27.1614 8.46512 28.6122 9.3224 30.6801 12.04Z" fill="white" fill-opacity="0.4"/>
<ellipse cx="23.0001" cy="21" rx="9.58125" ry="13.1742" transform="rotate(15 23.0001 21)" stroke="#FEFEFE" stroke-width="0.96"/>
<path d="M23 25.16C24.7199 24.2712 25.1051 23.2839 25.56 21C25.7659 23.1357 26.4311 24.0516 28.12 25.16C26.3641 26.1668 25.7889 27.1468 25.56 29.32C25.0024 27.1348 24.5993 26.1663 23 25.16Z" fill="#FEFEFE"/>
<path d="M15.96 20.36C17.2499 19.6763 17.5388 18.9168 17.88 17.16C18.0344 18.8029 18.5333 19.5074 19.8 20.36C18.483 21.1345 18.0516 21.8883 17.88 23.56C17.4618 21.8791 17.1594 21.1341 15.96 20.36Z" fill="#FEFEFE"/>
<path d="M21.08 13.96C22.3699 13.2763 22.6588 12.5168 23 10.76C23.1544 12.4029 23.6533 13.1074 24.92 13.96C23.603 14.7344 23.1716 15.4883 23 17.16C22.5818 15.4791 22.2794 14.7341 21.08 13.96Z" fill="#FEFEFE"/>
</g>
</g>
<defs>
<clipPath id="clip0_5554_9124">
<rect width="50" height="50" fill="white" transform="matrix(-1 0 0 1 50 0)"/>
</clipPath>
<clipPath id="clip1_5554_9124">
<rect width="32" height="32" fill="white" transform="matrix(-1 0 0 1 39 5)"/>
</clipPath>
</defs>
</svg>
