<svg width="50" height="50" viewBox="0 0 50 50" fill="none" xmlns="http://www.w3.org/2000/svg">
<path fill-rule="evenodd" clip-rule="evenodd" d="M23.2213 5.43046C23.7239 4.74339 24.6346 3.49864 25.9533 4.15803C27.374 4.86841 27.374 6.52585 26.9005 7.94656C28.3212 9.05154 31.1626 12.4928 31.1626 17.4179C31.1626 23.5742 30.2154 30.2041 25.4798 35.4133C19.8831 41.5697 12.22 44.411 7.01077 45.8317C5.59008 44.0953 2.65398 38.9177 2.27512 32.0984C1.80156 23.5742 5.59008 15.5236 9.85216 11.2615C13.2618 7.85184 18.8499 5.57872 23.112 5.57872C23.146 5.53339 23.1824 5.4836 23.2213 5.43046ZM28.3212 5.57872V7.47298C28.556 7.70784 28.9027 8.09643 29.2988 8.61381C30.7186 9.48716 33.1054 11.2398 35.4357 13.2621C37.8992 15.3999 40.366 17.8953 41.5445 20.0166C43.9436 24.3351 45.3959 29.1538 45.3959 33.5192C45.3959 35.6913 45.0354 38.5649 44.6798 40.8763C44.5013 42.0361 44.3229 43.0619 44.1892 43.7977C44.1647 43.9322 44.1417 44.0571 44.1205 44.1713C45.4714 41.579 47.4151 37.2148 47.7373 33.9926C48.2109 29.257 48.6844 21.6799 43.0017 14.5765C38.4555 8.89368 31.3204 6.21014 28.3212 5.57872ZM42.4307 45.0784C41.7451 44.5577 40.9729 43.9841 40.1744 43.3909L40.1743 43.3908C39.4564 42.8576 38.7173 42.3085 38.0004 41.7678C36.4012 40.5614 34.911 39.3955 34.124 38.6084C33.343 37.8275 32.1432 36.386 31.0881 35.0345C30.5581 34.3557 30.0595 33.693 29.6624 33.1385C29.5282 32.9511 29.403 32.7725 29.2908 32.6075C28.6097 33.8275 27.8111 34.9762 26.9005 35.8869C27.8476 37.1102 31.6361 40.5752 33.5304 41.5696C35.2522 42.4736 38.9302 44.0818 42.4307 45.0784ZM29.8237 31.593C29.9589 31.8158 30.1815 32.1459 30.4754 32.5562C30.8626 33.0969 31.3526 33.7483 31.8763 34.4191C32.9286 35.767 34.0966 37.1669 34.8311 37.9013C35.5594 38.6297 36.9896 39.7527 38.6026 40.9694C39.3043 41.4986 40.0404 42.0456 40.7591 42.5795L40.7611 42.581C41.0868 42.823 41.4088 43.0622 41.7223 43.2959C39.4651 40.1214 36.2398 35.48 34.9905 33.2937C33.8302 31.2632 32.5031 28.4602 31.7193 26.5908C31.6922 26.6904 31.6645 26.7898 31.6361 26.8891C31.2496 28.242 30.6413 29.9398 29.8237 31.593ZM32.1217 24.8704C32.5991 26.2806 34.3665 30.1861 35.8588 32.7976C37.1066 34.9813 40.4087 39.7266 42.6674 42.8993C41.7784 37.4274 40.6284 33.4313 38.2753 27.5486C37.4426 25.4668 36.1243 23.2915 34.8426 21.3651C34.2486 20.4724 33.6664 19.6386 33.1471 18.895L33.147 18.8949L33.0286 18.7254C32.8992 18.54 32.7737 18.36 32.6533 18.1863C32.7235 20.1755 32.5881 22.5169 32.1217 24.8704ZM32.4992 16.1573C32.5122 16.1735 32.5243 16.1907 32.5355 16.2089C32.842 16.707 33.2984 17.3648 33.8486 18.153L33.9678 18.3236L33.9678 18.3237L33.9679 18.3238L33.9679 18.3238C34.4864 19.0663 35.0747 19.9087 35.6752 20.8112C36.9665 22.7522 38.3317 24.9969 39.2038 27.1772C41.4573 32.8109 42.6257 36.7552 43.5088 41.8689C43.5684 41.5077 43.6299 41.124 43.6914 40.7243C44.0461 38.4184 44.3959 35.6093 44.3959 33.5192C44.3959 29.3605 43.0068 24.708 40.6703 20.5023C39.5837 18.5464 37.2359 16.1483 34.7803 14.0173C33.3607 12.7854 31.9272 11.6615 30.7188 10.7851C31.2539 11.7499 31.758 12.872 32.1097 14.1029C32.267 14.6535 32.4014 15.3507 32.4992 16.1573Z" fill="#FAA21E"/>
<path fill-rule="evenodd" clip-rule="evenodd" d="M23.2213 5.43046C23.7239 4.74339 24.6346 3.49864 25.9533 4.15803C27.374 4.86841 27.374 6.52585 26.9005 7.94656C28.3212 9.05154 31.1626 12.4928 31.1626 17.4179C31.1626 23.5742 30.2154 30.2041 25.4798 35.4133C19.8831 41.5697 12.22 44.411 7.01077 45.8317C5.59008 44.0953 2.65398 38.9177 2.27512 32.0984C1.80156 23.5742 5.59008 15.5236 9.85216 11.2615C13.2618 7.85184 18.8499 5.57872 23.112 5.57872C23.146 5.53339 23.1824 5.4836 23.2213 5.43046ZM28.3212 5.57872V7.47298C28.556 7.70784 28.9027 8.09643 29.2988 8.61381C30.7186 9.48716 33.1054 11.2398 35.4357 13.2621C37.8992 15.3999 40.366 17.8953 41.5445 20.0166C43.9436 24.3351 45.3959 29.1538 45.3959 33.5192C45.3959 35.6913 45.0354 38.5649 44.6798 40.8763C44.5013 42.0361 44.3229 43.0619 44.1892 43.7977C44.1647 43.9322 44.1417 44.0571 44.1205 44.1713C45.4714 41.579 47.4151 37.2148 47.7373 33.9926C48.2109 29.257 48.6844 21.6799 43.0017 14.5765C38.4555 8.89368 31.3204 6.21014 28.3212 5.57872ZM42.4307 45.0784C41.7451 44.5577 40.9729 43.9841 40.1744 43.3909L40.1743 43.3908C39.4564 42.8576 38.7173 42.3085 38.0004 41.7678C36.4012 40.5614 34.911 39.3955 34.124 38.6084C33.343 37.8275 32.1432 36.386 31.0881 35.0345C30.5581 34.3557 30.0595 33.693 29.6624 33.1385C29.5282 32.9511 29.403 32.7725 29.2908 32.6075C28.6097 33.8275 27.8111 34.9762 26.9005 35.8869C27.8476 37.1102 31.6361 40.5752 33.5304 41.5696C35.2522 42.4736 38.9302 44.0818 42.4307 45.0784ZM29.8237 31.593C29.9589 31.8158 30.1815 32.1459 30.4754 32.5562C30.8626 33.0969 31.3526 33.7483 31.8763 34.4191C32.9286 35.767 34.0966 37.1669 34.8311 37.9013C35.5594 38.6297 36.9896 39.7527 38.6026 40.9694C39.3043 41.4986 40.0404 42.0456 40.7591 42.5795L40.7611 42.581C41.0868 42.823 41.4088 43.0622 41.7223 43.2959C39.4651 40.1214 36.2398 35.48 34.9905 33.2937C33.8302 31.2632 32.5031 28.4602 31.7193 26.5908C31.6922 26.6904 31.6645 26.7898 31.6361 26.8891C31.2496 28.242 30.6413 29.9398 29.8237 31.593ZM32.1217 24.8704C32.5991 26.2806 34.3665 30.1861 35.8588 32.7976C37.1066 34.9813 40.4087 39.7266 42.6674 42.8993C41.7784 37.4274 40.6284 33.4313 38.2753 27.5486C37.4426 25.4668 36.1243 23.2915 34.8426 21.3651C34.2486 20.4724 33.6664 19.6386 33.1471 18.895L33.147 18.8949L33.0286 18.7254C32.8992 18.54 32.7737 18.36 32.6533 18.1863C32.7235 20.1755 32.5881 22.5169 32.1217 24.8704ZM32.4992 16.1573C32.5122 16.1735 32.5243 16.1907 32.5355 16.2089C32.842 16.707 33.2984 17.3648 33.8486 18.153L33.9678 18.3236L33.9678 18.3237L33.9679 18.3238L33.9679 18.3238C34.4864 19.0663 35.0747 19.9087 35.6752 20.8112C36.9665 22.7522 38.3317 24.9969 39.2038 27.1772C41.4573 32.8109 42.6257 36.7552 43.5088 41.8689C43.5684 41.5077 43.6299 41.124 43.6914 40.7243C44.0461 38.4184 44.3959 35.6093 44.3959 33.5192C44.3959 29.3605 43.0068 24.708 40.6703 20.5023C39.5837 18.5464 37.2359 16.1483 34.7803 14.0173C33.3607 12.7854 31.9272 11.6615 30.7188 10.7851C31.2539 11.7499 31.758 12.872 32.1097 14.1029C32.267 14.6535 32.4014 15.3507 32.4992 16.1573Z" fill="black" fill-opacity="0.1"/>
<path d="M27.8998 20.4783C28.7349 13.7669 24.0911 9 23.615 9C19.3303 9.47826 15.0456 11.3913 11.713 15.2174C7.05244 20.5681 6 25.7391 6 32.4348C6 37.7913 7.42825 40.8841 8.38041 42C9.49127 41.6812 13.8794 41.0851 18.3781 37.6957C24.0911 33.3913 26.9476 28.1304 27.8998 20.4783Z" fill="#FAA21E"/>
<path d="M27.8998 20.4783C28.7349 13.7669 24.0911 9 23.615 9C19.3303 9.47826 15.0456 11.3913 11.713 15.2174C7.05244 20.5681 6 25.7391 6 32.4348C6 37.7913 7.42825 40.8841 8.38041 42C9.49127 41.6812 13.8794 41.0851 18.3781 37.6957C24.0911 33.3913 26.9476 28.1304 27.8998 20.4783Z" fill="white" fill-opacity="0.6"/>
<ellipse cx="16.885" cy="15.6996" rx="2.36782" ry="1.89426" transform="rotate(21.6956 16.885 15.6996)" fill="#FAA21E"/>
<ellipse cx="16.885" cy="15.6996" rx="2.36782" ry="1.89426" transform="rotate(21.6956 16.885 15.6996)" fill="black" fill-opacity="0.4"/>
<ellipse cx="23.2863" cy="18.0622" rx="2.36782" ry="1.89426" transform="rotate(21.6956 23.2863 18.0622)" fill="#FAA21E"/>
<ellipse cx="23.2863" cy="18.0622" rx="2.36782" ry="1.89426" transform="rotate(21.6956 23.2863 18.0622)" fill="black" fill-opacity="0.4"/>
<ellipse cx="9.91108" cy="32.3659" rx="2.36782" ry="1.89426" transform="rotate(21.6956 9.91108 32.3659)" fill="#FAA21E"/>
<ellipse cx="9.91108" cy="32.3659" rx="2.36782" ry="1.89426" transform="rotate(21.6956 9.91108 32.3659)" fill="black" fill-opacity="0.4"/>
<ellipse cx="16.3123" cy="34.7287" rx="2.36782" ry="1.89426" transform="rotate(21.6956 16.3123 34.7287)" fill="#FAA21E"/>
<ellipse cx="16.3123" cy="34.7287" rx="2.36782" ry="1.89426" transform="rotate(21.6956 16.3123 34.7287)" fill="black" fill-opacity="0.4"/>
<ellipse cx="13.7699" cy="20.4579" rx="3.46274" ry="1.89426" transform="rotate(21.6956 13.7699 20.4579)" fill="#FAA21E"/>
<ellipse cx="13.7699" cy="20.4579" rx="3.46274" ry="1.89426" transform="rotate(21.6956 13.7699 20.4579)" fill="black" fill-opacity="0.4"/>
<ellipse cx="22.0917" cy="24.1659" rx="3.24493" ry="1.89426" transform="rotate(21.6956 22.0917 24.1659)" fill="#FAA21E"/>
<ellipse cx="22.0917" cy="24.1659" rx="3.24493" ry="1.89426" transform="rotate(21.6956 22.0917 24.1659)" fill="black" fill-opacity="0.4"/>
<ellipse cx="10.9284" cy="26.1407" rx="3.46274" ry="1.89426" transform="rotate(21.6956 10.9284 26.1407)" fill="#FAA21E"/>
<ellipse cx="10.9284" cy="26.1407" rx="3.46274" ry="1.89426" transform="rotate(21.6956 10.9284 26.1407)" fill="black" fill-opacity="0.4"/>
<ellipse cx="19.2502" cy="29.8488" rx="3.24493" ry="1.89426" transform="rotate(21.6956 19.2502 29.8488)" fill="#FAA21E"/>
<ellipse cx="19.2502" cy="29.8488" rx="3.24493" ry="1.89426" transform="rotate(21.6956 19.2502 29.8488)" fill="black" fill-opacity="0.4"/>
</svg>
