<svg width="50" height="50" viewBox="0 0 50 50" fill="none" xmlns="http://www.w3.org/2000/svg">
<path d="M17.6393 34.3873C16.2851 35.07 10.9071 40.2501 8 43.1815C9.22404 44.2615 12.4984 46.514 15.8033 46.8843C19.9344 47.3471 23.6066 46.4214 27.7377 44.1072C30.8992 42.3361 34.6229 37.9358 36 35.7759C34.776 34.6959 31.2262 32.4433 26.8197 32.0731C21.3115 31.6102 19.4754 33.4616 17.6393 34.3873Z" fill="#2FC4A7"/>
<path d="M17.6393 34.3873C16.2851 35.07 10.9071 40.2501 8 43.1815C9.22404 44.2615 12.4984 46.514 15.8033 46.8843C19.9344 47.3471 23.6066 46.4214 27.7377 44.1072C30.8992 42.3361 34.6229 37.9358 36 35.7759C34.776 34.6959 31.2262 32.4433 26.8197 32.0731C21.3115 31.6102 19.4754 33.4616 17.6393 34.3873Z" fill="black" fill-opacity="0.2"/>
<path d="M15.6127 31.3607C14.93 32.7149 9.74992 38.0929 6.81853 41C5.73854 39.776 3.48599 36.5016 3.11571 33.1967C2.65286 29.0656 3.57856 25.3934 5.89282 21.2623C7.66388 18.1008 12.0642 14.3771 14.2241 13C15.3041 14.224 17.5567 17.7738 17.9269 22.1803C18.3898 27.6885 16.5384 29.5246 15.6127 31.3607Z" fill="#2FC4A7"/>
<path d="M15.6127 31.3607C14.93 32.7149 9.74992 38.0929 6.81853 41C5.73854 39.776 3.48599 36.5016 3.11571 33.1967C2.65286 29.0656 3.57856 25.3934 5.89282 21.2623C7.66388 18.1008 12.0642 14.3771 14.2241 13C15.3041 14.224 17.5567 17.7738 17.9269 22.1803C18.3898 27.6885 16.5384 29.5246 15.6127 31.3607Z" fill="black" fill-opacity="0.2"/>
<path fill-rule="evenodd" clip-rule="evenodd" d="M41.6411 8.34475C40.9456 7.64926 40.2502 6.88909 39.6031 6.1363C39.4028 6.28747 39.1972 6.44278 38.9873 6.60172C37.9061 7.42018 36.7083 8.33409 35.4935 9.27421C36.2737 10.1972 37.0557 11.0732 37.7545 11.772C38.5243 12.5418 39.5114 13.3758 40.5395 14.179C41.4507 13.0224 42.3421 11.8815 43.1503 10.8424C43.3279 10.614 43.5015 10.3906 43.6704 10.173C42.991 9.61671 42.3205 9.02418 41.6411 8.34475ZM41.3331 14.7875C42.2435 13.6319 43.1333 12.4931 43.9397 11.4563C44.1148 11.2312 44.2859 11.0109 44.4526 10.7962C44.9858 11.211 45.5286 11.6157 46.0891 12.0336L46.0892 12.0336L46.0893 12.0337L46.0894 12.0338C46.2845 12.1792 46.4817 12.3263 46.6814 12.4759C46.379 14.2691 45.8742 16.0543 45.2225 17.5111C44.2715 16.8957 42.8066 15.8972 41.3331 14.7875ZM44.7763 18.4133C43.8196 17.7977 42.2748 16.7495 40.7135 15.5727C39.5523 17.0411 38.3812 18.5055 37.3285 19.7921C37.1776 19.9765 37.0237 20.1621 36.8673 20.3485C38.5957 21.6347 40.2656 22.7212 41.3593 23.3828C42.81 21.4691 44.0668 19.6905 44.7508 18.4593C44.7593 18.444 44.7678 18.4287 44.7763 18.4133ZM40.7486 24.1819C39.6247 23.4978 37.9498 22.4037 36.2172 21.1112C34.9429 22.5846 33.5447 24.0825 32.2235 25.447C34.1254 26.7817 36.0057 27.9765 37.1683 28.6752C38.3279 27.2602 39.5813 25.6973 40.7486 24.1819ZM36.526 29.4556C35.3275 28.7308 33.4306 27.5216 31.5164 26.1722C31.1545 26.5409 30.8015 26.8968 30.462 27.2364C29.3966 28.3017 28.4608 29.2087 27.7912 29.8495C27.6686 29.9668 27.5549 30.0752 27.451 30.1741C30.2727 30.6989 33.0188 31.722 34.1853 32.2404C34.8235 31.4958 35.6342 30.5345 36.526 29.4556ZM24.8019 29.8736C23.8466 29.0347 22.7455 28.0363 21.8881 27.1789C20.9945 26.2853 20.173 25.1393 19.5514 24.1546C19.4397 25.9957 18.8373 28.391 18.4068 30.1032C18.2899 30.5679 18.1857 30.9824 18.1073 31.3217C19.1942 30.7783 21.8963 29.825 24.8019 29.8736ZM19.375 22.0572L19.4733 22.0081C19.5234 22.1083 19.5836 22.2241 19.653 22.3528C19.7242 22.2767 19.7995 22.1965 19.8787 22.1124C20.5478 21.4012 21.4925 20.4099 22.5957 19.2889C22.8865 18.9934 23.1886 18.6887 23.4997 18.3775C22.3072 16.6196 21.2406 14.7752 20.5102 13.4136C19.3697 14.4729 18.377 15.4334 17.648 16.1625C18.2137 17.2938 18.9099 19.8618 19.375 22.0572ZM46.8445 11.3493C47.0059 10.0115 47.0466 8.70687 46.9432 7.57094C46.8031 7.75339 46.6363 7.97038 46.4462 8.21727C46.0687 8.70762 45.5994 9.31593 45.0653 10.0058C45.587 10.4115 46.1231 10.8114 46.6853 11.2306L46.6865 11.2315C46.7389 11.2706 46.7916 11.3099 46.8445 11.3493ZM46.7714 6.4018C46.5616 5.4163 46.202 4.64478 45.6696 4.21884C45.129 3.7864 44.3086 3.45573 43.3041 3.23881C43.3673 3.32471 43.3673 3.32473 43.3673 3.32475L43.367 3.32493L43.366 3.32566L43.362 3.32864L43.3459 3.34051L43.2823 3.38745L43.0359 3.5696C42.8211 3.72858 42.5085 3.96039 42.1175 4.25152C41.648 4.60115 41.0655 5.03628 40.4037 5.53351C41.0222 6.25099 41.6853 6.97474 42.3482 7.63765C42.9951 8.28457 43.6321 8.84866 44.2832 9.3824C44.8131 8.69797 45.2788 8.09431 45.6538 7.60722C45.9658 7.20194 46.2151 6.87739 46.3863 6.6542L46.5826 6.39802L46.6334 6.33178L46.6462 6.31498L46.6494 6.31076L46.6502 6.30971L46.6504 6.30945C46.6505 6.30941 46.6505 6.30939 46.7714 6.4018ZM42.0711 3.03994C40.9568 2.91409 39.6996 2.90299 38.3911 3.01806C38.779 3.54675 39.2449 4.14543 39.7581 4.76779C40.4397 4.25549 41.0391 3.8077 41.5202 3.44946C41.7266 3.29583 41.9111 3.15867 42.0711 3.03994ZM37.2538 3.14861C37.702 3.78723 38.2914 4.55934 38.9585 5.36995C38.7712 5.51135 38.5794 5.6563 38.3837 5.8044C37.2928 6.63024 36.0816 7.55439 34.8527 8.50563C33.7103 7.11758 32.6229 5.70493 31.865 4.68825C33.5505 3.91087 35.4258 3.40754 37.2538 3.14861ZM30.9578 5.14409C31.7184 6.16894 32.8566 7.65305 34.0625 9.11916C32.7241 10.1619 31.3906 11.2185 30.1937 12.1978C29.9177 12.4236 29.6382 12.6574 29.3564 12.8977C28.0819 11.2043 26.9882 9.54397 26.2857 8.4001C27.9643 7.06171 29.6002 5.88623 30.9578 5.14409ZM25.5018 9.03413C26.2254 10.2046 27.3228 11.8629 28.5989 13.554C27.1173 14.857 25.6022 16.2978 24.2217 17.6601C23.0342 15.8927 21.9727 14.0397 21.2702 12.7135C22.5839 11.5131 24.0451 10.2285 25.5018 9.03413ZM22.5952 26.4718C21.6548 25.5314 20.784 24.2664 20.1738 23.2599C20.301 23.1236 20.4459 22.9688 20.607 22.7976C21.2721 22.0906 22.2116 21.1049 23.3084 19.9904C23.5581 19.7367 23.8158 19.4764 24.0802 19.2114C24.8614 20.3037 25.6801 21.3241 26.4818 22.1259C27.5639 23.2079 29.1003 24.4274 30.693 25.5834C30.372 25.9097 30.0583 26.2258 29.7549 26.5292C28.6957 27.5884 27.7652 28.4902 27.0998 29.1271C26.7685 29.4441 26.503 29.6953 26.3201 29.8676C25.2463 28.9456 23.7056 27.5822 22.5952 26.4718ZM31.3994 24.8604C32.729 23.4902 34.1383 21.9835 35.4196 20.5047C34.2145 19.5702 33.018 18.5559 31.9943 17.5322C31.0389 16.5768 30.0918 15.471 29.2101 14.3482C27.7185 15.6624 26.189 17.1205 24.7982 18.4963C25.5791 19.5986 26.3963 20.6261 27.1889 21.4188C28.2562 22.486 29.7996 23.7048 31.3994 24.8604ZM32.7014 16.8251C31.7656 15.8892 30.8342 14.7997 29.9662 13.692C30.2562 13.4443 30.5436 13.2036 30.827 12.9718C32.0245 11.992 33.3609 10.9331 34.7029 9.8879C35.5084 10.8418 36.3195 11.7513 37.0474 12.4791C37.8475 13.2792 38.8651 14.1394 39.92 14.9639C38.7645 16.425 37.6004 17.8806 36.5546 19.1588C36.3962 19.3524 36.2344 19.5474 36.0696 19.7434C34.8816 18.8239 33.7034 17.827 32.7014 16.8251Z" fill="#FAA21E"/>
<path fill-rule="evenodd" clip-rule="evenodd" d="M41.6411 8.34475C40.9456 7.64926 40.2502 6.88909 39.6031 6.1363C39.4028 6.28747 39.1972 6.44278 38.9873 6.60172C37.9061 7.42018 36.7083 8.33409 35.4935 9.27421C36.2737 10.1972 37.0557 11.0732 37.7545 11.772C38.5243 12.5418 39.5114 13.3758 40.5395 14.179C41.4507 13.0224 42.3421 11.8815 43.1503 10.8424C43.3279 10.614 43.5015 10.3906 43.6704 10.173C42.991 9.61671 42.3205 9.02418 41.6411 8.34475ZM41.3331 14.7875C42.2435 13.6319 43.1333 12.4931 43.9397 11.4563C44.1148 11.2312 44.2859 11.0109 44.4526 10.7962C44.9858 11.211 45.5286 11.6157 46.0891 12.0336L46.0892 12.0336L46.0893 12.0337L46.0894 12.0338C46.2845 12.1792 46.4817 12.3263 46.6814 12.4759C46.379 14.2691 45.8742 16.0543 45.2225 17.5111C44.2715 16.8957 42.8066 15.8972 41.3331 14.7875ZM44.7763 18.4133C43.8196 17.7977 42.2748 16.7495 40.7135 15.5727C39.5523 17.0411 38.3812 18.5055 37.3285 19.7921C37.1776 19.9765 37.0237 20.1621 36.8673 20.3485C38.5957 21.6347 40.2656 22.7212 41.3593 23.3828C42.81 21.4691 44.0668 19.6905 44.7508 18.4593C44.7593 18.444 44.7678 18.4287 44.7763 18.4133ZM40.7486 24.1819C39.6247 23.4978 37.9498 22.4037 36.2172 21.1112C34.9429 22.5846 33.5447 24.0825 32.2235 25.447C34.1254 26.7817 36.0057 27.9765 37.1683 28.6752C38.3279 27.2602 39.5813 25.6973 40.7486 24.1819ZM36.526 29.4556C35.3275 28.7308 33.4306 27.5216 31.5164 26.1722C31.1545 26.5409 30.8015 26.8968 30.462 27.2364C29.3966 28.3017 28.4608 29.2087 27.7912 29.8495C27.6686 29.9668 27.5549 30.0752 27.451 30.1741C30.2727 30.6989 33.0188 31.722 34.1853 32.2404C34.8235 31.4958 35.6342 30.5345 36.526 29.4556ZM24.8019 29.8736C23.8466 29.0347 22.7455 28.0363 21.8881 27.1789C20.9945 26.2853 20.173 25.1393 19.5514 24.1546C19.4397 25.9957 18.8373 28.391 18.4068 30.1032C18.2899 30.5679 18.1857 30.9824 18.1073 31.3217C19.1942 30.7783 21.8963 29.825 24.8019 29.8736ZM19.375 22.0572L19.4733 22.0081C19.5234 22.1083 19.5836 22.2241 19.653 22.3528C19.7242 22.2767 19.7995 22.1965 19.8787 22.1124C20.5478 21.4012 21.4925 20.4099 22.5957 19.2889C22.8865 18.9934 23.1886 18.6887 23.4997 18.3775C22.3072 16.6196 21.2406 14.7752 20.5102 13.4136C19.3697 14.4729 18.377 15.4334 17.648 16.1625C18.2137 17.2938 18.9099 19.8618 19.375 22.0572ZM46.8445 11.3493C47.0059 10.0115 47.0466 8.70687 46.9432 7.57094C46.8031 7.75339 46.6363 7.97038 46.4462 8.21727C46.0687 8.70762 45.5994 9.31593 45.0653 10.0058C45.587 10.4115 46.1231 10.8114 46.6853 11.2306L46.6865 11.2315C46.7389 11.2706 46.7916 11.3099 46.8445 11.3493ZM46.7714 6.4018C46.5616 5.4163 46.202 4.64478 45.6696 4.21884C45.129 3.7864 44.3086 3.45573 43.3041 3.23881C43.3673 3.32471 43.3673 3.32473 43.3673 3.32475L43.367 3.32493L43.366 3.32566L43.362 3.32864L43.3459 3.34051L43.2823 3.38745L43.0359 3.5696C42.8211 3.72858 42.5085 3.96039 42.1175 4.25152C41.648 4.60115 41.0655 5.03628 40.4037 5.53351C41.0222 6.25099 41.6853 6.97474 42.3482 7.63765C42.9951 8.28457 43.6321 8.84866 44.2832 9.3824C44.8131 8.69797 45.2788 8.09431 45.6538 7.60722C45.9658 7.20194 46.2151 6.87739 46.3863 6.6542L46.5826 6.39802L46.6334 6.33178L46.6462 6.31498L46.6494 6.31076L46.6502 6.30971L46.6504 6.30945C46.6505 6.30941 46.6505 6.30939 46.7714 6.4018ZM42.0711 3.03994C40.9568 2.91409 39.6996 2.90299 38.3911 3.01806C38.779 3.54675 39.2449 4.14543 39.7581 4.76779C40.4397 4.25549 41.0391 3.8077 41.5202 3.44946C41.7266 3.29583 41.9111 3.15867 42.0711 3.03994ZM37.2538 3.14861C37.702 3.78723 38.2914 4.55934 38.9585 5.36995C38.7712 5.51135 38.5794 5.6563 38.3837 5.8044C37.2928 6.63024 36.0816 7.55439 34.8527 8.50563C33.7103 7.11758 32.6229 5.70493 31.865 4.68825C33.5505 3.91087 35.4258 3.40754 37.2538 3.14861ZM30.9578 5.14409C31.7184 6.16894 32.8566 7.65305 34.0625 9.11916C32.7241 10.1619 31.3906 11.2185 30.1937 12.1978C29.9177 12.4236 29.6382 12.6574 29.3564 12.8977C28.0819 11.2043 26.9882 9.54397 26.2857 8.4001C27.9643 7.06171 29.6002 5.88623 30.9578 5.14409ZM25.5018 9.03413C26.2254 10.2046 27.3228 11.8629 28.5989 13.554C27.1173 14.857 25.6022 16.2978 24.2217 17.6601C23.0342 15.8927 21.9727 14.0397 21.2702 12.7135C22.5839 11.5131 24.0451 10.2285 25.5018 9.03413ZM22.5952 26.4718C21.6548 25.5314 20.784 24.2664 20.1738 23.2599C20.301 23.1236 20.4459 22.9688 20.607 22.7976C21.2721 22.0906 22.2116 21.1049 23.3084 19.9904C23.5581 19.7367 23.8158 19.4764 24.0802 19.2114C24.8614 20.3037 25.6801 21.3241 26.4818 22.1259C27.5639 23.2079 29.1003 24.4274 30.693 25.5834C30.372 25.9097 30.0583 26.2258 29.7549 26.5292C28.6957 27.5884 27.7652 28.4902 27.0998 29.1271C26.7685 29.4441 26.503 29.6953 26.3201 29.8676C25.2463 28.9456 23.7056 27.5822 22.5952 26.4718ZM31.3994 24.8604C32.729 23.4902 34.1383 21.9835 35.4196 20.5047C34.2145 19.5702 33.018 18.5559 31.9943 17.5322C31.0389 16.5768 30.0918 15.471 29.2101 14.3482C27.7185 15.6624 26.189 17.1205 24.7982 18.4963C25.5791 19.5986 26.3963 20.6261 27.1889 21.4188C28.2562 22.486 29.7996 23.7048 31.3994 24.8604ZM32.7014 16.8251C31.7656 15.8892 30.8342 14.7997 29.9662 13.692C30.2562 13.4443 30.5436 13.2036 30.827 12.9718C32.0245 11.992 33.3609 10.9331 34.7029 9.8879C35.5084 10.8418 36.3195 11.7513 37.0474 12.4791C37.8475 13.2792 38.8651 14.1394 39.92 14.9639C38.7645 16.425 37.6004 17.8806 36.5546 19.1588C36.3962 19.3524 36.2344 19.5474 36.0696 19.7434C34.8816 18.8239 33.7034 17.827 32.7014 16.8251Z" fill="white" fill-opacity="0.2"/>
</svg>
