<svg width="51" height="51" viewBox="0 0 51 51" fill="none" xmlns="http://www.w3.org/2000/svg">
<line x1="25.5338" y1="8.74935" x2="25.5338" y2="3.30697" stroke="#FAA21E" stroke-width="0.992606" stroke-linecap="round"/>
<line x1="25.5338" y1="8.74935" x2="25.5338" y2="3.30697" stroke="white" stroke-opacity="0.4" stroke-width="0.992606" stroke-linecap="round"/>
<line x1="25.5338" y1="48.5293" x2="25.5338" y2="43.087" stroke="#FAA21E" stroke-width="0.992606" stroke-linecap="round"/>
<line x1="25.5338" y1="48.5293" x2="25.5338" y2="43.087" stroke="white" stroke-opacity="0.4" stroke-width="0.992606" stroke-linecap="round"/>
<line x1="47.873" y1="25.9525" x2="42.455" y2="25.9525" stroke="#FAA21E" stroke-width="0.992606" stroke-linecap="round"/>
<line x1="47.873" y1="25.9525" x2="42.455" y2="25.9525" stroke="white" stroke-opacity="0.4" stroke-width="0.992606" stroke-linecap="round"/>
<line x1="0.496303" y1="-0.496303" x2="5.9327" y2="-0.496303" transform="matrix(-0.49369 0.869638 -0.868018 -0.496532 36.3911 5.4433)" stroke="#FAA21E" stroke-width="0.992606" stroke-linecap="round"/>
<line x1="0.496303" y1="-0.496303" x2="5.9327" y2="-0.496303" transform="matrix(-0.49369 0.869638 -0.868018 -0.496532 36.3911 5.4433)" stroke="white" stroke-opacity="0.4" stroke-width="0.992606" stroke-linecap="round"/>
<line x1="0.496303" y1="-0.496303" x2="5.92043" y2="-0.496303" transform="matrix(-0.849492 0.527602 -0.524708 -0.851282 45.1923 13.4341)" stroke="#FAA21E" stroke-width="0.992606" stroke-linecap="round"/>
<line x1="0.496303" y1="-0.496303" x2="5.92043" y2="-0.496303" transform="matrix(-0.849492 0.527602 -0.524708 -0.851282 45.1923 13.4341)" stroke="white" stroke-opacity="0.4" stroke-width="0.992606" stroke-linecap="round"/>
<line x1="0.496303" y1="-0.496303" x2="5.92028" y2="-0.496303" transform="matrix(-0.876356 -0.481664 0.478853 -0.877895 46.1238 37.0121)" stroke="#FAA21E" stroke-width="0.992606" stroke-linecap="round"/>
<line x1="0.496303" y1="-0.496303" x2="5.92028" y2="-0.496303" transform="matrix(-0.876356 -0.481664 0.478853 -0.877895 46.1238 37.0121)" stroke="white" stroke-opacity="0.4" stroke-width="0.992606" stroke-linecap="round"/>
<line x1="0.496303" y1="-0.496303" x2="5.93155" y2="-0.496303" transform="matrix(-0.539091 -0.842248 0.840378 -0.542001 37.9045 45.5177)" stroke="#FAA21E" stroke-width="0.992606" stroke-linecap="round"/>
<line x1="0.496303" y1="-0.496303" x2="5.93155" y2="-0.496303" transform="matrix(-0.539091 -0.842248 0.840378 -0.542001 37.9045 45.5177)" stroke="white" stroke-opacity="0.4" stroke-width="0.992606" stroke-linecap="round"/>
<line x1="3.11752" y1="26.0093" x2="8.53547" y2="26.0093" stroke="#FAA21E" stroke-width="0.992606" stroke-linecap="round"/>
<line x1="3.11752" y1="26.0093" x2="8.53547" y2="26.0093" stroke="white" stroke-opacity="0.4" stroke-width="0.992606" stroke-linecap="round"/>
<line x1="0.496303" y1="-0.496303" x2="5.9327" y2="-0.496303" transform="matrix(0.49369 -0.869638 0.868018 0.496533 14.5995 46.1028)" stroke="#FAA21E" stroke-width="0.992606" stroke-linecap="round"/>
<line x1="0.496303" y1="-0.496303" x2="5.9327" y2="-0.496303" transform="matrix(0.49369 -0.869638 0.868018 0.496533 14.5995 46.1028)" stroke="white" stroke-opacity="0.4" stroke-width="0.992606" stroke-linecap="round"/>
<line x1="0.496303" y1="-0.496303" x2="5.92043" y2="-0.496303" transform="matrix(0.849492 -0.527602 0.524708 0.851282 5.79822 38.1119)" stroke="#FAA21E" stroke-width="0.992606" stroke-linecap="round"/>
<line x1="0.496303" y1="-0.496303" x2="5.92043" y2="-0.496303" transform="matrix(0.849492 -0.527602 0.524708 0.851282 5.79822 38.1119)" stroke="white" stroke-opacity="0.4" stroke-width="0.992606" stroke-linecap="round"/>
<line x1="0.496303" y1="-0.496303" x2="5.92028" y2="-0.496303" transform="matrix(0.876356 0.481664 -0.478854 0.877895 5.27631 14.9976)" stroke="#FAA21E" stroke-width="0.992606" stroke-linecap="round"/>
<line x1="0.496303" y1="-0.496303" x2="5.92028" y2="-0.496303" transform="matrix(0.876356 0.481664 -0.478854 0.877895 5.27631 14.9976)" stroke="white" stroke-opacity="0.4" stroke-width="0.992606" stroke-linecap="round"/>
<line x1="0.496303" y1="-0.496303" x2="5.93155" y2="-0.496303" transform="matrix(0.539091 0.842248 -0.840378 0.542001 13.0859 6.0282)" stroke="#FAA21E" stroke-width="0.992606" stroke-linecap="round"/>
<line x1="0.496303" y1="-0.496303" x2="5.93155" y2="-0.496303" transform="matrix(0.539091 0.842248 -0.840378 0.542001 13.0859 6.0282)" stroke="white" stroke-opacity="0.4" stroke-width="0.992606" stroke-linecap="round"/>
<line x1="0.496303" y1="-0.496303" x2="8.68672" y2="-0.496303" transform="matrix(0.268027 -0.963411 0.962881 0.269925 30.5211 9.90262)" stroke="#FAA21E" stroke-width="0.992606" stroke-linecap="round"/>
<line x1="0.496303" y1="-0.496303" x2="8.68672" y2="-0.496303" transform="matrix(0.268027 -0.963411 0.962881 0.269925 30.5211 9.90262)" stroke="white" stroke-opacity="0.4" stroke-width="0.992606" stroke-linecap="round"/>
<line x1="0.496303" y1="-0.496303" x2="8.68672" y2="-0.496303" transform="matrix(0.268027 -0.963411 0.962881 0.269925 19.2303 50.8526)" stroke="#FAA21E" stroke-width="0.992606" stroke-linecap="round"/>
<line x1="0.496303" y1="-0.496303" x2="8.68672" y2="-0.496303" transform="matrix(0.268027 -0.963411 0.962881 0.269925 19.2303 50.8526)" stroke="white" stroke-opacity="0.4" stroke-width="0.992606" stroke-linecap="round"/>
<line x1="0.496303" y1="-0.496303" x2="8.65707" y2="-0.496303" transform="matrix(-0.962882 -0.269925 0.268027 -0.963411 50.4808 32.1913)" stroke="#FAA21E" stroke-width="0.992606" stroke-linecap="round"/>
<line x1="0.496303" y1="-0.496303" x2="8.65707" y2="-0.496303" transform="matrix(-0.962882 -0.269925 0.268027 -0.963411 50.4808 32.1913)" stroke="white" stroke-opacity="0.4" stroke-width="0.992606" stroke-linecap="round"/>
<line x1="0.496303" y1="-0.496303" x2="8.67165" y2="-0.496303" transform="matrix(-0.709218 0.704989 -0.702287 -0.711894 43.5072 7.1983)" stroke="#FAA21E" stroke-width="0.992606" stroke-linecap="round"/>
<line x1="0.496303" y1="-0.496303" x2="8.67165" y2="-0.496303" transform="matrix(-0.709218 0.704989 -0.702287 -0.711894 43.5072 7.1983)" stroke="white" stroke-opacity="0.4" stroke-width="0.992606" stroke-linecap="round"/>
<line x1="0.496303" y1="-0.496303" x2="8.65725" y2="-0.496303" transform="matrix(-0.960289 0.279008 -0.277057 -0.960853 50.1658 18.6056)" stroke="#FAA21E" stroke-width="0.992606" stroke-linecap="round"/>
<line x1="0.496303" y1="-0.496303" x2="8.65725" y2="-0.496303" transform="matrix(-0.960289 0.279008 -0.277057 -0.960853 50.1658 18.6056)" stroke="white" stroke-opacity="0.4" stroke-width="0.992606" stroke-linecap="round"/>
<line x1="0.496303" y1="-0.496303" x2="8.6714" y2="-0.496303" transform="matrix(-0.714297 -0.699843 0.697122 -0.716952 44.1364 43.7415)" stroke="#FAA21E" stroke-width="0.992606" stroke-linecap="round"/>
<line x1="0.496303" y1="-0.496303" x2="8.6714" y2="-0.496303" transform="matrix(-0.714297 -0.699843 0.697122 -0.716952 44.1364 43.7415)" stroke="white" stroke-opacity="0.4" stroke-width="0.992606" stroke-linecap="round"/>
<line x1="0.496303" y1="-0.496303" x2="8.68622" y2="-0.496303" transform="matrix(-0.293312 -0.956017 0.955387 -0.295357 32.9965 50.4916)" stroke="#FAA21E" stroke-width="0.992606" stroke-linecap="round"/>
<line x1="0.496303" y1="-0.496303" x2="8.68622" y2="-0.496303" transform="matrix(-0.293312 -0.956017 0.955387 -0.295357 32.9965 50.4916)" stroke="white" stroke-opacity="0.4" stroke-width="0.992606" stroke-linecap="round"/>
<line x1="0.496303" y1="-0.496303" x2="8.65707" y2="-0.496303" transform="matrix(0.962881 0.269925 -0.268027 0.963412 0.581482 19.4831)" stroke="#FAA21E" stroke-width="0.992606" stroke-linecap="round"/>
<line x1="0.496303" y1="-0.496303" x2="8.65707" y2="-0.496303" transform="matrix(0.962881 0.269925 -0.268027 0.963412 0.581482 19.4831)" stroke="white" stroke-opacity="0.4" stroke-width="0.992606" stroke-linecap="round"/>
<line x1="0.496303" y1="-0.496303" x2="8.67165" y2="-0.496303" transform="matrix(0.709218 -0.704989 0.702287 0.711894 7.56738 44.3688)" stroke="#FAA21E" stroke-width="0.992606" stroke-linecap="round"/>
<line x1="0.496303" y1="-0.496303" x2="8.67165" y2="-0.496303" transform="matrix(0.709218 -0.704989 0.702287 0.711894 7.56738 44.3688)" stroke="white" stroke-opacity="0.4" stroke-width="0.992606" stroke-linecap="round"/>
<line x1="0.496303" y1="-0.496303" x2="8.65726" y2="-0.496303" transform="matrix(0.960289 -0.279008 0.277057 0.960853 0.872864 33.1521)" stroke="#FAA21E" stroke-width="0.992606" stroke-linecap="round"/>
<line x1="0.496303" y1="-0.496303" x2="8.65726" y2="-0.496303" transform="matrix(0.960289 -0.279008 0.277057 0.960853 0.872864 33.1521)" stroke="white" stroke-opacity="0.4" stroke-width="0.992606" stroke-linecap="round"/>
<line x1="0.496303" y1="-0.496303" x2="8.6714" y2="-0.496303" transform="matrix(0.714297 0.699843 -0.697122 0.716952 6.992 8.07559)" stroke="#FAA21E" stroke-width="0.992606" stroke-linecap="round"/>
<line x1="0.496303" y1="-0.496303" x2="8.6714" y2="-0.496303" transform="matrix(0.714297 0.699843 -0.697122 0.716952 6.992 8.07559)" stroke="white" stroke-opacity="0.4" stroke-width="0.992606" stroke-linecap="round"/>
<line x1="0.496303" y1="-0.496303" x2="8.68622" y2="-0.496303" transform="matrix(0.293243 0.956038 -0.955366 0.295425 18.0648 1.05562)" stroke="#FAA21E" stroke-width="0.992606" stroke-linecap="round"/>
<line x1="0.496303" y1="-0.496303" x2="8.68622" y2="-0.496303" transform="matrix(0.293243 0.956038 -0.955366 0.295425 18.0648 1.05562)" stroke="white" stroke-opacity="0.4" stroke-width="0.992606" stroke-linecap="round"/>
<path d="M36.4708 13.9556L36.9677 15.5455L37.4253 13.9439C37.5672 13.4473 37.9167 12.8139 38.4144 12.2126C38.91 11.6137 39.5222 11.0834 40.1579 10.7656C40.5576 10.5658 41.1792 10.4624 41.7344 10.6139C42.2535 10.7554 42.7355 11.1217 42.9389 11.9353C43.0105 12.2213 42.9877 12.7825 42.8502 13.5861C42.7173 14.3635 42.4919 15.2916 42.2202 16.2633C41.677 18.2054 40.9597 20.2836 40.465 21.6026L40.3888 21.806L40.4859 22.0003L40.7613 22.5511L26.738 29.5627L22.9591 20.5879L22.9454 20.5553L22.9272 20.525C22.1856 19.2889 21.0723 17.3097 20.1463 15.396C19.6831 14.4387 19.2707 13.5058 18.9751 12.6948C18.6735 11.8674 18.5148 11.2223 18.5148 10.8183C18.5148 9.55981 18.5198 8.28146 18.9803 7.0727C19.43 5.89235 20.3331 4.73738 22.2246 3.79162C24.1662 2.82083 25.6921 2.48258 27.0665 2.59712C28.4428 2.71181 29.7305 3.28548 31.1903 4.25869C31.7134 4.60737 32.2608 5.20564 32.8068 5.9855C33.3485 6.75926 33.8684 7.68187 34.3451 8.64764C35.2988 10.5796 36.0619 12.647 36.4708 13.9556Z" fill="#FEFEFE" stroke="#FAA21E" stroke-width="0.996296"/>
<path d="M21.0056 3.84445C21.9324 3.22658 24.4926 2.35001 24.4926 2.35001C23.9945 3.0142 22.9982 4.3426 22.5 5.33889C21.8699 6.59912 21.0056 8.74509 21.0056 10.3204C21.0056 11.8148 22.9982 14.3056 25.4889 20.7815C27.4815 25.9622 30.8025 31.5747 31.9648 33.7333L28.9759 35.2278L26.9833 31.2426L24.9907 26.7593L22.5 20.7815C21.5037 18.7889 18.0167 13.4494 18.0167 9.82223C18.0167 7.33149 19.08 5.12814 21.0056 3.84445Z" fill="black" fill-opacity="0.1"/>
<path d="M43.252 27.5328L29.1987 34.5594L27.1535 30.4691L41.2068 23.4424L43.252 27.5328Z" fill="#FEFEFE" stroke="#FAA21E" stroke-width="0.996296"/>
<path d="M34.3545 34.839L36.9178 37.4436L25.9469 48.7058L22.6793 45.5227L32.7558 35.6383L34.3545 34.839Z" fill="#FEFEFE" stroke="#FAA21E" stroke-width="0.996296"/>
<path d="M21.3578 44.34L21.197 44.1792L20.9701 44.1954C19.8387 44.2762 18.0447 44.2526 16.3762 44.1576C15.5444 44.1103 14.7515 44.0456 14.0957 43.9687C13.426 43.8902 12.9393 43.8032 12.6946 43.7216C11.9621 43.4775 11.3964 43.23 10.9619 42.8979C10.5409 42.576 10.2259 42.1613 10.0207 41.5459C9.91427 41.2265 9.89938 40.9955 9.92424 40.8264C9.94836 40.6623 10.0139 40.5279 10.1176 40.4035C10.3489 40.1259 10.7403 39.9208 11.2652 39.6584L11.2654 39.6583C11.2656 39.6582 11.2658 39.6581 11.266 39.658C11.7072 39.4375 12.4107 39.317 13.1626 39.2598C13.8158 39.2101 14.4465 39.2115 14.8754 39.2124C14.9295 39.2125 14.9804 39.2127 15.0278 39.2127H16.4797L15.3336 38.3213C14.5934 37.7456 13.4062 36.7809 12.257 35.7636C11.0983 34.7377 10.0126 33.6881 9.44852 32.936C8.73347 31.9826 8.01123 30.6604 7.52999 29.2167C7.0479 27.7704 6.81916 26.2371 7.05063 24.8482C7.27771 23.4858 8.2042 21.8407 9.62711 20.5956C11.0416 19.3579 12.9002 18.5552 14.9728 18.7855C18.3554 19.1614 20.4463 21.1176 21.0672 22.0214L28.0238 37.4252L28.2371 37.8974L28.7006 37.6657L29.9401 37.0459L22.0019 44.9841L21.3578 44.34Z" fill="#FEFEFE" stroke="#FAA21E" stroke-width="0.996296"/>
<path d="M29.2341 12.9289C28.3709 12.6026 27.6205 11.3947 26.9027 10.8153C26.8977 11.7377 27.4323 12.864 27.0659 13.9579C26.7383 14.9363 26.1551 15.7703 25.2491 16.6603C26.5114 16.5212 27.6282 16.6352 28.4915 16.9615C29.3548 17.2878 30.2256 18.4385 30.8229 19.0751C30.648 18.0847 30.332 16.9109 30.6597 15.9324C31.026 14.8385 31.5706 14.1201 32.4765 13.2301C31.5755 13.1977 30.3133 13.3368 29.2341 12.9289Z" fill="#FAA21E"/>
<path d="M17.333 27.6678C16.4106 27.64 15.3082 26.7417 14.441 26.4272C14.7363 27.3011 15.608 28.1924 15.6173 29.346C15.6256 30.3778 15.3453 31.3561 14.778 32.4923C15.9265 31.9503 17.0196 31.6949 17.9421 31.7227C18.8646 31.7506 20.0623 32.5556 20.8341 32.9633C20.3467 32.0836 19.6661 31.0764 19.6578 30.0446C19.6485 28.891 19.9298 28.0345 20.4971 26.8983C19.6346 27.1606 18.4861 27.7026 17.333 27.6678Z" fill="#FAA21E"/>
</svg>
