<svg width="50" height="50" viewBox="0 0 50 50" fill="none" xmlns="http://www.w3.org/2000/svg">
<line x1="24.9523" y1="7.89376" x2="24.9523" y2="2.45138" stroke="#FAA21E" stroke-width="0.992606" stroke-linecap="round"/>
<line x1="24.9523" y1="7.89376" x2="24.9523" y2="2.45138" stroke="white" stroke-opacity="0.4" stroke-width="0.992606" stroke-linecap="round"/>
<line x1="24.9523" y1="47.6737" x2="24.9523" y2="42.2314" stroke="#FAA21E" stroke-width="0.992606" stroke-linecap="round"/>
<line x1="24.9523" y1="47.6737" x2="24.9523" y2="42.2314" stroke="white" stroke-opacity="0.4" stroke-width="0.992606" stroke-linecap="round"/>
<line x1="47.2915" y1="25.0969" x2="41.8735" y2="25.0969" stroke="#FAA21E" stroke-width="0.992606" stroke-linecap="round"/>
<line x1="47.2915" y1="25.0969" x2="41.8735" y2="25.0969" stroke="white" stroke-opacity="0.4" stroke-width="0.992606" stroke-linecap="round"/>
<line x1="0.496303" y1="-0.496303" x2="5.9327" y2="-0.496303" transform="matrix(-0.49369 0.869638 -0.868018 -0.496532 35.8096 4.58771)" stroke="#FAA21E" stroke-width="0.992606" stroke-linecap="round"/>
<line x1="0.496303" y1="-0.496303" x2="5.9327" y2="-0.496303" transform="matrix(-0.49369 0.869638 -0.868018 -0.496532 35.8096 4.58771)" stroke="white" stroke-opacity="0.4" stroke-width="0.992606" stroke-linecap="round"/>
<line x1="0.496303" y1="-0.496303" x2="5.92043" y2="-0.496303" transform="matrix(-0.849492 0.527602 -0.524708 -0.851282 44.6108 12.5785)" stroke="#FAA21E" stroke-width="0.992606" stroke-linecap="round"/>
<line x1="0.496303" y1="-0.496303" x2="5.92043" y2="-0.496303" transform="matrix(-0.849492 0.527602 -0.524708 -0.851282 44.6108 12.5785)" stroke="white" stroke-opacity="0.4" stroke-width="0.992606" stroke-linecap="round"/>
<line x1="0.496303" y1="-0.496303" x2="5.92028" y2="-0.496303" transform="matrix(-0.876356 -0.481664 0.478853 -0.877895 45.5423 36.1565)" stroke="#FAA21E" stroke-width="0.992606" stroke-linecap="round"/>
<line x1="0.496303" y1="-0.496303" x2="5.92028" y2="-0.496303" transform="matrix(-0.876356 -0.481664 0.478853 -0.877895 45.5423 36.1565)" stroke="white" stroke-opacity="0.4" stroke-width="0.992606" stroke-linecap="round"/>
<line x1="0.496303" y1="-0.496303" x2="5.93155" y2="-0.496303" transform="matrix(-0.539091 -0.842248 0.840378 -0.542001 37.323 44.6622)" stroke="#FAA21E" stroke-width="0.992606" stroke-linecap="round"/>
<line x1="0.496303" y1="-0.496303" x2="5.93155" y2="-0.496303" transform="matrix(-0.539091 -0.842248 0.840378 -0.542001 37.323 44.6622)" stroke="white" stroke-opacity="0.4" stroke-width="0.992606" stroke-linecap="round"/>
<line x1="2.53604" y1="25.1537" x2="7.95399" y2="25.1537" stroke="#FAA21E" stroke-width="0.992606" stroke-linecap="round"/>
<line x1="2.53604" y1="25.1537" x2="7.95399" y2="25.1537" stroke="white" stroke-opacity="0.4" stroke-width="0.992606" stroke-linecap="round"/>
<line x1="0.496303" y1="-0.496303" x2="5.9327" y2="-0.496303" transform="matrix(0.49369 -0.869638 0.868018 0.496533 14.018 45.2472)" stroke="#FAA21E" stroke-width="0.992606" stroke-linecap="round"/>
<line x1="0.496303" y1="-0.496303" x2="5.9327" y2="-0.496303" transform="matrix(0.49369 -0.869638 0.868018 0.496533 14.018 45.2472)" stroke="white" stroke-opacity="0.4" stroke-width="0.992606" stroke-linecap="round"/>
<line x1="0.496303" y1="-0.496303" x2="5.92043" y2="-0.496303" transform="matrix(0.849492 -0.527602 0.524708 0.851282 5.21674 37.2563)" stroke="#FAA21E" stroke-width="0.992606" stroke-linecap="round"/>
<line x1="0.496303" y1="-0.496303" x2="5.92043" y2="-0.496303" transform="matrix(0.849492 -0.527602 0.524708 0.851282 5.21674 37.2563)" stroke="white" stroke-opacity="0.4" stroke-width="0.992606" stroke-linecap="round"/>
<line x1="0.496303" y1="-0.496303" x2="5.92028" y2="-0.496303" transform="matrix(0.876356 0.481664 -0.478854 0.877895 4.69482 14.142)" stroke="#FAA21E" stroke-width="0.992606" stroke-linecap="round"/>
<line x1="0.496303" y1="-0.496303" x2="5.92028" y2="-0.496303" transform="matrix(0.876356 0.481664 -0.478854 0.877895 4.69482 14.142)" stroke="white" stroke-opacity="0.4" stroke-width="0.992606" stroke-linecap="round"/>
<line x1="0.496303" y1="-0.496303" x2="5.93155" y2="-0.496303" transform="matrix(0.539091 0.842248 -0.840378 0.542001 12.5045 5.17261)" stroke="#FAA21E" stroke-width="0.992606" stroke-linecap="round"/>
<line x1="0.496303" y1="-0.496303" x2="5.93155" y2="-0.496303" transform="matrix(0.539091 0.842248 -0.840378 0.542001 12.5045 5.17261)" stroke="white" stroke-opacity="0.4" stroke-width="0.992606" stroke-linecap="round"/>
<line x1="0.496303" y1="-0.496303" x2="8.68672" y2="-0.496303" transform="matrix(0.268027 -0.963411 0.962881 0.269925 29.9396 9.04703)" stroke="#FAA21E" stroke-width="0.992606" stroke-linecap="round"/>
<line x1="0.496303" y1="-0.496303" x2="8.68672" y2="-0.496303" transform="matrix(0.268027 -0.963411 0.962881 0.269925 29.9396 9.04703)" stroke="white" stroke-opacity="0.4" stroke-width="0.992606" stroke-linecap="round"/>
<line x1="0.496303" y1="-0.496303" x2="8.68672" y2="-0.496303" transform="matrix(0.268027 -0.963411 0.962881 0.269925 18.6489 49.9971)" stroke="#FAA21E" stroke-width="0.992606" stroke-linecap="round"/>
<line x1="0.496303" y1="-0.496303" x2="8.68672" y2="-0.496303" transform="matrix(0.268027 -0.963411 0.962881 0.269925 18.6489 49.9971)" stroke="white" stroke-opacity="0.4" stroke-width="0.992606" stroke-linecap="round"/>
<line x1="0.496303" y1="-0.496303" x2="8.65707" y2="-0.496303" transform="matrix(-0.962882 -0.269925 0.268027 -0.963411 49.8993 31.3357)" stroke="#FAA21E" stroke-width="0.992606" stroke-linecap="round"/>
<line x1="0.496303" y1="-0.496303" x2="8.65707" y2="-0.496303" transform="matrix(-0.962882 -0.269925 0.268027 -0.963411 49.8993 31.3357)" stroke="white" stroke-opacity="0.4" stroke-width="0.992606" stroke-linecap="round"/>
<line x1="0.496303" y1="-0.496303" x2="8.67165" y2="-0.496303" transform="matrix(-0.709218 0.704989 -0.702287 -0.711894 42.9257 6.34271)" stroke="#FAA21E" stroke-width="0.992606" stroke-linecap="round"/>
<line x1="0.496303" y1="-0.496303" x2="8.67165" y2="-0.496303" transform="matrix(-0.709218 0.704989 -0.702287 -0.711894 42.9257 6.34271)" stroke="white" stroke-opacity="0.4" stroke-width="0.992606" stroke-linecap="round"/>
<line x1="0.496303" y1="-0.496303" x2="8.65725" y2="-0.496303" transform="matrix(-0.960289 0.279008 -0.277057 -0.960853 49.5843 17.75)" stroke="#FAA21E" stroke-width="0.992606" stroke-linecap="round"/>
<line x1="0.496303" y1="-0.496303" x2="8.65725" y2="-0.496303" transform="matrix(-0.960289 0.279008 -0.277057 -0.960853 49.5843 17.75)" stroke="white" stroke-opacity="0.4" stroke-width="0.992606" stroke-linecap="round"/>
<line x1="0.496303" y1="-0.496303" x2="8.6714" y2="-0.496303" transform="matrix(-0.714297 -0.699843 0.697122 -0.716952 43.5549 42.8859)" stroke="#FAA21E" stroke-width="0.992606" stroke-linecap="round"/>
<line x1="0.496303" y1="-0.496303" x2="8.6714" y2="-0.496303" transform="matrix(-0.714297 -0.699843 0.697122 -0.716952 43.5549 42.8859)" stroke="white" stroke-opacity="0.4" stroke-width="0.992606" stroke-linecap="round"/>
<line x1="0.496303" y1="-0.496303" x2="8.68622" y2="-0.496303" transform="matrix(-0.293312 -0.956017 0.955387 -0.295357 32.415 49.636)" stroke="#FAA21E" stroke-width="0.992606" stroke-linecap="round"/>
<line x1="0.496303" y1="-0.496303" x2="8.68622" y2="-0.496303" transform="matrix(-0.293312 -0.956017 0.955387 -0.295357 32.415 49.636)" stroke="white" stroke-opacity="0.4" stroke-width="0.992606" stroke-linecap="round"/>
<line x1="0.496303" y1="-0.496303" x2="8.65707" y2="-0.496303" transform="matrix(0.962881 0.269925 -0.268027 0.963412 0 18.6275)" stroke="#FAA21E" stroke-width="0.992606" stroke-linecap="round"/>
<line x1="0.496303" y1="-0.496303" x2="8.65707" y2="-0.496303" transform="matrix(0.962881 0.269925 -0.268027 0.963412 0 18.6275)" stroke="white" stroke-opacity="0.4" stroke-width="0.992606" stroke-linecap="round"/>
<line x1="0.496303" y1="-0.496303" x2="8.67165" y2="-0.496303" transform="matrix(0.709218 -0.704989 0.702287 0.711894 6.9859 43.5132)" stroke="#FAA21E" stroke-width="0.992606" stroke-linecap="round"/>
<line x1="0.496303" y1="-0.496303" x2="8.67165" y2="-0.496303" transform="matrix(0.709218 -0.704989 0.702287 0.711894 6.9859 43.5132)" stroke="white" stroke-opacity="0.4" stroke-width="0.992606" stroke-linecap="round"/>
<line x1="0.496303" y1="-0.496303" x2="8.65726" y2="-0.496303" transform="matrix(0.960289 -0.279008 0.277057 0.960853 0.291382 32.2965)" stroke="#FAA21E" stroke-width="0.992606" stroke-linecap="round"/>
<line x1="0.496303" y1="-0.496303" x2="8.65726" y2="-0.496303" transform="matrix(0.960289 -0.279008 0.277057 0.960853 0.291382 32.2965)" stroke="white" stroke-opacity="0.4" stroke-width="0.992606" stroke-linecap="round"/>
<line x1="0.496303" y1="-0.496303" x2="8.6714" y2="-0.496303" transform="matrix(0.714297 0.699843 -0.697122 0.716952 6.41052 7.22)" stroke="#FAA21E" stroke-width="0.992606" stroke-linecap="round"/>
<line x1="0.496303" y1="-0.496303" x2="8.6714" y2="-0.496303" transform="matrix(0.714297 0.699843 -0.697122 0.716952 6.41052 7.22)" stroke="white" stroke-opacity="0.4" stroke-width="0.992606" stroke-linecap="round"/>
<line x1="0.496303" y1="-0.496303" x2="8.68622" y2="-0.496303" transform="matrix(0.293243 0.956038 -0.955366 0.295425 17.4833 0.200027)" stroke="#FAA21E" stroke-width="0.992606" stroke-linecap="round"/>
<line x1="0.496303" y1="-0.496303" x2="8.68622" y2="-0.496303" transform="matrix(0.293243 0.956038 -0.955366 0.295425 17.4833 0.200027)" stroke="white" stroke-opacity="0.4" stroke-width="0.992606" stroke-linecap="round"/>
<path d="M2.77509 41.8857L28.7736 18.8696L32.6571 22.7532L9.64102 48.7516C8.49008 49.2991 6.20354 49.4483 4.14098 47.3858C2.07842 45.3232 2.22763 43.0367 2.77509 41.8857Z" fill="#FEFEFE" stroke="#FAA21E" stroke-width="0.996296"/>
<path d="M9.24025 43.39C9.25375 42.6836 9.93209 41.832 10.1655 41.1655C9.49899 41.3989 8.82402 42.0739 7.94094 42.0907C7.15109 42.1058 6.39977 41.8995 5.52513 41.4748C5.94979 42.3495 6.15453 43.1842 6.14103 43.8906C6.12753 44.5971 5.52138 45.5209 5.21577 46.1152C5.88511 45.7346 6.65049 45.205 7.44034 45.19C8.32342 45.1731 8.98151 45.3812 9.85616 45.8059C9.64804 45.1478 9.22338 44.2731 9.24025 43.39Z" fill="#FAA21E"/>
<path d="M29.9576 5.70968L29.3589 6.30832L30.173 6.54091L35.3531 8.02094L43.9005 16.5684C43.9124 16.5997 43.9269 16.6383 43.9439 16.6835C43.996 16.822 44.0709 17.0233 44.162 17.2732C44.3444 17.7732 44.5914 18.4673 44.8501 19.2432C45.3713 20.8068 45.9258 22.6627 46.1082 23.9394C46.2909 25.2183 46.2929 27.2626 46.2455 29.0177C46.2333 29.4683 46.2179 29.8971 46.2019 30.2851C46.0935 30.0805 45.9767 29.8647 45.8528 29.6417C45.1401 28.3587 44.1649 26.79 43.1649 25.79C41.1873 23.8124 39.1486 23.1328 37.6765 22.6422L37.6659 22.6386C36.3484 22.1995 35.2202 22.2136 34.0164 22.2286C33.8612 22.2306 33.7047 22.2325 33.5464 22.2335L29.2945 17.9816C29.2996 17.7204 29.3135 17.48 29.327 17.246C29.381 16.3129 29.4289 15.4834 28.888 13.8607C28.5151 12.7418 27.8562 11.9504 27.2786 11.3849C27.0573 11.1683 26.8406 10.9781 26.6628 10.8221C26.6117 10.7773 26.5639 10.7354 26.5201 10.6964C26.4178 10.6054 26.3402 10.5334 26.2827 10.473C26.23 10.4177 26.2122 10.3905 26.2092 10.386C26.2087 10.3853 26.2086 10.3851 26.2089 10.3856L25.8998 9.76745L25.4111 10.2562L23.4901 12.1772L20.4058 9.09291L28.7943 0.704442L31.8786 3.78869L29.9576 5.70968Z" fill="#FEFEFE" stroke="#FAA21E" stroke-width="0.996296"/>
</svg>
