<svg width="51" height="51" viewBox="0 0 51 51" fill="none" xmlns="http://www.w3.org/2000/svg">
<line x1="25.7597" y1="7.89371" x2="25.7597" y2="2.45133" stroke="#FAA21E" stroke-width="0.992606" stroke-linecap="round"/>
<line x1="25.7597" y1="7.89371" x2="25.7597" y2="2.45133" stroke="white" stroke-opacity="0.4" stroke-width="0.992606" stroke-linecap="round"/>
<line x1="25.7597" y1="47.6737" x2="25.7597" y2="42.2314" stroke="#FAA21E" stroke-width="0.992606" stroke-linecap="round"/>
<line x1="25.7597" y1="47.6737" x2="25.7597" y2="42.2314" stroke="white" stroke-opacity="0.4" stroke-width="0.992606" stroke-linecap="round"/>
<line x1="48.0989" y1="25.0969" x2="42.681" y2="25.0969" stroke="#FAA21E" stroke-width="0.992606" stroke-linecap="round"/>
<line x1="48.0989" y1="25.0969" x2="42.681" y2="25.0969" stroke="white" stroke-opacity="0.4" stroke-width="0.992606" stroke-linecap="round"/>
<line x1="0.496303" y1="-0.496303" x2="5.9327" y2="-0.496303" transform="matrix(-0.49369 0.869638 -0.868018 -0.496532 36.6168 4.58777)" stroke="#FAA21E" stroke-width="0.992606" stroke-linecap="round"/>
<line x1="0.496303" y1="-0.496303" x2="5.9327" y2="-0.496303" transform="matrix(-0.49369 0.869638 -0.868018 -0.496532 36.6168 4.58777)" stroke="white" stroke-opacity="0.4" stroke-width="0.992606" stroke-linecap="round"/>
<line x1="0.496303" y1="-0.496303" x2="5.92043" y2="-0.496303" transform="matrix(-0.849492 0.527602 -0.524708 -0.851282 45.4181 12.5785)" stroke="#FAA21E" stroke-width="0.992606" stroke-linecap="round"/>
<line x1="0.496303" y1="-0.496303" x2="5.92043" y2="-0.496303" transform="matrix(-0.849492 0.527602 -0.524708 -0.851282 45.4181 12.5785)" stroke="white" stroke-opacity="0.4" stroke-width="0.992606" stroke-linecap="round"/>
<line x1="0.496303" y1="-0.496303" x2="5.92028" y2="-0.496303" transform="matrix(-0.876356 -0.481664 0.478853 -0.877895 46.3496 36.1565)" stroke="#FAA21E" stroke-width="0.992606" stroke-linecap="round"/>
<line x1="0.496303" y1="-0.496303" x2="5.92028" y2="-0.496303" transform="matrix(-0.876356 -0.481664 0.478853 -0.877895 46.3496 36.1565)" stroke="white" stroke-opacity="0.4" stroke-width="0.992606" stroke-linecap="round"/>
<line x1="0.496303" y1="-0.496303" x2="5.93155" y2="-0.496303" transform="matrix(-0.539091 -0.842248 0.840378 -0.542001 38.1302 44.6621)" stroke="#FAA21E" stroke-width="0.992606" stroke-linecap="round"/>
<line x1="0.496303" y1="-0.496303" x2="5.93155" y2="-0.496303" transform="matrix(-0.539091 -0.842248 0.840378 -0.542001 38.1302 44.6621)" stroke="white" stroke-opacity="0.4" stroke-width="0.992606" stroke-linecap="round"/>
<line x1="3.34335" y1="25.1537" x2="8.7613" y2="25.1537" stroke="#FAA21E" stroke-width="0.992606" stroke-linecap="round"/>
<line x1="3.34335" y1="25.1537" x2="8.7613" y2="25.1537" stroke="white" stroke-opacity="0.4" stroke-width="0.992606" stroke-linecap="round"/>
<line x1="0.496303" y1="-0.496303" x2="5.9327" y2="-0.496303" transform="matrix(0.49369 -0.869638 0.868018 0.496533 14.8254 45.2472)" stroke="#FAA21E" stroke-width="0.992606" stroke-linecap="round"/>
<line x1="0.496303" y1="-0.496303" x2="5.9327" y2="-0.496303" transform="matrix(0.49369 -0.869638 0.868018 0.496533 14.8254 45.2472)" stroke="white" stroke-opacity="0.4" stroke-width="0.992606" stroke-linecap="round"/>
<line x1="0.496303" y1="-0.496303" x2="5.92043" y2="-0.496303" transform="matrix(0.849492 -0.527602 0.524708 0.851282 6.02405 37.2563)" stroke="#FAA21E" stroke-width="0.992606" stroke-linecap="round"/>
<line x1="0.496303" y1="-0.496303" x2="5.92043" y2="-0.496303" transform="matrix(0.849492 -0.527602 0.524708 0.851282 6.02405 37.2563)" stroke="white" stroke-opacity="0.4" stroke-width="0.992606" stroke-linecap="round"/>
<line x1="0.496303" y1="-0.496303" x2="5.92028" y2="-0.496303" transform="matrix(0.876356 0.481664 -0.478854 0.877895 5.5022 14.142)" stroke="#FAA21E" stroke-width="0.992606" stroke-linecap="round"/>
<line x1="0.496303" y1="-0.496303" x2="5.92028" y2="-0.496303" transform="matrix(0.876356 0.481664 -0.478854 0.877895 5.5022 14.142)" stroke="white" stroke-opacity="0.4" stroke-width="0.992606" stroke-linecap="round"/>
<line x1="0.496303" y1="-0.496303" x2="5.93155" y2="-0.496303" transform="matrix(0.539091 0.842248 -0.840378 0.542001 13.3118 5.17261)" stroke="#FAA21E" stroke-width="0.992606" stroke-linecap="round"/>
<line x1="0.496303" y1="-0.496303" x2="5.93155" y2="-0.496303" transform="matrix(0.539091 0.842248 -0.840378 0.542001 13.3118 5.17261)" stroke="white" stroke-opacity="0.4" stroke-width="0.992606" stroke-linecap="round"/>
<line x1="0.496303" y1="-0.496303" x2="8.68672" y2="-0.496303" transform="matrix(0.268027 -0.963411 0.962881 0.269925 30.7469 9.047)" stroke="#FAA21E" stroke-width="0.992606" stroke-linecap="round"/>
<line x1="0.496303" y1="-0.496303" x2="8.68672" y2="-0.496303" transform="matrix(0.268027 -0.963411 0.962881 0.269925 30.7469 9.047)" stroke="white" stroke-opacity="0.4" stroke-width="0.992606" stroke-linecap="round"/>
<line x1="0.496303" y1="-0.496303" x2="8.68672" y2="-0.496303" transform="matrix(0.268027 -0.963411 0.962881 0.269925 19.4562 49.9971)" stroke="#FAA21E" stroke-width="0.992606" stroke-linecap="round"/>
<line x1="0.496303" y1="-0.496303" x2="8.68672" y2="-0.496303" transform="matrix(0.268027 -0.963411 0.962881 0.269925 19.4562 49.9971)" stroke="white" stroke-opacity="0.4" stroke-width="0.992606" stroke-linecap="round"/>
<line x1="0.496303" y1="-0.496303" x2="8.65707" y2="-0.496303" transform="matrix(-0.962882 -0.269925 0.268027 -0.963411 50.7067 31.3357)" stroke="#FAA21E" stroke-width="0.992606" stroke-linecap="round"/>
<line x1="0.496303" y1="-0.496303" x2="8.65707" y2="-0.496303" transform="matrix(-0.962882 -0.269925 0.268027 -0.963411 50.7067 31.3357)" stroke="white" stroke-opacity="0.4" stroke-width="0.992606" stroke-linecap="round"/>
<line x1="0.496303" y1="-0.496303" x2="8.67165" y2="-0.496303" transform="matrix(-0.709218 0.704989 -0.702287 -0.711894 43.7332 6.34265)" stroke="#FAA21E" stroke-width="0.992606" stroke-linecap="round"/>
<line x1="0.496303" y1="-0.496303" x2="8.67165" y2="-0.496303" transform="matrix(-0.709218 0.704989 -0.702287 -0.711894 43.7332 6.34265)" stroke="white" stroke-opacity="0.4" stroke-width="0.992606" stroke-linecap="round"/>
<line x1="0.496303" y1="-0.496303" x2="8.65725" y2="-0.496303" transform="matrix(-0.960289 0.279008 -0.277057 -0.960853 50.3917 17.75)" stroke="#FAA21E" stroke-width="0.992606" stroke-linecap="round"/>
<line x1="0.496303" y1="-0.496303" x2="8.65725" y2="-0.496303" transform="matrix(-0.960289 0.279008 -0.277057 -0.960853 50.3917 17.75)" stroke="white" stroke-opacity="0.4" stroke-width="0.992606" stroke-linecap="round"/>
<line x1="0.496303" y1="-0.496303" x2="8.6714" y2="-0.496303" transform="matrix(-0.714297 -0.699843 0.697122 -0.716952 44.3623 42.8859)" stroke="#FAA21E" stroke-width="0.992606" stroke-linecap="round"/>
<line x1="0.496303" y1="-0.496303" x2="8.6714" y2="-0.496303" transform="matrix(-0.714297 -0.699843 0.697122 -0.716952 44.3623 42.8859)" stroke="white" stroke-opacity="0.4" stroke-width="0.992606" stroke-linecap="round"/>
<line x1="0.496303" y1="-0.496303" x2="8.68622" y2="-0.496303" transform="matrix(-0.293312 -0.956017 0.955387 -0.295357 33.2224 49.6361)" stroke="#FAA21E" stroke-width="0.992606" stroke-linecap="round"/>
<line x1="0.496303" y1="-0.496303" x2="8.68622" y2="-0.496303" transform="matrix(-0.293312 -0.956017 0.955387 -0.295357 33.2224 49.6361)" stroke="white" stroke-opacity="0.4" stroke-width="0.992606" stroke-linecap="round"/>
<line x1="0.496303" y1="-0.496303" x2="8.65707" y2="-0.496303" transform="matrix(0.962881 0.269925 -0.268027 0.963412 0.807373 18.6276)" stroke="#FAA21E" stroke-width="0.992606" stroke-linecap="round"/>
<line x1="0.496303" y1="-0.496303" x2="8.65707" y2="-0.496303" transform="matrix(0.962881 0.269925 -0.268027 0.963412 0.807373 18.6276)" stroke="white" stroke-opacity="0.4" stroke-width="0.992606" stroke-linecap="round"/>
<line x1="0.496303" y1="-0.496303" x2="8.67165" y2="-0.496303" transform="matrix(0.709218 -0.704989 0.702287 0.711894 7.79321 43.5132)" stroke="#FAA21E" stroke-width="0.992606" stroke-linecap="round"/>
<line x1="0.496303" y1="-0.496303" x2="8.67165" y2="-0.496303" transform="matrix(0.709218 -0.704989 0.702287 0.711894 7.79321 43.5132)" stroke="white" stroke-opacity="0.4" stroke-width="0.992606" stroke-linecap="round"/>
<line x1="0.496303" y1="-0.496303" x2="8.65726" y2="-0.496303" transform="matrix(0.960289 -0.279008 0.277057 0.960853 1.09875 32.2965)" stroke="#FAA21E" stroke-width="0.992606" stroke-linecap="round"/>
<line x1="0.496303" y1="-0.496303" x2="8.65726" y2="-0.496303" transform="matrix(0.960289 -0.279008 0.277057 0.960853 1.09875 32.2965)" stroke="white" stroke-opacity="0.4" stroke-width="0.992606" stroke-linecap="round"/>
<line x1="0.496303" y1="-0.496303" x2="8.6714" y2="-0.496303" transform="matrix(0.714297 0.699843 -0.697122 0.716952 7.2179 7.22009)" stroke="#FAA21E" stroke-width="0.992606" stroke-linecap="round"/>
<line x1="0.496303" y1="-0.496303" x2="8.6714" y2="-0.496303" transform="matrix(0.714297 0.699843 -0.697122 0.716952 7.2179 7.22009)" stroke="white" stroke-opacity="0.4" stroke-width="0.992606" stroke-linecap="round"/>
<line x1="0.496303" y1="-0.496303" x2="8.68622" y2="-0.496303" transform="matrix(0.293243 0.956038 -0.955366 0.295425 18.2908 0.199951)" stroke="#FAA21E" stroke-width="0.992606" stroke-linecap="round"/>
<line x1="0.496303" y1="-0.496303" x2="8.68622" y2="-0.496303" transform="matrix(0.293243 0.956038 -0.955366 0.295425 18.2908 0.199951)" stroke="white" stroke-opacity="0.4" stroke-width="0.992606" stroke-linecap="round"/>
<path fill-rule="evenodd" clip-rule="evenodd" d="M32.6567 6.08764C30.4356 5.74732 28.5458 5.60988 27.832 5.60988C27.7414 5.60988 27.6422 5.60967 27.5349 5.60945C25.2503 5.6046 19.289 5.59195 14.5666 7.43652C9.6008 9.37619 2.30297 15.2289 1.5915 24.9554C1.31187 28.7783 1.70274 32.7563 2.36188 36.1671C3.01896 39.5672 3.95412 42.4621 4.79694 44.1082L6.13209 43.4245C5.37881 41.9534 4.47784 39.2108 3.83463 35.8825C3.19349 32.5648 2.8199 28.7233 3.08751 25.0648C3.74413 16.0881 10.5016 10.6347 15.1124 8.83372C19.5579 7.09728 25.2647 7.10606 27.5608 7.1096L27.832 7.10988C28.4466 7.10988 30.1749 7.2335 32.2412 7.54182L32.6567 6.08764ZM34.7902 7.99533L35.2033 6.54948C35.5708 6.62746 35.9389 6.71098 36.3042 6.80031C38.0829 7.23525 39.8535 7.82086 41.1965 8.60548C42.5077 9.37153 43.631 10.4627 43.631 11.9709C43.631 13.3412 42.9011 14.5278 41.9313 15.5386C40.9576 16.5532 39.6564 17.48 38.3291 18.3355C37.672 18.759 36.9971 19.1723 36.3418 19.5734L36.3418 19.5734L36.3106 19.5925C35.6426 20.0015 34.9965 20.3973 34.3949 20.7878C33.1725 21.5813 32.2169 22.3014 31.6752 22.9786C30.631 24.2838 29.7493 26.6113 29.8002 28.89C29.8501 31.1244 30.7832 33.2199 33.2691 34.3248C33.3773 34.3728 33.4844 34.4189 33.5904 34.463C33.5703 32.1658 34.1479 29.9445 35.5096 28.2845C37.406 25.9726 39.5808 25.3127 41.389 25.8918C43.1458 26.4545 44.3395 28.1377 44.3395 30.0101C44.3395 31.796 43.3893 34.083 41.4322 35.4947C39.9117 36.5913 37.8539 37.1136 35.291 36.5692C35.7305 39.0433 36.8688 41.4903 38.5132 43.255C41.443 46.3992 45.5329 48.0101 51 48.0101V49.5101C45.217 49.5101 40.6911 47.7926 37.4158 44.2776C35.4235 42.1396 34.1274 39.1774 33.7243 36.2631C33.7214 36.2419 33.7185 36.2207 33.7157 36.1995C33.7119 36.1713 33.7082 36.1431 33.7046 36.1149C33.3639 35.9931 33.0157 35.8536 32.6599 35.6955C29.5208 34.3003 28.3601 31.5912 28.3006 28.9234C28.242 26.2998 29.2353 23.6273 30.5039 22.0416C31.2121 21.1563 32.3554 20.3233 33.5783 19.5296C34.1993 19.1265 34.8625 18.7203 35.5274 18.3132L35.5518 18.2983L35.5518 18.2982C36.2118 17.8943 36.8741 17.4888 37.5164 17.0748C38.8244 16.2316 40.0023 15.3823 40.849 14.5C41.6994 13.6137 42.131 12.7826 42.131 11.9709C42.131 11.297 41.6297 10.5958 40.4398 9.90064C39.2818 9.22406 37.6749 8.67968 35.9479 8.25738C35.5637 8.16345 35.1765 8.07621 34.7902 7.99533ZM40.5547 34.2781C39.3459 35.1499 37.5645 35.6406 35.1067 34.984C34.9862 32.7351 35.4943 30.6683 36.6694 29.2358C38.2949 27.2541 39.87 26.9804 40.9314 27.3204C42.0442 27.6768 42.8395 28.7654 42.8395 30.0101C42.8395 31.3415 42.0991 33.1641 40.5547 34.2781Z" fill="#FEFEFE"/>
<path fill-rule="evenodd" clip-rule="evenodd" d="M24.8395 10.6351C24.0808 13.417 22.3895 18.447 20.4423 24.2382C17.5772 32.7592 14.1579 42.9284 12.3395 50.0102C16.4558 43.0125 21.6565 31.9482 25.6778 23.3931C27.7622 18.9585 29.5298 15.1982 30.6651 13.0279C34.5798 5.54444 34.592 0.700382 31.9741 0.0515689C30.5044 -0.312672 28.9219 1.28709 27.5438 3.76007H29.53C30.0714 3.18307 30.623 2.9019 31.0895 3.13515C32.3395 3.76015 31.7145 6.88517 30.4645 9.38517C29.5806 11.1529 26.0895 17.5102 25.4645 17.5102C24.9623 17.008 26.0742 12.8741 26.8547 9.97202C26.9724 9.53448 27.0826 9.12494 27.1785 8.76007H25.4047C25.2002 9.37861 25.0109 10.0065 24.8395 10.6351Z" fill="#FAA21E"/>
</svg>
