<svg width="51" height="51" viewBox="0 0 51 51" fill="none" xmlns="http://www.w3.org/2000/svg">
<g clip-path="url(#clip0_1360_8505)">
<line x1="25.3849" y1="8.51633" x2="25.3849" y2="3.09942" stroke="#FAA21E" stroke-width="0.992606" stroke-linecap="round"/>
<line x1="25.3849" y1="8.51633" x2="25.3849" y2="3.09942" stroke="white" stroke-opacity="0.4" stroke-width="0.992606" stroke-linecap="round"/>
<line x1="25.3849" y1="48.139" x2="25.3849" y2="42.722" stroke="#FAA21E" stroke-width="0.992606" stroke-linecap="round"/>
<line x1="25.3849" y1="48.139" x2="25.3849" y2="42.722" stroke="white" stroke-opacity="0.4" stroke-width="0.992606" stroke-linecap="round"/>
<line x1="47.5902" y1="25.6554" x2="42.2107" y2="25.6554" stroke="#FAA21E" stroke-width="0.992606" stroke-linecap="round"/>
<line x1="47.5902" y1="25.6554" x2="42.2107" y2="25.6554" stroke="white" stroke-opacity="0.4" stroke-width="0.992606" stroke-linecap="round"/>
<line x1="0.496303" y1="-0.496303" x2="5.90407" y2="-0.496303" transform="matrix(-0.492925 0.870072 -0.867579 -0.497299 36.18 5.22534)" stroke="#FAA21E" stroke-width="0.992606" stroke-linecap="round"/>
<line x1="0.496303" y1="-0.496303" x2="5.90407" y2="-0.496303" transform="matrix(-0.492925 0.870072 -0.867579 -0.497299 36.18 5.22534)" stroke="white" stroke-opacity="0.4" stroke-width="0.992606" stroke-linecap="round"/>
<line x1="0.496303" y1="-0.496303" x2="5.8856" y2="-0.496303" transform="matrix(-0.849006 0.528382 -0.523929 -0.851762 44.9284 13.1845)" stroke="#FAA21E" stroke-width="0.992606" stroke-linecap="round"/>
<line x1="0.496303" y1="-0.496303" x2="5.8856" y2="-0.496303" transform="matrix(-0.849006 0.528382 -0.523929 -0.851762 44.9284 13.1845)" stroke="white" stroke-opacity="0.4" stroke-width="0.992606" stroke-linecap="round"/>
<line x1="0.496303" y1="-0.496303" x2="5.88483" y2="-0.496303" transform="matrix(-0.875939 -0.482422 0.478097 -0.878307 45.8544 36.6692)" stroke="#FAA21E" stroke-width="0.992606" stroke-linecap="round"/>
<line x1="0.496303" y1="-0.496303" x2="5.88483" y2="-0.496303" transform="matrix(-0.875939 -0.482422 0.478097 -0.878307 45.8544 36.6692)" stroke="white" stroke-opacity="0.4" stroke-width="0.992606" stroke-linecap="round"/>
<line x1="0.496303" y1="-0.496303" x2="5.90231" y2="-0.496303" transform="matrix(-0.538307 -0.842749 0.839871 -0.542785 37.6843 45.1412)" stroke="#FAA21E" stroke-width="0.992606" stroke-linecap="round"/>
<line x1="0.496303" y1="-0.496303" x2="5.90231" y2="-0.496303" transform="matrix(-0.538307 -0.842749 0.839871 -0.542785 37.6843 45.1412)" stroke="white" stroke-opacity="0.4" stroke-width="0.992606" stroke-linecap="round"/>
<line x1="3.10904" y1="25.708" x2="8.48854" y2="25.708" stroke="#FAA21E" stroke-width="0.992606" stroke-linecap="round"/>
<line x1="3.10904" y1="25.708" x2="8.48854" y2="25.708" stroke="white" stroke-opacity="0.4" stroke-width="0.992606" stroke-linecap="round"/>
<line x1="0.496303" y1="-0.496303" x2="5.90407" y2="-0.496303" transform="matrix(0.492925 -0.870072 0.867579 0.4973 14.5192 45.7239)" stroke="#FAA21E" stroke-width="0.992606" stroke-linecap="round"/>
<line x1="0.496303" y1="-0.496303" x2="5.90407" y2="-0.496303" transform="matrix(0.492925 -0.870072 0.867579 0.4973 14.5192 45.7239)" stroke="white" stroke-opacity="0.4" stroke-width="0.992606" stroke-linecap="round"/>
<line x1="0.496303" y1="-0.496303" x2="5.8856" y2="-0.496303" transform="matrix(0.849006 -0.528383 0.523928 0.851763 5.77063 37.7647)" stroke="#FAA21E" stroke-width="0.992606" stroke-linecap="round"/>
<line x1="0.496303" y1="-0.496303" x2="5.8856" y2="-0.496303" transform="matrix(0.849006 -0.528383 0.523928 0.851763 5.77063 37.7647)" stroke="white" stroke-opacity="0.4" stroke-width="0.992606" stroke-linecap="round"/>
<line x1="0.496303" y1="-0.496303" x2="5.88484" y2="-0.496303" transform="matrix(0.875939 0.482423 -0.478097 0.878307 5.25189 14.7418)" stroke="#FAA21E" stroke-width="0.992606" stroke-linecap="round"/>
<line x1="0.496303" y1="-0.496303" x2="5.88484" y2="-0.496303" transform="matrix(0.875939 0.482423 -0.478097 0.878307 5.25189 14.7418)" stroke="white" stroke-opacity="0.4" stroke-width="0.992606" stroke-linecap="round"/>
<line x1="0.496303" y1="-0.496303" x2="5.90231" y2="-0.496303" transform="matrix(0.538307 0.842749 -0.839871 0.542786 13.0147 5.80792)" stroke="#FAA21E" stroke-width="0.992606" stroke-linecap="round"/>
<line x1="0.496303" y1="-0.496303" x2="5.90231" y2="-0.496303" transform="matrix(0.538307 0.842749 -0.839871 0.542786 13.0147 5.80792)" stroke="white" stroke-opacity="0.4" stroke-width="0.992606" stroke-linecap="round"/>
<line x1="0.496303" y1="-0.496303" x2="8.64904" y2="-0.496303" transform="matrix(0.267517 -0.963553 0.962737 0.270438 30.3452 9.66699)" stroke="#FAA21E" stroke-width="0.992606" stroke-linecap="round"/>
<line x1="0.496303" y1="-0.496303" x2="8.64904" y2="-0.496303" transform="matrix(0.267517 -0.963553 0.962737 0.270438 30.3452 9.66699)" stroke="white" stroke-opacity="0.4" stroke-width="0.992606" stroke-linecap="round"/>
<line x1="0.496303" y1="-0.496303" x2="8.64904" y2="-0.496303" transform="matrix(0.267517 -0.963553 0.962737 0.270438 19.1223 50.455)" stroke="#FAA21E" stroke-width="0.992606" stroke-linecap="round"/>
<line x1="0.496303" y1="-0.496303" x2="8.64904" y2="-0.496303" transform="matrix(0.267517 -0.963553 0.962737 0.270438 19.1223 50.455)" stroke="white" stroke-opacity="0.4" stroke-width="0.992606" stroke-linecap="round"/>
<line x1="0.496303" y1="-0.496303" x2="8.60354" y2="-0.496303" transform="matrix(-0.962737 -0.270438 0.267517 -0.963553 50.1852 31.8674)" stroke="#FAA21E" stroke-width="0.992606" stroke-linecap="round"/>
<line x1="0.496303" y1="-0.496303" x2="8.60354" y2="-0.496303" transform="matrix(-0.962737 -0.270438 0.267517 -0.963553 50.1852 31.8674)" stroke="white" stroke-opacity="0.4" stroke-width="0.992606" stroke-linecap="round"/>
<line x1="0.496303" y1="-0.496303" x2="8.62597" y2="-0.496303" transform="matrix(-0.708495 0.705716 -0.701557 -0.712613 43.2535 6.97339)" stroke="#FAA21E" stroke-width="0.992606" stroke-linecap="round"/>
<line x1="0.496303" y1="-0.496303" x2="8.62597" y2="-0.496303" transform="matrix(-0.708495 0.705716 -0.701557 -0.712613 43.2535 6.97339)" stroke="white" stroke-opacity="0.4" stroke-width="0.992606" stroke-linecap="round"/>
<line x1="0.496303" y1="-0.496303" x2="8.60382" y2="-0.496303" transform="matrix(-0.960135 0.279537 -0.276533 -0.961004 49.8721 18.3355)" stroke="#FAA21E" stroke-width="0.992606" stroke-linecap="round"/>
<line x1="0.496303" y1="-0.496303" x2="8.60382" y2="-0.496303" transform="matrix(-0.960135 0.279537 -0.276533 -0.961004 49.8721 18.3355)" stroke="white" stroke-opacity="0.4" stroke-width="0.992606" stroke-linecap="round"/>
<line x1="0.496303" y1="-0.496303" x2="8.62559" y2="-0.496303" transform="matrix(-0.713579 -0.700575 0.696387 -0.717666 43.8788 43.372)" stroke="#FAA21E" stroke-width="0.992606" stroke-linecap="round"/>
<line x1="0.496303" y1="-0.496303" x2="8.62559" y2="-0.496303" transform="matrix(-0.713579 -0.700575 0.696387 -0.717666 43.8788 43.372)" stroke="white" stroke-opacity="0.4" stroke-width="0.992606" stroke-linecap="round"/>
<line x1="0.496303" y1="-0.496303" x2="8.64828" y2="-0.496303" transform="matrix(-0.292762 -0.956185 0.955216 -0.29591 32.8058 50.0955)" stroke="#FAA21E" stroke-width="0.992606" stroke-linecap="round"/>
<line x1="0.496303" y1="-0.496303" x2="8.64828" y2="-0.496303" transform="matrix(-0.292762 -0.956185 0.955216 -0.29591 32.8058 50.0955)" stroke="white" stroke-opacity="0.4" stroke-width="0.992606" stroke-linecap="round"/>
<line x1="0.496303" y1="-0.496303" x2="8.60354" y2="-0.496303" transform="matrix(0.962737 0.270438 -0.267517 0.963553 0.585205 19.2096)" stroke="#FAA21E" stroke-width="0.992606" stroke-linecap="round"/>
<line x1="0.496303" y1="-0.496303" x2="8.60354" y2="-0.496303" transform="matrix(0.962737 0.270438 -0.267517 0.963553 0.585205 19.2096)" stroke="white" stroke-opacity="0.4" stroke-width="0.992606" stroke-linecap="round"/>
<line x1="0.496303" y1="-0.496303" x2="8.62597" y2="-0.496303" transform="matrix(0.708495 -0.705716 0.701557 0.712613 7.52924 43.9968)" stroke="#FAA21E" stroke-width="0.992606" stroke-linecap="round"/>
<line x1="0.496303" y1="-0.496303" x2="8.62597" y2="-0.496303" transform="matrix(0.708495 -0.705716 0.701557 0.712613 7.52924 43.9968)" stroke="white" stroke-opacity="0.4" stroke-width="0.992606" stroke-linecap="round"/>
<line x1="0.496303" y1="-0.496303" x2="8.60382" y2="-0.496303" transform="matrix(0.960135 -0.279536 0.276533 0.961004 0.874817 32.8245)" stroke="#FAA21E" stroke-width="0.992606" stroke-linecap="round"/>
<line x1="0.496303" y1="-0.496303" x2="8.60382" y2="-0.496303" transform="matrix(0.960135 -0.279536 0.276533 0.961004 0.874817 32.8245)" stroke="white" stroke-opacity="0.4" stroke-width="0.992606" stroke-linecap="round"/>
<line x1="0.496303" y1="-0.496303" x2="8.62559" y2="-0.496303" transform="matrix(0.713579 0.700575 -0.696387 0.717666 6.95728 7.84723)" stroke="#FAA21E" stroke-width="0.992606" stroke-linecap="round"/>
<line x1="0.496303" y1="-0.496303" x2="8.62559" y2="-0.496303" transform="matrix(0.713579 0.700575 -0.696387 0.717666 6.95728 7.84723)" stroke="white" stroke-opacity="0.4" stroke-width="0.992606" stroke-linecap="round"/>
<line x1="0.496303" y1="-0.496303" x2="8.64828" y2="-0.496303" transform="matrix(0.292695 0.956206 -0.955195 0.295978 17.9637 0.855042)" stroke="#FAA21E" stroke-width="0.992606" stroke-linecap="round"/>
<line x1="0.496303" y1="-0.496303" x2="8.64828" y2="-0.496303" transform="matrix(0.292695 0.956206 -0.955195 0.295978 17.9637 0.855042)" stroke="white" stroke-opacity="0.4" stroke-width="0.992606" stroke-linecap="round"/>
<path d="M46.829 1.50341C47.9233 1.22088 49.5852 1.15564 49.5852 1.15564L11.5852 39.1557L10.0852 35.1557L44.6403 2.63356C44.9138 2.35102 45.7463 1.78294 46.829 1.50341Z" fill="#FEFEFE" stroke="#FAA21E" stroke-width="0.996296"/>
<path d="M16.0852 41.1558L12.0852 39.6558L50.0852 1.65579C50.0852 1.65579 49.9235 3.24999 49.7544 4.45289C49.5852 5.65579 48.9235 6.39663 48.9235 6.39663L16.0852 41.1558Z" fill="#FEFEFE" stroke="#FAA21E" stroke-width="0.996296"/>
<path d="M12.8301 38.4108C14.3549 39.9366 17.6482 41.301 19.1003 41.6643C19.3726 41.7551 20.1927 42.4719 19.9172 43.2991C19.6449 44.1165 18.8281 44.1165 18.5558 44.1165L13.3403 41.9822L7.07436 47.3861L6.5852 50.1557L4.0852 50.1557L1.08519 47.1557L1.08519 44.6557L3.85259 44.1165L9.02594 37.8497L7.39225 32.6728C7.30149 32.3095 7.33779 31.5285 8.20909 31.3105C9.08039 31.0925 9.47974 31.7646 9.5705 32.1279C10.0243 33.6719 11.3053 36.885 12.8301 38.4108Z" fill="#FEFEFE" stroke="#FAA21E" stroke-width="0.996296"/>
<path d="M11.1943 40.9013C11.3325 40.2655 12.0928 39.3809 12.4211 38.7417C11.7818 39.07 11.0561 39.7957 10.2614 39.9685C9.5506 40.1231 8.91386 40.0723 8.20555 39.8477C8.43008 40.556 8.46458 41.2678 8.32631 41.9036C8.18805 42.5394 7.47964 43.4758 7.09951 44.0632C7.76756 43.6025 8.54833 42.991 9.25915 42.8364C10.0539 42.6636 10.6067 42.7327 11.315 42.9572C11.246 42.4044 11.0214 41.6961 11.1943 40.9013Z" fill="#FAA21E"/>
</g>
<defs>
<clipPath id="clip0_1360_8505">
<rect width="50" height="50" fill="white" transform="translate(0.585205 0.655762)"/>
</clipPath>
</defs>
</svg>
