<svg width="51" height="50" viewBox="0 0 51 50" fill="none" xmlns="http://www.w3.org/2000/svg">
<line x1="25.7597" y1="7.89371" x2="25.7597" y2="2.45133" stroke="#FAA21E" stroke-width="0.992606" stroke-linecap="round"/>
<line x1="25.7597" y1="7.89371" x2="25.7597" y2="2.45133" stroke="white" stroke-opacity="0.4" stroke-width="0.992606" stroke-linecap="round"/>
<line x1="25.7597" y1="47.6737" x2="25.7597" y2="42.2314" stroke="#FAA21E" stroke-width="0.992606" stroke-linecap="round"/>
<line x1="25.7597" y1="47.6737" x2="25.7597" y2="42.2314" stroke="white" stroke-opacity="0.4" stroke-width="0.992606" stroke-linecap="round"/>
<line x1="48.0989" y1="25.0969" x2="42.681" y2="25.0969" stroke="#FAA21E" stroke-width="0.992606" stroke-linecap="round"/>
<line x1="48.0989" y1="25.0969" x2="42.681" y2="25.0969" stroke="white" stroke-opacity="0.4" stroke-width="0.992606" stroke-linecap="round"/>
<line x1="0.496303" y1="-0.496303" x2="5.9327" y2="-0.496303" transform="matrix(-0.49369 0.869638 -0.868018 -0.496532 36.6168 4.58777)" stroke="#FAA21E" stroke-width="0.992606" stroke-linecap="round"/>
<line x1="0.496303" y1="-0.496303" x2="5.9327" y2="-0.496303" transform="matrix(-0.49369 0.869638 -0.868018 -0.496532 36.6168 4.58777)" stroke="white" stroke-opacity="0.4" stroke-width="0.992606" stroke-linecap="round"/>
<line x1="0.496303" y1="-0.496303" x2="5.92043" y2="-0.496303" transform="matrix(-0.849492 0.527602 -0.524708 -0.851282 45.4181 12.5785)" stroke="#FAA21E" stroke-width="0.992606" stroke-linecap="round"/>
<line x1="0.496303" y1="-0.496303" x2="5.92043" y2="-0.496303" transform="matrix(-0.849492 0.527602 -0.524708 -0.851282 45.4181 12.5785)" stroke="white" stroke-opacity="0.4" stroke-width="0.992606" stroke-linecap="round"/>
<line x1="0.496303" y1="-0.496303" x2="5.92028" y2="-0.496303" transform="matrix(-0.876356 -0.481664 0.478853 -0.877895 46.3496 36.1565)" stroke="#FAA21E" stroke-width="0.992606" stroke-linecap="round"/>
<line x1="0.496303" y1="-0.496303" x2="5.92028" y2="-0.496303" transform="matrix(-0.876356 -0.481664 0.478853 -0.877895 46.3496 36.1565)" stroke="white" stroke-opacity="0.4" stroke-width="0.992606" stroke-linecap="round"/>
<line x1="0.496303" y1="-0.496303" x2="5.93155" y2="-0.496303" transform="matrix(-0.539091 -0.842248 0.840378 -0.542001 38.1302 44.6621)" stroke="#FAA21E" stroke-width="0.992606" stroke-linecap="round"/>
<line x1="0.496303" y1="-0.496303" x2="5.93155" y2="-0.496303" transform="matrix(-0.539091 -0.842248 0.840378 -0.542001 38.1302 44.6621)" stroke="white" stroke-opacity="0.4" stroke-width="0.992606" stroke-linecap="round"/>
<line x1="3.34335" y1="25.1537" x2="8.7613" y2="25.1537" stroke="#FAA21E" stroke-width="0.992606" stroke-linecap="round"/>
<line x1="3.34335" y1="25.1537" x2="8.7613" y2="25.1537" stroke="white" stroke-opacity="0.4" stroke-width="0.992606" stroke-linecap="round"/>
<line x1="0.496303" y1="-0.496303" x2="5.9327" y2="-0.496303" transform="matrix(0.49369 -0.869638 0.868018 0.496533 14.8254 45.2472)" stroke="#FAA21E" stroke-width="0.992606" stroke-linecap="round"/>
<line x1="0.496303" y1="-0.496303" x2="5.9327" y2="-0.496303" transform="matrix(0.49369 -0.869638 0.868018 0.496533 14.8254 45.2472)" stroke="white" stroke-opacity="0.4" stroke-width="0.992606" stroke-linecap="round"/>
<line x1="0.496303" y1="-0.496303" x2="5.92043" y2="-0.496303" transform="matrix(0.849492 -0.527602 0.524708 0.851282 6.02405 37.2563)" stroke="#FAA21E" stroke-width="0.992606" stroke-linecap="round"/>
<line x1="0.496303" y1="-0.496303" x2="5.92043" y2="-0.496303" transform="matrix(0.849492 -0.527602 0.524708 0.851282 6.02405 37.2563)" stroke="white" stroke-opacity="0.4" stroke-width="0.992606" stroke-linecap="round"/>
<line x1="0.496303" y1="-0.496303" x2="5.92028" y2="-0.496303" transform="matrix(0.876356 0.481664 -0.478854 0.877895 5.5022 14.142)" stroke="#FAA21E" stroke-width="0.992606" stroke-linecap="round"/>
<line x1="0.496303" y1="-0.496303" x2="5.92028" y2="-0.496303" transform="matrix(0.876356 0.481664 -0.478854 0.877895 5.5022 14.142)" stroke="white" stroke-opacity="0.4" stroke-width="0.992606" stroke-linecap="round"/>
<line x1="0.496303" y1="-0.496303" x2="5.93155" y2="-0.496303" transform="matrix(0.539091 0.842248 -0.840378 0.542001 13.3118 5.17261)" stroke="#FAA21E" stroke-width="0.992606" stroke-linecap="round"/>
<line x1="0.496303" y1="-0.496303" x2="5.93155" y2="-0.496303" transform="matrix(0.539091 0.842248 -0.840378 0.542001 13.3118 5.17261)" stroke="white" stroke-opacity="0.4" stroke-width="0.992606" stroke-linecap="round"/>
<line x1="0.496303" y1="-0.496303" x2="8.68672" y2="-0.496303" transform="matrix(0.268027 -0.963411 0.962881 0.269925 30.7469 9.047)" stroke="#FAA21E" stroke-width="0.992606" stroke-linecap="round"/>
<line x1="0.496303" y1="-0.496303" x2="8.68672" y2="-0.496303" transform="matrix(0.268027 -0.963411 0.962881 0.269925 30.7469 9.047)" stroke="white" stroke-opacity="0.4" stroke-width="0.992606" stroke-linecap="round"/>
<line x1="0.496303" y1="-0.496303" x2="8.68672" y2="-0.496303" transform="matrix(0.268027 -0.963411 0.962881 0.269925 19.4562 49.9971)" stroke="#FAA21E" stroke-width="0.992606" stroke-linecap="round"/>
<line x1="0.496303" y1="-0.496303" x2="8.68672" y2="-0.496303" transform="matrix(0.268027 -0.963411 0.962881 0.269925 19.4562 49.9971)" stroke="white" stroke-opacity="0.4" stroke-width="0.992606" stroke-linecap="round"/>
<line x1="0.496303" y1="-0.496303" x2="8.65707" y2="-0.496303" transform="matrix(-0.962882 -0.269925 0.268027 -0.963411 50.7067 31.3357)" stroke="#FAA21E" stroke-width="0.992606" stroke-linecap="round"/>
<line x1="0.496303" y1="-0.496303" x2="8.65707" y2="-0.496303" transform="matrix(-0.962882 -0.269925 0.268027 -0.963411 50.7067 31.3357)" stroke="white" stroke-opacity="0.4" stroke-width="0.992606" stroke-linecap="round"/>
<line x1="0.496303" y1="-0.496303" x2="8.67165" y2="-0.496303" transform="matrix(-0.709218 0.704989 -0.702287 -0.711894 43.7332 6.34265)" stroke="#FAA21E" stroke-width="0.992606" stroke-linecap="round"/>
<line x1="0.496303" y1="-0.496303" x2="8.67165" y2="-0.496303" transform="matrix(-0.709218 0.704989 -0.702287 -0.711894 43.7332 6.34265)" stroke="white" stroke-opacity="0.4" stroke-width="0.992606" stroke-linecap="round"/>
<line x1="0.496303" y1="-0.496303" x2="8.65725" y2="-0.496303" transform="matrix(-0.960289 0.279008 -0.277057 -0.960853 50.3917 17.75)" stroke="#FAA21E" stroke-width="0.992606" stroke-linecap="round"/>
<line x1="0.496303" y1="-0.496303" x2="8.65725" y2="-0.496303" transform="matrix(-0.960289 0.279008 -0.277057 -0.960853 50.3917 17.75)" stroke="white" stroke-opacity="0.4" stroke-width="0.992606" stroke-linecap="round"/>
<line x1="0.496303" y1="-0.496303" x2="8.6714" y2="-0.496303" transform="matrix(-0.714297 -0.699843 0.697122 -0.716952 44.3623 42.8859)" stroke="#FAA21E" stroke-width="0.992606" stroke-linecap="round"/>
<line x1="0.496303" y1="-0.496303" x2="8.6714" y2="-0.496303" transform="matrix(-0.714297 -0.699843 0.697122 -0.716952 44.3623 42.8859)" stroke="white" stroke-opacity="0.4" stroke-width="0.992606" stroke-linecap="round"/>
<line x1="0.496303" y1="-0.496303" x2="8.68622" y2="-0.496303" transform="matrix(-0.293312 -0.956017 0.955387 -0.295357 33.2224 49.6361)" stroke="#FAA21E" stroke-width="0.992606" stroke-linecap="round"/>
<line x1="0.496303" y1="-0.496303" x2="8.68622" y2="-0.496303" transform="matrix(-0.293312 -0.956017 0.955387 -0.295357 33.2224 49.6361)" stroke="white" stroke-opacity="0.4" stroke-width="0.992606" stroke-linecap="round"/>
<line x1="0.496303" y1="-0.496303" x2="8.65707" y2="-0.496303" transform="matrix(0.962881 0.269925 -0.268027 0.963412 0.807373 18.6276)" stroke="#FAA21E" stroke-width="0.992606" stroke-linecap="round"/>
<line x1="0.496303" y1="-0.496303" x2="8.65707" y2="-0.496303" transform="matrix(0.962881 0.269925 -0.268027 0.963412 0.807373 18.6276)" stroke="white" stroke-opacity="0.4" stroke-width="0.992606" stroke-linecap="round"/>
<line x1="0.496303" y1="-0.496303" x2="8.67165" y2="-0.496303" transform="matrix(0.709218 -0.704989 0.702287 0.711894 7.79321 43.5132)" stroke="#FAA21E" stroke-width="0.992606" stroke-linecap="round"/>
<line x1="0.496303" y1="-0.496303" x2="8.67165" y2="-0.496303" transform="matrix(0.709218 -0.704989 0.702287 0.711894 7.79321 43.5132)" stroke="white" stroke-opacity="0.4" stroke-width="0.992606" stroke-linecap="round"/>
<line x1="0.496303" y1="-0.496303" x2="8.65726" y2="-0.496303" transform="matrix(0.960289 -0.279008 0.277057 0.960853 1.09875 32.2965)" stroke="#FAA21E" stroke-width="0.992606" stroke-linecap="round"/>
<line x1="0.496303" y1="-0.496303" x2="8.65726" y2="-0.496303" transform="matrix(0.960289 -0.279008 0.277057 0.960853 1.09875 32.2965)" stroke="white" stroke-opacity="0.4" stroke-width="0.992606" stroke-linecap="round"/>
<line x1="0.496303" y1="-0.496303" x2="8.6714" y2="-0.496303" transform="matrix(0.714297 0.699843 -0.697122 0.716952 7.2179 7.22009)" stroke="#FAA21E" stroke-width="0.992606" stroke-linecap="round"/>
<line x1="0.496303" y1="-0.496303" x2="8.6714" y2="-0.496303" transform="matrix(0.714297 0.699843 -0.697122 0.716952 7.2179 7.22009)" stroke="white" stroke-opacity="0.4" stroke-width="0.992606" stroke-linecap="round"/>
<line x1="0.496303" y1="-0.496303" x2="8.68622" y2="-0.496303" transform="matrix(0.293243 0.956038 -0.955366 0.295425 18.2908 0.199951)" stroke="#FAA21E" stroke-width="0.992606" stroke-linecap="round"/>
<line x1="0.496303" y1="-0.496303" x2="8.68622" y2="-0.496303" transform="matrix(0.293243 0.956038 -0.955366 0.295425 18.2908 0.199951)" stroke="white" stroke-opacity="0.4" stroke-width="0.992606" stroke-linecap="round"/>
<path d="M15.1 42.6218C12.8014 44.9475 8.84052 48.1618 7.06673 49.3596L1.65121 43.9441C3.02815 42.038 6.52292 37.829 8.3667 35.8399C9.54668 34.5669 11.7666 33.0759 13.9241 31.6996C14.3115 31.4525 14.6969 31.209 15.0719 30.972C15.7267 30.5584 16.3497 30.1647 16.8961 29.8069C17.7441 29.2515 18.4659 28.7457 18.8556 28.3514C19.5731 27.6255 20.6316 26.1807 21.5334 24.9093C21.8236 24.5001 22.1026 24.1016 22.3522 23.7452C22.4933 23.5436 22.6251 23.3555 22.744 23.1866C22.9099 22.951 23.0508 22.7529 23.1609 22.603C23.216 22.528 23.2616 22.4676 23.2975 22.4219C23.3154 22.3991 23.3298 22.3815 23.3408 22.3685C23.3512 22.3561 23.3559 22.3512 23.3559 22.3512L23.3556 22.3514C23.5154 22.1898 23.9348 21.8916 24.4289 21.5942C24.8351 21.3497 25.2315 21.1419 25.4992 21.0324C25.7514 21.137 26.1267 21.3366 26.5614 21.618C27.0835 21.956 27.6572 22.3896 28.1559 22.8627C28.6522 23.3336 29.1365 23.919 29.4898 24.4476C29.6665 24.7119 29.8039 24.9523 29.8933 25.149C29.9379 25.2472 29.9673 25.3273 29.9842 25.3888C29.9881 25.4031 29.9911 25.4154 29.9934 25.4258C29.8929 25.672 29.6731 26.1054 29.4139 26.5496C29.2701 26.7962 29.1209 27.0344 28.9837 27.2318C28.8402 27.4382 28.7302 27.5701 28.6655 27.6283C28.5837 27.702 28.2629 27.9339 27.7564 28.2917C27.6086 28.3961 27.4478 28.5093 27.2774 28.6292C26.8865 28.9044 26.4449 29.2151 25.993 29.5375C24.7109 30.4521 23.2796 31.5055 22.6443 32.1486C22.1943 32.6041 21.6744 33.3205 21.1171 34.1504C20.7123 34.7532 20.2744 35.4363 19.8163 36.151C19.6391 36.4274 19.4589 36.7085 19.2764 36.9916C17.9556 39.0401 16.5092 41.196 15.1 42.6218Z" fill="#FEFEFE" stroke="#FAA21E"/>
<path d="M30.1646 25.3193C30.0666 25.0946 29.9501 24.8578 29.8193 24.6189C29.4397 23.9257 28.9189 23.1763 28.342 22.6353C27.7715 22.1004 27.0249 21.6249 26.3474 21.2621C26.0883 21.1234 25.8334 20.9981 25.5958 20.89L31.6564 16.9939C31.6771 16.9959 31.7029 16.9994 31.7342 17.0053C31.8306 17.0233 31.9572 17.0599 32.1059 17.1237C32.4027 17.2508 32.7718 17.4791 33.1464 17.8536C33.9517 18.6589 34.0453 19.0904 34.0242 19.3154L30.1646 25.3193Z" fill="#FEFEFE" stroke="#FAA21E"/>
<path d="M31.5574 17.1236C31.5205 17.1021 31.4836 17.0813 31.4467 17.0611C32.0242 16.6042 32.63 16.0771 32.8536 15.8535C33.0107 15.6963 33.0662 15.4972 33.0889 15.3533C33.113 15.2008 33.1115 15.037 33.0997 14.8809C33.076 14.568 33.0033 14.1996 32.9217 13.8411C32.8695 13.6116 32.8096 13.3694 32.7525 13.1386C32.7206 13.0099 32.6896 12.8847 32.6613 12.7672C32.6068 12.5405 32.5619 12.3412 32.5316 12.1754L43 1.70705L49.2929 7.99994L38.8287 18.4641C38.6437 18.427 38.4309 18.3735 38.1959 18.31C38.082 18.2793 37.9619 18.2459 37.839 18.2117C37.6077 18.1475 37.3668 18.0806 37.1403 18.0236C36.7921 17.9359 36.4303 17.8588 36.1136 17.8396C35.8341 17.8226 35.4173 17.8366 35.1327 18.1212C34.9659 18.2881 34.6074 18.6716 34.2477 19.0879C34.1291 19.2252 34.0064 19.3706 33.8882 19.5162C33.8804 19.5026 33.8726 19.4891 33.8648 19.4755C33.6174 19.0485 33.2588 18.5516 32.8536 18.1464C32.4085 17.7013 31.9635 17.3601 31.5574 17.1236Z" fill="#FEFEFE" stroke="#FAA21E"/>
<path d="M41.6601 10.6557C41.6911 9.89576 42.4394 8.94635 42.7056 8.21824C41.9845 8.5027 41.2439 9.26213 40.2952 9.32477C39.4467 9.38079 38.6448 9.1969 37.7155 8.78457C38.1511 9.70319 38.3514 10.59 38.3204 11.3499C38.2894 12.1099 37.6169 13.1332 37.2748 13.7874C38.0025 13.3446 38.8367 12.7369 39.6852 12.6809C40.6339 12.6182 41.3357 12.8087 42.265 13.221C42.0569 12.5243 41.6213 11.6056 41.6601 10.6557Z" fill="#FAA21E"/>
<path d="M42.7071 2.00003L44 0.707105L50.2929 7L49 8.29293L42.7071 2.00003Z" fill="#FEFEFE" stroke="#FAA21E"/>
</svg>
