<svg width="50" height="50" viewBox="0 0 50 50" fill="none" xmlns="http://www.w3.org/2000/svg">
<line x1="24.7997" y1="7.86057" x2="24.7997" y2="2.44366" stroke="#FAA21E" stroke-width="0.992606" stroke-linecap="round"/>
<line x1="24.7997" y1="7.86057" x2="24.7997" y2="2.44366" stroke="white" stroke-opacity="0.4" stroke-width="0.992606" stroke-linecap="round"/>
<line x1="24.7997" y1="47.4831" x2="24.7997" y2="42.0662" stroke="#FAA21E" stroke-width="0.992606" stroke-linecap="round"/>
<line x1="24.7997" y1="47.4831" x2="24.7997" y2="42.0662" stroke="white" stroke-opacity="0.4" stroke-width="0.992606" stroke-linecap="round"/>
<line x1="47.0049" y1="24.9996" x2="41.6254" y2="24.9996" stroke="#FAA21E" stroke-width="0.992606" stroke-linecap="round"/>
<line x1="47.0049" y1="24.9996" x2="41.6254" y2="24.9996" stroke="white" stroke-opacity="0.4" stroke-width="0.992606" stroke-linecap="round"/>
<line x1="0.496303" y1="-0.496303" x2="5.90406" y2="-0.496303" transform="matrix(-0.492924 0.870072 -0.867579 -0.4973 35.5948 4.56955)" stroke="#FAA21E" stroke-width="0.992606" stroke-linecap="round"/>
<line x1="0.496303" y1="-0.496303" x2="5.90406" y2="-0.496303" transform="matrix(-0.492924 0.870072 -0.867579 -0.4973 35.5948 4.56955)" stroke="white" stroke-opacity="0.4" stroke-width="0.992606" stroke-linecap="round"/>
<line x1="0.496303" y1="-0.496303" x2="5.88559" y2="-0.496303" transform="matrix(-0.849006 0.528382 -0.523928 -0.851762 44.3432 12.5288)" stroke="#FAA21E" stroke-width="0.992606" stroke-linecap="round"/>
<line x1="0.496303" y1="-0.496303" x2="5.88559" y2="-0.496303" transform="matrix(-0.849006 0.528382 -0.523928 -0.851762 44.3432 12.5288)" stroke="white" stroke-opacity="0.4" stroke-width="0.992606" stroke-linecap="round"/>
<line x1="0.496303" y1="-0.496303" x2="5.88483" y2="-0.496303" transform="matrix(-0.875939 -0.482422 0.478097 -0.878307 45.2692 36.0134)" stroke="#FAA21E" stroke-width="0.992606" stroke-linecap="round"/>
<line x1="0.496303" y1="-0.496303" x2="5.88483" y2="-0.496303" transform="matrix(-0.875939 -0.482422 0.478097 -0.878307 45.2692 36.0134)" stroke="white" stroke-opacity="0.4" stroke-width="0.992606" stroke-linecap="round"/>
<line x1="0.496303" y1="-0.496303" x2="5.90231" y2="-0.496303" transform="matrix(-0.538307 -0.842749 0.839871 -0.542786 37.0991 44.4854)" stroke="#FAA21E" stroke-width="0.992606" stroke-linecap="round"/>
<line x1="0.496303" y1="-0.496303" x2="5.90231" y2="-0.496303" transform="matrix(-0.538307 -0.842749 0.839871 -0.542786 37.0991 44.4854)" stroke="white" stroke-opacity="0.4" stroke-width="0.992606" stroke-linecap="round"/>
<line x1="2.52377" y1="25.0522" x2="7.90327" y2="25.0522" stroke="#FAA21E" stroke-width="0.992606" stroke-linecap="round"/>
<line x1="2.52377" y1="25.0522" x2="7.90327" y2="25.0522" stroke="white" stroke-opacity="0.4" stroke-width="0.992606" stroke-linecap="round"/>
<line x1="0.496303" y1="-0.496303" x2="5.90406" y2="-0.496303" transform="matrix(0.492925 -0.870072 0.867579 0.4973 13.934 45.0682)" stroke="#FAA21E" stroke-width="0.992606" stroke-linecap="round"/>
<line x1="0.496303" y1="-0.496303" x2="5.90406" y2="-0.496303" transform="matrix(0.492925 -0.870072 0.867579 0.4973 13.934 45.0682)" stroke="white" stroke-opacity="0.4" stroke-width="0.992606" stroke-linecap="round"/>
<line x1="0.496303" y1="-0.496303" x2="5.88559" y2="-0.496303" transform="matrix(0.849006 -0.528382 0.523928 0.851762 5.18542 37.1089)" stroke="#FAA21E" stroke-width="0.992606" stroke-linecap="round"/>
<line x1="0.496303" y1="-0.496303" x2="5.88559" y2="-0.496303" transform="matrix(0.849006 -0.528382 0.523928 0.851762 5.18542 37.1089)" stroke="white" stroke-opacity="0.4" stroke-width="0.992606" stroke-linecap="round"/>
<line x1="0.496303" y1="-0.496303" x2="5.88483" y2="-0.496303" transform="matrix(0.875939 0.482423 -0.478097 0.878307 4.66669 14.086)" stroke="#FAA21E" stroke-width="0.992606" stroke-linecap="round"/>
<line x1="0.496303" y1="-0.496303" x2="5.88483" y2="-0.496303" transform="matrix(0.875939 0.482423 -0.478097 0.878307 4.66669 14.086)" stroke="white" stroke-opacity="0.4" stroke-width="0.992606" stroke-linecap="round"/>
<line x1="0.496303" y1="-0.496303" x2="5.90231" y2="-0.496303" transform="matrix(0.538307 0.842749 -0.839871 0.542786 12.4295 5.15213)" stroke="#FAA21E" stroke-width="0.992606" stroke-linecap="round"/>
<line x1="0.496303" y1="-0.496303" x2="5.90231" y2="-0.496303" transform="matrix(0.538307 0.842749 -0.839871 0.542786 12.4295 5.15213)" stroke="white" stroke-opacity="0.4" stroke-width="0.992606" stroke-linecap="round"/>
<line x1="0.496303" y1="-0.496303" x2="8.64904" y2="-0.496303" transform="matrix(0.267517 -0.963553 0.962737 0.270438 29.76 9.01123)" stroke="#FAA21E" stroke-width="0.992606" stroke-linecap="round"/>
<line x1="0.496303" y1="-0.496303" x2="8.64904" y2="-0.496303" transform="matrix(0.267517 -0.963553 0.962737 0.270438 29.76 9.01123)" stroke="white" stroke-opacity="0.4" stroke-width="0.992606" stroke-linecap="round"/>
<line x1="0.496303" y1="-0.496303" x2="8.64904" y2="-0.496303" transform="matrix(0.267517 -0.963553 0.962737 0.270438 18.537 49.7992)" stroke="#FAA21E" stroke-width="0.992606" stroke-linecap="round"/>
<line x1="0.496303" y1="-0.496303" x2="8.64904" y2="-0.496303" transform="matrix(0.267517 -0.963553 0.962737 0.270438 18.537 49.7992)" stroke="white" stroke-opacity="0.4" stroke-width="0.992606" stroke-linecap="round"/>
<line x1="0.496303" y1="-0.496303" x2="8.60354" y2="-0.496303" transform="matrix(-0.962737 -0.270438 0.267517 -0.963553 49.6 31.2117)" stroke="#FAA21E" stroke-width="0.992606" stroke-linecap="round"/>
<line x1="0.496303" y1="-0.496303" x2="8.60354" y2="-0.496303" transform="matrix(-0.962737 -0.270438 0.267517 -0.963553 49.6 31.2117)" stroke="white" stroke-opacity="0.4" stroke-width="0.992606" stroke-linecap="round"/>
<line x1="0.496303" y1="-0.496303" x2="8.62597" y2="-0.496303" transform="matrix(-0.708495 0.705716 -0.701557 -0.712613 42.6682 6.31763)" stroke="#FAA21E" stroke-width="0.992606" stroke-linecap="round"/>
<line x1="0.496303" y1="-0.496303" x2="8.62597" y2="-0.496303" transform="matrix(-0.708495 0.705716 -0.701557 -0.712613 42.6682 6.31763)" stroke="white" stroke-opacity="0.4" stroke-width="0.992606" stroke-linecap="round"/>
<line x1="0.496303" y1="-0.496303" x2="8.60381" y2="-0.496303" transform="matrix(-0.960135 0.279536 -0.276533 -0.961004 49.2869 17.6797)" stroke="#FAA21E" stroke-width="0.992606" stroke-linecap="round"/>
<line x1="0.496303" y1="-0.496303" x2="8.60381" y2="-0.496303" transform="matrix(-0.960135 0.279536 -0.276533 -0.961004 49.2869 17.6797)" stroke="white" stroke-opacity="0.4" stroke-width="0.992606" stroke-linecap="round"/>
<line x1="0.496303" y1="-0.496303" x2="8.62558" y2="-0.496303" transform="matrix(-0.713579 -0.700575 0.696387 -0.717666 43.2936 42.7162)" stroke="#FAA21E" stroke-width="0.992606" stroke-linecap="round"/>
<line x1="0.496303" y1="-0.496303" x2="8.62558" y2="-0.496303" transform="matrix(-0.713579 -0.700575 0.696387 -0.717666 43.2936 42.7162)" stroke="white" stroke-opacity="0.4" stroke-width="0.992606" stroke-linecap="round"/>
<line x1="0.496303" y1="-0.496303" x2="8.64827" y2="-0.496303" transform="matrix(-0.292763 -0.956185 0.955216 -0.295909 32.2206 49.4396)" stroke="#FAA21E" stroke-width="0.992606" stroke-linecap="round"/>
<line x1="0.496303" y1="-0.496303" x2="8.64827" y2="-0.496303" transform="matrix(-0.292763 -0.956185 0.955216 -0.295909 32.2206 49.4396)" stroke="white" stroke-opacity="0.4" stroke-width="0.992606" stroke-linecap="round"/>
<line x1="0.496303" y1="-0.496303" x2="8.60353" y2="-0.496303" transform="matrix(0.962737 0.270438 -0.267517 0.963553 0 18.5538)" stroke="#FAA21E" stroke-width="0.992606" stroke-linecap="round"/>
<line x1="0.496303" y1="-0.496303" x2="8.60353" y2="-0.496303" transform="matrix(0.962737 0.270438 -0.267517 0.963553 0 18.5538)" stroke="white" stroke-opacity="0.4" stroke-width="0.992606" stroke-linecap="round"/>
<line x1="0.496303" y1="-0.496303" x2="8.62597" y2="-0.496303" transform="matrix(0.708495 -0.705716 0.701557 0.712613 6.94397 43.341)" stroke="#FAA21E" stroke-width="0.992606" stroke-linecap="round"/>
<line x1="0.496303" y1="-0.496303" x2="8.62597" y2="-0.496303" transform="matrix(0.708495 -0.705716 0.701557 0.712613 6.94397 43.341)" stroke="white" stroke-opacity="0.4" stroke-width="0.992606" stroke-linecap="round"/>
<line x1="0.496303" y1="-0.496303" x2="8.60381" y2="-0.496303" transform="matrix(0.960135 -0.279536 0.276533 0.961004 0.289612 32.1687)" stroke="#FAA21E" stroke-width="0.992606" stroke-linecap="round"/>
<line x1="0.496303" y1="-0.496303" x2="8.60381" y2="-0.496303" transform="matrix(0.960135 -0.279536 0.276533 0.961004 0.289612 32.1687)" stroke="white" stroke-opacity="0.4" stroke-width="0.992606" stroke-linecap="round"/>
<line x1="0.496303" y1="-0.496303" x2="8.62558" y2="-0.496303" transform="matrix(0.713579 0.700575 -0.696387 0.717666 6.37207 7.19144)" stroke="#FAA21E" stroke-width="0.992606" stroke-linecap="round"/>
<line x1="0.496303" y1="-0.496303" x2="8.62558" y2="-0.496303" transform="matrix(0.713579 0.700575 -0.696387 0.717666 6.37207 7.19144)" stroke="white" stroke-opacity="0.4" stroke-width="0.992606" stroke-linecap="round"/>
<line x1="0.496303" y1="-0.496303" x2="8.64828" y2="-0.496303" transform="matrix(0.292694 0.956206 -0.955195 0.295978 17.3785 0.19928)" stroke="#FAA21E" stroke-width="0.992606" stroke-linecap="round"/>
<line x1="0.496303" y1="-0.496303" x2="8.64828" y2="-0.496303" transform="matrix(0.292694 0.956206 -0.955195 0.295978 17.3785 0.19928)" stroke="white" stroke-opacity="0.4" stroke-width="0.992606" stroke-linecap="round"/>
<path d="M21.6477 5.64774L21.2955 5.99998L21.6477 6.35222L24.6477 9.35222L24.7986 9.50311C16.399 9.61006 9.61006 16.399 9.50311 24.7986L9.35222 24.6477L6.35222 21.6477L5.99998 21.2955L5.64773 21.6477L2.64773 24.6477L2.49905 24.7964C2.553 18.7077 5.02519 13.1964 9.00183 9.17619V9.49998V13.5V13.9981H9.49998H13.5H13.9981V13.5V9.49998V9.00183H13.5H9.49998H9.17619C13.1964 5.02518 18.7077 2.55297 24.7965 2.49902L24.6477 2.64774L21.6477 5.64774ZM40.4968 24.7986C40.3899 16.399 33.6009 9.61006 25.2013 9.50311L25.3522 9.35222L28.3522 6.35222L28.7045 5.99998L28.3522 5.64774L25.3522 2.64774L25.2035 2.49902C31.2922 2.55296 36.8036 5.02517 40.8238 9.00183H40.5H36.5H36.0018V9.49998V13.5V13.9981H36.5H40.5H40.9981V13.5V9.49998V9.17615C44.9748 13.1963 47.447 18.7077 47.5009 24.7965L47.3522 24.6477L44.3522 21.6477L44 21.2955L43.6477 21.6477L40.6477 24.6477L40.4968 24.7986ZM47.3522 25.3522L47.5009 25.2035C47.447 31.2922 44.9748 36.8036 40.9981 40.8238V40.5V36.5V36.0018H40.5H36.5H36.0018V36.5V40.5V40.9981H36.5H40.5H40.8238C36.8036 44.9748 31.2922 47.447 25.2035 47.5009L25.3522 47.3522L28.3522 44.3522L28.7045 44L28.3522 43.6477L25.3522 40.6477L25.2013 40.4968C33.6009 40.3899 40.3899 33.6009 40.4968 25.2013L40.6477 25.3522L43.6477 28.3522L44 28.7045L44.3522 28.3522L47.3522 25.3522ZM24.6477 47.3522L24.7964 47.5009C18.7077 47.447 13.1964 44.9748 9.17622 40.9981H9.49998H13.5H13.9981V40.5V36.5V36.0018H13.5H9.49998H9.00183V36.5V40.5V40.8237C5.0252 36.8036 2.55301 31.2922 2.49905 25.2035L2.64773 25.3522L5.64773 28.3522L5.99998 28.7045L6.35222 28.3522L9.35222 25.3522L9.50311 25.2013C9.61006 33.6009 16.399 40.3899 24.7986 40.4968L24.6477 40.6477L21.6477 43.6477L21.2955 44L21.6477 44.3522L24.6477 47.3522Z" fill="#FEFEFE" stroke="#FAA21E" stroke-width="0.996296"/>
<circle cx="25" cy="25" r="13.4185" fill="#FEFEFE" stroke="#FAA21E" stroke-width="0.954916"/>
<path d="M26.5 22.9772C25.7 22.0682 25.5 20.1363 25 19C24.5 20.1363 24.5 21.8409 23.5 22.9772C22.6056 23.9936 21.5 24.6818 20 25.25C21.5 25.8182 22.7 26.6136 23.5 27.5227C24.3 28.4318 24.6667 30.3636 25 31.5C25.3333 30.1742 25.6056 28.5391 26.5 27.5227C27.5 26.3863 28.5 25.8182 30 25.25C29 24.6818 27.5 24.1136 26.5 22.9772Z" fill="#FAA21E"/>
</svg>
