<svg width="50" height="50" viewBox="0 0 50 50" fill="none" xmlns="http://www.w3.org/2000/svg">
<line x1="24.8938" y1="7.89161" x2="24.8938" y2="2.45087" stroke="#FAA21E" stroke-width="0.992606" stroke-linecap="round"/>
<line x1="24.8938" y1="7.89161" x2="24.8938" y2="2.45087" stroke="white" stroke-opacity="0.4" stroke-width="0.992606" stroke-linecap="round"/>
<line x1="24.8938" y1="47.6615" x2="24.8938" y2="42.2207" stroke="#FAA21E" stroke-width="0.992606" stroke-linecap="round"/>
<line x1="24.8938" y1="47.6615" x2="24.8938" y2="42.2207" stroke="white" stroke-opacity="0.4" stroke-width="0.992606" stroke-linecap="round"/>
<line x1="47.1815" y1="25.0907" x2="41.7783" y2="25.0907" stroke="#FAA21E" stroke-width="0.992606" stroke-linecap="round"/>
<line x1="47.1815" y1="25.0907" x2="41.7783" y2="25.0907" stroke="white" stroke-opacity="0.4" stroke-width="0.992606" stroke-linecap="round"/>
<line x1="0.496303" y1="-0.496303" x2="5.92786" y2="-0.496303" transform="matrix(-0.492925 0.870072 -0.867579 -0.4973 35.7271 4.58655)" stroke="#FAA21E" stroke-width="0.992606" stroke-linecap="round"/>
<line x1="0.496303" y1="-0.496303" x2="5.92786" y2="-0.496303" transform="matrix(-0.492925 0.870072 -0.867579 -0.4973 35.7271 4.58655)" stroke="white" stroke-opacity="0.4" stroke-width="0.992606" stroke-linecap="round"/>
<line x1="0.496303" y1="-0.496303" x2="5.90932" y2="-0.496303" transform="matrix(-0.849007 0.528382 -0.523929 -0.851762 44.5081 12.5753)" stroke="#FAA21E" stroke-width="0.992606" stroke-linecap="round"/>
<line x1="0.496303" y1="-0.496303" x2="5.90932" y2="-0.496303" transform="matrix(-0.849007 0.528382 -0.523929 -0.851762 44.5081 12.5753)" stroke="white" stroke-opacity="0.4" stroke-width="0.992606" stroke-linecap="round"/>
<line x1="0.496303" y1="-0.496303" x2="5.90855" y2="-0.496303" transform="matrix(-0.875939 -0.482423 0.478097 -0.878307 45.4374 36.1473)" stroke="#FAA21E" stroke-width="0.992606" stroke-linecap="round"/>
<line x1="0.496303" y1="-0.496303" x2="5.90855" y2="-0.496303" transform="matrix(-0.875939 -0.482423 0.478097 -0.878307 45.4374 36.1473)" stroke="white" stroke-opacity="0.4" stroke-width="0.992606" stroke-linecap="round"/>
<line x1="0.496303" y1="-0.496303" x2="5.9261" y2="-0.496303" transform="matrix(-0.538307 -0.842749 0.839871 -0.542786 37.2371 44.6508)" stroke="#FAA21E" stroke-width="0.992606" stroke-linecap="round"/>
<line x1="0.496303" y1="-0.496303" x2="5.9261" y2="-0.496303" transform="matrix(-0.538307 -0.842749 0.839871 -0.542786 37.2371 44.6508)" stroke="white" stroke-opacity="0.4" stroke-width="0.992606" stroke-linecap="round"/>
<line x1="2.53128" y1="25.1472" x2="7.93447" y2="25.1472" stroke="#FAA21E" stroke-width="0.992606" stroke-linecap="round"/>
<line x1="2.53128" y1="25.1472" x2="7.93447" y2="25.1472" stroke="white" stroke-opacity="0.4" stroke-width="0.992606" stroke-linecap="round"/>
<line x1="0.496303" y1="-0.496303" x2="5.92786" y2="-0.496303" transform="matrix(0.492924 -0.870072 0.867579 0.4973 13.9858 45.2357)" stroke="#FAA21E" stroke-width="0.992606" stroke-linecap="round"/>
<line x1="0.496303" y1="-0.496303" x2="5.92786" y2="-0.496303" transform="matrix(0.492924 -0.870072 0.867579 0.4973 13.9858 45.2357)" stroke="white" stroke-opacity="0.4" stroke-width="0.992606" stroke-linecap="round"/>
<line x1="0.496303" y1="-0.496303" x2="5.90932" y2="-0.496303" transform="matrix(0.849006 -0.528383 0.523928 0.851763 5.20471 37.2469)" stroke="#FAA21E" stroke-width="0.992606" stroke-linecap="round"/>
<line x1="0.496303" y1="-0.496303" x2="5.90932" y2="-0.496303" transform="matrix(0.849006 -0.528383 0.523928 0.851763 5.20471 37.2469)" stroke="white" stroke-opacity="0.4" stroke-width="0.992606" stroke-linecap="round"/>
<line x1="0.496303" y1="-0.496303" x2="5.90855" y2="-0.496303" transform="matrix(0.875939 0.482423 -0.478097 0.878307 4.68408 14.1384)" stroke="#FAA21E" stroke-width="0.992606" stroke-linecap="round"/>
<line x1="0.496303" y1="-0.496303" x2="5.90855" y2="-0.496303" transform="matrix(0.875939 0.482423 -0.478097 0.878307 4.68408 14.1384)" stroke="white" stroke-opacity="0.4" stroke-width="0.992606" stroke-linecap="round"/>
<line x1="0.496303" y1="-0.496303" x2="5.92609" y2="-0.496303" transform="matrix(0.538307 0.842749 -0.839871 0.542786 12.4756 5.1713)" stroke="#FAA21E" stroke-width="0.992606" stroke-linecap="round"/>
<line x1="0.496303" y1="-0.496303" x2="5.92609" y2="-0.496303" transform="matrix(0.538307 0.842749 -0.839871 0.542786 12.4756 5.1713)" stroke="white" stroke-opacity="0.4" stroke-width="0.992606" stroke-linecap="round"/>
<line x1="0.496303" y1="-0.496303" x2="8.68303" y2="-0.496303" transform="matrix(0.267517 -0.963553 0.962737 0.270438 29.8707 9.04471)" stroke="#FAA21E" stroke-width="0.992606" stroke-linecap="round"/>
<line x1="0.496303" y1="-0.496303" x2="8.68303" y2="-0.496303" transform="matrix(0.267517 -0.963553 0.962737 0.270438 29.8707 9.04471)" stroke="white" stroke-opacity="0.4" stroke-width="0.992606" stroke-linecap="round"/>
<line x1="0.496303" y1="-0.496303" x2="8.68303" y2="-0.496303" transform="matrix(0.267517 -0.963553 0.962737 0.270438 18.606 49.9843)" stroke="#FAA21E" stroke-width="0.992606" stroke-linecap="round"/>
<line x1="0.496303" y1="-0.496303" x2="8.68303" y2="-0.496303" transform="matrix(0.267517 -0.963553 0.962737 0.270438 18.606 49.9843)" stroke="white" stroke-opacity="0.4" stroke-width="0.992606" stroke-linecap="round"/>
<line x1="0.496303" y1="-0.496303" x2="8.63736" y2="-0.496303" transform="matrix(-0.962737 -0.270438 0.267517 -0.963553 49.7844 31.3277)" stroke="#FAA21E" stroke-width="0.992606" stroke-linecap="round"/>
<line x1="0.496303" y1="-0.496303" x2="8.63736" y2="-0.496303" transform="matrix(-0.962737 -0.270438 0.267517 -0.963553 49.7844 31.3277)" stroke="white" stroke-opacity="0.4" stroke-width="0.992606" stroke-linecap="round"/>
<line x1="0.496303" y1="-0.496303" x2="8.65988" y2="-0.496303" transform="matrix(-0.708495 0.705716 -0.701557 -0.712613 42.8269 6.34113)" stroke="#FAA21E" stroke-width="0.992606" stroke-linecap="round"/>
<line x1="0.496303" y1="-0.496303" x2="8.65988" y2="-0.496303" transform="matrix(-0.708495 0.705716 -0.701557 -0.712613 42.8269 6.34113)" stroke="white" stroke-opacity="0.4" stroke-width="0.992606" stroke-linecap="round"/>
<line x1="0.496303" y1="-0.496303" x2="8.63764" y2="-0.496303" transform="matrix(-0.960135 0.279536 -0.276533 -0.961004 49.4702 17.7455)" stroke="#FAA21E" stroke-width="0.992606" stroke-linecap="round"/>
<line x1="0.496303" y1="-0.496303" x2="8.63764" y2="-0.496303" transform="matrix(-0.960135 0.279536 -0.276533 -0.961004 49.4702 17.7455)" stroke="white" stroke-opacity="0.4" stroke-width="0.992606" stroke-linecap="round"/>
<line x1="0.496303" y1="-0.496303" x2="8.6595" y2="-0.496303" transform="matrix(-0.713579 -0.700575 0.696387 -0.717666 43.4546 42.875)" stroke="#FAA21E" stroke-width="0.992606" stroke-linecap="round"/>
<line x1="0.496303" y1="-0.496303" x2="8.6595" y2="-0.496303" transform="matrix(-0.713579 -0.700575 0.696387 -0.717666 43.4546 42.875)" stroke="white" stroke-opacity="0.4" stroke-width="0.992606" stroke-linecap="round"/>
<line x1="0.496303" y1="-0.496303" x2="8.68227" y2="-0.496303" transform="matrix(-0.292763 -0.956185 0.955216 -0.29591 32.3404 49.6234)" stroke="#FAA21E" stroke-width="0.992606" stroke-linecap="round"/>
<line x1="0.496303" y1="-0.496303" x2="8.68227" y2="-0.496303" transform="matrix(-0.292763 -0.956185 0.955216 -0.29591 32.3404 49.6234)" stroke="white" stroke-opacity="0.4" stroke-width="0.992606" stroke-linecap="round"/>
<line x1="0.496303" y1="-0.496303" x2="8.63736" y2="-0.496303" transform="matrix(0.962737 0.270438 -0.267517 0.963553 0 18.6228)" stroke="#FAA21E" stroke-width="0.992606" stroke-linecap="round"/>
<line x1="0.496303" y1="-0.496303" x2="8.63736" y2="-0.496303" transform="matrix(0.962737 0.270438 -0.267517 0.963553 0 18.6228)" stroke="white" stroke-opacity="0.4" stroke-width="0.992606" stroke-linecap="round"/>
<line x1="0.496303" y1="-0.496303" x2="8.65988" y2="-0.496303" transform="matrix(0.708495 -0.705716 0.701557 0.712613 6.96979 43.5022)" stroke="#FAA21E" stroke-width="0.992606" stroke-linecap="round"/>
<line x1="0.496303" y1="-0.496303" x2="8.65988" y2="-0.496303" transform="matrix(0.708495 -0.705716 0.701557 0.712613 6.96979 43.5022)" stroke="white" stroke-opacity="0.4" stroke-width="0.992606" stroke-linecap="round"/>
<line x1="0.496303" y1="-0.496303" x2="8.63764" y2="-0.496303" transform="matrix(0.960135 -0.279536 0.276533 0.961004 0.29071 32.2883)" stroke="#FAA21E" stroke-width="0.992606" stroke-linecap="round"/>
<line x1="0.496303" y1="-0.496303" x2="8.63764" y2="-0.496303" transform="matrix(0.960135 -0.279536 0.276533 0.961004 0.29071 32.2883)" stroke="white" stroke-opacity="0.4" stroke-width="0.992606" stroke-linecap="round"/>
<line x1="0.496303" y1="-0.496303" x2="8.65949" y2="-0.496303" transform="matrix(0.713579 0.700575 -0.696387 0.717666 6.39575 7.21817)" stroke="#FAA21E" stroke-width="0.992606" stroke-linecap="round"/>
<line x1="0.496303" y1="-0.496303" x2="8.65949" y2="-0.496303" transform="matrix(0.713579 0.700575 -0.696387 0.717666 6.39575 7.21817)" stroke="white" stroke-opacity="0.4" stroke-width="0.992606" stroke-linecap="round"/>
<line x1="0.496303" y1="-0.496303" x2="8.68227" y2="-0.496303" transform="matrix(0.292694 0.956206 -0.955195 0.295979 17.4431 0.199982)" stroke="#FAA21E" stroke-width="0.992606" stroke-linecap="round"/>
<line x1="0.496303" y1="-0.496303" x2="8.68227" y2="-0.496303" transform="matrix(0.292694 0.956206 -0.955195 0.295979 17.4431 0.199982)" stroke="white" stroke-opacity="0.4" stroke-width="0.992606" stroke-linecap="round"/>
<path d="M42.1757 13.8021C42.1405 13.6657 42.1084 13.5413 42.0807 13.4308C42.3357 13.2747 42.6463 13.0776 42.9559 12.8686C43.3959 12.5715 43.8632 12.2309 44.1586 11.9422C44.4937 11.6148 44.9239 11.1142 45.2833 10.6761C45.4653 11.328 45.6418 12.2382 45.6418 13.5202L45.6418 17.2786C45.5361 17.5704 45.3495 17.9906 45.1103 18.3683C44.8348 18.8031 44.557 19.0731 44.3347 19.1455C44.0524 19.2375 43.7386 19.2235 43.4412 19.1514C43.2619 19.108 43.1018 19.0465 42.9768 18.9875C42.9712 18.9063 42.966 18.8276 42.9608 18.75C42.915 18.0615 42.8751 17.4616 42.6639 16.0113C42.584 15.4621 42.4425 14.8559 42.3108 14.3309C42.2629 14.1398 42.2172 13.9626 42.1757 13.8021Z" fill="#FEFEFE" stroke="#FAA21E" stroke-width="0.956444"/>
<path d="M4.67886 17.4408C4.97508 15.7039 5.21328 14.3978 5.53186 13.3705C6.54179 13.4349 8.28866 13.7703 9.88362 14.5862C12.3959 15.8712 14.0841 16.8013 15.3337 18.0224C15.7906 18.469 16.3316 19.4084 16.8601 20.4765C17.1953 21.1538 17.5029 21.8338 17.7703 22.4248C17.8326 22.5626 17.8927 22.6956 17.9505 22.8225C16.1042 23.3491 12.5055 24.0567 9.51762 23.6075C7.83738 23.3549 6.58087 23.0404 5.69768 22.7536C5.04078 22.5402 4.6065 22.3473 4.35982 22.2144C4.37389 20.9515 4.48125 18.5995 4.67886 17.4408Z" fill="#FEFEFE" stroke="#FAA21E" stroke-width="0.956444"/>
<path d="M18.8332 9.75935C18.1172 9.29284 15.8254 7.67129 14.8818 6.92843L15.6651 2.84568C16.551 3.52416 17.6939 4.43067 18.7715 5.34815C20.1364 6.5103 21.34 7.64349 21.8217 8.34952C22.2911 9.03769 22.5377 9.86732 22.6507 10.6448C22.7155 11.0905 22.7348 11.5084 22.7302 11.8567C20.7893 11.0079 19.5331 10.2154 18.8332 9.75935ZM20.8422 18.2597C20.2205 17.9571 19.5203 17.5334 18.8112 17.0841C18.5701 16.9313 18.3271 16.775 18.0869 16.6205C17.5485 16.2742 17.0238 15.9367 16.5647 15.6675C16.3492 15.5412 16.0787 15.3791 15.7672 15.1925C14.9153 14.6821 13.7573 13.9884 12.5834 13.3412C11.7798 12.8982 10.959 12.4715 10.211 12.1341C9.47238 11.8009 8.76992 11.5386 8.21361 11.448C7.6229 11.3518 7.15961 11.2817 6.79755 11.2317C7.61124 10.5195 8.58442 9.83353 9.329 9.4697C10.2973 8.99657 11.3752 8.57986 12.919 8.27211C13.7884 8.97044 15.5482 10.2218 16.7031 11.0316C18.6645 12.4069 21.1072 13.6322 22.6798 14.3137C22.6614 14.8174 22.5832 15.5448 22.2729 16.1937C21.8406 17.0977 21.4713 17.8374 20.8422 18.2597Z" fill="#FEFEFE" stroke="#FAA21E" stroke-width="0.956444"/>
<path d="M11.4056 40.7849L13.024 37.3581H15.8371C18.0596 38.9854 22.5626 41.0499 24.3562 41.8011C26.1357 42.5464 31.2454 44.0681 34.4058 44.9024L33.8737 46.982C33.5183 47.9873 31.6054 50.1957 26.5652 49.2106C23.4049 48.5929 20.8586 46.8906 18.7919 45.2274C18.276 44.8121 17.7919 44.401 17.3353 44.0103C17.2664 43.9514 17.198 43.8928 17.1303 43.8347C16.7506 43.5095 16.3885 43.1993 16.0478 42.9201C15.2643 42.2779 14.5158 41.7303 13.8319 41.5393C12.6334 41.2047 11.852 40.9471 11.4056 40.7849Z" fill="#FEFEFE" stroke="#FAA21E" stroke-width="0.956444"/>
<path d="M37.9085 44.8191C37.8002 44.649 37.6845 44.4671 37.5594 44.2846C38.366 43.412 39.5078 41.8936 39.9969 40.9377C40.3838 40.1815 40.9042 38.9396 41.2871 37.986L42.312 39.789C42.169 40.1676 42.0634 40.6635 41.9664 41.1671C41.9291 41.3612 41.8923 41.5607 41.855 41.7637C41.7662 42.246 41.6737 42.7484 41.56 43.2471C41.3988 43.9545 41.2045 44.6078 40.9454 45.1151C40.6836 45.6276 40.3926 45.9198 40.0742 46.0264C39.6579 46.1659 39.3701 46.1683 39.1596 46.1159C38.9505 46.0638 38.7665 45.9449 38.5785 45.7489C38.3844 45.5465 38.2054 45.2832 37.9996 44.962C37.9698 44.9155 37.9395 44.8678 37.9085 44.8191Z" fill="#FEFEFE" stroke="#FAA21E" stroke-width="0.956444"/>
<path d="M34.3021 10.5696C34.4389 10.545 34.5796 10.5149 34.7235 10.4818C34.9463 10.4306 35.1982 10.3667 35.4691 10.2979C35.6649 10.2482 35.8708 10.196 36.0828 10.1442C36.6971 9.99409 37.2499 9.65781 37.6807 9.31988C37.8629 9.17693 38.0285 9.02952 38.1733 8.88845C38.7582 10.0038 39.6552 12.1686 40.0811 14.874C40.7295 18.9927 40.7301 23.1184 40.7301 25.3596C40.7301 27.1227 40.5159 31.3484 40.4058 33.2915C40.1826 34.2321 39.31 36.5492 38.7905 37.8186C38.4703 38.6009 37.8282 39.7142 37.2118 40.6609C37.3164 38.8012 37.4298 35.9982 37.4298 33.0396C37.4298 27.8948 36.773 21.1418 36.1104 17.9037C35.6448 15.6286 34.9309 12.4064 34.3021 10.5696Z" fill="#FEFEFE" stroke="#FAA21E" stroke-width="0.956444"/>
<path d="M4.42077 24.9308C5.96738 25.6657 8.80438 26.4256 12.7534 26.1571C14.8611 26.0138 16.2692 25.8115 17.2009 25.5995C17.5624 25.5173 17.8575 25.4324 18.0972 25.3466L18.1353 34.6419C17.3396 34.9306 15.4648 35.3436 12.7597 35.1233C10.8692 34.9693 9.48813 34.4347 8.42798 33.6207C7.36406 32.8037 6.58729 31.6778 5.95251 30.282C5.12408 28.4604 4.59426 26.3185 4.42077 24.9308Z" fill="#FEFEFE" stroke="#FAA21E" stroke-width="0.956444"/>
<path d="M45.6418 20.8633V24.0798V25.9998C45.6418 25.9991 45.6417 25.9999 45.6416 26.0022C45.6409 26.0115 45.6386 26.0454 45.6313 26.112C45.623 26.1864 45.6102 26.2861 45.5927 26.405C45.5576 26.6429 45.5042 26.9521 45.4317 27.2847C45.2824 27.969 45.0666 28.6823 44.7985 29.1027C44.2539 29.9568 43.4988 30.2125 42.9928 30.289L42.9314 21.6013C43.2993 21.7405 43.788 21.8132 44.397 21.6644C44.9234 21.5357 45.3336 21.2067 45.6418 20.8633Z" fill="#FEFEFE" stroke="#FAA21E" stroke-width="0.956444"/>
<path d="M20.4027 22.7878L20.3997 22.6725L20.3444 22.5713L18.7277 19.6087C18.8242 19.6738 18.9205 19.7379 19.0158 19.8004C19.3771 20.0371 19.7328 20.2561 20.0369 20.4177C20.1886 20.4983 20.3358 20.569 20.4696 20.6208C20.591 20.6677 20.7494 20.7186 20.907 20.7186C21.2054 20.7186 21.5241 20.5824 21.8178 20.3911C22.1243 20.1913 22.4547 19.8984 22.7853 19.5107C23.4477 18.7339 24.1312 17.5535 24.6386 15.9007C25.3118 13.7075 25.1143 11.3833 24.8313 9.9952C27.2176 10.504 29.4877 10.7612 31.8753 10.6557C32.2071 11.5885 32.5574 12.9608 32.8897 14.426C33.1974 15.7822 33.4843 17.193 33.7232 18.3675C33.7721 18.6078 33.819 18.8382 33.8636 19.0563C34.5124 22.2265 35.1636 28.9143 35.1636 31.1204C35.1636 32.7986 34.9704 39.1506 34.8566 42.6506C28.5377 40.8202 24.7907 39.4714 19.1974 36.7887C19.4469 36.712 19.7056 36.6072 19.9188 36.4614C20.1617 36.2954 20.4278 36.0153 20.4278 35.6003C20.4278 35.5363 20.4293 35.3278 20.4318 35.005C20.4472 32.9692 20.4971 26.3855 20.4027 22.7878Z" fill="#FEFEFE" stroke="#FAA21E" stroke-width="0.956444"/>
<path d="M41.5912 11.152L40.9005 5.81088C41.1246 5.85521 41.4679 5.97045 41.9488 6.25243C42.9993 6.86841 43.7898 8.08361 44.1966 8.74409C44.1465 8.84465 44.1015 8.92697 44.022 9.03966C43.8883 9.22899 43.6569 9.49829 43.1662 9.97788C42.5987 10.5325 42.0589 10.8807 41.5912 11.152Z" fill="#FEFEFE" stroke="#FAA21E" stroke-width="0.956444"/>
<path d="M35.1009 5.35985L35.352 5.37736C35.352 5.37738 35.3521 5.3774 35.3521 5.37741C35.2882 5.37293 35.2061 5.36719 35.1009 5.35985ZM35.5526 5.53776C35.5599 5.50997 35.5652 5.48501 35.569 5.46363C35.8363 5.57162 36.1017 5.68563 36.3062 5.78787C36.7407 6.00499 36.9301 6.19478 37.019 6.33538C37.1028 6.46811 37.1283 6.60521 37.1283 6.79978C37.1283 6.84498 37.0973 6.96642 36.8946 7.15216C36.7004 7.33003 36.4029 7.51463 36.0223 7.68199C35.2623 8.01621 34.2635 8.24153 33.3497 8.24155C31.0253 8.24163 27.9286 8.24138 23.8729 7.64786C23.7594 7.40298 23.5919 7.13012 23.4217 6.88161C23.1619 6.50207 22.842 6.10217 22.551 5.81776C22.4042 5.67436 22.2109 5.49354 21.9932 5.29739C23.6314 5.70623 25.6978 6.14847 27.4093 6.31573C29.0589 6.47695 30.6256 6.55802 31.9083 6.55804C33.1665 6.55806 34.2169 6.4812 34.7899 6.29456C35.1228 6.1861 35.3294 5.98821 35.4465 5.78966C35.5024 5.69486 35.5343 5.6064 35.5526 5.53776Z" fill="#FEFEFE" stroke="#FAA21E" stroke-width="0.956444"/>
<path d="M36.7339 3.97237C35.8567 3.53381 35.7415 3.47869 34.7055 3.13149L35.3424 0.902457L37.1813 2.37354C38.2876 3.25865 38.7129 4.11799 38.932 5.1587C39.0063 5.51162 39.0569 5.88597 39.0999 6.29502C38.8553 5.86336 38.6202 5.51845 38.3901 5.23728C37.7853 4.49811 37.2316 4.22124 36.736 3.97343L36.7339 3.97237Z" fill="#FEFEFE" stroke="#FAA21E" stroke-width="0.956444"/>
<path d="M28.975 23.3188C28.1629 22.8075 27.6486 21.4213 27.0373 20.6823C26.8411 21.6211 27.1525 22.8795 26.5526 23.9182C26.016 24.8472 25.249 25.5761 24.1416 26.2952C25.4566 26.415 26.5708 26.7625 27.3828 27.2739C28.1948 27.7852 28.8438 29.1381 29.3205 29.9104C29.3475 28.8651 29.2686 27.6036 29.8052 26.6745C30.4051 25.6358 31.1088 25.0166 32.2162 24.2975C31.3049 24.0778 29.99 23.958 28.975 23.3188Z" fill="#FAA21E"/>
</svg>
