<svg width="50" height="50" viewBox="0 0 50 50" fill="none" xmlns="http://www.w3.org/2000/svg">
<line x1="24.9523" y1="7.89375" x2="24.9523" y2="2.45137" stroke="#FAA21E" stroke-width="0.992606" stroke-linecap="round"/>
<line x1="24.9523" y1="7.89375" x2="24.9523" y2="2.45137" stroke="white" stroke-opacity="0.4" stroke-width="0.992606" stroke-linecap="round"/>
<line x1="24.9523" y1="47.6737" x2="24.9523" y2="42.2314" stroke="#FAA21E" stroke-width="0.992606" stroke-linecap="round"/>
<line x1="24.9523" y1="47.6737" x2="24.9523" y2="42.2314" stroke="white" stroke-opacity="0.4" stroke-width="0.992606" stroke-linecap="round"/>
<line x1="47.2915" y1="25.0969" x2="41.8735" y2="25.0969" stroke="#FAA21E" stroke-width="0.992606" stroke-linecap="round"/>
<line x1="47.2915" y1="25.0969" x2="41.8735" y2="25.0969" stroke="white" stroke-opacity="0.4" stroke-width="0.992606" stroke-linecap="round"/>
<line x1="0.496303" y1="-0.496303" x2="5.9327" y2="-0.496303" transform="matrix(-0.49369 0.869638 -0.868018 -0.496532 35.8096 4.58771)" stroke="#FAA21E" stroke-width="0.992606" stroke-linecap="round"/>
<line x1="0.496303" y1="-0.496303" x2="5.9327" y2="-0.496303" transform="matrix(-0.49369 0.869638 -0.868018 -0.496532 35.8096 4.58771)" stroke="white" stroke-opacity="0.4" stroke-width="0.992606" stroke-linecap="round"/>
<line x1="0.496303" y1="-0.496303" x2="5.92043" y2="-0.496303" transform="matrix(-0.849492 0.527602 -0.524708 -0.851282 44.6108 12.5785)" stroke="#FAA21E" stroke-width="0.992606" stroke-linecap="round"/>
<line x1="0.496303" y1="-0.496303" x2="5.92043" y2="-0.496303" transform="matrix(-0.849492 0.527602 -0.524708 -0.851282 44.6108 12.5785)" stroke="white" stroke-opacity="0.4" stroke-width="0.992606" stroke-linecap="round"/>
<line x1="0.496303" y1="-0.496303" x2="5.92028" y2="-0.496303" transform="matrix(-0.876356 -0.481664 0.478853 -0.877895 45.5423 36.1565)" stroke="#FAA21E" stroke-width="0.992606" stroke-linecap="round"/>
<line x1="0.496303" y1="-0.496303" x2="5.92028" y2="-0.496303" transform="matrix(-0.876356 -0.481664 0.478853 -0.877895 45.5423 36.1565)" stroke="white" stroke-opacity="0.4" stroke-width="0.992606" stroke-linecap="round"/>
<line x1="0.496303" y1="-0.496303" x2="5.93155" y2="-0.496303" transform="matrix(-0.539091 -0.842248 0.840378 -0.542001 37.323 44.6622)" stroke="#FAA21E" stroke-width="0.992606" stroke-linecap="round"/>
<line x1="0.496303" y1="-0.496303" x2="5.93155" y2="-0.496303" transform="matrix(-0.539091 -0.842248 0.840378 -0.542001 37.323 44.6622)" stroke="white" stroke-opacity="0.4" stroke-width="0.992606" stroke-linecap="round"/>
<line x1="2.53604" y1="25.1537" x2="7.95399" y2="25.1537" stroke="#FAA21E" stroke-width="0.992606" stroke-linecap="round"/>
<line x1="2.53604" y1="25.1537" x2="7.95399" y2="25.1537" stroke="white" stroke-opacity="0.4" stroke-width="0.992606" stroke-linecap="round"/>
<line x1="0.496303" y1="-0.496303" x2="5.9327" y2="-0.496303" transform="matrix(0.49369 -0.869638 0.868018 0.496533 14.018 45.2472)" stroke="#FAA21E" stroke-width="0.992606" stroke-linecap="round"/>
<line x1="0.496303" y1="-0.496303" x2="5.9327" y2="-0.496303" transform="matrix(0.49369 -0.869638 0.868018 0.496533 14.018 45.2472)" stroke="white" stroke-opacity="0.4" stroke-width="0.992606" stroke-linecap="round"/>
<line x1="0.496303" y1="-0.496303" x2="5.92043" y2="-0.496303" transform="matrix(0.849492 -0.527602 0.524708 0.851282 5.21674 37.2563)" stroke="#FAA21E" stroke-width="0.992606" stroke-linecap="round"/>
<line x1="0.496303" y1="-0.496303" x2="5.92043" y2="-0.496303" transform="matrix(0.849492 -0.527602 0.524708 0.851282 5.21674 37.2563)" stroke="white" stroke-opacity="0.4" stroke-width="0.992606" stroke-linecap="round"/>
<line x1="0.496303" y1="-0.496303" x2="5.92028" y2="-0.496303" transform="matrix(0.876356 0.481664 -0.478854 0.877895 4.69482 14.142)" stroke="#FAA21E" stroke-width="0.992606" stroke-linecap="round"/>
<line x1="0.496303" y1="-0.496303" x2="5.92028" y2="-0.496303" transform="matrix(0.876356 0.481664 -0.478854 0.877895 4.69482 14.142)" stroke="white" stroke-opacity="0.4" stroke-width="0.992606" stroke-linecap="round"/>
<line x1="0.496303" y1="-0.496303" x2="5.93155" y2="-0.496303" transform="matrix(0.539091 0.842248 -0.840378 0.542001 12.5045 5.17261)" stroke="#FAA21E" stroke-width="0.992606" stroke-linecap="round"/>
<line x1="0.496303" y1="-0.496303" x2="5.93155" y2="-0.496303" transform="matrix(0.539091 0.842248 -0.840378 0.542001 12.5045 5.17261)" stroke="white" stroke-opacity="0.4" stroke-width="0.992606" stroke-linecap="round"/>
<line x1="0.496303" y1="-0.496303" x2="8.68672" y2="-0.496303" transform="matrix(0.268027 -0.963411 0.962881 0.269925 29.9395 9.04703)" stroke="#FAA21E" stroke-width="0.992606" stroke-linecap="round"/>
<line x1="0.496303" y1="-0.496303" x2="8.68672" y2="-0.496303" transform="matrix(0.268027 -0.963411 0.962881 0.269925 29.9395 9.04703)" stroke="white" stroke-opacity="0.4" stroke-width="0.992606" stroke-linecap="round"/>
<line x1="0.496303" y1="-0.496303" x2="8.68672" y2="-0.496303" transform="matrix(0.268027 -0.963411 0.962881 0.269925 18.6489 49.9971)" stroke="#FAA21E" stroke-width="0.992606" stroke-linecap="round"/>
<line x1="0.496303" y1="-0.496303" x2="8.68672" y2="-0.496303" transform="matrix(0.268027 -0.963411 0.962881 0.269925 18.6489 49.9971)" stroke="white" stroke-opacity="0.4" stroke-width="0.992606" stroke-linecap="round"/>
<line x1="0.496303" y1="-0.496303" x2="8.65707" y2="-0.496303" transform="matrix(-0.962882 -0.269925 0.268027 -0.963411 49.8993 31.3357)" stroke="#FAA21E" stroke-width="0.992606" stroke-linecap="round"/>
<line x1="0.496303" y1="-0.496303" x2="8.65707" y2="-0.496303" transform="matrix(-0.962882 -0.269925 0.268027 -0.963411 49.8993 31.3357)" stroke="white" stroke-opacity="0.4" stroke-width="0.992606" stroke-linecap="round"/>
<line x1="0.496303" y1="-0.496303" x2="8.67165" y2="-0.496303" transform="matrix(-0.709218 0.704989 -0.702287 -0.711894 42.9257 6.34272)" stroke="#FAA21E" stroke-width="0.992606" stroke-linecap="round"/>
<line x1="0.496303" y1="-0.496303" x2="8.67165" y2="-0.496303" transform="matrix(-0.709218 0.704989 -0.702287 -0.711894 42.9257 6.34272)" stroke="white" stroke-opacity="0.4" stroke-width="0.992606" stroke-linecap="round"/>
<line x1="0.496303" y1="-0.496303" x2="8.65725" y2="-0.496303" transform="matrix(-0.960289 0.279008 -0.277057 -0.960853 49.5843 17.75)" stroke="#FAA21E" stroke-width="0.992606" stroke-linecap="round"/>
<line x1="0.496303" y1="-0.496303" x2="8.65725" y2="-0.496303" transform="matrix(-0.960289 0.279008 -0.277057 -0.960853 49.5843 17.75)" stroke="white" stroke-opacity="0.4" stroke-width="0.992606" stroke-linecap="round"/>
<line x1="0.496303" y1="-0.496303" x2="8.6714" y2="-0.496303" transform="matrix(-0.714297 -0.699843 0.697122 -0.716952 43.5549 42.886)" stroke="#FAA21E" stroke-width="0.992606" stroke-linecap="round"/>
<line x1="0.496303" y1="-0.496303" x2="8.6714" y2="-0.496303" transform="matrix(-0.714297 -0.699843 0.697122 -0.716952 43.5549 42.886)" stroke="white" stroke-opacity="0.4" stroke-width="0.992606" stroke-linecap="round"/>
<line x1="0.496303" y1="-0.496303" x2="8.68622" y2="-0.496303" transform="matrix(-0.293312 -0.956017 0.955387 -0.295357 32.415 49.636)" stroke="#FAA21E" stroke-width="0.992606" stroke-linecap="round"/>
<line x1="0.496303" y1="-0.496303" x2="8.68622" y2="-0.496303" transform="matrix(-0.293312 -0.956017 0.955387 -0.295357 32.415 49.636)" stroke="white" stroke-opacity="0.4" stroke-width="0.992606" stroke-linecap="round"/>
<line x1="0.496303" y1="-0.496303" x2="8.65707" y2="-0.496303" transform="matrix(0.962881 0.269925 -0.268027 0.963412 0 18.6275)" stroke="#FAA21E" stroke-width="0.992606" stroke-linecap="round"/>
<line x1="0.496303" y1="-0.496303" x2="8.65707" y2="-0.496303" transform="matrix(0.962881 0.269925 -0.268027 0.963412 0 18.6275)" stroke="white" stroke-opacity="0.4" stroke-width="0.992606" stroke-linecap="round"/>
<line x1="0.496303" y1="-0.496303" x2="8.67165" y2="-0.496303" transform="matrix(0.709218 -0.704989 0.702287 0.711894 6.9859 43.5132)" stroke="#FAA21E" stroke-width="0.992606" stroke-linecap="round"/>
<line x1="0.496303" y1="-0.496303" x2="8.67165" y2="-0.496303" transform="matrix(0.709218 -0.704989 0.702287 0.711894 6.9859 43.5132)" stroke="white" stroke-opacity="0.4" stroke-width="0.992606" stroke-linecap="round"/>
<line x1="0.496303" y1="-0.496303" x2="8.65726" y2="-0.496303" transform="matrix(0.960289 -0.279008 0.277057 0.960853 0.291382 32.2965)" stroke="#FAA21E" stroke-width="0.992606" stroke-linecap="round"/>
<line x1="0.496303" y1="-0.496303" x2="8.65726" y2="-0.496303" transform="matrix(0.960289 -0.279008 0.277057 0.960853 0.291382 32.2965)" stroke="white" stroke-opacity="0.4" stroke-width="0.992606" stroke-linecap="round"/>
<line x1="0.496303" y1="-0.496303" x2="8.6714" y2="-0.496303" transform="matrix(0.714297 0.699843 -0.697122 0.716952 6.41052 7.22001)" stroke="#FAA21E" stroke-width="0.992606" stroke-linecap="round"/>
<line x1="0.496303" y1="-0.496303" x2="8.6714" y2="-0.496303" transform="matrix(0.714297 0.699843 -0.697122 0.716952 6.41052 7.22001)" stroke="white" stroke-opacity="0.4" stroke-width="0.992606" stroke-linecap="round"/>
<line x1="0.496303" y1="-0.496303" x2="8.68622" y2="-0.496303" transform="matrix(0.293243 0.956038 -0.955366 0.295425 17.4833 0.200039)" stroke="#FAA21E" stroke-width="0.992606" stroke-linecap="round"/>
<line x1="0.496303" y1="-0.496303" x2="8.68622" y2="-0.496303" transform="matrix(0.293243 0.956038 -0.955366 0.295425 17.4833 0.200039)" stroke="white" stroke-opacity="0.4" stroke-width="0.992606" stroke-linecap="round"/>
<path d="M18.3426 29.0396C18.0275 26.011 19.1988 23.6517 19.8079 23.2152L15.1507 23.5954L11.8841 29.1322C11.9562 29.7956 13.6889 32.8487 15.4692 34.8626C17.7989 37.4979 20.0993 39.4474 21.1484 40.2007L22.7231 38.9206C20.8826 36.2887 18.597 31.4837 18.3426 29.0396Z" fill="#FAA21E"/>
<path d="M12.8975 49.5018H2.49889C2.5177 43.2416 2.89324 38.065 3.67704 33.9049C4.48244 29.6301 5.71193 26.4677 7.39321 24.306C9.12548 22.0788 10.4618 20.7936 11.595 19.9811C12.721 19.1736 13.667 18.8173 14.6637 18.4705C15.097 18.3197 15.9722 18.2026 17.1065 18.1222C18.2192 18.0433 19.5206 18.003 20.7652 17.9845C22.0087 17.9661 23.19 17.9695 24.0608 17.9776C24.4407 17.9811 24.7613 17.9855 25.0019 17.9893V24.001C24.877 24.0006 24.7504 24 24.6222 23.9994C22.9942 23.9922 21.1163 23.9839 19.3739 24.1727C17.331 24.394 15.3292 24.8977 14.1243 26.121C12.9398 27.3237 12.4094 28.6349 12.1768 30.3558C11.9866 31.7623 11.9921 33.4794 11.9991 35.6577C12.0004 36.0868 12.0019 36.5339 12.0019 37C12.0019 40.8708 12.4567 45.2286 12.7368 47.9119C12.8028 48.5443 12.8591 49.0837 12.8975 49.5018Z" fill="#FEFEFE" stroke="#FAA21E" stroke-width="0.996296"/>
<path d="M38.3198 1.59057C38.292 1.68891 38.263 1.79102 38.233 1.89688C37.3391 5.04665 35.5019 11.5207 35.5019 21.0001C35.5019 30.655 37.406 37.5888 38.2875 40.4087C37.86 40.3015 37.4081 40.1033 36.9341 39.8218C36.1902 39.3799 35.4242 38.7517 34.6575 38.0157C33.3352 36.7463 32.0575 35.2028 30.9234 33.833C30.7393 33.6105 30.5589 33.3926 30.3827 33.1811C29.1613 31.7154 27.7726 29.499 26.6801 27.6287C26.1363 26.6976 25.6699 25.8594 25.3396 25.2541C25.1745 24.9515 25.0435 24.7073 24.9539 24.539C24.9214 24.4781 24.8944 24.4271 24.8731 24.3869V17.7784L24.9728 17.603C25.0786 17.4169 25.2321 17.1482 25.4221 16.8178C25.8021 16.157 26.3283 15.25 26.9127 14.2654C28.0867 12.2876 29.4798 10.024 30.3985 8.79894C31.3295 7.55767 32.8103 5.7079 34.4217 4.17329C35.2276 3.40576 36.054 2.72879 36.85 2.24639C37.3751 1.92811 37.8682 1.70608 38.3198 1.59057Z" fill="#FEFEFE" stroke="#FAA21E" stroke-width="0.996296"/>
<ellipse cx="39" cy="21.0001" rx="3" ry="20" fill="#FAA21E"/>
<path d="M48.5019 21.0001C48.5019 22.9341 46.934 24.5019 45 24.5019C43.066 24.5019 41.4981 22.9341 41.4981 21.0001C41.4981 19.066 43.066 17.4982 45 17.4982C46.934 17.4982 48.5019 19.066 48.5019 21.0001Z" fill="#FEFEFE" stroke="#FAA21E" stroke-width="0.996296"/>
<path d="M36 20.0001H43V22.4992H36V20.0001Z" fill="#FEFEFE"/>
</svg>
