<svg width="50" height="50" viewBox="0 0 50 50" fill="none" xmlns="http://www.w3.org/2000/svg">
<line x1="24.8938" y1="7.89164" x2="24.8938" y2="2.4509" stroke="#FAA21E" stroke-width="0.992606" stroke-linecap="round"/>
<line x1="24.8938" y1="7.89164" x2="24.8938" y2="2.4509" stroke="white" stroke-opacity="0.4" stroke-width="0.992606" stroke-linecap="round"/>
<line x1="24.8938" y1="47.6615" x2="24.8938" y2="42.2207" stroke="#FAA21E" stroke-width="0.992606" stroke-linecap="round"/>
<line x1="24.8938" y1="47.6615" x2="24.8938" y2="42.2207" stroke="white" stroke-opacity="0.4" stroke-width="0.992606" stroke-linecap="round"/>
<line x1="47.1815" y1="25.0907" x2="41.7783" y2="25.0907" stroke="#FAA21E" stroke-width="0.992606" stroke-linecap="round"/>
<line x1="47.1815" y1="25.0907" x2="41.7783" y2="25.0907" stroke="white" stroke-opacity="0.4" stroke-width="0.992606" stroke-linecap="round"/>
<line x1="0.496303" y1="-0.496303" x2="5.90855" y2="-0.496303" transform="matrix(-0.875939 -0.482423 0.478097 -0.878307 45.4374 36.1473)" stroke="#FAA21E" stroke-width="0.992606" stroke-linecap="round"/>
<line x1="0.496303" y1="-0.496303" x2="5.90855" y2="-0.496303" transform="matrix(-0.875939 -0.482423 0.478097 -0.878307 45.4374 36.1473)" stroke="white" stroke-opacity="0.4" stroke-width="0.992606" stroke-linecap="round"/>
<line x1="0.496303" y1="-0.496303" x2="5.9261" y2="-0.496303" transform="matrix(-0.538307 -0.842749 0.839871 -0.542786 37.2371 44.6508)" stroke="#FAA21E" stroke-width="0.992606" stroke-linecap="round"/>
<line x1="0.496303" y1="-0.496303" x2="5.9261" y2="-0.496303" transform="matrix(-0.538307 -0.842749 0.839871 -0.542786 37.2371 44.6508)" stroke="white" stroke-opacity="0.4" stroke-width="0.992606" stroke-linecap="round"/>
<line x1="2.53128" y1="25.1472" x2="7.93447" y2="25.1472" stroke="#FAA21E" stroke-width="0.992606" stroke-linecap="round"/>
<line x1="2.53128" y1="25.1472" x2="7.93447" y2="25.1472" stroke="white" stroke-opacity="0.4" stroke-width="0.992606" stroke-linecap="round"/>
<line x1="0.496303" y1="-0.496303" x2="5.92786" y2="-0.496303" transform="matrix(0.492924 -0.870072 0.867579 0.4973 13.9858 45.2357)" stroke="#FAA21E" stroke-width="0.992606" stroke-linecap="round"/>
<line x1="0.496303" y1="-0.496303" x2="5.92786" y2="-0.496303" transform="matrix(0.492924 -0.870072 0.867579 0.4973 13.9858 45.2357)" stroke="white" stroke-opacity="0.4" stroke-width="0.992606" stroke-linecap="round"/>
<line x1="0.496303" y1="-0.496303" x2="5.90932" y2="-0.496303" transform="matrix(0.849006 -0.528383 0.523928 0.851763 5.20471 37.2468)" stroke="#FAA21E" stroke-width="0.992606" stroke-linecap="round"/>
<line x1="0.496303" y1="-0.496303" x2="5.90932" y2="-0.496303" transform="matrix(0.849006 -0.528383 0.523928 0.851763 5.20471 37.2468)" stroke="white" stroke-opacity="0.4" stroke-width="0.992606" stroke-linecap="round"/>
<line x1="0.496303" y1="-0.496303" x2="5.90855" y2="-0.496303" transform="matrix(0.875939 0.482423 -0.478097 0.878307 4.68408 14.1384)" stroke="#FAA21E" stroke-width="0.992606" stroke-linecap="round"/>
<line x1="0.496303" y1="-0.496303" x2="5.90855" y2="-0.496303" transform="matrix(0.875939 0.482423 -0.478097 0.878307 4.68408 14.1384)" stroke="white" stroke-opacity="0.4" stroke-width="0.992606" stroke-linecap="round"/>
<line x1="0.496303" y1="-0.496303" x2="5.92609" y2="-0.496303" transform="matrix(0.538307 0.842749 -0.839871 0.542786 12.4756 5.17133)" stroke="#FAA21E" stroke-width="0.992606" stroke-linecap="round"/>
<line x1="0.496303" y1="-0.496303" x2="5.92609" y2="-0.496303" transform="matrix(0.538307 0.842749 -0.839871 0.542786 12.4756 5.17133)" stroke="white" stroke-opacity="0.4" stroke-width="0.992606" stroke-linecap="round"/>
<line x1="0.496303" y1="-0.496303" x2="8.68303" y2="-0.496303" transform="matrix(0.267517 -0.963553 0.962737 0.270438 29.8707 9.04474)" stroke="#FAA21E" stroke-width="0.992606" stroke-linecap="round"/>
<line x1="0.496303" y1="-0.496303" x2="8.68303" y2="-0.496303" transform="matrix(0.267517 -0.963553 0.962737 0.270438 29.8707 9.04474)" stroke="white" stroke-opacity="0.4" stroke-width="0.992606" stroke-linecap="round"/>
<line x1="0.496303" y1="-0.496303" x2="8.68303" y2="-0.496303" transform="matrix(0.267517 -0.963553 0.962737 0.270438 18.606 49.9843)" stroke="#FAA21E" stroke-width="0.992606" stroke-linecap="round"/>
<line x1="0.496303" y1="-0.496303" x2="8.68303" y2="-0.496303" transform="matrix(0.267517 -0.963553 0.962737 0.270438 18.606 49.9843)" stroke="white" stroke-opacity="0.4" stroke-width="0.992606" stroke-linecap="round"/>
<line x1="0.496303" y1="-0.496303" x2="8.63736" y2="-0.496303" transform="matrix(-0.962737 -0.270438 0.267517 -0.963553 49.7844 31.3277)" stroke="#FAA21E" stroke-width="0.992606" stroke-linecap="round"/>
<line x1="0.496303" y1="-0.496303" x2="8.63736" y2="-0.496303" transform="matrix(-0.962737 -0.270438 0.267517 -0.963553 49.7844 31.3277)" stroke="white" stroke-opacity="0.4" stroke-width="0.992606" stroke-linecap="round"/>
<line x1="0.496303" y1="-0.496303" x2="8.63764" y2="-0.496303" transform="matrix(-0.960135 0.279536 -0.276533 -0.961004 49.4702 17.7455)" stroke="#FAA21E" stroke-width="0.992606" stroke-linecap="round"/>
<line x1="0.496303" y1="-0.496303" x2="8.63764" y2="-0.496303" transform="matrix(-0.960135 0.279536 -0.276533 -0.961004 49.4702 17.7455)" stroke="white" stroke-opacity="0.4" stroke-width="0.992606" stroke-linecap="round"/>
<line x1="0.496303" y1="-0.496303" x2="8.6595" y2="-0.496303" transform="matrix(-0.713579 -0.700575 0.696387 -0.717666 43.4546 42.875)" stroke="#FAA21E" stroke-width="0.992606" stroke-linecap="round"/>
<line x1="0.496303" y1="-0.496303" x2="8.6595" y2="-0.496303" transform="matrix(-0.713579 -0.700575 0.696387 -0.717666 43.4546 42.875)" stroke="white" stroke-opacity="0.4" stroke-width="0.992606" stroke-linecap="round"/>
<line x1="0.496303" y1="-0.496303" x2="8.68227" y2="-0.496303" transform="matrix(-0.292763 -0.956185 0.955216 -0.29591 32.3404 49.6234)" stroke="#FAA21E" stroke-width="0.992606" stroke-linecap="round"/>
<line x1="0.496303" y1="-0.496303" x2="8.68227" y2="-0.496303" transform="matrix(-0.292763 -0.956185 0.955216 -0.29591 32.3404 49.6234)" stroke="white" stroke-opacity="0.4" stroke-width="0.992606" stroke-linecap="round"/>
<line x1="0.496303" y1="-0.496303" x2="8.63736" y2="-0.496303" transform="matrix(0.962737 0.270438 -0.267517 0.963553 0 18.6228)" stroke="#FAA21E" stroke-width="0.992606" stroke-linecap="round"/>
<line x1="0.496303" y1="-0.496303" x2="8.63736" y2="-0.496303" transform="matrix(0.962737 0.270438 -0.267517 0.963553 0 18.6228)" stroke="white" stroke-opacity="0.4" stroke-width="0.992606" stroke-linecap="round"/>
<line x1="0.496303" y1="-0.496303" x2="8.65988" y2="-0.496303" transform="matrix(0.708495 -0.705716 0.701557 0.712613 6.96979 43.5021)" stroke="#FAA21E" stroke-width="0.992606" stroke-linecap="round"/>
<line x1="0.496303" y1="-0.496303" x2="8.65988" y2="-0.496303" transform="matrix(0.708495 -0.705716 0.701557 0.712613 6.96979 43.5021)" stroke="white" stroke-opacity="0.4" stroke-width="0.992606" stroke-linecap="round"/>
<line x1="0.496303" y1="-0.496303" x2="8.63764" y2="-0.496303" transform="matrix(0.960135 -0.279536 0.276533 0.961004 0.29071 32.2883)" stroke="#FAA21E" stroke-width="0.992606" stroke-linecap="round"/>
<line x1="0.496303" y1="-0.496303" x2="8.63764" y2="-0.496303" transform="matrix(0.960135 -0.279536 0.276533 0.961004 0.29071 32.2883)" stroke="white" stroke-opacity="0.4" stroke-width="0.992606" stroke-linecap="round"/>
<line x1="0.496303" y1="-0.496303" x2="8.65949" y2="-0.496303" transform="matrix(0.713579 0.700575 -0.696387 0.717666 6.39575 7.21814)" stroke="#FAA21E" stroke-width="0.992606" stroke-linecap="round"/>
<line x1="0.496303" y1="-0.496303" x2="8.65949" y2="-0.496303" transform="matrix(0.713579 0.700575 -0.696387 0.717666 6.39575 7.21814)" stroke="white" stroke-opacity="0.4" stroke-width="0.992606" stroke-linecap="round"/>
<line x1="0.496303" y1="-0.496303" x2="8.68227" y2="-0.496303" transform="matrix(0.292694 0.956206 -0.955195 0.295979 17.4431 0.200012)" stroke="#FAA21E" stroke-width="0.992606" stroke-linecap="round"/>
<line x1="0.496303" y1="-0.496303" x2="8.68227" y2="-0.496303" transform="matrix(0.292694 0.956206 -0.955195 0.295979 17.4431 0.200012)" stroke="white" stroke-opacity="0.4" stroke-width="0.992606" stroke-linecap="round"/>
<path d="M28.7367 19.9609L32.5199 15.7554L34.2447 17.4801L30.0392 21.2634L28.7367 19.9609ZM0.519977 47.2211L27.108 21.6137L28.3864 22.892L2.77888 49.4801H1.21539L0.519976 48.7847L0.519977 47.2211Z" fill="#FEFEFE" stroke="#FAA21E" stroke-width="1.03994"/>
<path d="M41.5743 7.8138L33.7909 14.1369L33.6903 14.0364C33.7687 13.8514 33.8719 13.5985 33.9763 13.3149C34.1833 12.7526 34.423 11.9977 34.4421 11.4182L34.5297 8.76404L48.817 1.19086L41.3225 15.5592L38.6706 15.6466C38.1199 15.6648 37.3328 15.8379 36.7197 15.9925C36.4053 16.0717 36.1226 16.1499 35.9187 16.2081C35.9036 16.2125 35.8889 16.2167 35.8747 16.2208L35.7522 16.0983L42.266 8.52528L41.5743 7.8138Z" fill="#FEFEFE" stroke="#FAA21E" stroke-width="0.996296"/>
</svg>
