<svg width="50" height="50" viewBox="0 0 50 50" fill="none" xmlns="http://www.w3.org/2000/svg">
<line x1="24.8938" y1="7.89164" x2="24.8938" y2="2.4509" stroke="#FAA21E" stroke-width="0.992606" stroke-linecap="round"/>
<line x1="24.8938" y1="7.89164" x2="24.8938" y2="2.4509" stroke="white" stroke-opacity="0.4" stroke-width="0.992606" stroke-linecap="round"/>
<line x1="24.8938" y1="47.6615" x2="24.8938" y2="42.2207" stroke="#FAA21E" stroke-width="0.992606" stroke-linecap="round"/>
<line x1="24.8938" y1="47.6615" x2="24.8938" y2="42.2207" stroke="white" stroke-opacity="0.4" stroke-width="0.992606" stroke-linecap="round"/>
<line x1="47.1815" y1="25.0907" x2="41.7783" y2="25.0907" stroke="#FAA21E" stroke-width="0.992606" stroke-linecap="round"/>
<line x1="47.1815" y1="25.0907" x2="41.7783" y2="25.0907" stroke="white" stroke-opacity="0.4" stroke-width="0.992606" stroke-linecap="round"/>
<line x1="0.496303" y1="-0.496303" x2="5.92786" y2="-0.496303" transform="matrix(-0.492925 0.870072 -0.867579 -0.4973 35.7271 4.58655)" stroke="#FAA21E" stroke-width="0.992606" stroke-linecap="round"/>
<line x1="0.496303" y1="-0.496303" x2="5.92786" y2="-0.496303" transform="matrix(-0.492925 0.870072 -0.867579 -0.4973 35.7271 4.58655)" stroke="white" stroke-opacity="0.4" stroke-width="0.992606" stroke-linecap="round"/>
<line x1="0.496303" y1="-0.496303" x2="5.90932" y2="-0.496303" transform="matrix(-0.849007 0.528382 -0.523929 -0.851762 44.5081 12.5753)" stroke="#FAA21E" stroke-width="0.992606" stroke-linecap="round"/>
<line x1="0.496303" y1="-0.496303" x2="5.90932" y2="-0.496303" transform="matrix(-0.849007 0.528382 -0.523929 -0.851762 44.5081 12.5753)" stroke="white" stroke-opacity="0.4" stroke-width="0.992606" stroke-linecap="round"/>
<line x1="0.496303" y1="-0.496303" x2="5.90855" y2="-0.496303" transform="matrix(-0.875939 -0.482423 0.478097 -0.878307 45.4374 36.1473)" stroke="#FAA21E" stroke-width="0.992606" stroke-linecap="round"/>
<line x1="0.496303" y1="-0.496303" x2="5.90855" y2="-0.496303" transform="matrix(-0.875939 -0.482423 0.478097 -0.878307 45.4374 36.1473)" stroke="white" stroke-opacity="0.4" stroke-width="0.992606" stroke-linecap="round"/>
<line x1="0.496303" y1="-0.496303" x2="5.9261" y2="-0.496303" transform="matrix(-0.538307 -0.842749 0.839871 -0.542786 37.2371 44.6508)" stroke="#FAA21E" stroke-width="0.992606" stroke-linecap="round"/>
<line x1="0.496303" y1="-0.496303" x2="5.9261" y2="-0.496303" transform="matrix(-0.538307 -0.842749 0.839871 -0.542786 37.2371 44.6508)" stroke="white" stroke-opacity="0.4" stroke-width="0.992606" stroke-linecap="round"/>
<line x1="2.53128" y1="25.1472" x2="7.93447" y2="25.1472" stroke="#FAA21E" stroke-width="0.992606" stroke-linecap="round"/>
<line x1="2.53128" y1="25.1472" x2="7.93447" y2="25.1472" stroke="white" stroke-opacity="0.4" stroke-width="0.992606" stroke-linecap="round"/>
<line x1="0.496303" y1="-0.496303" x2="5.92786" y2="-0.496303" transform="matrix(0.492924 -0.870072 0.867579 0.4973 13.9858 45.2357)" stroke="#FAA21E" stroke-width="0.992606" stroke-linecap="round"/>
<line x1="0.496303" y1="-0.496303" x2="5.92786" y2="-0.496303" transform="matrix(0.492924 -0.870072 0.867579 0.4973 13.9858 45.2357)" stroke="white" stroke-opacity="0.4" stroke-width="0.992606" stroke-linecap="round"/>
<line x1="0.496303" y1="-0.496303" x2="5.90932" y2="-0.496303" transform="matrix(0.849006 -0.528383 0.523928 0.851763 5.20471 37.2468)" stroke="#FAA21E" stroke-width="0.992606" stroke-linecap="round"/>
<line x1="0.496303" y1="-0.496303" x2="5.90932" y2="-0.496303" transform="matrix(0.849006 -0.528383 0.523928 0.851763 5.20471 37.2468)" stroke="white" stroke-opacity="0.4" stroke-width="0.992606" stroke-linecap="round"/>
<line x1="0.496303" y1="-0.496303" x2="5.90855" y2="-0.496303" transform="matrix(0.875939 0.482423 -0.478097 0.878307 4.68408 14.1384)" stroke="#FAA21E" stroke-width="0.992606" stroke-linecap="round"/>
<line x1="0.496303" y1="-0.496303" x2="5.90855" y2="-0.496303" transform="matrix(0.875939 0.482423 -0.478097 0.878307 4.68408 14.1384)" stroke="white" stroke-opacity="0.4" stroke-width="0.992606" stroke-linecap="round"/>
<line x1="0.496303" y1="-0.496303" x2="5.92609" y2="-0.496303" transform="matrix(0.538307 0.842749 -0.839871 0.542786 12.4756 5.1713)" stroke="#FAA21E" stroke-width="0.992606" stroke-linecap="round"/>
<line x1="0.496303" y1="-0.496303" x2="5.92609" y2="-0.496303" transform="matrix(0.538307 0.842749 -0.839871 0.542786 12.4756 5.1713)" stroke="white" stroke-opacity="0.4" stroke-width="0.992606" stroke-linecap="round"/>
<line x1="0.496303" y1="-0.496303" x2="8.68303" y2="-0.496303" transform="matrix(0.267517 -0.963553 0.962737 0.270438 29.8707 9.04474)" stroke="#FAA21E" stroke-width="0.992606" stroke-linecap="round"/>
<line x1="0.496303" y1="-0.496303" x2="8.68303" y2="-0.496303" transform="matrix(0.267517 -0.963553 0.962737 0.270438 29.8707 9.04474)" stroke="white" stroke-opacity="0.4" stroke-width="0.992606" stroke-linecap="round"/>
<line x1="0.496303" y1="-0.496303" x2="8.68303" y2="-0.496303" transform="matrix(0.267517 -0.963553 0.962737 0.270438 18.606 49.9843)" stroke="#FAA21E" stroke-width="0.992606" stroke-linecap="round"/>
<line x1="0.496303" y1="-0.496303" x2="8.68303" y2="-0.496303" transform="matrix(0.267517 -0.963553 0.962737 0.270438 18.606 49.9843)" stroke="white" stroke-opacity="0.4" stroke-width="0.992606" stroke-linecap="round"/>
<line x1="0.496303" y1="-0.496303" x2="8.63736" y2="-0.496303" transform="matrix(-0.962737 -0.270438 0.267517 -0.963553 49.7844 31.3277)" stroke="#FAA21E" stroke-width="0.992606" stroke-linecap="round"/>
<line x1="0.496303" y1="-0.496303" x2="8.63736" y2="-0.496303" transform="matrix(-0.962737 -0.270438 0.267517 -0.963553 49.7844 31.3277)" stroke="white" stroke-opacity="0.4" stroke-width="0.992606" stroke-linecap="round"/>
<line x1="0.496303" y1="-0.496303" x2="8.65988" y2="-0.496303" transform="matrix(-0.708495 0.705716 -0.701557 -0.712613 42.8269 6.34109)" stroke="#FAA21E" stroke-width="0.992606" stroke-linecap="round"/>
<line x1="0.496303" y1="-0.496303" x2="8.65988" y2="-0.496303" transform="matrix(-0.708495 0.705716 -0.701557 -0.712613 42.8269 6.34109)" stroke="white" stroke-opacity="0.4" stroke-width="0.992606" stroke-linecap="round"/>
<line x1="0.496303" y1="-0.496303" x2="8.63764" y2="-0.496303" transform="matrix(-0.960135 0.279536 -0.276533 -0.961004 49.4702 17.7455)" stroke="#FAA21E" stroke-width="0.992606" stroke-linecap="round"/>
<line x1="0.496303" y1="-0.496303" x2="8.63764" y2="-0.496303" transform="matrix(-0.960135 0.279536 -0.276533 -0.961004 49.4702 17.7455)" stroke="white" stroke-opacity="0.4" stroke-width="0.992606" stroke-linecap="round"/>
<line x1="0.496303" y1="-0.496303" x2="8.6595" y2="-0.496303" transform="matrix(-0.713579 -0.700575 0.696387 -0.717666 43.4546 42.875)" stroke="#FAA21E" stroke-width="0.992606" stroke-linecap="round"/>
<line x1="0.496303" y1="-0.496303" x2="8.6595" y2="-0.496303" transform="matrix(-0.713579 -0.700575 0.696387 -0.717666 43.4546 42.875)" stroke="white" stroke-opacity="0.4" stroke-width="0.992606" stroke-linecap="round"/>
<line x1="0.496303" y1="-0.496303" x2="8.68227" y2="-0.496303" transform="matrix(-0.292763 -0.956185 0.955216 -0.29591 32.3404 49.6234)" stroke="#FAA21E" stroke-width="0.992606" stroke-linecap="round"/>
<line x1="0.496303" y1="-0.496303" x2="8.68227" y2="-0.496303" transform="matrix(-0.292763 -0.956185 0.955216 -0.29591 32.3404 49.6234)" stroke="white" stroke-opacity="0.4" stroke-width="0.992606" stroke-linecap="round"/>
<line x1="0.496303" y1="-0.496303" x2="8.63736" y2="-0.496303" transform="matrix(0.962737 0.270438 -0.267517 0.963553 0 18.6228)" stroke="#FAA21E" stroke-width="0.992606" stroke-linecap="round"/>
<line x1="0.496303" y1="-0.496303" x2="8.63736" y2="-0.496303" transform="matrix(0.962737 0.270438 -0.267517 0.963553 0 18.6228)" stroke="white" stroke-opacity="0.4" stroke-width="0.992606" stroke-linecap="round"/>
<line x1="0.496303" y1="-0.496303" x2="8.65988" y2="-0.496303" transform="matrix(0.708495 -0.705716 0.701557 0.712613 6.96979 43.5021)" stroke="#FAA21E" stroke-width="0.992606" stroke-linecap="round"/>
<line x1="0.496303" y1="-0.496303" x2="8.65988" y2="-0.496303" transform="matrix(0.708495 -0.705716 0.701557 0.712613 6.96979 43.5021)" stroke="white" stroke-opacity="0.4" stroke-width="0.992606" stroke-linecap="round"/>
<line x1="0.496303" y1="-0.496303" x2="8.63764" y2="-0.496303" transform="matrix(0.960135 -0.279536 0.276533 0.961004 0.29071 32.2882)" stroke="#FAA21E" stroke-width="0.992606" stroke-linecap="round"/>
<line x1="0.496303" y1="-0.496303" x2="8.63764" y2="-0.496303" transform="matrix(0.960135 -0.279536 0.276533 0.961004 0.29071 32.2882)" stroke="white" stroke-opacity="0.4" stroke-width="0.992606" stroke-linecap="round"/>
<line x1="0.496303" y1="-0.496303" x2="8.65949" y2="-0.496303" transform="matrix(0.713579 0.700575 -0.696387 0.717666 6.39575 7.21817)" stroke="#FAA21E" stroke-width="0.992606" stroke-linecap="round"/>
<line x1="0.496303" y1="-0.496303" x2="8.65949" y2="-0.496303" transform="matrix(0.713579 0.700575 -0.696387 0.717666 6.39575 7.21817)" stroke="white" stroke-opacity="0.4" stroke-width="0.992606" stroke-linecap="round"/>
<line x1="0.496303" y1="-0.496303" x2="8.68227" y2="-0.496303" transform="matrix(0.292694 0.956206 -0.955195 0.295979 17.4431 0.199982)" stroke="#FAA21E" stroke-width="0.992606" stroke-linecap="round"/>
<line x1="0.496303" y1="-0.496303" x2="8.68227" y2="-0.496303" transform="matrix(0.292694 0.956206 -0.955195 0.295979 17.4431 0.199982)" stroke="white" stroke-opacity="0.4" stroke-width="0.992606" stroke-linecap="round"/>
<path d="M37.9338 35.9109C39.714 36.8312 40.4391 38.1419 41.02 39L41.6684 23.0396L43.52 19L41.2061 14.2381L26.481 13L17.02 17.1188L19.0118 23.2971L29.113 30.3334C30.3223 30.3334 31.0843 29.5729 33.52 31C34.7649 31.7294 35.0766 34.4277 35.1596 35.2857C35.1614 35.3047 36.1537 34.9906 37.9338 35.9109Z" fill="#FAA21E"/>
<path d="M37.9338 35.9109C39.714 36.8312 40.4391 38.1419 41.02 39L41.6684 23.0396L43.52 19L41.2061 14.2381L26.481 13L17.02 17.1188L19.0118 23.2971L29.113 30.3334C30.3223 30.3334 31.0843 29.5729 33.52 31C34.7649 31.7294 35.0766 34.4277 35.1596 35.2857C35.1614 35.3047 36.1537 34.9906 37.9338 35.9109Z" fill="black" fill-opacity="0.4"/>
<path d="M33.4442 17.0951L33.4118 16.8729L33.2239 16.7499C32.5408 16.3032 31.3574 15.6578 29.9943 15.1483C28.6375 14.6413 27.0554 14.2511 25.592 14.3615C23.8391 14.4938 22.0069 14.9565 20.5643 15.6977C19.1464 16.4263 17.9724 17.4973 17.8128 18.9064C17.7424 19.5274 17.7708 20.0811 17.9613 20.5762C18.1554 21.0803 18.4982 21.4742 18.9683 21.8062C19.4291 22.1316 20.0238 22.4059 20.744 22.6754C21.467 22.946 22.3471 23.2227 23.3916 23.5428C26.2366 24.415 28.32 24.6274 29.3822 24.6152C29.7623 27.3694 30.5593 32.8099 31.1557 35.735C31.7363 38.5826 33.1083 45.4586 33.8623 49.2465C30.9939 48.2432 25.5406 46.1952 21.4035 44.1661C17.0302 42.0211 12.9336 38.9166 11.2467 37.4799C11.3285 36.6567 11.417 35.4824 11.4448 34.3459C11.4602 33.7147 11.4572 33.0883 11.4227 32.5368C11.3889 31.9958 11.323 31.4878 11.1962 31.1146C10.9168 30.2923 10.4979 29.5376 10.0387 28.9486C9.59262 28.3763 9.05925 27.8977 8.52593 27.7233C8.15418 27.6017 7.64799 27.5342 7.19812 27.4952C6.95653 27.4743 6.71892 27.4607 6.50801 27.4525C6.4767 25.1467 6.51309 21.761 6.71748 18.5451C6.82701 16.8217 6.98434 15.1545 7.20377 13.7318C7.4252 12.2961 7.70351 11.155 8.03646 10.4551C9.81169 6.72351 13.8765 2.23253 20.7502 0.983868C24.2349 0.350858 26.9762 0.356961 29.3457 0.883823C31.7123 1.41003 33.7415 2.46309 35.7939 3.9731C39.8564 6.9619 42.6696 12.4755 43.1778 16.7132C43.3827 18.4215 43.4705 23.4938 43.4946 29.1864C43.5183 34.7975 43.4802 40.9651 43.4372 44.986L41.7339 47.8264L40.523 23.8308C40.9312 23.5327 41.4493 23.0817 41.9156 22.5282C42.4748 21.8646 42.9988 21.007 43.1206 20.0514C43.3899 17.9379 42.8829 15.5835 41.0154 14.6675C40.5615 14.4449 40.0485 14.4542 39.5733 14.5564C39.0934 14.6597 38.5972 14.8693 38.1304 15.1174C37.196 15.6138 36.3 16.3073 35.7561 16.7964L35.562 16.9709L35.595 17.2298C35.6817 17.9102 35.9078 19.7871 36.1165 21.8345C36.3095 23.7272 36.8048 25.6123 37.0983 26.5473L36.1938 27.6119L33.9724 26.8195V22.297C33.9724 21.0229 33.6173 18.2837 33.4442 17.0951Z" fill="#898989"/>
<path d="M33.4442 17.0951L33.4118 16.8729L33.2239 16.7499C32.5408 16.3032 31.3574 15.6578 29.9943 15.1483C28.6375 14.6413 27.0554 14.2511 25.592 14.3615C23.8391 14.4938 22.0069 14.9565 20.5643 15.6977C19.1464 16.4263 17.9724 17.4973 17.8128 18.9064C17.7424 19.5274 17.7708 20.0811 17.9613 20.5762C18.1554 21.0803 18.4982 21.4742 18.9683 21.8062C19.4291 22.1316 20.0238 22.4059 20.744 22.6754C21.467 22.946 22.3471 23.2227 23.3916 23.5428C26.2366 24.415 28.32 24.6274 29.3822 24.6152C29.7623 27.3694 30.5593 32.8099 31.1557 35.735C31.7363 38.5826 33.1083 45.4586 33.8623 49.2465C30.9939 48.2432 25.5406 46.1952 21.4035 44.1661C17.0302 42.0211 12.9336 38.9166 11.2467 37.4799C11.3285 36.6567 11.417 35.4824 11.4448 34.3459C11.4602 33.7147 11.4572 33.0883 11.4227 32.5368C11.3889 31.9958 11.323 31.4878 11.1962 31.1146C10.9168 30.2923 10.4979 29.5376 10.0387 28.9486C9.59262 28.3763 9.05925 27.8977 8.52593 27.7233C8.15418 27.6017 7.64799 27.5342 7.19812 27.4952C6.95653 27.4743 6.71892 27.4607 6.50801 27.4525C6.4767 25.1467 6.51309 21.761 6.71748 18.5451C6.82701 16.8217 6.98434 15.1545 7.20377 13.7318C7.4252 12.2961 7.70351 11.155 8.03646 10.4551C9.81169 6.72351 13.8765 2.23253 20.7502 0.983868C24.2349 0.350858 26.9762 0.356961 29.3457 0.883823C31.7123 1.41003 33.7415 2.46309 35.7939 3.9731C39.8564 6.9619 42.6696 12.4755 43.1778 16.7132C43.3827 18.4215 43.4705 23.4938 43.4946 29.1864C43.5183 34.7975 43.4802 40.9651 43.4372 44.986L41.7339 47.8264L40.523 23.8308C40.9312 23.5327 41.4493 23.0817 41.9156 22.5282C42.4748 21.8646 42.9988 21.007 43.1206 20.0514C43.3899 17.9379 42.8829 15.5835 41.0154 14.6675C40.5615 14.4449 40.0485 14.4542 39.5733 14.5564C39.0934 14.6597 38.5972 14.8693 38.1304 15.1174C37.196 15.6138 36.3 16.3073 35.7561 16.7964L35.562 16.9709L35.595 17.2298C35.6817 17.9102 35.9078 19.7871 36.1165 21.8345C36.3095 23.7272 36.8048 25.6123 37.0983 26.5473L36.1938 27.6119L33.9724 26.8195V22.297C33.9724 21.0229 33.6173 18.2837 33.4442 17.0951Z" fill="white" fill-opacity="0.95"/>
<path d="M33.4442 17.0951L33.4118 16.8729L33.2239 16.7499C32.5408 16.3032 31.3574 15.6578 29.9943 15.1483C28.6375 14.6413 27.0554 14.2511 25.592 14.3615C23.8391 14.4938 22.0069 14.9565 20.5643 15.6977C19.1464 16.4263 17.9724 17.4973 17.8128 18.9064C17.7424 19.5274 17.7708 20.0811 17.9613 20.5762C18.1554 21.0803 18.4982 21.4742 18.9683 21.8062C19.4291 22.1316 20.0238 22.4059 20.744 22.6754C21.467 22.946 22.3471 23.2227 23.3916 23.5428C26.2366 24.415 28.32 24.6274 29.3822 24.6152C29.7623 27.3694 30.5593 32.8099 31.1557 35.735C31.7363 38.5826 33.1083 45.4586 33.8623 49.2465C30.9939 48.2432 25.5406 46.1952 21.4035 44.1661C17.0302 42.0211 12.9336 38.9166 11.2467 37.4799C11.3285 36.6567 11.417 35.4824 11.4448 34.3459C11.4602 33.7147 11.4572 33.0883 11.4227 32.5368C11.3889 31.9958 11.323 31.4878 11.1962 31.1146C10.9168 30.2923 10.4979 29.5376 10.0387 28.9486C9.59262 28.3763 9.05925 27.8977 8.52593 27.7233C8.15418 27.6017 7.64799 27.5342 7.19812 27.4952C6.95653 27.4743 6.71892 27.4607 6.50801 27.4525C6.4767 25.1467 6.51309 21.761 6.71748 18.5451C6.82701 16.8217 6.98434 15.1545 7.20377 13.7318C7.4252 12.2961 7.70351 11.155 8.03646 10.4551C9.81169 6.72351 13.8765 2.23253 20.7502 0.983868C24.2349 0.350858 26.9762 0.356961 29.3457 0.883823C31.7123 1.41003 33.7415 2.46309 35.7939 3.9731C39.8564 6.9619 42.6696 12.4755 43.1778 16.7132C43.3827 18.4215 43.4705 23.4938 43.4946 29.1864C43.5183 34.7975 43.4802 40.9651 43.4372 44.986L41.7339 47.8264L40.523 23.8308C40.9312 23.5327 41.4493 23.0817 41.9156 22.5282C42.4748 21.8646 42.9988 21.007 43.1206 20.0514C43.3899 17.9379 42.8829 15.5835 41.0154 14.6675C40.5615 14.4449 40.0485 14.4542 39.5733 14.5564C39.0934 14.6597 38.5972 14.8693 38.1304 15.1174C37.196 15.6138 36.3 16.3073 35.7561 16.7964L35.562 16.9709L35.595 17.2298C35.6817 17.9102 35.9078 19.7871 36.1165 21.8345C36.3095 23.7272 36.8048 25.6123 37.0983 26.5473L36.1938 27.6119L33.9724 26.8195V22.297C33.9724 21.0229 33.6173 18.2837 33.4442 17.0951Z" stroke="#FAA21E" stroke-width="0.996296"/>
<path d="M35.134 8.14934C34.4302 7.44603 34.1303 5.84728 33.6491 4.93341C33.3333 5.91676 33.4573 7.33968 32.743 8.35777C32.1042 9.26838 31.2731 9.91964 30.119 10.4982C31.3558 10.8683 32.3701 11.4489 33.0738 12.1522C33.7776 12.8555 34.2104 14.4427 34.5587 15.3682C34.7279 14.2383 34.8259 12.8544 35.4648 11.9438C36.179 10.9257 36.9347 10.3819 38.0888 9.80339C37.2505 9.39856 36.0136 9.02847 35.134 8.14934Z" fill="#FAA21E"/>
</svg>
