<svg width="51" height="51" viewBox="0 0 51 51" fill="none" xmlns="http://www.w3.org/2000/svg">
<line x1="25.5301" y1="7.99751" x2="25.5301" y2="2.55513" stroke="#FAA21E" stroke-width="0.992606" stroke-linecap="round"/>
<line x1="25.5301" y1="7.99751" x2="25.5301" y2="2.55513" stroke="white" stroke-opacity="0.4" stroke-width="0.992606" stroke-linecap="round"/>
<line x1="25.5301" y1="47.7775" x2="25.5301" y2="42.3351" stroke="#FAA21E" stroke-width="0.992606" stroke-linecap="round"/>
<line x1="25.5301" y1="47.7775" x2="25.5301" y2="42.3351" stroke="white" stroke-opacity="0.4" stroke-width="0.992606" stroke-linecap="round"/>
<line x1="47.8692" y1="25.2007" x2="42.4513" y2="25.2007" stroke="#FAA21E" stroke-width="0.992606" stroke-linecap="round"/>
<line x1="47.8692" y1="25.2007" x2="42.4513" y2="25.2007" stroke="white" stroke-opacity="0.4" stroke-width="0.992606" stroke-linecap="round"/>
<line x1="0.496303" y1="-0.496303" x2="5.9327" y2="-0.496303" transform="matrix(-0.49369 0.869638 -0.868018 -0.496532 36.3873 4.69147)" stroke="#FAA21E" stroke-width="0.992606" stroke-linecap="round"/>
<line x1="0.496303" y1="-0.496303" x2="5.9327" y2="-0.496303" transform="matrix(-0.49369 0.869638 -0.868018 -0.496532 36.3873 4.69147)" stroke="white" stroke-opacity="0.4" stroke-width="0.992606" stroke-linecap="round"/>
<line x1="0.496303" y1="-0.496303" x2="5.92043" y2="-0.496303" transform="matrix(-0.849492 0.527602 -0.524708 -0.851282 45.1885 12.6823)" stroke="#FAA21E" stroke-width="0.992606" stroke-linecap="round"/>
<line x1="0.496303" y1="-0.496303" x2="5.92043" y2="-0.496303" transform="matrix(-0.849492 0.527602 -0.524708 -0.851282 45.1885 12.6823)" stroke="white" stroke-opacity="0.4" stroke-width="0.992606" stroke-linecap="round"/>
<line x1="0.496303" y1="-0.496303" x2="5.92028" y2="-0.496303" transform="matrix(-0.876356 -0.481664 0.478853 -0.877895 46.1201 36.2603)" stroke="#FAA21E" stroke-width="0.992606" stroke-linecap="round"/>
<line x1="0.496303" y1="-0.496303" x2="5.92028" y2="-0.496303" transform="matrix(-0.876356 -0.481664 0.478853 -0.877895 46.1201 36.2603)" stroke="white" stroke-opacity="0.4" stroke-width="0.992606" stroke-linecap="round"/>
<line x1="0.496303" y1="-0.496303" x2="5.93155" y2="-0.496303" transform="matrix(-0.539091 -0.842248 0.840378 -0.542001 37.9008 44.7659)" stroke="#FAA21E" stroke-width="0.992606" stroke-linecap="round"/>
<line x1="0.496303" y1="-0.496303" x2="5.93155" y2="-0.496303" transform="matrix(-0.539091 -0.842248 0.840378 -0.542001 37.9008 44.7659)" stroke="white" stroke-opacity="0.4" stroke-width="0.992606" stroke-linecap="round"/>
<line x1="3.1138" y1="25.2575" x2="8.53175" y2="25.2575" stroke="#FAA21E" stroke-width="0.992606" stroke-linecap="round"/>
<line x1="3.1138" y1="25.2575" x2="8.53175" y2="25.2575" stroke="white" stroke-opacity="0.4" stroke-width="0.992606" stroke-linecap="round"/>
<line x1="0.496303" y1="-0.496303" x2="5.9327" y2="-0.496303" transform="matrix(0.49369 -0.869638 0.868018 0.496533 14.5958 45.351)" stroke="#FAA21E" stroke-width="0.992606" stroke-linecap="round"/>
<line x1="0.496303" y1="-0.496303" x2="5.9327" y2="-0.496303" transform="matrix(0.49369 -0.869638 0.868018 0.496533 14.5958 45.351)" stroke="white" stroke-opacity="0.4" stroke-width="0.992606" stroke-linecap="round"/>
<line x1="0.496303" y1="-0.496303" x2="5.92043" y2="-0.496303" transform="matrix(0.849492 -0.527602 0.524708 0.851282 5.79449 37.3601)" stroke="#FAA21E" stroke-width="0.992606" stroke-linecap="round"/>
<line x1="0.496303" y1="-0.496303" x2="5.92043" y2="-0.496303" transform="matrix(0.849492 -0.527602 0.524708 0.851282 5.79449 37.3601)" stroke="white" stroke-opacity="0.4" stroke-width="0.992606" stroke-linecap="round"/>
<line x1="0.496303" y1="-0.496303" x2="5.92028" y2="-0.496303" transform="matrix(0.876356 0.481664 -0.478854 0.877895 5.27258 14.2457)" stroke="#FAA21E" stroke-width="0.992606" stroke-linecap="round"/>
<line x1="0.496303" y1="-0.496303" x2="5.92028" y2="-0.496303" transform="matrix(0.876356 0.481664 -0.478854 0.877895 5.27258 14.2457)" stroke="white" stroke-opacity="0.4" stroke-width="0.992606" stroke-linecap="round"/>
<line x1="0.496303" y1="-0.496303" x2="5.93155" y2="-0.496303" transform="matrix(0.539091 0.842248 -0.840378 0.542001 13.0822 5.27637)" stroke="#FAA21E" stroke-width="0.992606" stroke-linecap="round"/>
<line x1="0.496303" y1="-0.496303" x2="5.93155" y2="-0.496303" transform="matrix(0.539091 0.842248 -0.840378 0.542001 13.0822 5.27637)" stroke="white" stroke-opacity="0.4" stroke-width="0.992606" stroke-linecap="round"/>
<line x1="0.496303" y1="-0.496303" x2="8.68672" y2="-0.496303" transform="matrix(0.268027 -0.963411 0.962881 0.269925 30.5173 9.15079)" stroke="#FAA21E" stroke-width="0.992606" stroke-linecap="round"/>
<line x1="0.496303" y1="-0.496303" x2="8.68672" y2="-0.496303" transform="matrix(0.268027 -0.963411 0.962881 0.269925 30.5173 9.15079)" stroke="white" stroke-opacity="0.4" stroke-width="0.992606" stroke-linecap="round"/>
<line x1="0.496303" y1="-0.496303" x2="8.68672" y2="-0.496303" transform="matrix(0.268027 -0.963411 0.962881 0.269925 19.2266 50.1008)" stroke="#FAA21E" stroke-width="0.992606" stroke-linecap="round"/>
<line x1="0.496303" y1="-0.496303" x2="8.68672" y2="-0.496303" transform="matrix(0.268027 -0.963411 0.962881 0.269925 19.2266 50.1008)" stroke="white" stroke-opacity="0.4" stroke-width="0.992606" stroke-linecap="round"/>
<line x1="0.496303" y1="-0.496303" x2="8.65707" y2="-0.496303" transform="matrix(-0.962882 -0.269925 0.268027 -0.963411 50.4771 31.4394)" stroke="#FAA21E" stroke-width="0.992606" stroke-linecap="round"/>
<line x1="0.496303" y1="-0.496303" x2="8.65707" y2="-0.496303" transform="matrix(-0.962882 -0.269925 0.268027 -0.963411 50.4771 31.4394)" stroke="white" stroke-opacity="0.4" stroke-width="0.992606" stroke-linecap="round"/>
<line x1="0.496303" y1="-0.496303" x2="8.67165" y2="-0.496303" transform="matrix(-0.709218 0.704989 -0.702287 -0.711894 43.5035 6.44648)" stroke="#FAA21E" stroke-width="0.992606" stroke-linecap="round"/>
<line x1="0.496303" y1="-0.496303" x2="8.67165" y2="-0.496303" transform="matrix(-0.709218 0.704989 -0.702287 -0.711894 43.5035 6.44648)" stroke="white" stroke-opacity="0.4" stroke-width="0.992606" stroke-linecap="round"/>
<line x1="0.496303" y1="-0.496303" x2="8.65725" y2="-0.496303" transform="matrix(-0.960289 0.279008 -0.277057 -0.960853 50.162 17.8538)" stroke="#FAA21E" stroke-width="0.992606" stroke-linecap="round"/>
<line x1="0.496303" y1="-0.496303" x2="8.65725" y2="-0.496303" transform="matrix(-0.960289 0.279008 -0.277057 -0.960853 50.162 17.8538)" stroke="white" stroke-opacity="0.4" stroke-width="0.992606" stroke-linecap="round"/>
<line x1="0.496303" y1="-0.496303" x2="8.6714" y2="-0.496303" transform="matrix(-0.714297 -0.699843 0.697122 -0.716952 44.1326 42.9897)" stroke="#FAA21E" stroke-width="0.992606" stroke-linecap="round"/>
<line x1="0.496303" y1="-0.496303" x2="8.6714" y2="-0.496303" transform="matrix(-0.714297 -0.699843 0.697122 -0.716952 44.1326 42.9897)" stroke="white" stroke-opacity="0.4" stroke-width="0.992606" stroke-linecap="round"/>
<line x1="0.496303" y1="-0.496303" x2="8.68622" y2="-0.496303" transform="matrix(-0.293312 -0.956017 0.955387 -0.295357 32.9928 49.7398)" stroke="#FAA21E" stroke-width="0.992606" stroke-linecap="round"/>
<line x1="0.496303" y1="-0.496303" x2="8.68622" y2="-0.496303" transform="matrix(-0.293312 -0.956017 0.955387 -0.295357 32.9928 49.7398)" stroke="white" stroke-opacity="0.4" stroke-width="0.992606" stroke-linecap="round"/>
<line x1="0.496303" y1="-0.496303" x2="8.65707" y2="-0.496303" transform="matrix(0.962881 0.269925 -0.268027 0.963412 0.577759 18.7313)" stroke="#FAA21E" stroke-width="0.992606" stroke-linecap="round"/>
<line x1="0.496303" y1="-0.496303" x2="8.65707" y2="-0.496303" transform="matrix(0.962881 0.269925 -0.268027 0.963412 0.577759 18.7313)" stroke="white" stroke-opacity="0.4" stroke-width="0.992606" stroke-linecap="round"/>
<line x1="0.496303" y1="-0.496303" x2="8.67165" y2="-0.496303" transform="matrix(0.709218 -0.704989 0.702287 0.711894 7.56366 43.617)" stroke="#FAA21E" stroke-width="0.992606" stroke-linecap="round"/>
<line x1="0.496303" y1="-0.496303" x2="8.67165" y2="-0.496303" transform="matrix(0.709218 -0.704989 0.702287 0.711894 7.56366 43.617)" stroke="white" stroke-opacity="0.4" stroke-width="0.992606" stroke-linecap="round"/>
<line x1="0.496303" y1="-0.496303" x2="8.65726" y2="-0.496303" transform="matrix(0.960289 -0.279008 0.277057 0.960853 0.869141 32.4002)" stroke="#FAA21E" stroke-width="0.992606" stroke-linecap="round"/>
<line x1="0.496303" y1="-0.496303" x2="8.65726" y2="-0.496303" transform="matrix(0.960289 -0.279008 0.277057 0.960853 0.869141 32.4002)" stroke="white" stroke-opacity="0.4" stroke-width="0.992606" stroke-linecap="round"/>
<line x1="0.496303" y1="-0.496303" x2="8.6714" y2="-0.496303" transform="matrix(0.714297 0.699843 -0.697122 0.716952 6.98828 7.32377)" stroke="#FAA21E" stroke-width="0.992606" stroke-linecap="round"/>
<line x1="0.496303" y1="-0.496303" x2="8.6714" y2="-0.496303" transform="matrix(0.714297 0.699843 -0.697122 0.716952 6.98828 7.32377)" stroke="white" stroke-opacity="0.4" stroke-width="0.992606" stroke-linecap="round"/>
<line x1="0.496303" y1="-0.496303" x2="8.68622" y2="-0.496303" transform="matrix(0.293243 0.956038 -0.955366 0.295425 18.0611 0.303795)" stroke="#FAA21E" stroke-width="0.992606" stroke-linecap="round"/>
<line x1="0.496303" y1="-0.496303" x2="8.68622" y2="-0.496303" transform="matrix(0.293243 0.956038 -0.955366 0.295425 18.0611 0.303795)" stroke="white" stroke-opacity="0.4" stroke-width="0.992606" stroke-linecap="round"/>
<path d="M24.5627 12.533L46.3321 11.5865L42.4028 40.6437C42.2859 40.6736 42.1656 40.7045 42.0419 40.7363C39.4536 41.401 35.3831 42.4463 29.9609 42.4463C24.4195 42.4463 20.7756 41.9416 18.3702 41.6085C18.257 41.5928 18.1465 41.5775 18.0387 41.5627C18.182 40.2657 18.9631 37.9836 21.3057 36.7316C24.0594 35.2597 26.4357 35.2199 27.2065 35.3572L27.8858 35.4782L27.7869 34.7954L24.5627 12.533Z" fill="#FEFEFE" stroke="#FAA21E" stroke-width="0.996296"/>
<path d="M36.7778 20.0128C36.1378 19.3479 35.9778 17.9349 35.5778 17.1037C35.1778 17.9349 35.1778 19.1816 34.3778 20.0128C33.6622 20.7562 32.7778 21.2595 31.5778 21.6751C32.7778 22.0907 33.7378 22.6725 34.3778 23.3375C35.0178 24.0024 35.3111 25.4154 35.5778 26.2466C35.8444 25.2769 36.0622 24.0809 36.7778 23.3375C37.5778 22.5063 38.3778 22.0907 39.5778 21.6751C38.7778 21.2595 37.5778 20.844 36.7778 20.0128Z" fill="#FAA21E"/>
<path d="M46.0711 13.1824L24.7814 13.6169L24.0305 8.73605L46.8213 8.30603L46.0711 13.1824Z" fill="#FEFEFE" stroke="#FAA21E" stroke-width="0.996296"/>
<path d="M29.3266 46.2106C23.5419 46.2106 19.1719 45.389 17.5148 44.937V41.9481C19.3225 42.2494 23.9035 43.0471 29.3266 43.0471C34.7498 43.0471 40.1626 41.5544 42.4222 40.9518V44.937C40.3132 45.389 35.1113 46.2106 29.3266 46.2106Z" fill="#FEFEFE" stroke="#FAA21E" stroke-width="0.996296"/>
<path d="M22.1469 10.656L11.2234 10.9042L10.4727 6.02442L33.2658 5.59436L33.1442 6.40478L22.084 6.66604L21.5142 6.6795L21.6038 7.24232L22.1469 10.656Z" fill="#FEFEFE" stroke="#FAA21E" stroke-width="0.996296"/>
<path d="M13.3067 32.5779L13.9871 32.7186L13.902 32.029L11.2855 10.8294L22.0943 10.5753L24.9294 33.3243C24.9082 33.3266 24.8866 33.329 24.8647 33.3313C23.8043 33.4452 21.8738 33.6524 19.8547 34.9055C17.7213 36.2296 16.2907 37.6111 15.7128 39.4574H13.4076C10.0954 39.4574 6.03188 39.0574 4.08881 38.641C4.15309 38.0872 4.34761 37.4026 4.68612 36.7023C5.10693 35.8318 5.73343 34.9724 6.55589 34.3344C7.20238 33.8328 8.36774 33.2774 9.66291 32.9056C10.9611 32.533 12.3028 32.3702 13.3067 32.5779Z" fill="#FEFEFE" stroke="#FAA21E" stroke-width="0.996296"/>
<path d="M9.93989 40.1547C5.87253 39.8836 4.96868 39.5823 4.06482 39.4316V42.1432C5.87253 42.5951 8.1377 42.9472 9.03603 43.0471C13.1034 43.499 14.5039 43.4426 15.709 43.4426V40.1547C14.3532 40.1547 12.4907 40.3248 9.93989 40.1547Z" fill="#FEFEFE" stroke="#FAA21E" stroke-width="0.996296"/>
</svg>
