<svg width="51" height="51" viewBox="0 0 51 51" fill="none" xmlns="http://www.w3.org/2000/svg">
<line x1="25.3811" y1="8.84201" x2="25.3811" y2="3.4251" stroke="#FAA21E" stroke-width="0.992606" stroke-linecap="round"/>
<line x1="25.3811" y1="8.84201" x2="25.3811" y2="3.4251" stroke="white" stroke-opacity="0.4" stroke-width="0.992606" stroke-linecap="round"/>
<line x1="25.3811" y1="48.4645" x2="25.3811" y2="43.0476" stroke="#FAA21E" stroke-width="0.992606" stroke-linecap="round"/>
<line x1="25.3811" y1="48.4645" x2="25.3811" y2="43.0476" stroke="white" stroke-opacity="0.4" stroke-width="0.992606" stroke-linecap="round"/>
<line x1="47.5864" y1="25.981" x2="42.2069" y2="25.981" stroke="#FAA21E" stroke-width="0.992606" stroke-linecap="round"/>
<line x1="47.5864" y1="25.981" x2="42.2069" y2="25.981" stroke="white" stroke-opacity="0.4" stroke-width="0.992606" stroke-linecap="round"/>
<line x1="0.496303" y1="-0.496303" x2="5.90406" y2="-0.496303" transform="matrix(-0.492924 0.870072 -0.867579 -0.4973 36.1763 5.55099)" stroke="#FAA21E" stroke-width="0.992606" stroke-linecap="round"/>
<line x1="0.496303" y1="-0.496303" x2="5.90406" y2="-0.496303" transform="matrix(-0.492924 0.870072 -0.867579 -0.4973 36.1763 5.55099)" stroke="white" stroke-opacity="0.4" stroke-width="0.992606" stroke-linecap="round"/>
<line x1="0.496303" y1="-0.496303" x2="5.88559" y2="-0.496303" transform="matrix(-0.849006 0.528382 -0.523928 -0.851762 44.9247 13.5102)" stroke="#FAA21E" stroke-width="0.992606" stroke-linecap="round"/>
<line x1="0.496303" y1="-0.496303" x2="5.88559" y2="-0.496303" transform="matrix(-0.849006 0.528382 -0.523928 -0.851762 44.9247 13.5102)" stroke="white" stroke-opacity="0.4" stroke-width="0.992606" stroke-linecap="round"/>
<line x1="0.496303" y1="-0.496303" x2="5.88483" y2="-0.496303" transform="matrix(-0.875939 -0.482422 0.478097 -0.878307 45.8506 36.9949)" stroke="#FAA21E" stroke-width="0.992606" stroke-linecap="round"/>
<line x1="0.496303" y1="-0.496303" x2="5.88483" y2="-0.496303" transform="matrix(-0.875939 -0.482422 0.478097 -0.878307 45.8506 36.9949)" stroke="white" stroke-opacity="0.4" stroke-width="0.992606" stroke-linecap="round"/>
<line x1="0.496303" y1="-0.496303" x2="5.90231" y2="-0.496303" transform="matrix(-0.538307 -0.842749 0.839871 -0.542786 37.6806 45.4669)" stroke="#FAA21E" stroke-width="0.992606" stroke-linecap="round"/>
<line x1="0.496303" y1="-0.496303" x2="5.90231" y2="-0.496303" transform="matrix(-0.538307 -0.842749 0.839871 -0.542786 37.6806 45.4669)" stroke="white" stroke-opacity="0.4" stroke-width="0.992606" stroke-linecap="round"/>
<line x1="3.10525" y1="26.0337" x2="8.48475" y2="26.0337" stroke="#FAA21E" stroke-width="0.992606" stroke-linecap="round"/>
<line x1="3.10525" y1="26.0337" x2="8.48475" y2="26.0337" stroke="white" stroke-opacity="0.4" stroke-width="0.992606" stroke-linecap="round"/>
<line x1="0.496303" y1="-0.496303" x2="5.90406" y2="-0.496303" transform="matrix(0.492925 -0.870072 0.867579 0.4973 14.5154 46.0496)" stroke="#FAA21E" stroke-width="0.992606" stroke-linecap="round"/>
<line x1="0.496303" y1="-0.496303" x2="5.90406" y2="-0.496303" transform="matrix(0.492925 -0.870072 0.867579 0.4973 14.5154 46.0496)" stroke="white" stroke-opacity="0.4" stroke-width="0.992606" stroke-linecap="round"/>
<line x1="0.496303" y1="-0.496303" x2="5.88559" y2="-0.496303" transform="matrix(0.849006 -0.528382 0.523928 0.851762 5.76691 38.0904)" stroke="#FAA21E" stroke-width="0.992606" stroke-linecap="round"/>
<line x1="0.496303" y1="-0.496303" x2="5.88559" y2="-0.496303" transform="matrix(0.849006 -0.528382 0.523928 0.851762 5.76691 38.0904)" stroke="white" stroke-opacity="0.4" stroke-width="0.992606" stroke-linecap="round"/>
<line x1="0.496303" y1="-0.496303" x2="5.88483" y2="-0.496303" transform="matrix(0.875939 0.482423 -0.478097 0.878307 5.24817 15.0674)" stroke="#FAA21E" stroke-width="0.992606" stroke-linecap="round"/>
<line x1="0.496303" y1="-0.496303" x2="5.88483" y2="-0.496303" transform="matrix(0.875939 0.482423 -0.478097 0.878307 5.24817 15.0674)" stroke="white" stroke-opacity="0.4" stroke-width="0.992606" stroke-linecap="round"/>
<line x1="0.496303" y1="-0.496303" x2="5.90231" y2="-0.496303" transform="matrix(0.538307 0.842749 -0.839871 0.542786 13.011 6.13358)" stroke="#FAA21E" stroke-width="0.992606" stroke-linecap="round"/>
<line x1="0.496303" y1="-0.496303" x2="5.90231" y2="-0.496303" transform="matrix(0.538307 0.842749 -0.839871 0.542786 13.011 6.13358)" stroke="white" stroke-opacity="0.4" stroke-width="0.992606" stroke-linecap="round"/>
<line x1="0.496303" y1="-0.496303" x2="8.64904" y2="-0.496303" transform="matrix(0.267517 -0.963553 0.962737 0.270438 30.3415 9.99268)" stroke="#FAA21E" stroke-width="0.992606" stroke-linecap="round"/>
<line x1="0.496303" y1="-0.496303" x2="8.64904" y2="-0.496303" transform="matrix(0.267517 -0.963553 0.962737 0.270438 30.3415 9.99268)" stroke="white" stroke-opacity="0.4" stroke-width="0.992606" stroke-linecap="round"/>
<line x1="0.496303" y1="-0.496303" x2="8.64904" y2="-0.496303" transform="matrix(0.267517 -0.963553 0.962737 0.270438 19.1185 50.7807)" stroke="#FAA21E" stroke-width="0.992606" stroke-linecap="round"/>
<line x1="0.496303" y1="-0.496303" x2="8.64904" y2="-0.496303" transform="matrix(0.267517 -0.963553 0.962737 0.270438 19.1185 50.7807)" stroke="white" stroke-opacity="0.4" stroke-width="0.992606" stroke-linecap="round"/>
<line x1="0.496303" y1="-0.496303" x2="8.60354" y2="-0.496303" transform="matrix(-0.962737 -0.270438 0.267517 -0.963553 50.1815 32.1931)" stroke="#FAA21E" stroke-width="0.992606" stroke-linecap="round"/>
<line x1="0.496303" y1="-0.496303" x2="8.60354" y2="-0.496303" transform="matrix(-0.962737 -0.270438 0.267517 -0.963553 50.1815 32.1931)" stroke="white" stroke-opacity="0.4" stroke-width="0.992606" stroke-linecap="round"/>
<line x1="0.496303" y1="-0.496303" x2="8.62597" y2="-0.496303" transform="matrix(-0.708495 0.705716 -0.701557 -0.712613 43.2497 7.29907)" stroke="#FAA21E" stroke-width="0.992606" stroke-linecap="round"/>
<line x1="0.496303" y1="-0.496303" x2="8.62597" y2="-0.496303" transform="matrix(-0.708495 0.705716 -0.701557 -0.712613 43.2497 7.29907)" stroke="white" stroke-opacity="0.4" stroke-width="0.992606" stroke-linecap="round"/>
<line x1="0.496303" y1="-0.496303" x2="8.60381" y2="-0.496303" transform="matrix(-0.960135 0.279536 -0.276533 -0.961004 49.8684 18.6612)" stroke="#FAA21E" stroke-width="0.992606" stroke-linecap="round"/>
<line x1="0.496303" y1="-0.496303" x2="8.60381" y2="-0.496303" transform="matrix(-0.960135 0.279536 -0.276533 -0.961004 49.8684 18.6612)" stroke="white" stroke-opacity="0.4" stroke-width="0.992606" stroke-linecap="round"/>
<line x1="0.496303" y1="-0.496303" x2="8.62558" y2="-0.496303" transform="matrix(-0.713579 -0.700575 0.696387 -0.717666 43.8751 43.6977)" stroke="#FAA21E" stroke-width="0.992606" stroke-linecap="round"/>
<line x1="0.496303" y1="-0.496303" x2="8.62558" y2="-0.496303" transform="matrix(-0.713579 -0.700575 0.696387 -0.717666 43.8751 43.6977)" stroke="white" stroke-opacity="0.4" stroke-width="0.992606" stroke-linecap="round"/>
<line x1="0.496303" y1="-0.496303" x2="8.64827" y2="-0.496303" transform="matrix(-0.292763 -0.956185 0.955216 -0.295909 32.8021 50.4211)" stroke="#FAA21E" stroke-width="0.992606" stroke-linecap="round"/>
<line x1="0.496303" y1="-0.496303" x2="8.64827" y2="-0.496303" transform="matrix(-0.292763 -0.956185 0.955216 -0.295909 32.8021 50.4211)" stroke="white" stroke-opacity="0.4" stroke-width="0.992606" stroke-linecap="round"/>
<line x1="0.496303" y1="-0.496303" x2="8.60353" y2="-0.496303" transform="matrix(0.962737 0.270438 -0.267517 0.963553 0.581482 19.5353)" stroke="#FAA21E" stroke-width="0.992606" stroke-linecap="round"/>
<line x1="0.496303" y1="-0.496303" x2="8.60353" y2="-0.496303" transform="matrix(0.962737 0.270438 -0.267517 0.963553 0.581482 19.5353)" stroke="white" stroke-opacity="0.4" stroke-width="0.992606" stroke-linecap="round"/>
<line x1="0.496303" y1="-0.496303" x2="8.62597" y2="-0.496303" transform="matrix(0.708495 -0.705716 0.701557 0.712613 7.52545 44.3225)" stroke="#FAA21E" stroke-width="0.992606" stroke-linecap="round"/>
<line x1="0.496303" y1="-0.496303" x2="8.62597" y2="-0.496303" transform="matrix(0.708495 -0.705716 0.701557 0.712613 7.52545 44.3225)" stroke="white" stroke-opacity="0.4" stroke-width="0.992606" stroke-linecap="round"/>
<line x1="0.496303" y1="-0.496303" x2="8.60381" y2="-0.496303" transform="matrix(0.960135 -0.279536 0.276533 0.961004 0.871094 33.1501)" stroke="#FAA21E" stroke-width="0.992606" stroke-linecap="round"/>
<line x1="0.496303" y1="-0.496303" x2="8.60381" y2="-0.496303" transform="matrix(0.960135 -0.279536 0.276533 0.961004 0.871094 33.1501)" stroke="white" stroke-opacity="0.4" stroke-width="0.992606" stroke-linecap="round"/>
<line x1="0.496303" y1="-0.496303" x2="8.62558" y2="-0.496303" transform="matrix(0.713579 0.700575 -0.696387 0.717666 6.95355 8.17288)" stroke="#FAA21E" stroke-width="0.992606" stroke-linecap="round"/>
<line x1="0.496303" y1="-0.496303" x2="8.62558" y2="-0.496303" transform="matrix(0.713579 0.700575 -0.696387 0.717666 6.95355 8.17288)" stroke="white" stroke-opacity="0.4" stroke-width="0.992606" stroke-linecap="round"/>
<line x1="0.496303" y1="-0.496303" x2="8.64828" y2="-0.496303" transform="matrix(0.292694 0.956206 -0.955195 0.295978 17.96 1.18073)" stroke="#FAA21E" stroke-width="0.992606" stroke-linecap="round"/>
<line x1="0.496303" y1="-0.496303" x2="8.64828" y2="-0.496303" transform="matrix(0.292694 0.956206 -0.955195 0.295978 17.96 1.18073)" stroke="white" stroke-opacity="0.4" stroke-width="0.992606" stroke-linecap="round"/>
<path d="M1.07963 25.4796H50.0833V38.9963C50.0833 40.9221 48.5221 42.4833 46.5963 42.4833H4.56667C2.64083 42.4833 1.07963 40.9221 1.07963 38.9963V25.4796Z" fill="#FEFEFE" stroke="#FAA21E" stroke-width="0.996296"/>
<path d="M50.0698 24.4833H2.66393L34.1968 8.48155C35.3269 8.51852 37.0353 9.0866 38.9432 10.0447C40.8968 11.0257 42.9893 12.3798 44.7617 13.8635C48.4134 16.9203 49.9146 21.5504 50.0698 24.4833Z" fill="#FEFEFE" stroke="#FAA21E" stroke-width="0.996296"/>
<circle cx="7.08148" cy="35.4815" r="2.5" fill="#FAA21E"/>
<circle cx="15.0815" cy="26.4815" r="1.5" fill="#FAA21E"/>
<circle cx="47.0815" cy="39.4815" r="1.5" fill="#FAA21E"/>
<path d="M31.5815 25.4815C31.5815 26.8622 30.4622 27.9815 29.0815 27.9815C27.7008 27.9815 26.5815 26.8622 26.5815 25.4815C26.5815 24.1008 27.7008 24.9816 29.0815 24.9816C30.4622 24.9816 31.5815 24.1008 31.5815 25.4815Z" fill="#FAA21E"/>
<circle cx="34.0815" cy="40.4815" r="2.5" fill="#FAA21E"/>
<circle cx="22.5815" cy="32.9815" r="4" fill="#FAA21E"/>
<circle cx="42.5815" cy="30.9815" r="3" fill="#FAA21E"/>
</svg>
