<svg width="50" height="50" viewBox="0 0 50 50" fill="none" xmlns="http://www.w3.org/2000/svg">
<line x1="24.8938" y1="7.89164" x2="24.8938" y2="2.4509" stroke="#FAA21E" stroke-width="0.992606" stroke-linecap="round"/>
<line x1="24.8938" y1="7.89164" x2="24.8938" y2="2.4509" stroke="white" stroke-opacity="0.4" stroke-width="0.992606" stroke-linecap="round"/>
<line x1="24.8938" y1="47.6615" x2="24.8938" y2="42.2207" stroke="#FAA21E" stroke-width="0.992606" stroke-linecap="round"/>
<line x1="24.8938" y1="47.6615" x2="24.8938" y2="42.2207" stroke="white" stroke-opacity="0.4" stroke-width="0.992606" stroke-linecap="round"/>
<line x1="47.1815" y1="25.0907" x2="41.7783" y2="25.0907" stroke="#FAA21E" stroke-width="0.992606" stroke-linecap="round"/>
<line x1="47.1815" y1="25.0907" x2="41.7783" y2="25.0907" stroke="white" stroke-opacity="0.4" stroke-width="0.992606" stroke-linecap="round"/>
<line x1="0.496303" y1="-0.496303" x2="5.92786" y2="-0.496303" transform="matrix(-0.492925 0.870072 -0.867579 -0.4973 35.7271 4.58649)" stroke="#FAA21E" stroke-width="0.992606" stroke-linecap="round"/>
<line x1="0.496303" y1="-0.496303" x2="5.92786" y2="-0.496303" transform="matrix(-0.492925 0.870072 -0.867579 -0.4973 35.7271 4.58649)" stroke="white" stroke-opacity="0.4" stroke-width="0.992606" stroke-linecap="round"/>
<line x1="0.496303" y1="-0.496303" x2="5.90932" y2="-0.496303" transform="matrix(-0.849007 0.528382 -0.523929 -0.851762 44.5081 12.5753)" stroke="#FAA21E" stroke-width="0.992606" stroke-linecap="round"/>
<line x1="0.496303" y1="-0.496303" x2="5.90932" y2="-0.496303" transform="matrix(-0.849007 0.528382 -0.523929 -0.851762 44.5081 12.5753)" stroke="white" stroke-opacity="0.4" stroke-width="0.992606" stroke-linecap="round"/>
<line x1="0.496303" y1="-0.496303" x2="5.90855" y2="-0.496303" transform="matrix(-0.875939 -0.482423 0.478097 -0.878307 45.4374 36.1473)" stroke="#FAA21E" stroke-width="0.992606" stroke-linecap="round"/>
<line x1="0.496303" y1="-0.496303" x2="5.90855" y2="-0.496303" transform="matrix(-0.875939 -0.482423 0.478097 -0.878307 45.4374 36.1473)" stroke="white" stroke-opacity="0.4" stroke-width="0.992606" stroke-linecap="round"/>
<line x1="0.496303" y1="-0.496303" x2="5.9261" y2="-0.496303" transform="matrix(-0.538307 -0.842749 0.839871 -0.542786 37.2371 44.6508)" stroke="#FAA21E" stroke-width="0.992606" stroke-linecap="round"/>
<line x1="0.496303" y1="-0.496303" x2="5.9261" y2="-0.496303" transform="matrix(-0.538307 -0.842749 0.839871 -0.542786 37.2371 44.6508)" stroke="white" stroke-opacity="0.4" stroke-width="0.992606" stroke-linecap="round"/>
<line x1="2.53128" y1="25.1472" x2="7.93447" y2="25.1472" stroke="#FAA21E" stroke-width="0.992606" stroke-linecap="round"/>
<line x1="2.53128" y1="25.1472" x2="7.93447" y2="25.1472" stroke="white" stroke-opacity="0.4" stroke-width="0.992606" stroke-linecap="round"/>
<line x1="0.496303" y1="-0.496303" x2="5.92786" y2="-0.496303" transform="matrix(0.492924 -0.870072 0.867579 0.4973 13.9858 45.2357)" stroke="#FAA21E" stroke-width="0.992606" stroke-linecap="round"/>
<line x1="0.496303" y1="-0.496303" x2="5.92786" y2="-0.496303" transform="matrix(0.492924 -0.870072 0.867579 0.4973 13.9858 45.2357)" stroke="white" stroke-opacity="0.4" stroke-width="0.992606" stroke-linecap="round"/>
<line x1="0.496303" y1="-0.496303" x2="5.90932" y2="-0.496303" transform="matrix(0.849006 -0.528383 0.523928 0.851763 5.20471 37.2468)" stroke="#FAA21E" stroke-width="0.992606" stroke-linecap="round"/>
<line x1="0.496303" y1="-0.496303" x2="5.90932" y2="-0.496303" transform="matrix(0.849006 -0.528383 0.523928 0.851763 5.20471 37.2468)" stroke="white" stroke-opacity="0.4" stroke-width="0.992606" stroke-linecap="round"/>
<line x1="0.496303" y1="-0.496303" x2="5.90855" y2="-0.496303" transform="matrix(0.875939 0.482423 -0.478097 0.878307 4.68408 14.1384)" stroke="#FAA21E" stroke-width="0.992606" stroke-linecap="round"/>
<line x1="0.496303" y1="-0.496303" x2="5.90855" y2="-0.496303" transform="matrix(0.875939 0.482423 -0.478097 0.878307 4.68408 14.1384)" stroke="white" stroke-opacity="0.4" stroke-width="0.992606" stroke-linecap="round"/>
<line x1="0.496303" y1="-0.496303" x2="5.92609" y2="-0.496303" transform="matrix(0.538307 0.842749 -0.839871 0.542786 12.4756 5.17133)" stroke="#FAA21E" stroke-width="0.992606" stroke-linecap="round"/>
<line x1="0.496303" y1="-0.496303" x2="5.92609" y2="-0.496303" transform="matrix(0.538307 0.842749 -0.839871 0.542786 12.4756 5.17133)" stroke="white" stroke-opacity="0.4" stroke-width="0.992606" stroke-linecap="round"/>
<line x1="0.496303" y1="-0.496303" x2="8.68303" y2="-0.496303" transform="matrix(0.267517 -0.963553 0.962737 0.270438 29.8707 9.04474)" stroke="#FAA21E" stroke-width="0.992606" stroke-linecap="round"/>
<line x1="0.496303" y1="-0.496303" x2="8.68303" y2="-0.496303" transform="matrix(0.267517 -0.963553 0.962737 0.270438 29.8707 9.04474)" stroke="white" stroke-opacity="0.4" stroke-width="0.992606" stroke-linecap="round"/>
<line x1="0.496303" y1="-0.496303" x2="8.68303" y2="-0.496303" transform="matrix(0.267517 -0.963553 0.962737 0.270438 18.606 49.9843)" stroke="#FAA21E" stroke-width="0.992606" stroke-linecap="round"/>
<line x1="0.496303" y1="-0.496303" x2="8.68303" y2="-0.496303" transform="matrix(0.267517 -0.963553 0.962737 0.270438 18.606 49.9843)" stroke="white" stroke-opacity="0.4" stroke-width="0.992606" stroke-linecap="round"/>
<line x1="0.496303" y1="-0.496303" x2="8.63736" y2="-0.496303" transform="matrix(-0.962737 -0.270438 0.267517 -0.963553 49.7844 31.3277)" stroke="#FAA21E" stroke-width="0.992606" stroke-linecap="round"/>
<line x1="0.496303" y1="-0.496303" x2="8.63736" y2="-0.496303" transform="matrix(-0.962737 -0.270438 0.267517 -0.963553 49.7844 31.3277)" stroke="white" stroke-opacity="0.4" stroke-width="0.992606" stroke-linecap="round"/>
<line x1="0.496303" y1="-0.496303" x2="8.65988" y2="-0.496303" transform="matrix(-0.708495 0.705716 -0.701557 -0.712613 42.8269 6.34113)" stroke="#FAA21E" stroke-width="0.992606" stroke-linecap="round"/>
<line x1="0.496303" y1="-0.496303" x2="8.65988" y2="-0.496303" transform="matrix(-0.708495 0.705716 -0.701557 -0.712613 42.8269 6.34113)" stroke="white" stroke-opacity="0.4" stroke-width="0.992606" stroke-linecap="round"/>
<line x1="0.496303" y1="-0.496303" x2="8.63764" y2="-0.496303" transform="matrix(-0.960135 0.279536 -0.276533 -0.961004 49.4702 17.7455)" stroke="#FAA21E" stroke-width="0.992606" stroke-linecap="round"/>
<line x1="0.496303" y1="-0.496303" x2="8.63764" y2="-0.496303" transform="matrix(-0.960135 0.279536 -0.276533 -0.961004 49.4702 17.7455)" stroke="white" stroke-opacity="0.4" stroke-width="0.992606" stroke-linecap="round"/>
<line x1="0.496303" y1="-0.496303" x2="8.6595" y2="-0.496303" transform="matrix(-0.713579 -0.700575 0.696387 -0.717666 43.4546 42.875)" stroke="#FAA21E" stroke-width="0.992606" stroke-linecap="round"/>
<line x1="0.496303" y1="-0.496303" x2="8.6595" y2="-0.496303" transform="matrix(-0.713579 -0.700575 0.696387 -0.717666 43.4546 42.875)" stroke="white" stroke-opacity="0.4" stroke-width="0.992606" stroke-linecap="round"/>
<line x1="0.496303" y1="-0.496303" x2="8.68227" y2="-0.496303" transform="matrix(-0.292763 -0.956185 0.955216 -0.29591 32.3404 49.6234)" stroke="#FAA21E" stroke-width="0.992606" stroke-linecap="round"/>
<line x1="0.496303" y1="-0.496303" x2="8.68227" y2="-0.496303" transform="matrix(-0.292763 -0.956185 0.955216 -0.29591 32.3404 49.6234)" stroke="white" stroke-opacity="0.4" stroke-width="0.992606" stroke-linecap="round"/>
<line x1="0.496303" y1="-0.496303" x2="8.63736" y2="-0.496303" transform="matrix(0.962737 0.270438 -0.267517 0.963553 0 18.6228)" stroke="#FAA21E" stroke-width="0.992606" stroke-linecap="round"/>
<line x1="0.496303" y1="-0.496303" x2="8.63736" y2="-0.496303" transform="matrix(0.962737 0.270438 -0.267517 0.963553 0 18.6228)" stroke="white" stroke-opacity="0.4" stroke-width="0.992606" stroke-linecap="round"/>
<line x1="0.496303" y1="-0.496303" x2="8.65988" y2="-0.496303" transform="matrix(0.708495 -0.705716 0.701557 0.712613 6.96979 43.5021)" stroke="#FAA21E" stroke-width="0.992606" stroke-linecap="round"/>
<line x1="0.496303" y1="-0.496303" x2="8.65988" y2="-0.496303" transform="matrix(0.708495 -0.705716 0.701557 0.712613 6.96979 43.5021)" stroke="white" stroke-opacity="0.4" stroke-width="0.992606" stroke-linecap="round"/>
<line x1="0.496303" y1="-0.496303" x2="8.63764" y2="-0.496303" transform="matrix(0.960135 -0.279536 0.276533 0.961004 0.29071 32.2883)" stroke="#FAA21E" stroke-width="0.992606" stroke-linecap="round"/>
<line x1="0.496303" y1="-0.496303" x2="8.63764" y2="-0.496303" transform="matrix(0.960135 -0.279536 0.276533 0.961004 0.29071 32.2883)" stroke="white" stroke-opacity="0.4" stroke-width="0.992606" stroke-linecap="round"/>
<line x1="0.496303" y1="-0.496303" x2="8.65949" y2="-0.496303" transform="matrix(0.713579 0.700575 -0.696387 0.717666 6.39575 7.21814)" stroke="#FAA21E" stroke-width="0.992606" stroke-linecap="round"/>
<line x1="0.496303" y1="-0.496303" x2="8.65949" y2="-0.496303" transform="matrix(0.713579 0.700575 -0.696387 0.717666 6.39575 7.21814)" stroke="white" stroke-opacity="0.4" stroke-width="0.992606" stroke-linecap="round"/>
<line x1="0.496303" y1="-0.496303" x2="8.68227" y2="-0.496303" transform="matrix(0.292694 0.956206 -0.955195 0.295979 17.4431 0.200012)" stroke="#FAA21E" stroke-width="0.992606" stroke-linecap="round"/>
<line x1="0.496303" y1="-0.496303" x2="8.68227" y2="-0.496303" transform="matrix(0.292694 0.956206 -0.955195 0.295979 17.4431 0.200012)" stroke="white" stroke-opacity="0.4" stroke-width="0.992606" stroke-linecap="round"/>
<path d="M25 0.599976C18.3669 4.23937 15.2979 5.11413 8 6.99991C9 10.9999 11 19.9999 11 24.9999C11 29.9999 7 38.9999 7 38.9999C7 38.9999 9 42.9999 13.5 45.9999C18 48.9999 25 49.5 25 49.5C25 49.5 32.5 48.9999 36.5 45.9999C40.5 42.9999 43 38.9999 43 38.9999C43 38.9999 39 30.9999 39 24.9999C39 18.9999 40.5067 10.7918 42 6.99991C34.2416 4.66313 31.2376 3.80719 25 0.599976Z" fill="#FEFEFE" stroke="#FAA21E" stroke-width="0.996296"/>
<path d="M25 9.99994L22 4.99994C18.1244 6.99137 15.8373 7.82469 11.5 8.99994C11.5 8.99994 14 21.9999 14 24.9999C14 27.9999 12.1 34.4999 10.5 38.4999C12.5 41.4999 17.5 44.9999 25 45.9999C32.5 44.9999 37.5 41.4999 39.5 38.4999C38 35.4999 36 30.1999 36 24.9999C36 19.7999 37.8333 12.1666 38.5 8.99994C33.9197 7.94821 31.6465 7.04253 28 4.99994L25 9.99994Z" fill="#FEFEFE" stroke="#FAA21E" stroke-width="0.996296"/>
<path d="M12 9.5L38 39.9998" stroke="#FAA21E" stroke-width="0.996296" stroke-linecap="square"/>
<path d="M38 9.5L12 39.9998" stroke="#FAA21E" stroke-width="0.996296" stroke-linecap="square"/>
<path d="M26.5 22.9772C25.7 22.0681 25.5 20.1363 25 18.9999C24.5 20.1363 24.5 21.8408 23.5 22.9772C22.6056 23.9936 21.5 24.6818 20 25.2499C21.5 25.8181 22.7 26.6136 23.5 27.5227C24.3 28.4318 24.6667 30.3636 25 31.4999C25.3333 30.1742 25.6056 28.5391 26.5 27.5227C27.5 26.3863 28.5 25.8181 30 25.2499C29 24.6818 27.5 24.1136 26.5 22.9772Z" fill="#FAA21E"/>
</svg>
