<svg width="51" height="51" viewBox="0 0 51 51" fill="none" xmlns="http://www.w3.org/2000/svg">
<line x1="25.5338" y1="8.79377" x2="25.5338" y2="3.3514" stroke="#FAA21E" stroke-width="0.992606" stroke-linecap="round"/>
<line x1="25.5338" y1="8.79377" x2="25.5338" y2="3.3514" stroke="white" stroke-opacity="0.4" stroke-width="0.992606" stroke-linecap="round"/>
<line x1="25.5338" y1="48.5738" x2="25.5338" y2="43.1314" stroke="#FAA21E" stroke-width="0.992606" stroke-linecap="round"/>
<line x1="25.5338" y1="48.5738" x2="25.5338" y2="43.1314" stroke="white" stroke-opacity="0.4" stroke-width="0.992606" stroke-linecap="round"/>
<line x1="47.873" y1="25.9969" x2="42.455" y2="25.9969" stroke="#FAA21E" stroke-width="0.992606" stroke-linecap="round"/>
<line x1="47.873" y1="25.9969" x2="42.455" y2="25.9969" stroke="white" stroke-opacity="0.4" stroke-width="0.992606" stroke-linecap="round"/>
<line x1="0.496303" y1="-0.496303" x2="5.9327" y2="-0.496303" transform="matrix(-0.49369 0.869638 -0.868018 -0.496532 36.3911 5.48773)" stroke="#FAA21E" stroke-width="0.992606" stroke-linecap="round"/>
<line x1="0.496303" y1="-0.496303" x2="5.9327" y2="-0.496303" transform="matrix(-0.49369 0.869638 -0.868018 -0.496532 36.3911 5.48773)" stroke="white" stroke-opacity="0.4" stroke-width="0.992606" stroke-linecap="round"/>
<line x1="0.496303" y1="-0.496303" x2="5.92043" y2="-0.496303" transform="matrix(-0.849492 0.527602 -0.524708 -0.851282 45.1923 13.4786)" stroke="#FAA21E" stroke-width="0.992606" stroke-linecap="round"/>
<line x1="0.496303" y1="-0.496303" x2="5.92043" y2="-0.496303" transform="matrix(-0.849492 0.527602 -0.524708 -0.851282 45.1923 13.4786)" stroke="white" stroke-opacity="0.4" stroke-width="0.992606" stroke-linecap="round"/>
<line x1="0.496303" y1="-0.496303" x2="5.92028" y2="-0.496303" transform="matrix(-0.876356 -0.481664 0.478853 -0.877895 46.1238 37.0565)" stroke="#FAA21E" stroke-width="0.992606" stroke-linecap="round"/>
<line x1="0.496303" y1="-0.496303" x2="5.92028" y2="-0.496303" transform="matrix(-0.876356 -0.481664 0.478853 -0.877895 46.1238 37.0565)" stroke="white" stroke-opacity="0.4" stroke-width="0.992606" stroke-linecap="round"/>
<line x1="0.496303" y1="-0.496303" x2="5.93155" y2="-0.496303" transform="matrix(-0.539091 -0.842248 0.840378 -0.542001 37.9045 45.5622)" stroke="#FAA21E" stroke-width="0.992606" stroke-linecap="round"/>
<line x1="0.496303" y1="-0.496303" x2="5.93155" y2="-0.496303" transform="matrix(-0.539091 -0.842248 0.840378 -0.542001 37.9045 45.5622)" stroke="white" stroke-opacity="0.4" stroke-width="0.992606" stroke-linecap="round"/>
<line x1="3.11752" y1="26.0537" x2="8.53547" y2="26.0537" stroke="#FAA21E" stroke-width="0.992606" stroke-linecap="round"/>
<line x1="3.11752" y1="26.0537" x2="8.53547" y2="26.0537" stroke="white" stroke-opacity="0.4" stroke-width="0.992606" stroke-linecap="round"/>
<line x1="0.496303" y1="-0.496303" x2="5.9327" y2="-0.496303" transform="matrix(0.49369 -0.869638 0.868018 0.496533 14.5995 46.1472)" stroke="#FAA21E" stroke-width="0.992606" stroke-linecap="round"/>
<line x1="0.496303" y1="-0.496303" x2="5.9327" y2="-0.496303" transform="matrix(0.49369 -0.869638 0.868018 0.496533 14.5995 46.1472)" stroke="white" stroke-opacity="0.4" stroke-width="0.992606" stroke-linecap="round"/>
<line x1="0.496303" y1="-0.496303" x2="5.92043" y2="-0.496303" transform="matrix(0.849492 -0.527602 0.524708 0.851282 5.79822 38.1564)" stroke="#FAA21E" stroke-width="0.992606" stroke-linecap="round"/>
<line x1="0.496303" y1="-0.496303" x2="5.92043" y2="-0.496303" transform="matrix(0.849492 -0.527602 0.524708 0.851282 5.79822 38.1564)" stroke="white" stroke-opacity="0.4" stroke-width="0.992606" stroke-linecap="round"/>
<line x1="0.496303" y1="-0.496303" x2="5.92028" y2="-0.496303" transform="matrix(0.876356 0.481664 -0.478854 0.877895 5.27631 15.042)" stroke="#FAA21E" stroke-width="0.992606" stroke-linecap="round"/>
<line x1="0.496303" y1="-0.496303" x2="5.92028" y2="-0.496303" transform="matrix(0.876356 0.481664 -0.478854 0.877895 5.27631 15.042)" stroke="white" stroke-opacity="0.4" stroke-width="0.992606" stroke-linecap="round"/>
<line x1="0.496303" y1="-0.496303" x2="5.93155" y2="-0.496303" transform="matrix(0.539091 0.842248 -0.840378 0.542001 13.0859 6.07264)" stroke="#FAA21E" stroke-width="0.992606" stroke-linecap="round"/>
<line x1="0.496303" y1="-0.496303" x2="5.93155" y2="-0.496303" transform="matrix(0.539091 0.842248 -0.840378 0.542001 13.0859 6.07264)" stroke="white" stroke-opacity="0.4" stroke-width="0.992606" stroke-linecap="round"/>
<line x1="0.496303" y1="-0.496303" x2="8.68672" y2="-0.496303" transform="matrix(0.268027 -0.963411 0.962881 0.269925 30.5211 9.94705)" stroke="#FAA21E" stroke-width="0.992606" stroke-linecap="round"/>
<line x1="0.496303" y1="-0.496303" x2="8.68672" y2="-0.496303" transform="matrix(0.268027 -0.963411 0.962881 0.269925 30.5211 9.94705)" stroke="white" stroke-opacity="0.4" stroke-width="0.992606" stroke-linecap="round"/>
<line x1="0.496303" y1="-0.496303" x2="8.68672" y2="-0.496303" transform="matrix(0.268027 -0.963411 0.962881 0.269925 19.2303 50.8971)" stroke="#FAA21E" stroke-width="0.992606" stroke-linecap="round"/>
<line x1="0.496303" y1="-0.496303" x2="8.68672" y2="-0.496303" transform="matrix(0.268027 -0.963411 0.962881 0.269925 19.2303 50.8971)" stroke="white" stroke-opacity="0.4" stroke-width="0.992606" stroke-linecap="round"/>
<line x1="0.496303" y1="-0.496303" x2="8.65707" y2="-0.496303" transform="matrix(-0.962882 -0.269925 0.268027 -0.963411 50.4808 32.2357)" stroke="#FAA21E" stroke-width="0.992606" stroke-linecap="round"/>
<line x1="0.496303" y1="-0.496303" x2="8.65707" y2="-0.496303" transform="matrix(-0.962882 -0.269925 0.268027 -0.963411 50.4808 32.2357)" stroke="white" stroke-opacity="0.4" stroke-width="0.992606" stroke-linecap="round"/>
<line x1="0.496303" y1="-0.496303" x2="8.67165" y2="-0.496303" transform="matrix(-0.709218 0.704989 -0.702287 -0.711894 43.5072 7.24274)" stroke="#FAA21E" stroke-width="0.992606" stroke-linecap="round"/>
<line x1="0.496303" y1="-0.496303" x2="8.67165" y2="-0.496303" transform="matrix(-0.709218 0.704989 -0.702287 -0.711894 43.5072 7.24274)" stroke="white" stroke-opacity="0.4" stroke-width="0.992606" stroke-linecap="round"/>
<line x1="0.496303" y1="-0.496303" x2="8.65725" y2="-0.496303" transform="matrix(-0.960289 0.279008 -0.277057 -0.960853 50.1658 18.65)" stroke="#FAA21E" stroke-width="0.992606" stroke-linecap="round"/>
<line x1="0.496303" y1="-0.496303" x2="8.65725" y2="-0.496303" transform="matrix(-0.960289 0.279008 -0.277057 -0.960853 50.1658 18.65)" stroke="white" stroke-opacity="0.4" stroke-width="0.992606" stroke-linecap="round"/>
<line x1="0.496303" y1="-0.496303" x2="8.6714" y2="-0.496303" transform="matrix(-0.714297 -0.699843 0.697122 -0.716952 44.1364 43.786)" stroke="#FAA21E" stroke-width="0.992606" stroke-linecap="round"/>
<line x1="0.496303" y1="-0.496303" x2="8.6714" y2="-0.496303" transform="matrix(-0.714297 -0.699843 0.697122 -0.716952 44.1364 43.786)" stroke="white" stroke-opacity="0.4" stroke-width="0.992606" stroke-linecap="round"/>
<line x1="0.496303" y1="-0.496303" x2="8.68622" y2="-0.496303" transform="matrix(-0.293312 -0.956017 0.955387 -0.295357 32.9965 50.5361)" stroke="#FAA21E" stroke-width="0.992606" stroke-linecap="round"/>
<line x1="0.496303" y1="-0.496303" x2="8.68622" y2="-0.496303" transform="matrix(-0.293312 -0.956017 0.955387 -0.295357 32.9965 50.5361)" stroke="white" stroke-opacity="0.4" stroke-width="0.992606" stroke-linecap="round"/>
<line x1="0.496303" y1="-0.496303" x2="8.65707" y2="-0.496303" transform="matrix(0.962881 0.269925 -0.268027 0.963412 0.581482 19.5276)" stroke="#FAA21E" stroke-width="0.992606" stroke-linecap="round"/>
<line x1="0.496303" y1="-0.496303" x2="8.65707" y2="-0.496303" transform="matrix(0.962881 0.269925 -0.268027 0.963412 0.581482 19.5276)" stroke="white" stroke-opacity="0.4" stroke-width="0.992606" stroke-linecap="round"/>
<line x1="0.496303" y1="-0.496303" x2="8.67165" y2="-0.496303" transform="matrix(0.709218 -0.704989 0.702287 0.711894 7.56738 44.4133)" stroke="#FAA21E" stroke-width="0.992606" stroke-linecap="round"/>
<line x1="0.496303" y1="-0.496303" x2="8.67165" y2="-0.496303" transform="matrix(0.709218 -0.704989 0.702287 0.711894 7.56738 44.4133)" stroke="white" stroke-opacity="0.4" stroke-width="0.992606" stroke-linecap="round"/>
<line x1="0.496303" y1="-0.496303" x2="8.65726" y2="-0.496303" transform="matrix(0.960289 -0.279008 0.277057 0.960853 0.872864 33.1965)" stroke="#FAA21E" stroke-width="0.992606" stroke-linecap="round"/>
<line x1="0.496303" y1="-0.496303" x2="8.65726" y2="-0.496303" transform="matrix(0.960289 -0.279008 0.277057 0.960853 0.872864 33.1965)" stroke="white" stroke-opacity="0.4" stroke-width="0.992606" stroke-linecap="round"/>
<line x1="0.496303" y1="-0.496303" x2="8.6714" y2="-0.496303" transform="matrix(0.714297 0.699843 -0.697122 0.716952 6.992 8.12003)" stroke="#FAA21E" stroke-width="0.992606" stroke-linecap="round"/>
<line x1="0.496303" y1="-0.496303" x2="8.6714" y2="-0.496303" transform="matrix(0.714297 0.699843 -0.697122 0.716952 6.992 8.12003)" stroke="white" stroke-opacity="0.4" stroke-width="0.992606" stroke-linecap="round"/>
<line x1="0.496303" y1="-0.496303" x2="8.68622" y2="-0.496303" transform="matrix(0.293243 0.956038 -0.955366 0.295425 18.0648 1.10006)" stroke="#FAA21E" stroke-width="0.992606" stroke-linecap="round"/>
<line x1="0.496303" y1="-0.496303" x2="8.68622" y2="-0.496303" transform="matrix(0.293243 0.956038 -0.955366 0.295425 18.0648 1.10006)" stroke="white" stroke-opacity="0.4" stroke-width="0.992606" stroke-linecap="round"/>
<path d="M4.81177 35.8795L4.7945 35.8863L4.77779 35.8943C4.01458 36.2603 3.24676 36.1757 2.59676 35.888C1.9287 35.5922 1.44721 35.1086 1.27801 34.784C1.10963 34.461 0.99738 33.8087 1.14918 33.1292C1.29461 32.4782 1.67021 31.8525 2.41559 31.4865L16.5514 26.4019L16.9316 31.1432L4.81177 35.8795Z" fill="#FEFEFE" stroke="#FAA21E" stroke-width="0.992606"/>
<path d="M14.2919 45.6548L14.2844 45.6723L14.2755 45.6892C13.8828 46.4328 13.9524 47.1898 14.2345 47.8384C14.5246 48.5055 15.0142 48.9969 15.352 49.1753C15.6898 49.3537 16.3718 49.481 17.0861 49.3444C17.7739 49.2129 18.4319 48.8495 18.826 48.1205L24.3969 34.21L19.4652 33.7204L14.2919 45.6548Z" fill="#FEFEFE" stroke="#FAA21E" stroke-width="0.992606"/>
<path d="M29.8458 5.60615C31.8479 4.21418 34.7002 3.3369 36.4639 2.93963L28.2088 22.7799L21.3162 23.6911C22.1114 21.0638 23.5125 16.4667 24.1657 14.4428C25.0612 11.6683 26.8827 7.66616 29.8458 5.60615Z" fill="#FEFEFE" stroke="#FAA21E" stroke-width="0.992606"/>
<path d="M45.9256 21.8503C47.3593 19.8778 48.2963 17.0447 48.7305 15.2897L28.7227 23.1267L27.6667 29.9986C30.3101 29.2587 34.9351 27.9543 36.9721 27.3437C39.7646 26.5066 43.8039 24.7695 45.9256 21.8503Z" fill="#FEFEFE" stroke="#FAA21E" stroke-width="0.992606"/>
<circle cx="23.4114" cy="27.7004" r="7.44455" fill="#FEFEFE" stroke="#FAA21E" stroke-width="0.992606"/>
<path d="M26.0108 27.5259C26.0414 26.3949 27.138 25.0806 27.5201 24.0299C26.4502 24.3546 25.3613 25.3862 23.9476 25.3479C22.6831 25.3137 21.4832 24.9276 20.0886 24.1825C20.7572 25.6153 21.0743 26.9679 21.0437 28.0988C21.0131 29.2298 20.0311 30.6651 19.5344 31.5948C20.6106 31.0345 21.8424 30.2425 23.1069 30.2767C24.5205 30.315 25.5713 30.6971 26.9658 31.4422C26.6411 30.3724 25.9725 28.9396 26.0108 27.5259Z" fill="#FAA21E"/>
</svg>
