<svg width="51" height="51" viewBox="0 0 51 51" fill="none" xmlns="http://www.w3.org/2000/svg">
<line x1="25.5338" y1="8.29" x2="25.5338" y2="2.84762" stroke="#FAA21E" stroke-width="0.992606" stroke-linecap="round"/>
<line x1="25.5338" y1="8.29" x2="25.5338" y2="2.84762" stroke="white" stroke-opacity="0.4" stroke-width="0.992606" stroke-linecap="round"/>
<line x1="25.5338" y1="48.07" x2="25.5338" y2="42.6276" stroke="#FAA21E" stroke-width="0.992606" stroke-linecap="round"/>
<line x1="25.5338" y1="48.07" x2="25.5338" y2="42.6276" stroke="white" stroke-opacity="0.4" stroke-width="0.992606" stroke-linecap="round"/>
<line x1="47.873" y1="25.4932" x2="42.455" y2="25.4932" stroke="#FAA21E" stroke-width="0.992606" stroke-linecap="round"/>
<line x1="47.873" y1="25.4932" x2="42.455" y2="25.4932" stroke="white" stroke-opacity="0.4" stroke-width="0.992606" stroke-linecap="round"/>
<line x1="0.496303" y1="-0.496303" x2="5.9327" y2="-0.496303" transform="matrix(-0.49369 0.869638 -0.868018 -0.496532 36.3911 4.98395)" stroke="#FAA21E" stroke-width="0.992606" stroke-linecap="round"/>
<line x1="0.496303" y1="-0.496303" x2="5.9327" y2="-0.496303" transform="matrix(-0.49369 0.869638 -0.868018 -0.496532 36.3911 4.98395)" stroke="white" stroke-opacity="0.4" stroke-width="0.992606" stroke-linecap="round"/>
<line x1="0.496303" y1="-0.496303" x2="5.92043" y2="-0.496303" transform="matrix(-0.849492 0.527602 -0.524708 -0.851282 45.1923 12.9748)" stroke="#FAA21E" stroke-width="0.992606" stroke-linecap="round"/>
<line x1="0.496303" y1="-0.496303" x2="5.92043" y2="-0.496303" transform="matrix(-0.849492 0.527602 -0.524708 -0.851282 45.1923 12.9748)" stroke="white" stroke-opacity="0.4" stroke-width="0.992606" stroke-linecap="round"/>
<line x1="0.496303" y1="-0.496303" x2="5.92028" y2="-0.496303" transform="matrix(-0.876356 -0.481664 0.478853 -0.877895 46.1238 36.5527)" stroke="#FAA21E" stroke-width="0.992606" stroke-linecap="round"/>
<line x1="0.496303" y1="-0.496303" x2="5.92028" y2="-0.496303" transform="matrix(-0.876356 -0.481664 0.478853 -0.877895 46.1238 36.5527)" stroke="white" stroke-opacity="0.4" stroke-width="0.992606" stroke-linecap="round"/>
<line x1="0.496303" y1="-0.496303" x2="5.93155" y2="-0.496303" transform="matrix(-0.539091 -0.842248 0.840378 -0.542001 37.9045 45.0584)" stroke="#FAA21E" stroke-width="0.992606" stroke-linecap="round"/>
<line x1="0.496303" y1="-0.496303" x2="5.93155" y2="-0.496303" transform="matrix(-0.539091 -0.842248 0.840378 -0.542001 37.9045 45.0584)" stroke="white" stroke-opacity="0.4" stroke-width="0.992606" stroke-linecap="round"/>
<line x1="3.11752" y1="25.5499" x2="8.53547" y2="25.5499" stroke="#FAA21E" stroke-width="0.992606" stroke-linecap="round"/>
<line x1="3.11752" y1="25.5499" x2="8.53547" y2="25.5499" stroke="white" stroke-opacity="0.4" stroke-width="0.992606" stroke-linecap="round"/>
<line x1="0.496303" y1="-0.496303" x2="5.9327" y2="-0.496303" transform="matrix(0.49369 -0.869638 0.868018 0.496533 14.5995 45.6435)" stroke="#FAA21E" stroke-width="0.992606" stroke-linecap="round"/>
<line x1="0.496303" y1="-0.496303" x2="5.9327" y2="-0.496303" transform="matrix(0.49369 -0.869638 0.868018 0.496533 14.5995 45.6435)" stroke="white" stroke-opacity="0.4" stroke-width="0.992606" stroke-linecap="round"/>
<line x1="0.496303" y1="-0.496303" x2="5.92043" y2="-0.496303" transform="matrix(0.849492 -0.527602 0.524708 0.851282 5.79822 37.6526)" stroke="#FAA21E" stroke-width="0.992606" stroke-linecap="round"/>
<line x1="0.496303" y1="-0.496303" x2="5.92043" y2="-0.496303" transform="matrix(0.849492 -0.527602 0.524708 0.851282 5.79822 37.6526)" stroke="white" stroke-opacity="0.4" stroke-width="0.992606" stroke-linecap="round"/>
<line x1="0.496303" y1="-0.496303" x2="5.92028" y2="-0.496303" transform="matrix(0.876356 0.481664 -0.478854 0.877895 5.27631 14.5382)" stroke="#FAA21E" stroke-width="0.992606" stroke-linecap="round"/>
<line x1="0.496303" y1="-0.496303" x2="5.92028" y2="-0.496303" transform="matrix(0.876356 0.481664 -0.478854 0.877895 5.27631 14.5382)" stroke="white" stroke-opacity="0.4" stroke-width="0.992606" stroke-linecap="round"/>
<line x1="0.496303" y1="-0.496303" x2="5.93155" y2="-0.496303" transform="matrix(0.539091 0.842248 -0.840378 0.542001 13.0859 5.56885)" stroke="#FAA21E" stroke-width="0.992606" stroke-linecap="round"/>
<line x1="0.496303" y1="-0.496303" x2="5.93155" y2="-0.496303" transform="matrix(0.539091 0.842248 -0.840378 0.542001 13.0859 5.56885)" stroke="white" stroke-opacity="0.4" stroke-width="0.992606" stroke-linecap="round"/>
<line x1="0.496303" y1="-0.496303" x2="8.68672" y2="-0.496303" transform="matrix(0.268027 -0.963411 0.962881 0.269925 30.5211 9.44327)" stroke="#FAA21E" stroke-width="0.992606" stroke-linecap="round"/>
<line x1="0.496303" y1="-0.496303" x2="8.68672" y2="-0.496303" transform="matrix(0.268027 -0.963411 0.962881 0.269925 30.5211 9.44327)" stroke="white" stroke-opacity="0.4" stroke-width="0.992606" stroke-linecap="round"/>
<line x1="0.496303" y1="-0.496303" x2="8.68672" y2="-0.496303" transform="matrix(0.268027 -0.963411 0.962881 0.269925 19.2303 50.3933)" stroke="#FAA21E" stroke-width="0.992606" stroke-linecap="round"/>
<line x1="0.496303" y1="-0.496303" x2="8.68672" y2="-0.496303" transform="matrix(0.268027 -0.963411 0.962881 0.269925 19.2303 50.3933)" stroke="white" stroke-opacity="0.4" stroke-width="0.992606" stroke-linecap="round"/>
<line x1="0.496303" y1="-0.496303" x2="8.65707" y2="-0.496303" transform="matrix(-0.962882 -0.269925 0.268027 -0.963411 50.4808 31.7319)" stroke="#FAA21E" stroke-width="0.992606" stroke-linecap="round"/>
<line x1="0.496303" y1="-0.496303" x2="8.65707" y2="-0.496303" transform="matrix(-0.962882 -0.269925 0.268027 -0.963411 50.4808 31.7319)" stroke="white" stroke-opacity="0.4" stroke-width="0.992606" stroke-linecap="round"/>
<line x1="0.496303" y1="-0.496303" x2="8.67165" y2="-0.496303" transform="matrix(-0.709218 0.704989 -0.702287 -0.711894 43.5072 6.73895)" stroke="#FAA21E" stroke-width="0.992606" stroke-linecap="round"/>
<line x1="0.496303" y1="-0.496303" x2="8.67165" y2="-0.496303" transform="matrix(-0.709218 0.704989 -0.702287 -0.711894 43.5072 6.73895)" stroke="white" stroke-opacity="0.4" stroke-width="0.992606" stroke-linecap="round"/>
<line x1="0.496303" y1="-0.496303" x2="8.65725" y2="-0.496303" transform="matrix(-0.960289 0.279008 -0.277057 -0.960853 50.1658 18.1462)" stroke="#FAA21E" stroke-width="0.992606" stroke-linecap="round"/>
<line x1="0.496303" y1="-0.496303" x2="8.65725" y2="-0.496303" transform="matrix(-0.960289 0.279008 -0.277057 -0.960853 50.1658 18.1462)" stroke="white" stroke-opacity="0.4" stroke-width="0.992606" stroke-linecap="round"/>
<line x1="0.496303" y1="-0.496303" x2="8.6714" y2="-0.496303" transform="matrix(-0.714297 -0.699843 0.697122 -0.716952 44.1364 43.2822)" stroke="#FAA21E" stroke-width="0.992606" stroke-linecap="round"/>
<line x1="0.496303" y1="-0.496303" x2="8.6714" y2="-0.496303" transform="matrix(-0.714297 -0.699843 0.697122 -0.716952 44.1364 43.2822)" stroke="white" stroke-opacity="0.4" stroke-width="0.992606" stroke-linecap="round"/>
<line x1="0.496303" y1="-0.496303" x2="8.68622" y2="-0.496303" transform="matrix(-0.293312 -0.956017 0.955387 -0.295357 32.9965 50.0323)" stroke="#FAA21E" stroke-width="0.992606" stroke-linecap="round"/>
<line x1="0.496303" y1="-0.496303" x2="8.68622" y2="-0.496303" transform="matrix(-0.293312 -0.956017 0.955387 -0.295357 32.9965 50.0323)" stroke="white" stroke-opacity="0.4" stroke-width="0.992606" stroke-linecap="round"/>
<line x1="0.496303" y1="-0.496303" x2="8.65707" y2="-0.496303" transform="matrix(0.962881 0.269925 -0.268027 0.963412 0.581482 19.0238)" stroke="#FAA21E" stroke-width="0.992606" stroke-linecap="round"/>
<line x1="0.496303" y1="-0.496303" x2="8.65707" y2="-0.496303" transform="matrix(0.962881 0.269925 -0.268027 0.963412 0.581482 19.0238)" stroke="white" stroke-opacity="0.4" stroke-width="0.992606" stroke-linecap="round"/>
<line x1="0.496303" y1="-0.496303" x2="8.67165" y2="-0.496303" transform="matrix(0.709218 -0.704989 0.702287 0.711894 7.56738 43.9095)" stroke="#FAA21E" stroke-width="0.992606" stroke-linecap="round"/>
<line x1="0.496303" y1="-0.496303" x2="8.67165" y2="-0.496303" transform="matrix(0.709218 -0.704989 0.702287 0.711894 7.56738 43.9095)" stroke="white" stroke-opacity="0.4" stroke-width="0.992606" stroke-linecap="round"/>
<line x1="0.496303" y1="-0.496303" x2="8.65726" y2="-0.496303" transform="matrix(0.960289 -0.279008 0.277057 0.960853 0.872864 32.6927)" stroke="#FAA21E" stroke-width="0.992606" stroke-linecap="round"/>
<line x1="0.496303" y1="-0.496303" x2="8.65726" y2="-0.496303" transform="matrix(0.960289 -0.279008 0.277057 0.960853 0.872864 32.6927)" stroke="white" stroke-opacity="0.4" stroke-width="0.992606" stroke-linecap="round"/>
<line x1="0.496303" y1="-0.496303" x2="8.6714" y2="-0.496303" transform="matrix(0.714297 0.699843 -0.697122 0.716952 6.992 7.61624)" stroke="#FAA21E" stroke-width="0.992606" stroke-linecap="round"/>
<line x1="0.496303" y1="-0.496303" x2="8.6714" y2="-0.496303" transform="matrix(0.714297 0.699843 -0.697122 0.716952 6.992 7.61624)" stroke="white" stroke-opacity="0.4" stroke-width="0.992606" stroke-linecap="round"/>
<line x1="0.496303" y1="-0.496303" x2="8.68622" y2="-0.496303" transform="matrix(0.293243 0.956038 -0.955366 0.295425 18.0648 0.596268)" stroke="#FAA21E" stroke-width="0.992606" stroke-linecap="round"/>
<line x1="0.496303" y1="-0.496303" x2="8.68622" y2="-0.496303" transform="matrix(0.293243 0.956038 -0.955366 0.295425 18.0648 0.596268)" stroke="white" stroke-opacity="0.4" stroke-width="0.992606" stroke-linecap="round"/>
<path d="M1.66372 42.9714L19.6228 27.7077L23.1177 31.2026L7.85399 49.1617C7.06312 49.4091 5.30605 49.2833 3.42407 47.4014C1.54209 45.5194 1.41629 43.7623 1.66372 42.9714Z" fill="#FEFEFE" stroke="#FAA21E" stroke-width="0.996296"/>
<path d="M8.61969 43.6787C8.63285 42.9896 9.29456 42.1589 9.52226 41.5087C8.87208 41.7364 8.21366 42.3948 7.35224 42.4113C6.58176 42.426 5.84886 42.2247 4.99567 41.8105C5.40992 42.6637 5.60964 43.4779 5.59647 44.1671C5.5833 44.8562 4.99201 45.7573 4.69389 46.3371C5.34682 45.9658 6.09343 45.4492 6.86392 45.4345C7.72534 45.418 8.36729 45.6211 9.22049 46.0353C9.01748 45.3934 8.60323 44.5402 8.61969 43.6787Z" fill="#FAA21E"/>
<path d="M19.8212 27.1879L21.1669 11.7123L31.1842 1.69502C31.1805 1.69874 31.1808 1.69853 31.1863 1.69483C31.1986 1.6865 31.2371 1.66041 31.3146 1.62162C31.4131 1.57233 31.5456 1.51684 31.7025 1.46489C32.0189 1.3601 32.404 1.27967 32.7748 1.27967C33.0505 1.27967 33.4272 1.35139 33.7829 1.46998C34.1554 1.59413 34.4076 1.73734 34.4948 1.82454L49.0009 16.3306C49.0284 16.3581 49.0858 16.4371 49.1584 16.5871C49.2267 16.7283 49.294 16.9018 49.3535 17.0883C49.4763 17.4729 49.5458 17.8485 49.5458 18.0507C49.5458 18.2553 49.4755 18.6326 49.3659 19.0092C49.313 19.1911 49.2557 19.3564 49.2023 19.4833C49.1515 19.604 49.1217 19.647 49.1231 19.648C49.1233 19.6482 49.1246 19.647 49.1271 19.6446L39.1131 29.6585L23.6375 31.0042L19.8212 27.1879Z" fill="#FEFEFE" stroke="#FAA21E" stroke-width="0.996296"/>
<path d="M33.1201 8.7254C32.5675 8.17279 31.8537 8.14977 31.3932 8.38002L27.9394 11.8339C27.8243 12.1792 27.7322 13.0082 28.2848 13.5608C28.8374 14.1134 29.6663 14.0213 30.0117 13.9061L33.4655 10.4523C33.6958 9.99181 33.6727 9.27802 33.1201 8.7254Z" fill="#FAA21E"/>
<path d="M37.6102 13.2153C37.0576 12.6627 36.3438 12.6397 35.8833 12.8699L32.4294 16.3237C32.3143 16.6691 32.2222 17.4981 32.7748 18.0507C33.3274 18.6033 34.1564 18.5112 34.5017 18.396L37.9556 14.9422C38.1858 14.4817 38.1628 13.7679 37.6102 13.2153Z" fill="#FAA21E"/>
<path d="M42.1001 17.7054C41.5475 17.1528 40.8337 17.1298 40.3732 17.3601L36.9194 20.8139C36.8042 21.1593 36.7121 21.9882 37.2648 22.5408C37.8174 23.0934 38.6463 23.0013 38.9917 22.8862L42.4455 19.4324C42.6758 18.9718 42.6527 18.2581 42.1001 17.7054Z" fill="#FAA21E"/>
</svg>
