<svg width="50" height="50" viewBox="0 0 50 50" fill="none" xmlns="http://www.w3.org/2000/svg">
<g clip-path="url(#clip0_1383_8448)">
<line x1="24.9523" y1="7.89377" x2="24.9523" y2="2.4514" stroke="#FAA21E" stroke-width="0.992606" stroke-linecap="round"/>
<line x1="24.9523" y1="7.89377" x2="24.9523" y2="2.4514" stroke="white" stroke-opacity="0.4" stroke-width="0.992606" stroke-linecap="round"/>
<line x1="24.9523" y1="47.6737" x2="24.9523" y2="42.2314" stroke="#FAA21E" stroke-width="0.992606" stroke-linecap="round"/>
<line x1="24.9523" y1="47.6737" x2="24.9523" y2="42.2314" stroke="white" stroke-opacity="0.4" stroke-width="0.992606" stroke-linecap="round"/>
<line x1="47.2915" y1="25.0969" x2="41.8735" y2="25.0969" stroke="#FAA21E" stroke-width="0.992606" stroke-linecap="round"/>
<line x1="47.2915" y1="25.0969" x2="41.8735" y2="25.0969" stroke="white" stroke-opacity="0.4" stroke-width="0.992606" stroke-linecap="round"/>
<line x1="0.496303" y1="-0.496303" x2="5.9327" y2="-0.496303" transform="matrix(-0.49369 0.869638 -0.868018 -0.496532 35.8096 4.58771)" stroke="#FAA21E" stroke-width="0.992606" stroke-linecap="round"/>
<line x1="0.496303" y1="-0.496303" x2="5.9327" y2="-0.496303" transform="matrix(-0.49369 0.869638 -0.868018 -0.496532 35.8096 4.58771)" stroke="white" stroke-opacity="0.4" stroke-width="0.992606" stroke-linecap="round"/>
<line x1="0.496303" y1="-0.496303" x2="5.92043" y2="-0.496303" transform="matrix(-0.849492 0.527602 -0.524708 -0.851282 44.6108 12.5785)" stroke="#FAA21E" stroke-width="0.992606" stroke-linecap="round"/>
<line x1="0.496303" y1="-0.496303" x2="5.92043" y2="-0.496303" transform="matrix(-0.849492 0.527602 -0.524708 -0.851282 44.6108 12.5785)" stroke="white" stroke-opacity="0.4" stroke-width="0.992606" stroke-linecap="round"/>
<line x1="0.496303" y1="-0.496303" x2="5.92028" y2="-0.496303" transform="matrix(-0.876356 -0.481664 0.478853 -0.877895 45.5423 36.1565)" stroke="#FAA21E" stroke-width="0.992606" stroke-linecap="round"/>
<line x1="0.496303" y1="-0.496303" x2="5.92028" y2="-0.496303" transform="matrix(-0.876356 -0.481664 0.478853 -0.877895 45.5423 36.1565)" stroke="white" stroke-opacity="0.4" stroke-width="0.992606" stroke-linecap="round"/>
<line x1="0.496303" y1="-0.496303" x2="5.93155" y2="-0.496303" transform="matrix(-0.539091 -0.842248 0.840378 -0.542001 37.323 44.6622)" stroke="#FAA21E" stroke-width="0.992606" stroke-linecap="round"/>
<line x1="0.496303" y1="-0.496303" x2="5.93155" y2="-0.496303" transform="matrix(-0.539091 -0.842248 0.840378 -0.542001 37.323 44.6622)" stroke="white" stroke-opacity="0.4" stroke-width="0.992606" stroke-linecap="round"/>
<line x1="2.53604" y1="25.1537" x2="7.95399" y2="25.1537" stroke="#FAA21E" stroke-width="0.992606" stroke-linecap="round"/>
<line x1="2.53604" y1="25.1537" x2="7.95399" y2="25.1537" stroke="white" stroke-opacity="0.4" stroke-width="0.992606" stroke-linecap="round"/>
<line x1="0.496303" y1="-0.496303" x2="5.9327" y2="-0.496303" transform="matrix(0.49369 -0.869638 0.868018 0.496533 14.018 45.2472)" stroke="#FAA21E" stroke-width="0.992606" stroke-linecap="round"/>
<line x1="0.496303" y1="-0.496303" x2="5.9327" y2="-0.496303" transform="matrix(0.49369 -0.869638 0.868018 0.496533 14.018 45.2472)" stroke="white" stroke-opacity="0.4" stroke-width="0.992606" stroke-linecap="round"/>
<line x1="0.496303" y1="-0.496303" x2="5.92043" y2="-0.496303" transform="matrix(0.849492 -0.527602 0.524708 0.851282 5.21674 37.2563)" stroke="#FAA21E" stroke-width="0.992606" stroke-linecap="round"/>
<line x1="0.496303" y1="-0.496303" x2="5.92043" y2="-0.496303" transform="matrix(0.849492 -0.527602 0.524708 0.851282 5.21674 37.2563)" stroke="white" stroke-opacity="0.4" stroke-width="0.992606" stroke-linecap="round"/>
<line x1="0.496303" y1="-0.496303" x2="5.92028" y2="-0.496303" transform="matrix(0.876356 0.481664 -0.478854 0.877895 4.69482 14.142)" stroke="#FAA21E" stroke-width="0.992606" stroke-linecap="round"/>
<line x1="0.496303" y1="-0.496303" x2="5.92028" y2="-0.496303" transform="matrix(0.876356 0.481664 -0.478854 0.877895 4.69482 14.142)" stroke="white" stroke-opacity="0.4" stroke-width="0.992606" stroke-linecap="round"/>
<line x1="0.496303" y1="-0.496303" x2="5.93155" y2="-0.496303" transform="matrix(0.539091 0.842248 -0.840378 0.542001 12.5045 5.17261)" stroke="#FAA21E" stroke-width="0.992606" stroke-linecap="round"/>
<line x1="0.496303" y1="-0.496303" x2="5.93155" y2="-0.496303" transform="matrix(0.539091 0.842248 -0.840378 0.542001 12.5045 5.17261)" stroke="white" stroke-opacity="0.4" stroke-width="0.992606" stroke-linecap="round"/>
<line x1="0.496303" y1="-0.496303" x2="8.68672" y2="-0.496303" transform="matrix(0.268027 -0.963411 0.962881 0.269925 29.9396 9.04706)" stroke="#FAA21E" stroke-width="0.992606" stroke-linecap="round"/>
<line x1="0.496303" y1="-0.496303" x2="8.68672" y2="-0.496303" transform="matrix(0.268027 -0.963411 0.962881 0.269925 29.9396 9.04706)" stroke="white" stroke-opacity="0.4" stroke-width="0.992606" stroke-linecap="round"/>
<line x1="0.496303" y1="-0.496303" x2="8.68672" y2="-0.496303" transform="matrix(0.268027 -0.963411 0.962881 0.269925 18.6489 49.9971)" stroke="#FAA21E" stroke-width="0.992606" stroke-linecap="round"/>
<line x1="0.496303" y1="-0.496303" x2="8.68672" y2="-0.496303" transform="matrix(0.268027 -0.963411 0.962881 0.269925 18.6489 49.9971)" stroke="white" stroke-opacity="0.4" stroke-width="0.992606" stroke-linecap="round"/>
<line x1="0.496303" y1="-0.496303" x2="8.65707" y2="-0.496303" transform="matrix(-0.962882 -0.269925 0.268027 -0.963411 49.8993 31.3357)" stroke="#FAA21E" stroke-width="0.992606" stroke-linecap="round"/>
<line x1="0.496303" y1="-0.496303" x2="8.65707" y2="-0.496303" transform="matrix(-0.962882 -0.269925 0.268027 -0.963411 49.8993 31.3357)" stroke="white" stroke-opacity="0.4" stroke-width="0.992606" stroke-linecap="round"/>
<line x1="0.496303" y1="-0.496303" x2="8.67165" y2="-0.496303" transform="matrix(-0.709218 0.704989 -0.702287 -0.711894 42.9257 6.34271)" stroke="#FAA21E" stroke-width="0.992606" stroke-linecap="round"/>
<line x1="0.496303" y1="-0.496303" x2="8.67165" y2="-0.496303" transform="matrix(-0.709218 0.704989 -0.702287 -0.711894 42.9257 6.34271)" stroke="white" stroke-opacity="0.4" stroke-width="0.992606" stroke-linecap="round"/>
<line x1="0.496303" y1="-0.496303" x2="8.65725" y2="-0.496303" transform="matrix(-0.960289 0.279008 -0.277057 -0.960853 49.5843 17.75)" stroke="#FAA21E" stroke-width="0.992606" stroke-linecap="round"/>
<line x1="0.496303" y1="-0.496303" x2="8.65725" y2="-0.496303" transform="matrix(-0.960289 0.279008 -0.277057 -0.960853 49.5843 17.75)" stroke="white" stroke-opacity="0.4" stroke-width="0.992606" stroke-linecap="round"/>
<line x1="0.496303" y1="-0.496303" x2="8.6714" y2="-0.496303" transform="matrix(-0.714297 -0.699843 0.697122 -0.716952 43.5549 42.8859)" stroke="#FAA21E" stroke-width="0.992606" stroke-linecap="round"/>
<line x1="0.496303" y1="-0.496303" x2="8.6714" y2="-0.496303" transform="matrix(-0.714297 -0.699843 0.697122 -0.716952 43.5549 42.8859)" stroke="white" stroke-opacity="0.4" stroke-width="0.992606" stroke-linecap="round"/>
<line x1="0.496303" y1="-0.496303" x2="8.68622" y2="-0.496303" transform="matrix(-0.293312 -0.956017 0.955387 -0.295357 32.415 49.636)" stroke="#FAA21E" stroke-width="0.992606" stroke-linecap="round"/>
<line x1="0.496303" y1="-0.496303" x2="8.68622" y2="-0.496303" transform="matrix(-0.293312 -0.956017 0.955387 -0.295357 32.415 49.636)" stroke="white" stroke-opacity="0.4" stroke-width="0.992606" stroke-linecap="round"/>
<line x1="0.496303" y1="-0.496303" x2="8.65707" y2="-0.496303" transform="matrix(0.962881 0.269925 -0.268027 0.963412 0 18.6275)" stroke="#FAA21E" stroke-width="0.992606" stroke-linecap="round"/>
<line x1="0.496303" y1="-0.496303" x2="8.65707" y2="-0.496303" transform="matrix(0.962881 0.269925 -0.268027 0.963412 0 18.6275)" stroke="white" stroke-opacity="0.4" stroke-width="0.992606" stroke-linecap="round"/>
<line x1="0.496303" y1="-0.496303" x2="8.67165" y2="-0.496303" transform="matrix(0.709218 -0.704989 0.702287 0.711894 6.9859 43.5132)" stroke="#FAA21E" stroke-width="0.992606" stroke-linecap="round"/>
<line x1="0.496303" y1="-0.496303" x2="8.67165" y2="-0.496303" transform="matrix(0.709218 -0.704989 0.702287 0.711894 6.9859 43.5132)" stroke="white" stroke-opacity="0.4" stroke-width="0.992606" stroke-linecap="round"/>
<line x1="0.496303" y1="-0.496303" x2="8.65726" y2="-0.496303" transform="matrix(0.960289 -0.279008 0.277057 0.960853 0.291382 32.2965)" stroke="#FAA21E" stroke-width="0.992606" stroke-linecap="round"/>
<line x1="0.496303" y1="-0.496303" x2="8.65726" y2="-0.496303" transform="matrix(0.960289 -0.279008 0.277057 0.960853 0.291382 32.2965)" stroke="white" stroke-opacity="0.4" stroke-width="0.992606" stroke-linecap="round"/>
<line x1="0.496303" y1="-0.496303" x2="8.6714" y2="-0.496303" transform="matrix(0.714297 0.699843 -0.697122 0.716952 6.41052 7.22)" stroke="#FAA21E" stroke-width="0.992606" stroke-linecap="round"/>
<line x1="0.496303" y1="-0.496303" x2="8.6714" y2="-0.496303" transform="matrix(0.714297 0.699843 -0.697122 0.716952 6.41052 7.22)" stroke="white" stroke-opacity="0.4" stroke-width="0.992606" stroke-linecap="round"/>
<line x1="0.496303" y1="-0.496303" x2="8.68622" y2="-0.496303" transform="matrix(0.293243 0.956038 -0.955366 0.295425 17.4833 0.200043)" stroke="#FAA21E" stroke-width="0.992606" stroke-linecap="round"/>
<line x1="0.496303" y1="-0.496303" x2="8.68622" y2="-0.496303" transform="matrix(0.293243 0.956038 -0.955366 0.295425 17.4833 0.200043)" stroke="white" stroke-opacity="0.4" stroke-width="0.992606" stroke-linecap="round"/>
<path d="M34.8333 10.2092C34.6725 9.36515 34.5031 8.50071 34.3017 7.65389L37.5664 6.59627L41.8699 17.5942C42.0957 18.3995 41.9445 18.6941 41.84 18.7949C41.7092 18.921 41.3947 19.0134 40.8055 18.9113C39.6695 18.7143 38.1324 17.8944 37.1933 17.0623C36.3482 16.3135 35.8319 14.91 35.4096 13.0782C35.2294 12.2964 35.0715 11.4641 34.9082 10.6034C34.8834 10.4727 34.8585 10.3412 34.8333 10.2092Z" fill="#FEFEFE" stroke="#FAA21E" stroke-width="0.996296"/>
<path d="M16.0665 8.37009L16.0922 8.37548L16.1183 8.37814L20.2489 8.79856C20.2255 8.9351 20.2021 9.07228 20.1786 9.20999C19.8606 11.072 19.5257 13.0329 19.0979 14.8807C18.5963 17.0471 17.9771 19.0093 17.1375 20.4405C16.7369 21.1234 15.9315 22.0309 14.9184 22.8891C13.9089 23.7442 12.7332 24.5163 11.6163 24.9544C10.4818 25.3994 9.51866 25.4591 8.83576 25.0763C8.17958 24.7085 7.6025 23.8264 7.47481 21.9423L9.87346 7.07063L16.0665 8.37009Z" fill="#FEFEFE" stroke="#FAA21E" stroke-width="0.996296"/>
<path d="M30.9972 9.02269C31.0588 8.97651 31.1086 8.93589 31.1467 8.90332L32.0099 8.58817L34.1715 18.6024L29.0216 27.9527L20.478 20.7364L23.0245 9.35753H25.2274C25.3392 9.43927 25.4985 9.53385 25.7189 9.62353C26.1631 9.80418 26.8506 9.96294 27.8963 9.96294C28.9786 9.96294 29.8017 9.69173 30.3607 9.4122C30.6394 9.27284 30.8516 9.13195 30.9972 9.02269Z" fill="#FEFEFE" stroke="#FAA21E" stroke-width="0.996296"/>
<path d="M29.6316 15.2481C28.9129 14.6122 28.6294 13.1611 28.1457 12.3329C27.8003 13.2277 27.9041 14.5198 27.1442 15.4479C26.4645 16.278 25.5897 16.8733 24.3806 17.4039C25.6589 17.7347 26.7023 18.2578 27.421 18.8937C28.1397 19.5295 28.5613 20.9695 28.9069 21.8088C29.1025 20.7816 29.2287 19.5239 29.9084 18.6938C30.6683 17.7658 31.4629 17.2685 32.672 16.7378C31.8082 16.3737 30.5299 16.0429 29.6316 15.2481Z" fill="#FAA21E"/>
<path d="M19.9201 45.8296C18.2698 45.8488 17.1619 46.3691 16.0921 47.0877C15.7192 47.3382 15.3649 47.6007 14.9991 47.8718C14.42 48.301 13.8118 48.7517 13.0545 49.2103C12.9586 48.9609 12.8334 48.634 12.6864 48.2474C12.3348 47.3226 11.859 46.0562 11.3617 44.6894C10.3617 41.9407 9.29249 38.8323 8.95565 37.2572C8.61588 35.6683 8.24463 32.8273 7.95694 30.3628C7.82273 29.2131 7.70739 28.1516 7.62267 27.3476C7.92986 27.5842 8.26746 27.7725 8.63929 27.9047C9.49821 28.2102 10.4804 28.1957 11.5943 27.8773C13.4242 27.3543 15.2197 26.232 16.5743 25.1854C17.2552 24.6593 17.8349 24.1445 18.2629 23.7198C18.4503 23.5339 18.6115 23.3623 18.7408 23.2123L27.8316 30.5725C27.7941 30.718 27.7448 30.9107 27.6861 31.1428C27.5465 31.6944 27.3541 32.4687 27.1426 33.3598C26.7201 35.1392 26.2187 37.3946 25.9103 39.2732C25.6083 41.113 25.0082 43.7091 24.4802 45.8562C24.2168 46.9273 23.9725 47.8826 23.7939 48.5701C23.776 48.6391 23.7588 48.7055 23.7422 48.7689C23.6178 48.6059 23.5024 48.4422 23.3916 48.279C23.3137 48.1644 23.2355 48.0457 23.1568 47.9262C22.9759 47.6516 22.7922 47.3729 22.6044 47.13C22.324 46.7676 21.9953 46.4293 21.5509 46.1886C21.1029 45.9459 20.5737 45.8221 19.9201 45.8296Z" fill="#FEFEFE" stroke="#FAA21E" stroke-width="0.996296"/>
<path d="M39.9131 43.3633C38.7428 43.7439 37.8786 44.4238 37.0855 45.1479C36.8681 45.3465 36.6583 45.5458 36.4496 45.7441C36.0183 46.1538 35.5918 46.559 35.112 46.9441C35.091 46.8991 35.0688 46.8516 35.0456 46.8017C34.8417 46.3625 34.5589 45.7341 34.2447 44.9799C33.615 43.4686 32.8639 41.4639 32.3648 39.4676C31.8633 37.4617 31.4855 35.1971 31.2327 33.4276C31.1065 32.5442 31.0119 31.787 30.9488 31.251C30.9173 30.9831 30.8937 30.7705 30.878 30.6252C30.875 30.5978 30.8723 30.5727 30.8699 30.5501L36.49 19.7671C37.0612 20.284 38.0577 20.9789 39.7288 21.4049C41.174 21.7733 42.0679 21.6653 42.6721 21.5923C42.7132 21.5874 42.753 21.5826 42.7915 21.5781C42.8149 21.7164 42.8428 21.8848 42.8741 22.079C42.9692 22.6684 43.0951 23.495 43.2185 24.4432C43.4661 26.346 43.7002 28.715 43.6607 30.6381C43.6207 32.5803 43.3479 36.0934 43.0832 39.136C42.9512 40.654 42.8216 42.0498 42.7251 43.0661C42.6998 43.3321 42.6768 43.5721 42.6566 43.7815C42.4384 43.6593 42.1963 43.5533 41.9455 43.469C41.3207 43.259 40.5528 43.1552 39.9131 43.3633Z" fill="#FEFEFE" stroke="#FAA21E" stroke-width="0.996296"/>
<path d="M22.2593 3.47751C22.1435 3.98382 22.114 4.41694 22.1406 4.80597C22.177 5.33945 22.3185 5.7637 22.4376 6.12099L22.4423 6.13502C22.5352 6.41372 22.6847 6.68611 22.8398 6.92345C21.0286 6.78607 18.1439 6.38841 16.5597 5.99237C15.7665 5.79405 14.6652 5.57559 13.5233 5.34907C13.4044 5.32549 13.2851 5.30183 13.1657 5.2781C12.0596 5.05825 10.9378 4.83139 10.0079 4.60453L10.3847 1.21337C12.8969 2.22289 15.0581 2.63668 16.3672 2.88732C16.5398 2.92036 16.6976 2.95057 16.8394 2.97893C18.1205 3.23515 19.6434 3.36115 20.8338 3.4238C21.3993 3.45356 21.8944 3.46924 22.2593 3.47751Z" fill="#FEFEFE" stroke="#FAA21E" stroke-width="0.996296"/>
<path d="M32.8778 4.4833C32.8778 3.99735 32.7302 3.43268 32.53 2.93869C32.4497 2.74061 32.3562 2.54246 32.2527 2.35582C32.3478 2.34407 32.4479 2.33213 32.5523 2.31967C32.6545 2.30748 32.7608 2.29481 32.8706 2.28133C33.4221 2.21363 34.0523 2.12614 34.5298 1.967C34.774 1.88558 35.0019 1.81476 35.2147 1.74865C35.6091 1.62608 35.9515 1.51968 36.2497 1.39187C36.5019 1.28377 36.7342 1.15745 36.9701 0.991515L37.3218 4.15688C37.1158 4.2367 36.8419 4.34318 36.5579 4.45474C35.9914 4.67724 35.3396 4.93715 35.1458 5.03404C35.1458 5.03404 35.1441 5.03486 35.1403 5.03662L35.1255 5.04335C35.1128 5.04899 35.0963 5.05608 35.0758 5.06469C35.0347 5.08192 34.9815 5.10349 34.917 5.12905C34.7884 5.18011 34.6208 5.24474 34.427 5.31838C34.0398 5.46555 33.5539 5.64647 33.0772 5.8226C32.9083 5.885 32.7407 5.94675 32.5793 6.00612C32.751 5.60285 32.8778 5.10256 32.8778 4.4833Z" fill="#FEFEFE" stroke="#FAA21E" stroke-width="0.996296"/>
<path d="M30.3871 4.48331C30.3871 6.13403 29.0489 7.4722 27.3982 7.4722C25.7475 7.4722 24.4093 6.13403 24.4093 4.48331C24.4093 2.8326 25.7475 1.49442 27.3982 1.49442C29.0489 1.49442 30.3871 2.8326 30.3871 4.48331Z" fill="#FEFEFE" stroke="#FAA21E" stroke-width="0.996296"/>
</g>
<defs>
<clipPath id="clip0_1383_8448">
<rect width="50" height="50" fill="white"/>
</clipPath>
</defs>
</svg>
