<svg width="51" height="50" viewBox="0 0 51 50" fill="none" xmlns="http://www.w3.org/2000/svg">
<g clip-path="url(#clip0_2148_17678)">
<line x1="25.7597" y1="7.89377" x2="25.7597" y2="2.4514" stroke="#FAA21E" stroke-width="0.992606" stroke-linecap="round"/>
<line x1="25.7597" y1="7.89377" x2="25.7597" y2="2.4514" stroke="white" stroke-opacity="0.4" stroke-width="0.992606" stroke-linecap="round"/>
<line x1="25.7597" y1="47.6737" x2="25.7597" y2="42.2314" stroke="#FAA21E" stroke-width="0.992606" stroke-linecap="round"/>
<line x1="25.7597" y1="47.6737" x2="25.7597" y2="42.2314" stroke="white" stroke-opacity="0.4" stroke-width="0.992606" stroke-linecap="round"/>
<line x1="48.0989" y1="25.0969" x2="42.681" y2="25.0969" stroke="#FAA21E" stroke-width="0.992606" stroke-linecap="round"/>
<line x1="48.0989" y1="25.0969" x2="42.681" y2="25.0969" stroke="white" stroke-opacity="0.4" stroke-width="0.992606" stroke-linecap="round"/>
<line x1="0.496303" y1="-0.496303" x2="5.9327" y2="-0.496303" transform="matrix(-0.49369 0.869638 -0.868018 -0.496532 36.6168 4.58771)" stroke="#FAA21E" stroke-width="0.992606" stroke-linecap="round"/>
<line x1="0.496303" y1="-0.496303" x2="5.9327" y2="-0.496303" transform="matrix(-0.49369 0.869638 -0.868018 -0.496532 36.6168 4.58771)" stroke="white" stroke-opacity="0.4" stroke-width="0.992606" stroke-linecap="round"/>
<line x1="0.496303" y1="-0.496303" x2="5.92043" y2="-0.496303" transform="matrix(-0.849492 0.527602 -0.524708 -0.851282 45.4181 12.5786)" stroke="#FAA21E" stroke-width="0.992606" stroke-linecap="round"/>
<line x1="0.496303" y1="-0.496303" x2="5.92043" y2="-0.496303" transform="matrix(-0.849492 0.527602 -0.524708 -0.851282 45.4181 12.5786)" stroke="white" stroke-opacity="0.4" stroke-width="0.992606" stroke-linecap="round"/>
<line x1="0.496303" y1="-0.496303" x2="5.92028" y2="-0.496303" transform="matrix(-0.876356 -0.481664 0.478853 -0.877895 46.3496 36.1565)" stroke="#FAA21E" stroke-width="0.992606" stroke-linecap="round"/>
<line x1="0.496303" y1="-0.496303" x2="5.92028" y2="-0.496303" transform="matrix(-0.876356 -0.481664 0.478853 -0.877895 46.3496 36.1565)" stroke="white" stroke-opacity="0.4" stroke-width="0.992606" stroke-linecap="round"/>
<line x1="0.496303" y1="-0.496303" x2="5.93155" y2="-0.496303" transform="matrix(-0.539091 -0.842248 0.840378 -0.542001 38.1302 44.6622)" stroke="#FAA21E" stroke-width="0.992606" stroke-linecap="round"/>
<line x1="0.496303" y1="-0.496303" x2="5.93155" y2="-0.496303" transform="matrix(-0.539091 -0.842248 0.840378 -0.542001 38.1302 44.6622)" stroke="white" stroke-opacity="0.4" stroke-width="0.992606" stroke-linecap="round"/>
<line x1="3.34335" y1="25.1537" x2="8.7613" y2="25.1537" stroke="#FAA21E" stroke-width="0.992606" stroke-linecap="round"/>
<line x1="3.34335" y1="25.1537" x2="8.7613" y2="25.1537" stroke="white" stroke-opacity="0.4" stroke-width="0.992606" stroke-linecap="round"/>
<line x1="0.496303" y1="-0.496303" x2="5.9327" y2="-0.496303" transform="matrix(0.49369 -0.869638 0.868018 0.496533 14.8254 45.2472)" stroke="#FAA21E" stroke-width="0.992606" stroke-linecap="round"/>
<line x1="0.496303" y1="-0.496303" x2="5.9327" y2="-0.496303" transform="matrix(0.49369 -0.869638 0.868018 0.496533 14.8254 45.2472)" stroke="white" stroke-opacity="0.4" stroke-width="0.992606" stroke-linecap="round"/>
<line x1="0.496303" y1="-0.496303" x2="5.92043" y2="-0.496303" transform="matrix(0.849492 -0.527602 0.524708 0.851282 6.02405 37.2563)" stroke="#FAA21E" stroke-width="0.992606" stroke-linecap="round"/>
<line x1="0.496303" y1="-0.496303" x2="5.92043" y2="-0.496303" transform="matrix(0.849492 -0.527602 0.524708 0.851282 6.02405 37.2563)" stroke="white" stroke-opacity="0.4" stroke-width="0.992606" stroke-linecap="round"/>
<line x1="0.496303" y1="-0.496303" x2="5.92028" y2="-0.496303" transform="matrix(0.876356 0.481664 -0.478854 0.877895 5.5022 14.142)" stroke="#FAA21E" stroke-width="0.992606" stroke-linecap="round"/>
<line x1="0.496303" y1="-0.496303" x2="5.92028" y2="-0.496303" transform="matrix(0.876356 0.481664 -0.478854 0.877895 5.5022 14.142)" stroke="white" stroke-opacity="0.4" stroke-width="0.992606" stroke-linecap="round"/>
<line x1="0.496303" y1="-0.496303" x2="5.93155" y2="-0.496303" transform="matrix(0.539091 0.842248 -0.840378 0.542001 13.3118 5.17261)" stroke="#FAA21E" stroke-width="0.992606" stroke-linecap="round"/>
<line x1="0.496303" y1="-0.496303" x2="5.93155" y2="-0.496303" transform="matrix(0.539091 0.842248 -0.840378 0.542001 13.3118 5.17261)" stroke="white" stroke-opacity="0.4" stroke-width="0.992606" stroke-linecap="round"/>
<line x1="0.496303" y1="-0.496303" x2="8.68672" y2="-0.496303" transform="matrix(0.268027 -0.963411 0.962881 0.269925 30.7469 9.04706)" stroke="#FAA21E" stroke-width="0.992606" stroke-linecap="round"/>
<line x1="0.496303" y1="-0.496303" x2="8.68672" y2="-0.496303" transform="matrix(0.268027 -0.963411 0.962881 0.269925 30.7469 9.04706)" stroke="white" stroke-opacity="0.4" stroke-width="0.992606" stroke-linecap="round"/>
<line x1="0.496303" y1="-0.496303" x2="8.68672" y2="-0.496303" transform="matrix(0.268027 -0.963411 0.962881 0.269925 19.4562 49.9971)" stroke="#FAA21E" stroke-width="0.992606" stroke-linecap="round"/>
<line x1="0.496303" y1="-0.496303" x2="8.68672" y2="-0.496303" transform="matrix(0.268027 -0.963411 0.962881 0.269925 19.4562 49.9971)" stroke="white" stroke-opacity="0.4" stroke-width="0.992606" stroke-linecap="round"/>
<line x1="0.496303" y1="-0.496303" x2="8.65707" y2="-0.496303" transform="matrix(-0.962882 -0.269925 0.268027 -0.963411 50.7067 31.3356)" stroke="#FAA21E" stroke-width="0.992606" stroke-linecap="round"/>
<line x1="0.496303" y1="-0.496303" x2="8.65707" y2="-0.496303" transform="matrix(-0.962882 -0.269925 0.268027 -0.963411 50.7067 31.3356)" stroke="white" stroke-opacity="0.4" stroke-width="0.992606" stroke-linecap="round"/>
<line x1="0.496303" y1="-0.496303" x2="8.67165" y2="-0.496303" transform="matrix(-0.709218 0.704989 -0.702287 -0.711894 43.7332 6.34271)" stroke="#FAA21E" stroke-width="0.992606" stroke-linecap="round"/>
<line x1="0.496303" y1="-0.496303" x2="8.67165" y2="-0.496303" transform="matrix(-0.709218 0.704989 -0.702287 -0.711894 43.7332 6.34271)" stroke="white" stroke-opacity="0.4" stroke-width="0.992606" stroke-linecap="round"/>
<line x1="0.496303" y1="-0.496303" x2="8.65725" y2="-0.496303" transform="matrix(-0.960289 0.279008 -0.277057 -0.960853 50.3917 17.75)" stroke="#FAA21E" stroke-width="0.992606" stroke-linecap="round"/>
<line x1="0.496303" y1="-0.496303" x2="8.65725" y2="-0.496303" transform="matrix(-0.960289 0.279008 -0.277057 -0.960853 50.3917 17.75)" stroke="white" stroke-opacity="0.4" stroke-width="0.992606" stroke-linecap="round"/>
<line x1="0.496303" y1="-0.496303" x2="8.6714" y2="-0.496303" transform="matrix(-0.714297 -0.699843 0.697122 -0.716952 44.3623 42.886)" stroke="#FAA21E" stroke-width="0.992606" stroke-linecap="round"/>
<line x1="0.496303" y1="-0.496303" x2="8.6714" y2="-0.496303" transform="matrix(-0.714297 -0.699843 0.697122 -0.716952 44.3623 42.886)" stroke="white" stroke-opacity="0.4" stroke-width="0.992606" stroke-linecap="round"/>
<line x1="0.496303" y1="-0.496303" x2="8.68622" y2="-0.496303" transform="matrix(-0.293312 -0.956017 0.955387 -0.295357 33.2224 49.636)" stroke="#FAA21E" stroke-width="0.992606" stroke-linecap="round"/>
<line x1="0.496303" y1="-0.496303" x2="8.68622" y2="-0.496303" transform="matrix(-0.293312 -0.956017 0.955387 -0.295357 33.2224 49.636)" stroke="white" stroke-opacity="0.4" stroke-width="0.992606" stroke-linecap="round"/>
<line x1="0.496303" y1="-0.496303" x2="8.65707" y2="-0.496303" transform="matrix(0.962881 0.269925 -0.268027 0.963412 0.807373 18.6275)" stroke="#FAA21E" stroke-width="0.992606" stroke-linecap="round"/>
<line x1="0.496303" y1="-0.496303" x2="8.65707" y2="-0.496303" transform="matrix(0.962881 0.269925 -0.268027 0.963412 0.807373 18.6275)" stroke="white" stroke-opacity="0.4" stroke-width="0.992606" stroke-linecap="round"/>
<line x1="0.496303" y1="-0.496303" x2="8.67165" y2="-0.496303" transform="matrix(0.709218 -0.704989 0.702287 0.711894 7.79321 43.5132)" stroke="#FAA21E" stroke-width="0.992606" stroke-linecap="round"/>
<line x1="0.496303" y1="-0.496303" x2="8.67165" y2="-0.496303" transform="matrix(0.709218 -0.704989 0.702287 0.711894 7.79321 43.5132)" stroke="white" stroke-opacity="0.4" stroke-width="0.992606" stroke-linecap="round"/>
<line x1="0.496303" y1="-0.496303" x2="8.65726" y2="-0.496303" transform="matrix(0.960289 -0.279008 0.277057 0.960853 1.09875 32.2965)" stroke="#FAA21E" stroke-width="0.992606" stroke-linecap="round"/>
<line x1="0.496303" y1="-0.496303" x2="8.65726" y2="-0.496303" transform="matrix(0.960289 -0.279008 0.277057 0.960853 1.09875 32.2965)" stroke="white" stroke-opacity="0.4" stroke-width="0.992606" stroke-linecap="round"/>
<line x1="0.496303" y1="-0.496303" x2="8.6714" y2="-0.496303" transform="matrix(0.714297 0.699843 -0.697122 0.716952 7.2179 7.22003)" stroke="#FAA21E" stroke-width="0.992606" stroke-linecap="round"/>
<line x1="0.496303" y1="-0.496303" x2="8.6714" y2="-0.496303" transform="matrix(0.714297 0.699843 -0.697122 0.716952 7.2179 7.22003)" stroke="white" stroke-opacity="0.4" stroke-width="0.992606" stroke-linecap="round"/>
<line x1="0.496303" y1="-0.496303" x2="8.68622" y2="-0.496303" transform="matrix(0.293243 0.956038 -0.955366 0.295425 18.2908 0.200073)" stroke="#FAA21E" stroke-width="0.992606" stroke-linecap="round"/>
<line x1="0.496303" y1="-0.496303" x2="8.68622" y2="-0.496303" transform="matrix(0.293243 0.956038 -0.955366 0.295425 18.2908 0.200073)" stroke="white" stroke-opacity="0.4" stroke-width="0.992606" stroke-linecap="round"/>
</g>
<path d="M20.4 14.8C21.5503 13.2662 28.2877 5.32616 31.578 1.66039L38.7981 6.62425C37.3679 8.62876 35.1874 11.5893 33.1414 14.2448C32.0454 15.6674 30.9907 16.9989 30.112 18.0477C29.2174 19.1154 28.5448 19.8414 28.2 20.1C27.6633 20.5025 26.825 21.3118 25.866 22.3098C24.8984 23.3167 23.7837 24.5415 22.6862 25.7957C20.5034 28.2903 18.348 30.9481 17.5712 32.2428C16.8059 33.5183 15.5464 36.0396 14.419 38.5448C13.2986 41.0346 12.2727 43.5867 12.0097 44.9019C11.7425 46.2377 11.8767 47.1833 12.0097 47.8481C12.0305 47.9522 12.0495 48.0422 12.0662 48.1215C12.1061 48.3105 12.1332 48.4392 12.1421 48.554C12.1464 48.6101 12.1435 48.6392 12.1414 48.6515C11.8232 48.9671 11.0417 49.5013 7.06199 49.0039C3.34194 48.5389 1.97214 47.2065 1.50687 46.388C1.52158 46.3381 1.5451 46.2696 1.58016 46.1799C1.67649 45.9336 1.83686 45.5859 2.05834 45.1439C2.49971 44.2631 3.16258 43.0494 3.98171 41.6062C5.61877 38.7218 7.86584 34.9454 10.1775 31.1343C14.81 23.4968 19.6688 15.775 20.4 14.8Z" fill="#FEFEFE" stroke="#FAA21E"/>
<path d="M27.0998 0.666996L21.7503 7.19276L25.6362 9.57363L26.0274 9.81328L25.8222 10.2236C25.5394 10.7892 25.324 11.547 25.4182 12.3197C25.5098 13.0714 25.8987 13.8837 26.9111 14.5899C28.6144 15.778 30.7664 15.1515 31.8964 14.0214L32.181 13.7369L32.5198 13.954L32.527 13.9586L32.527 13.9586C33.115 14.3355 34.6383 15.3198 35.4743 17.828C36.3531 20.4643 37.5884 25.5138 38.3712 28.7139C38.4768 29.1455 38.5741 29.5434 38.6612 29.8973C40.7759 28.7089 44.2408 26.6347 46.6096 23.6737C47.5431 22.5069 48.4232 21.2965 49.1237 20.2425C49.6964 19.3807 50.1352 18.6439 50.3884 18.1273L38.7006 8.38742L27.0998 0.666996Z" fill="#FEFEFE" stroke="#FAA21E"/>
<path d="M32.0767 9.2075C32.0045 8.50461 32.5747 7.57712 32.7256 6.88722C32.0923 7.19967 31.5041 7.95144 30.6295 8.07517C29.8473 8.18584 29.0765 8.07205 28.1569 7.75647C28.6844 8.57322 28.9888 9.37698 29.0609 10.0799C29.1331 10.7828 28.6433 11.7732 28.412 12.4002C29.0303 11.9413 29.7259 11.3229 30.5081 11.2122C31.3826 11.0885 32.0611 11.2153 32.9807 11.5309C32.6944 10.9029 32.1669 10.0861 32.0767 9.2075Z" fill="#FAA21E"/>
<path d="M38.3694 28.7068C38.4756 29.1411 38.5736 29.5416 38.6612 29.8973C40.7759 28.709 44.2408 26.6348 46.6096 23.6738C47.5431 22.507 48.4232 21.2966 49.1237 20.2426C49.6964 19.3808 50.1352 18.644 50.3884 18.1274L46.6644 15.024C45.3149 17.1937 44.0931 18.8311 42.6676 20.2798C41.2023 21.769 39.5363 23.0439 37.3253 24.4912C37.7077 26.0022 38.0711 27.4877 38.3694 28.7068Z" fill="#FEFEFE" stroke="#FAA21E"/>
<defs>
<clipPath id="clip0_2148_17678">
<rect width="50" height="50" fill="white" transform="translate(0.807373)"/>
</clipPath>
</defs>
</svg>
