<svg width="51" height="51" viewBox="0 0 51 51" fill="none" xmlns="http://www.w3.org/2000/svg">
<line x1="25.3811" y1="8.5272" x2="25.3811" y2="3.11028" stroke="#FAA21E" stroke-width="0.992606" stroke-linecap="round"/>
<line x1="25.3811" y1="8.5272" x2="25.3811" y2="3.11028" stroke="white" stroke-opacity="0.4" stroke-width="0.992606" stroke-linecap="round"/>
<line x1="25.3811" y1="48.1498" x2="25.3811" y2="42.7328" stroke="#FAA21E" stroke-width="0.992606" stroke-linecap="round"/>
<line x1="25.3811" y1="48.1498" x2="25.3811" y2="42.7328" stroke="white" stroke-opacity="0.4" stroke-width="0.992606" stroke-linecap="round"/>
<line x1="47.5864" y1="25.6662" x2="42.2069" y2="25.6662" stroke="#FAA21E" stroke-width="0.992606" stroke-linecap="round"/>
<line x1="47.5864" y1="25.6662" x2="42.2069" y2="25.6662" stroke="white" stroke-opacity="0.4" stroke-width="0.992606" stroke-linecap="round"/>
<line x1="0.496303" y1="-0.496303" x2="5.90406" y2="-0.496303" transform="matrix(-0.492924 0.870072 -0.867579 -0.4973 36.1763 5.23618)" stroke="#FAA21E" stroke-width="0.992606" stroke-linecap="round"/>
<line x1="0.496303" y1="-0.496303" x2="5.90406" y2="-0.496303" transform="matrix(-0.492924 0.870072 -0.867579 -0.4973 36.1763 5.23618)" stroke="white" stroke-opacity="0.4" stroke-width="0.992606" stroke-linecap="round"/>
<line x1="0.496303" y1="-0.496303" x2="5.88559" y2="-0.496303" transform="matrix(-0.849006 0.528382 -0.523928 -0.851762 44.9247 13.1954)" stroke="#FAA21E" stroke-width="0.992606" stroke-linecap="round"/>
<line x1="0.496303" y1="-0.496303" x2="5.88559" y2="-0.496303" transform="matrix(-0.849006 0.528382 -0.523928 -0.851762 44.9247 13.1954)" stroke="white" stroke-opacity="0.4" stroke-width="0.992606" stroke-linecap="round"/>
<line x1="0.496303" y1="-0.496303" x2="5.88483" y2="-0.496303" transform="matrix(-0.875939 -0.482422 0.478097 -0.878307 45.8506 36.6801)" stroke="#FAA21E" stroke-width="0.992606" stroke-linecap="round"/>
<line x1="0.496303" y1="-0.496303" x2="5.88483" y2="-0.496303" transform="matrix(-0.875939 -0.482422 0.478097 -0.878307 45.8506 36.6801)" stroke="white" stroke-opacity="0.4" stroke-width="0.992606" stroke-linecap="round"/>
<line x1="0.496303" y1="-0.496303" x2="5.90231" y2="-0.496303" transform="matrix(-0.538307 -0.842749 0.839871 -0.542786 37.6806 45.1521)" stroke="#FAA21E" stroke-width="0.992606" stroke-linecap="round"/>
<line x1="0.496303" y1="-0.496303" x2="5.90231" y2="-0.496303" transform="matrix(-0.538307 -0.842749 0.839871 -0.542786 37.6806 45.1521)" stroke="white" stroke-opacity="0.4" stroke-width="0.992606" stroke-linecap="round"/>
<line x1="3.10525" y1="25.7188" x2="8.48475" y2="25.7188" stroke="#FAA21E" stroke-width="0.992606" stroke-linecap="round"/>
<line x1="3.10525" y1="25.7188" x2="8.48475" y2="25.7188" stroke="white" stroke-opacity="0.4" stroke-width="0.992606" stroke-linecap="round"/>
<line x1="0.496303" y1="-0.496303" x2="5.90406" y2="-0.496303" transform="matrix(0.492925 -0.870072 0.867579 0.4973 14.5154 45.7348)" stroke="#FAA21E" stroke-width="0.992606" stroke-linecap="round"/>
<line x1="0.496303" y1="-0.496303" x2="5.90406" y2="-0.496303" transform="matrix(0.492925 -0.870072 0.867579 0.4973 14.5154 45.7348)" stroke="white" stroke-opacity="0.4" stroke-width="0.992606" stroke-linecap="round"/>
<line x1="0.496303" y1="-0.496303" x2="5.88559" y2="-0.496303" transform="matrix(0.849006 -0.528382 0.523928 0.851762 5.76691 37.7755)" stroke="#FAA21E" stroke-width="0.992606" stroke-linecap="round"/>
<line x1="0.496303" y1="-0.496303" x2="5.88559" y2="-0.496303" transform="matrix(0.849006 -0.528382 0.523928 0.851762 5.76691 37.7755)" stroke="white" stroke-opacity="0.4" stroke-width="0.992606" stroke-linecap="round"/>
<line x1="0.496303" y1="-0.496303" x2="5.88483" y2="-0.496303" transform="matrix(0.875939 0.482423 -0.478097 0.878307 5.24817 14.7526)" stroke="#FAA21E" stroke-width="0.992606" stroke-linecap="round"/>
<line x1="0.496303" y1="-0.496303" x2="5.88483" y2="-0.496303" transform="matrix(0.875939 0.482423 -0.478097 0.878307 5.24817 14.7526)" stroke="white" stroke-opacity="0.4" stroke-width="0.992606" stroke-linecap="round"/>
<line x1="0.496303" y1="-0.496303" x2="5.90231" y2="-0.496303" transform="matrix(0.538307 0.842749 -0.839871 0.542786 13.011 5.81876)" stroke="#FAA21E" stroke-width="0.992606" stroke-linecap="round"/>
<line x1="0.496303" y1="-0.496303" x2="5.90231" y2="-0.496303" transform="matrix(0.538307 0.842749 -0.839871 0.542786 13.011 5.81876)" stroke="white" stroke-opacity="0.4" stroke-width="0.992606" stroke-linecap="round"/>
<line x1="0.496303" y1="-0.496303" x2="8.64904" y2="-0.496303" transform="matrix(0.267517 -0.963553 0.962737 0.270438 30.3415 9.67786)" stroke="#FAA21E" stroke-width="0.992606" stroke-linecap="round"/>
<line x1="0.496303" y1="-0.496303" x2="8.64904" y2="-0.496303" transform="matrix(0.267517 -0.963553 0.962737 0.270438 30.3415 9.67786)" stroke="white" stroke-opacity="0.4" stroke-width="0.992606" stroke-linecap="round"/>
<line x1="0.496303" y1="-0.496303" x2="8.64904" y2="-0.496303" transform="matrix(0.267517 -0.963553 0.962737 0.270438 19.1185 50.4659)" stroke="#FAA21E" stroke-width="0.992606" stroke-linecap="round"/>
<line x1="0.496303" y1="-0.496303" x2="8.64904" y2="-0.496303" transform="matrix(0.267517 -0.963553 0.962737 0.270438 19.1185 50.4659)" stroke="white" stroke-opacity="0.4" stroke-width="0.992606" stroke-linecap="round"/>
<line x1="0.496303" y1="-0.496303" x2="8.60354" y2="-0.496303" transform="matrix(-0.962737 -0.270438 0.267517 -0.963553 50.1815 31.8783)" stroke="#FAA21E" stroke-width="0.992606" stroke-linecap="round"/>
<line x1="0.496303" y1="-0.496303" x2="8.60354" y2="-0.496303" transform="matrix(-0.962737 -0.270438 0.267517 -0.963553 50.1815 31.8783)" stroke="white" stroke-opacity="0.4" stroke-width="0.992606" stroke-linecap="round"/>
<line x1="0.496303" y1="-0.496303" x2="8.62597" y2="-0.496303" transform="matrix(-0.708495 0.705716 -0.701557 -0.712613 43.2497 6.98425)" stroke="#FAA21E" stroke-width="0.992606" stroke-linecap="round"/>
<line x1="0.496303" y1="-0.496303" x2="8.62597" y2="-0.496303" transform="matrix(-0.708495 0.705716 -0.701557 -0.712613 43.2497 6.98425)" stroke="white" stroke-opacity="0.4" stroke-width="0.992606" stroke-linecap="round"/>
<line x1="0.496303" y1="-0.496303" x2="8.60381" y2="-0.496303" transform="matrix(-0.960135 0.279536 -0.276533 -0.961004 49.8684 18.3464)" stroke="#FAA21E" stroke-width="0.992606" stroke-linecap="round"/>
<line x1="0.496303" y1="-0.496303" x2="8.60381" y2="-0.496303" transform="matrix(-0.960135 0.279536 -0.276533 -0.961004 49.8684 18.3464)" stroke="white" stroke-opacity="0.4" stroke-width="0.992606" stroke-linecap="round"/>
<line x1="0.496303" y1="-0.496303" x2="8.62558" y2="-0.496303" transform="matrix(-0.713579 -0.700575 0.696387 -0.717666 43.8751 43.3829)" stroke="#FAA21E" stroke-width="0.992606" stroke-linecap="round"/>
<line x1="0.496303" y1="-0.496303" x2="8.62558" y2="-0.496303" transform="matrix(-0.713579 -0.700575 0.696387 -0.717666 43.8751 43.3829)" stroke="white" stroke-opacity="0.4" stroke-width="0.992606" stroke-linecap="round"/>
<line x1="0.496303" y1="-0.496303" x2="8.64827" y2="-0.496303" transform="matrix(-0.292763 -0.956185 0.955216 -0.295909 32.8021 50.1063)" stroke="#FAA21E" stroke-width="0.992606" stroke-linecap="round"/>
<line x1="0.496303" y1="-0.496303" x2="8.64827" y2="-0.496303" transform="matrix(-0.292763 -0.956185 0.955216 -0.295909 32.8021 50.1063)" stroke="white" stroke-opacity="0.4" stroke-width="0.992606" stroke-linecap="round"/>
<line x1="0.496303" y1="-0.496303" x2="8.60353" y2="-0.496303" transform="matrix(0.962737 0.270438 -0.267517 0.963553 0.581482 19.2205)" stroke="#FAA21E" stroke-width="0.992606" stroke-linecap="round"/>
<line x1="0.496303" y1="-0.496303" x2="8.60353" y2="-0.496303" transform="matrix(0.962737 0.270438 -0.267517 0.963553 0.581482 19.2205)" stroke="white" stroke-opacity="0.4" stroke-width="0.992606" stroke-linecap="round"/>
<line x1="0.496303" y1="-0.496303" x2="8.62597" y2="-0.496303" transform="matrix(0.708495 -0.705716 0.701557 0.712613 7.52545 44.0077)" stroke="#FAA21E" stroke-width="0.992606" stroke-linecap="round"/>
<line x1="0.496303" y1="-0.496303" x2="8.62597" y2="-0.496303" transform="matrix(0.708495 -0.705716 0.701557 0.712613 7.52545 44.0077)" stroke="white" stroke-opacity="0.4" stroke-width="0.992606" stroke-linecap="round"/>
<line x1="0.496303" y1="-0.496303" x2="8.60381" y2="-0.496303" transform="matrix(0.960135 -0.279536 0.276533 0.961004 0.871094 32.8353)" stroke="#FAA21E" stroke-width="0.992606" stroke-linecap="round"/>
<line x1="0.496303" y1="-0.496303" x2="8.60381" y2="-0.496303" transform="matrix(0.960135 -0.279536 0.276533 0.961004 0.871094 32.8353)" stroke="white" stroke-opacity="0.4" stroke-width="0.992606" stroke-linecap="round"/>
<line x1="0.496303" y1="-0.496303" x2="8.62558" y2="-0.496303" transform="matrix(0.713579 0.700575 -0.696387 0.717666 6.95355 7.85806)" stroke="#FAA21E" stroke-width="0.992606" stroke-linecap="round"/>
<line x1="0.496303" y1="-0.496303" x2="8.62558" y2="-0.496303" transform="matrix(0.713579 0.700575 -0.696387 0.717666 6.95355 7.85806)" stroke="white" stroke-opacity="0.4" stroke-width="0.992606" stroke-linecap="round"/>
<line x1="0.496303" y1="-0.496303" x2="8.64828" y2="-0.496303" transform="matrix(0.292694 0.956206 -0.955195 0.295978 17.96 0.865906)" stroke="#FAA21E" stroke-width="0.992606" stroke-linecap="round"/>
<line x1="0.496303" y1="-0.496303" x2="8.64828" y2="-0.496303" transform="matrix(0.292694 0.956206 -0.955195 0.295978 17.96 0.865906)" stroke="white" stroke-opacity="0.4" stroke-width="0.992606" stroke-linecap="round"/>
<path d="M39.5815 20.6667H45.9815C46.2481 20.6667 46.8615 20.7456 47.1815 21.0614C47.5015 21.3772 47.5815 21.9824 47.5815 22.2456V34.0877C47.5815 34.3509 47.5015 34.9561 47.1815 35.2719C46.8615 35.5877 46.2481 35.6667 45.9815 35.6667H39.5815" stroke="#FAA21E" stroke-width="3.98519"/>
<path d="M39.5815 20.6667H45.9815C46.2481 20.6667 46.8615 20.7456 47.1815 21.0614C47.5015 21.3772 47.5815 21.9824 47.5815 22.2456V34.0877C47.5815 34.3509 47.5015 34.9561 47.1815 35.2719C46.8615 35.5877 46.2481 35.6667 45.9815 35.6667H39.5815" stroke="#FEFEFE" stroke-width="1.99259"/>
<path d="M14.0833 32.1261L2.55574 16.1648H7.89439L14.0833 21.577V32.1261Z" fill="#FEFEFE" stroke="#FAA21E" stroke-width="0.996296"/>
<path d="M40.0833 16.3679V43.3726C39.9373 43.4495 39.726 43.5561 39.4509 43.6831C38.8591 43.9562 37.9725 44.3234 36.8065 44.6916C34.4749 45.4279 31.0255 46.1685 26.5815 46.1685C22.1375 46.1685 18.6881 45.4279 16.3565 44.6916C15.1905 44.3234 14.3039 43.9562 13.7121 43.6831C13.437 43.5561 13.2256 43.4495 13.0796 43.3726V16.3679C13.1643 16.3953 13.2567 16.4245 13.3569 16.4553C13.98 16.647 14.9008 16.9009 16.1039 17.1541C18.51 17.6607 22.0444 18.1648 26.5815 18.1648C31.1185 18.1648 34.653 17.6607 37.0591 17.1541C38.2621 16.9009 39.183 16.647 39.8061 16.4553C39.9062 16.4245 39.9987 16.3953 40.0833 16.3679Z" fill="#FEFEFE" stroke="#FAA21E" stroke-width="0.996296"/>
<path d="M12.5815 12.6667C12.5815 12.6667 17.5815 15.3939 26.5815 15.3939C35.5815 15.3939 40.5815 12.6667 40.5815 12.6667V16.6667C40.5815 16.6667 35.5815 19.6667 26.5815 19.6667C17.5815 19.6667 12.5815 16.6667 12.5815 16.6667V12.6667Z" fill="#FAA21E"/>
<path d="M40.0815 12.6667C40.0815 13.6667 34.0373 15.6667 26.5815 15.6667C19.1256 15.6667 13.0815 13.6667 13.0815 12.6667C13.0815 11.6667 19.1256 9.66666 26.5815 9.66666C34.0373 9.66666 40.0815 11.6667 40.0815 12.6667Z" fill="#FEFEFE" stroke="#FAA21E" stroke-width="0.996296"/>
<circle cx="26.5815" cy="9.16666" r="3.5" fill="#FAA21E"/>
<circle cx="26.5815" cy="38.6667" r="2" fill="#FAA21E"/>
<circle cx="26.5815" cy="38.6667" r="2" fill="white" fill-opacity="0.2"/>
<path d="M22.0815 26.1667C21.2815 25.3667 21.0815 23.6667 20.5815 22.6667C20.0815 23.6667 20.0815 25.1667 19.0815 26.1667C18.1871 27.0611 17.0815 27.6667 15.5815 28.1667C17.0815 28.6667 18.2815 29.3667 19.0815 30.1667C19.8815 30.9667 20.2481 32.6667 20.5815 33.6667C20.9148 32.5 21.1871 31.0611 22.0815 30.1667C23.0815 29.1667 24.0815 28.6667 25.5815 28.1667C24.5815 27.6667 23.0815 27.1667 22.0815 26.1667Z" fill="#FAA21E"/>
<path d="M35.1315 31.2121C34.5715 30.6303 34.4315 29.3939 34.0815 28.6667C33.7315 29.3939 33.7315 30.4848 33.0315 31.2121C32.4054 31.8626 31.6315 32.303 30.5815 32.6667C31.6315 33.0303 32.4715 33.5394 33.0315 34.1212C33.5915 34.703 33.8481 35.9394 34.0815 36.6667C34.3148 35.8182 34.5054 34.7717 35.1315 34.1212C35.8315 33.3939 36.5315 33.0303 37.5815 32.6667C36.8815 32.303 35.8315 31.9394 35.1315 31.2121Z" fill="#FAA21E"/>
<circle cx="31.0815" cy="25.1667" r="1.5" fill="#FAA21E"/>
<circle cx="31.0815" cy="25.1667" r="1.5" fill="white" fill-opacity="0.2"/>
</svg>
