<svg width="50" height="50" viewBox="0 0 50 50" fill="none" xmlns="http://www.w3.org/2000/svg">
<line x1="24.7997" y1="7.86057" x2="24.7997" y2="2.44366" stroke="#FAA21E" stroke-width="0.992606" stroke-linecap="round"/>
<line x1="24.7997" y1="7.86057" x2="24.7997" y2="2.44366" stroke="white" stroke-opacity="0.4" stroke-width="0.992606" stroke-linecap="round"/>
<line x1="24.7997" y1="47.4831" x2="24.7997" y2="42.0662" stroke="#FAA21E" stroke-width="0.992606" stroke-linecap="round"/>
<line x1="24.7997" y1="47.4831" x2="24.7997" y2="42.0662" stroke="white" stroke-opacity="0.4" stroke-width="0.992606" stroke-linecap="round"/>
<line x1="47.0049" y1="24.9996" x2="41.6254" y2="24.9996" stroke="#FAA21E" stroke-width="0.992606" stroke-linecap="round"/>
<line x1="47.0049" y1="24.9996" x2="41.6254" y2="24.9996" stroke="white" stroke-opacity="0.4" stroke-width="0.992606" stroke-linecap="round"/>
<line x1="0.496303" y1="-0.496303" x2="5.88483" y2="-0.496303" transform="matrix(-0.875939 -0.482422 0.478097 -0.878307 45.2692 36.0134)" stroke="#FAA21E" stroke-width="0.992606" stroke-linecap="round"/>
<line x1="0.496303" y1="-0.496303" x2="5.88483" y2="-0.496303" transform="matrix(-0.875939 -0.482422 0.478097 -0.878307 45.2692 36.0134)" stroke="white" stroke-opacity="0.4" stroke-width="0.992606" stroke-linecap="round"/>
<line x1="0.496303" y1="-0.496303" x2="5.90231" y2="-0.496303" transform="matrix(-0.538307 -0.842749 0.839871 -0.542786 37.0991 44.4855)" stroke="#FAA21E" stroke-width="0.992606" stroke-linecap="round"/>
<line x1="0.496303" y1="-0.496303" x2="5.90231" y2="-0.496303" transform="matrix(-0.538307 -0.842749 0.839871 -0.542786 37.0991 44.4855)" stroke="white" stroke-opacity="0.4" stroke-width="0.992606" stroke-linecap="round"/>
<line x1="2.52377" y1="25.0522" x2="7.90327" y2="25.0522" stroke="#FAA21E" stroke-width="0.992606" stroke-linecap="round"/>
<line x1="2.52377" y1="25.0522" x2="7.90327" y2="25.0522" stroke="white" stroke-opacity="0.4" stroke-width="0.992606" stroke-linecap="round"/>
<line x1="0.496303" y1="-0.496303" x2="5.90406" y2="-0.496303" transform="matrix(0.492925 -0.870072 0.867579 0.4973 13.934 45.0682)" stroke="#FAA21E" stroke-width="0.992606" stroke-linecap="round"/>
<line x1="0.496303" y1="-0.496303" x2="5.90406" y2="-0.496303" transform="matrix(0.492925 -0.870072 0.867579 0.4973 13.934 45.0682)" stroke="white" stroke-opacity="0.4" stroke-width="0.992606" stroke-linecap="round"/>
<line x1="0.496303" y1="-0.496303" x2="5.88559" y2="-0.496303" transform="matrix(0.849006 -0.528382 0.523928 0.851762 5.18542 37.1089)" stroke="#FAA21E" stroke-width="0.992606" stroke-linecap="round"/>
<line x1="0.496303" y1="-0.496303" x2="5.88559" y2="-0.496303" transform="matrix(0.849006 -0.528382 0.523928 0.851762 5.18542 37.1089)" stroke="white" stroke-opacity="0.4" stroke-width="0.992606" stroke-linecap="round"/>
<line x1="0.496303" y1="-0.496303" x2="5.88483" y2="-0.496303" transform="matrix(0.875939 0.482423 -0.478097 0.878307 4.66669 14.086)" stroke="#FAA21E" stroke-width="0.992606" stroke-linecap="round"/>
<line x1="0.496303" y1="-0.496303" x2="5.88483" y2="-0.496303" transform="matrix(0.875939 0.482423 -0.478097 0.878307 4.66669 14.086)" stroke="white" stroke-opacity="0.4" stroke-width="0.992606" stroke-linecap="round"/>
<line x1="0.496303" y1="-0.496303" x2="5.90231" y2="-0.496303" transform="matrix(0.538307 0.842749 -0.839871 0.542786 12.4295 5.15216)" stroke="#FAA21E" stroke-width="0.992606" stroke-linecap="round"/>
<line x1="0.496303" y1="-0.496303" x2="5.90231" y2="-0.496303" transform="matrix(0.538307 0.842749 -0.839871 0.542786 12.4295 5.15216)" stroke="white" stroke-opacity="0.4" stroke-width="0.992606" stroke-linecap="round"/>
<line x1="0.496303" y1="-0.496303" x2="8.64904" y2="-0.496303" transform="matrix(0.267517 -0.963553 0.962737 0.270438 29.76 9.01123)" stroke="#FAA21E" stroke-width="0.992606" stroke-linecap="round"/>
<line x1="0.496303" y1="-0.496303" x2="8.64904" y2="-0.496303" transform="matrix(0.267517 -0.963553 0.962737 0.270438 29.76 9.01123)" stroke="white" stroke-opacity="0.4" stroke-width="0.992606" stroke-linecap="round"/>
<line x1="0.496303" y1="-0.496303" x2="8.64904" y2="-0.496303" transform="matrix(0.267517 -0.963553 0.962737 0.270438 18.537 49.7993)" stroke="#FAA21E" stroke-width="0.992606" stroke-linecap="round"/>
<line x1="0.496303" y1="-0.496303" x2="8.64904" y2="-0.496303" transform="matrix(0.267517 -0.963553 0.962737 0.270438 18.537 49.7993)" stroke="white" stroke-opacity="0.4" stroke-width="0.992606" stroke-linecap="round"/>
<line x1="0.496303" y1="-0.496303" x2="8.60354" y2="-0.496303" transform="matrix(-0.962737 -0.270438 0.267517 -0.963553 49.6 31.2117)" stroke="#FAA21E" stroke-width="0.992606" stroke-linecap="round"/>
<line x1="0.496303" y1="-0.496303" x2="8.60354" y2="-0.496303" transform="matrix(-0.962737 -0.270438 0.267517 -0.963553 49.6 31.2117)" stroke="white" stroke-opacity="0.4" stroke-width="0.992606" stroke-linecap="round"/>
<line x1="0.496303" y1="-0.496303" x2="8.60381" y2="-0.496303" transform="matrix(-0.960135 0.279536 -0.276533 -0.961004 49.2869 17.6797)" stroke="#FAA21E" stroke-width="0.992606" stroke-linecap="round"/>
<line x1="0.496303" y1="-0.496303" x2="8.60381" y2="-0.496303" transform="matrix(-0.960135 0.279536 -0.276533 -0.961004 49.2869 17.6797)" stroke="white" stroke-opacity="0.4" stroke-width="0.992606" stroke-linecap="round"/>
<line x1="0.496303" y1="-0.496303" x2="8.62558" y2="-0.496303" transform="matrix(-0.713579 -0.700575 0.696387 -0.717666 43.2936 42.7162)" stroke="#FAA21E" stroke-width="0.992606" stroke-linecap="round"/>
<line x1="0.496303" y1="-0.496303" x2="8.62558" y2="-0.496303" transform="matrix(-0.713579 -0.700575 0.696387 -0.717666 43.2936 42.7162)" stroke="white" stroke-opacity="0.4" stroke-width="0.992606" stroke-linecap="round"/>
<line x1="0.496303" y1="-0.496303" x2="8.64827" y2="-0.496303" transform="matrix(-0.292763 -0.956185 0.955216 -0.295909 32.2206 49.4396)" stroke="#FAA21E" stroke-width="0.992606" stroke-linecap="round"/>
<line x1="0.496303" y1="-0.496303" x2="8.64827" y2="-0.496303" transform="matrix(-0.292763 -0.956185 0.955216 -0.295909 32.2206 49.4396)" stroke="white" stroke-opacity="0.4" stroke-width="0.992606" stroke-linecap="round"/>
<line x1="0.496303" y1="-0.496303" x2="8.60353" y2="-0.496303" transform="matrix(0.962737 0.270438 -0.267517 0.963553 0 18.5538)" stroke="#FAA21E" stroke-width="0.992606" stroke-linecap="round"/>
<line x1="0.496303" y1="-0.496303" x2="8.60353" y2="-0.496303" transform="matrix(0.962737 0.270438 -0.267517 0.963553 0 18.5538)" stroke="white" stroke-opacity="0.4" stroke-width="0.992606" stroke-linecap="round"/>
<line x1="0.496303" y1="-0.496303" x2="8.60381" y2="-0.496303" transform="matrix(0.960135 -0.279536 0.276533 0.961004 0.289612 32.1687)" stroke="#FAA21E" stroke-width="0.992606" stroke-linecap="round"/>
<line x1="0.496303" y1="-0.496303" x2="8.60381" y2="-0.496303" transform="matrix(0.960135 -0.279536 0.276533 0.961004 0.289612 32.1687)" stroke="white" stroke-opacity="0.4" stroke-width="0.992606" stroke-linecap="round"/>
<line x1="0.496303" y1="-0.496303" x2="8.62558" y2="-0.496303" transform="matrix(0.713579 0.700575 -0.696387 0.717666 6.37207 7.19147)" stroke="#FAA21E" stroke-width="0.992606" stroke-linecap="round"/>
<line x1="0.496303" y1="-0.496303" x2="8.62558" y2="-0.496303" transform="matrix(0.713579 0.700575 -0.696387 0.717666 6.37207 7.19147)" stroke="white" stroke-opacity="0.4" stroke-width="0.992606" stroke-linecap="round"/>
<line x1="0.496303" y1="-0.496303" x2="8.64828" y2="-0.496303" transform="matrix(0.292694 0.956206 -0.955195 0.295978 17.3785 0.19928)" stroke="#FAA21E" stroke-width="0.992606" stroke-linecap="round"/>
<line x1="0.496303" y1="-0.496303" x2="8.64828" y2="-0.496303" transform="matrix(0.292694 0.956206 -0.955195 0.295978 17.3785 0.19928)" stroke="white" stroke-opacity="0.4" stroke-width="0.992606" stroke-linecap="round"/>
<path d="M10.0833 37.037L25.6345 21.4858C25.9908 21.9449 26.4944 22.5534 26.8941 22.9531C27.3048 23.3638 27.9045 23.8529 28.3646 24.2096L12.8103 39.764L10.0833 37.037ZM8.00818 37.7272L12.1271 41.846L4.77879 49.48L3.21538 49.48L0.51997 46.7846L0.519971 45.2154L8.00818 37.7272Z" fill="#FEFEFE" stroke="#FAA21E" stroke-width="1.03994"/>
<path d="M7.60906 43.2456C7.74732 42.6098 8.50756 41.7252 8.83586 41.086C8.19661 41.4143 7.47094 42.14 6.67622 42.3128C5.9654 42.4674 5.32866 42.4166 4.62035 42.192C4.84488 42.9003 4.87937 43.6121 4.74111 44.2479C4.60284 44.8837 3.89443 45.8201 3.5143 46.4075C4.18236 45.9468 4.96312 45.3353 5.67395 45.1807C6.46867 45.0079 7.02151 45.077 7.72982 45.3015C7.66076 44.7487 7.43623 44.0404 7.60906 43.2456Z" fill="#FAA21E"/>
<path d="M45.0583 5.76658L40.8169 8.05039L42.7744 10.0079L45.0583 5.76658Z" fill="#FAA21E"/>
<path d="M35.1074 0.383301L36.9018 9.02917H33.3129L35.1074 0.383301Z" fill="#FAA21E"/>
<path d="M41.5 14.0862V17.8382L49.9985 15.5L41.5 14.0862Z" fill="#FAA21E"/>
<path d="M28.0928 17.8382L28.2559 14.0862L20.752 16.0437L28.0928 17.8382Z" fill="#FAA21E"/>
<path d="M32.9867 22.7321H37.1235L35.1074 30.3991L32.9867 22.7321Z" fill="#FAA21E"/>
<path d="M42.9376 21.5901L45.7108 25.9946L41.1431 23.3846L42.9376 21.5901Z" fill="#FAA21E"/>
<path d="M29.0716 7.72413L27.2771 9.51856L24.5039 4.7878L29.0716 7.72413Z" fill="#FAA21E"/>
<path fill-rule="evenodd" clip-rule="evenodd" d="M29.0716 9.35543C30.2461 8.18089 31.8529 7.77851 32.3422 7.72413C32.1247 8.2679 31.846 9.51856 32.4985 10.1711C33.3141 10.9867 36.5212 11.1499 37.5 10.1711C38.2507 9.42041 37.9794 8.20997 37.7461 7.63211L37.7174 7.561C38.4243 7.94164 40.0665 8.93129 40.98 9.84482C41.8367 10.7015 42.4256 12.0076 42.7198 12.6602L42.7744 12.7811L42.7712 12.7805C42.2264 12.6715 41.1497 12.4562 40.4985 13.1074C39.6828 13.9231 39.6667 17.6682 40.4985 18.5C41.3168 19.3184 41.8466 19.1473 42.3994 18.9687C42.5221 18.929 42.646 18.889 42.7744 18.8594C42.7551 18.9162 42.7357 18.9747 42.7158 19.0349C42.5056 19.6709 42.2307 20.5025 41.1431 21.5901C40.2839 22.4494 39.447 22.9747 38.7616 23.405C38.4973 23.5709 38.2555 23.7226 38.0437 23.874C38.0437 23.7466 38.0512 23.5956 38.0593 23.4311C38.0928 22.7532 38.1375 21.8471 37.7174 21.427C37.0649 20.7745 32.9867 20.6114 32.171 21.427C31.5185 22.0795 31.6273 23.4389 31.8448 23.874C31.301 23.7652 29.9198 23.2541 28.7453 22.0795C27.5708 20.905 27.0596 19.5238 26.9509 18.9801C27.3859 19.0888 28.419 19.1432 29.0716 18.4907C29.8872 17.675 29.8872 13.7599 29.2347 13.1074C28.7127 12.5854 27.4946 12.6724 26.9509 12.7811C27.1684 12.1286 27.897 10.53 29.0716 9.35543ZM33.478 17.5658C34.3185 18.4063 35.6813 18.4063 36.5218 17.5658C37.3623 16.7252 37.3623 15.3625 36.5218 14.522C35.6813 13.6815 34.3185 13.6815 33.478 14.522C32.6375 15.3625 32.6375 16.7252 33.478 17.5658Z" fill="#FAA21E"/>
<path fill-rule="evenodd" clip-rule="evenodd" d="M31.5 8.5C31.0439 8.55067 30.1495 9.03126 29.2745 9.90624C28.4009 10.7799 28.2239 11.3189 28.0388 11.8825C28.026 11.9215 28.0131 11.9606 28 12C29 12 29.5786 12.2969 30 13C30.4421 13.7376 30.5 16.5 30 18C29.5688 19.2937 28.4054 19.6013 28 19.5C28.091 19.9549 28.4236 20.3975 29.0492 21.2299C29.1205 21.3247 29.1956 21.4246 29.2745 21.5302C30 22.5 30.4933 22.8987 31 23C30.7973 22.5946 30.9219 21.2188 32 20.5C33.5 19.5 37.3919 19.8919 38 20.5C38.5 21 39 21.5 39 22.5C39.5 22.5 40.2266 21.7734 40.5 21.5C40.7734 21.2266 41.7912 20.1116 42 19.5C40.5 20 40 19 39.5 18L39.5 18C39 17 39.1601 14.5198 39.5 13.5C40 12 40.9933 11.8986 41.5 12C41.5 11.5 40.8277 10.3277 40.5 10C40.1723 9.67229 39.5 9 38.5 8.5C38.7027 9.00675 38.6161 9.82837 38 10.6562C37 12 33 12 32 10.6562C31.4866 9.96635 31.2973 9.00675 31.5 8.5ZM32 16C32 17.6569 33.3431 19 35 19C36.6569 19 38 17.6569 38 16C38 14.3431 36.6569 13 35 13C33.3431 13 32 14.3431 32 16Z" fill="#FEFEFE"/>
</svg>
