<svg width="50" height="50" viewBox="0 0 50 50" fill="none" xmlns="http://www.w3.org/2000/svg">
<path d="M37.5 8L36 8.5C36 7.83333 35.9 6.3 35.5 5.5C35 4.5 34 4 32 4.5C30 5 28.5 6.5 28.5 9.5C28.5 12.5 31.5 14 33 14C34.2 14 34.8333 13.3333 35 13L36.5 14.5C36.1667 16 35.9 19.3 37.5 20.5C39.5 22 42 21.5 44 20C46 18.5 45.9743 16.423 45.5 15C45 13.5 43.5 12.5 42.5 12L43.5 10.5C44.1667 10.6667 45.3625 11.0688 46.5 10.5C48 9.75 47.5 6.5 47 5C46.5 3.5 44.5 2 42.5 2C40.5 2 39 3.5 38 5C37.2 6.2 37.3333 7.5 37.5 8Z" fill="#FAA21E"/>
<path d="M37.5 8L36 8.5C36 7.83333 35.9 6.3 35.5 5.5C35 4.5 34 4 32 4.5C30 5 28.5 6.5 28.5 9.5C28.5 12.5 31.5 14 33 14C34.2 14 34.8333 13.3333 35 13L36.5 14.5C36.1667 16 35.9 19.3 37.5 20.5C39.5 22 42 21.5 44 20C46 18.5 45.9743 16.423 45.5 15C45 13.5 43.5 12.5 42.5 12L43.5 10.5C44.1667 10.6667 45.3625 11.0688 46.5 10.5C48 9.75 47.5 6.5 47 5C46.5 3.5 44.5 2 42.5 2C40.5 2 39 3.5 38 5C37.2 6.2 37.3333 7.5 37.5 8Z" fill="white" fill-opacity="0.8"/>
<path d="M28.783 38.0841L29.2348 39.5994C28.5685 39.578 27.0328 39.629 26.2204 40.0032C25.2049 40.471 24.6732 41.4545 25.109 43.4694C25.5448 45.4844 26.9961 47.0316 29.9945 47.1275C32.993 47.2234 34.5881 44.2729 34.6361 42.7737C34.6745 41.5743 34.0284 40.92 33.7006 40.7427L35.2478 39.2915C36.7363 39.6726 40.0261 40.0446 41.2767 38.4838C42.8398 36.5328 42.42 34.0181 40.9847 31.9712C39.5495 29.9242 37.4727 29.8834 36.0353 30.312C34.52 30.7638 33.4726 32.2311 32.9409 33.2146L31.4736 32.1671C31.6615 31.5061 32.1016 30.3238 31.5695 29.1687C30.8679 27.6455 27.6036 28.0413 26.0883 28.4931C24.5731 28.9449 23.0099 30.8959 22.946 32.8949C22.882 34.8938 24.3333 36.441 25.8006 37.4885C26.9744 38.3264 28.278 38.2347 28.783 38.0841Z" fill="#FAA21E"/>
<path d="M28.783 38.0841L29.2348 39.5994C28.5685 39.578 27.0328 39.629 26.2204 40.0032C25.2049 40.471 24.6732 41.4545 25.109 43.4694C25.5448 45.4844 26.9961 47.0316 29.9945 47.1275C32.993 47.2234 34.5881 44.2729 34.6361 42.7737C34.6745 41.5743 34.0284 40.92 33.7006 40.7427L35.2478 39.2915C36.7363 39.6726 40.0261 40.0446 41.2767 38.4838C42.8398 36.5328 42.42 34.0181 40.9847 31.9712C39.5495 29.9242 37.4727 29.8834 36.0353 30.312C34.52 30.7638 33.4726 32.2311 32.9409 33.2146L31.4736 32.1671C31.6615 31.5061 32.1016 30.3238 31.5695 29.1687C30.8679 27.6455 27.6036 28.0413 26.0883 28.4931C24.5731 28.9449 23.0099 30.8959 22.946 32.8949C22.882 34.8938 24.3333 36.441 25.8006 37.4885C26.9744 38.3264 28.278 38.2347 28.783 38.0841Z" fill="white" fill-opacity="0.8"/>
<path d="M16.2603 20.5694L15.6086 19.1288C16.2718 19.0602 17.7867 18.803 18.5413 18.3229C19.4846 17.7227 19.8791 16.6765 19.176 14.7386C18.473 12.8006 16.8267 11.4628 13.8426 11.7714C10.8585 12.0799 9.67499 15.2183 9.82926 16.7103C9.95268 17.904 10.681 18.4654 11.0297 18.5969L9.69189 20.2432C8.16556 20.0659 4.85564 20.1401 3.82656 21.855C2.54022 23.9987 3.29469 26.434 4.99244 28.2691C6.69019 30.1042 8.75351 29.8651 10.1202 29.2469C11.5608 28.5953 12.4012 27.0004 12.7957 25.9543L14.3906 26.7947C14.2934 27.475 14.0165 28.7058 14.6992 29.7788C15.5995 31.1937 18.7808 30.3621 20.2214 29.7104C21.6621 29.0588 22.9484 26.9151 22.7427 24.9258C22.537 22.9364 20.8907 21.5986 19.2958 20.7582C18.0199 20.0858 16.7405 20.3522 16.2603 20.5694Z" fill="#FAA21E"/>
<path d="M16.2603 20.5694L15.6086 19.1288C16.2718 19.0602 17.7867 18.803 18.5413 18.3229C19.4846 17.7227 19.8791 16.6765 19.176 14.7386C18.473 12.8006 16.8267 11.4628 13.8426 11.7714C10.8585 12.0799 9.67499 15.2183 9.82926 16.7103C9.95268 17.904 10.681 18.4654 11.0297 18.5969L9.69189 20.2432C8.16556 20.0659 4.85564 20.1401 3.82656 21.855C2.54022 23.9987 3.29469 26.434 4.99244 28.2691C6.69019 30.1042 8.75351 29.8651 10.1202 29.2469C11.5608 28.5953 12.4012 27.0004 12.7957 25.9543L14.3906 26.7947C14.2934 27.475 14.0165 28.7058 14.6992 29.7788C15.5995 31.1937 18.7808 30.3621 20.2214 29.7104C21.6621 29.0588 22.9484 26.9151 22.7427 24.9258C22.537 22.9364 20.8907 21.5986 19.2958 20.7582C18.0199 20.0858 16.7405 20.3522 16.2603 20.5694Z" fill="white" fill-opacity="0.8"/>
</svg>
