<svg width="50" height="50" viewBox="0 0 50 50" fill="none" xmlns="http://www.w3.org/2000/svg">
<path d="M29.4091 5.35046C24.511 6.39001 22.5517 8.98862 17.6536 13.6662C12.1024 17.8241 1 24.0609 1 31.8569C1 37.5739 6.87774 42.2515 11.2861 43.8107C15.6944 45.3699 24.0212 45.8896 30.8785 42.2515C37.7359 38.6134 46.5525 31.3371 48.5118 23.0214C50.471 14.7057 46.0627 11.5872 43.6136 8.98859C41.1646 6.38993 35.2868 4.10301 29.4091 5.35046Z" fill="#FAA21E"/>
<path d="M29.4091 5.35046C24.511 6.39001 22.5517 8.98862 17.6536 13.6662C12.1024 17.8241 1 24.0609 1 31.8569C1 37.5739 6.87774 42.2515 11.2861 43.8107C15.6944 45.3699 24.0212 45.8896 30.8785 42.2515C37.7359 38.6134 46.5525 31.3371 48.5118 23.0214C50.471 14.7057 46.0627 11.5872 43.6136 8.98859C41.1646 6.38993 35.2868 4.10301 29.4091 5.35046Z" fill="white" fill-opacity="0.4"/>
<path d="M16 28C16.8 28 18.6667 28.6667 19.5 29" stroke="#FAA21E" stroke-width="2"/>
<path d="M16 28C16.8 28 18.6667 28.6667 19.5 29" stroke="black" stroke-opacity="0.4" stroke-width="2"/>
<path d="M8 31.5L9.5 34.5" stroke="#FAA21E" stroke-width="2"/>
<path d="M8 31.5L9.5 34.5" stroke="black" stroke-opacity="0.4" stroke-width="2"/>
<path d="M16.3416 38.2485L16.7889 33.9999" stroke="#FAA21E" stroke-width="2"/>
<path d="M16.3416 38.2485L16.7889 33.9999" stroke="black" stroke-opacity="0.4" stroke-width="2"/>
<path d="M26 36L24 38.5" stroke="#FAA21E" stroke-width="2"/>
<path d="M26 36L24 38.5" stroke="black" stroke-opacity="0.4" stroke-width="2"/>
<path d="M26 28V31" stroke="#FAA21E" stroke-width="2"/>
<path d="M26 28V31" stroke="black" stroke-opacity="0.4" stroke-width="2"/>
<path d="M30 32L33 31" stroke="#FAA21E" stroke-width="2"/>
<path d="M30 32L33 31" stroke="black" stroke-opacity="0.4" stroke-width="2"/>
<path d="M41.7392 18.0001L43.0206 20.8911" stroke="#FAA21E" stroke-width="2"/>
<path d="M41.7392 18.0001L43.0206 20.8911" stroke="black" stroke-opacity="0.4" stroke-width="2"/>
<path d="M40.5701 28.6839L38.9299 31.8159" stroke="#FAA21E" stroke-width="2"/>
<path d="M40.5701 28.6839L38.9299 31.8159" stroke="black" stroke-opacity="0.4" stroke-width="2"/>
</svg>
