<svg width="50" height="50" viewBox="0 0 50 50" fill="none" xmlns="http://www.w3.org/2000/svg">
<g clip-path="url(#clip0_4539_6482)">
<path d="M9.73684 2.01379H40V5.01379L41 7.01379H45V48.0138H11.3158C10.7895 48.0138 8.15789 48.0138 6.57895 46.4456C5 44.8774 5 43.3092 5 42.7865V6.71834C5 5.67288 5.73684 4.41834 6.57895 3.58198C7.42105 2.74561 8.68421 2.01379 9.73684 2.01379Z" fill="#1D8CE0"/>
<path d="M43 9L40 5V40.0312H38L43 46V9Z" fill="#898989"/>
<path d="M43 9L40 5V40.0312H38L43 46V9Z" fill="white" fill-opacity="0.2"/>
<path d="M10.093 40H38.0001L43.0001 46H10.093C9.58856 46 6.97412 45.0823 6.97412 42.8406C6.97412 40.599 9.58856 40 10.093 40Z" fill="#898989"/>
<path d="M10.093 40H38.0001L43.0001 46H10.093C9.58856 46 6.97412 45.0823 6.97412 42.8406C6.97412 40.599 9.58856 40 10.093 40Z" fill="white" fill-opacity="0.6"/>
<path d="M25.5191 16.9261C22.3973 13.6379 18.135 13.6924 15.9984 14.2208C15.749 16.9622 15.5399 21.2857 18.9405 24.417C22.3412 27.5482 26.1813 27.8753 30.1711 26.5576C28.1906 24.0209 28.2097 19.7601 25.5191 16.9261Z" fill="#1D8CE0"/>
<path d="M25.5191 16.9261C22.3973 13.6379 18.135 13.6924 15.9984 14.2208C15.749 16.9622 15.5399 21.2857 18.9405 24.417C22.3412 27.5482 26.1813 27.8753 30.1711 26.5576C28.1906 24.0209 28.2097 19.7601 25.5191 16.9261Z" fill="white" fill-opacity="0.95"/>
<path fill-rule="evenodd" clip-rule="evenodd" d="M23.7876 23.1091C23.2781 22.6467 22.5636 21.6929 22.1358 21.0622C22.6969 20.7104 23.5418 20.2734 24.5063 19.9732C25.3905 19.698 26.354 19.5442 27.2844 19.6595C27.6866 20.5585 27.9941 21.4937 28.2943 22.4067C28.3568 22.5967 28.4189 22.7856 28.4815 22.9732C27.9654 22.9945 27.4328 23.138 26.954 23.3181C26.2917 23.5672 25.6764 23.9077 25.2478 24.1875C24.7193 23.8645 24.2613 23.5389 23.7876 23.1091ZM28.7147 23.6533C28.2644 23.6263 27.7305 23.7447 27.1848 23.9499C26.7147 24.1267 26.2673 24.3561 25.9086 24.5687C27.2377 25.2905 28.704 25.8326 29.9028 26.1858C29.4039 25.4401 29.0412 24.5736 28.7147 23.6533ZM29.4658 26.7736C28.2214 26.3941 26.7337 25.8272 25.3899 25.0774C25.287 25.3783 25.2426 25.7802 25.2708 26.2147C25.2962 26.6057 25.3776 26.979 25.4954 27.2761C26.7922 27.3357 28.1194 27.1531 29.4658 26.7736ZM24.7286 27.2118C23.477 27.0586 22.2565 26.6668 21.0774 25.9948C21.0498 25.9035 21.0253 25.8041 21.0045 25.6966C20.9169 25.2453 20.9018 24.6967 20.9539 24.1233C21.0388 23.1901 21.2951 22.2523 21.6495 21.6021C22.097 22.2473 22.775 23.1388 23.2979 23.6133C23.7881 24.0582 24.2619 24.3979 24.7885 24.7237C24.5908 25.1815 24.537 25.7556 24.5713 26.2841C24.5916 26.5957 24.6439 26.9149 24.7286 27.2118ZM20.2596 25.4784C20.2107 25.0437 20.2124 24.5684 20.2558 24.0904C20.3574 22.9731 20.6956 21.7634 21.2318 20.9767C20.5404 19.9389 19.7101 18.7464 18.8375 17.7037C18.1917 18.5403 17.7276 19.6016 17.4683 20.649C17.3249 21.228 17.2474 21.7895 17.2325 22.2945C17.6627 23.0378 18.2208 23.7541 18.9407 24.4169C19.3734 24.8154 19.8133 25.1684 20.2596 25.4784ZM16.6593 21.1141C16.6949 20.9156 16.7376 20.7156 16.7871 20.5156C17.076 19.3487 17.6093 18.135 18.3859 17.1802C17.5135 16.1895 16.6548 15.2814 15.9667 14.5842C15.8148 16.408 15.7412 18.8213 16.6593 21.1141ZM16.4924 14.1149C17.1735 14.8055 18.0164 15.6967 18.8751 16.6694C19.408 16.1908 20.2028 15.6254 21.1419 15.2221C21.565 15.0404 22.0218 14.8899 22.4999 14.7962C20.2914 13.8242 18.0181 13.8349 16.4924 14.1149ZM23.6018 15.3715C22.835 15.357 22.0854 15.5488 21.4043 15.8413C20.5325 16.2156 19.7954 16.7461 19.3179 17.1792C20.2139 18.2391 21.0626 19.4516 21.7641 20.5012C22.3735 20.1182 23.2795 19.65 24.3163 19.3273C25.1248 19.0757 26.0284 18.9078 26.9398 18.9475C26.5623 18.2277 26.105 17.5431 25.5192 16.9261C24.9149 16.2896 24.2679 15.7783 23.6018 15.3715Z" fill="#1D8CE0"/>
<path fill-rule="evenodd" clip-rule="evenodd" d="M23.7876 23.1091C23.2781 22.6467 22.5636 21.6929 22.1358 21.0622C22.6969 20.7104 23.5418 20.2734 24.5063 19.9732C25.3905 19.698 26.354 19.5442 27.2844 19.6595C27.6866 20.5585 27.9941 21.4937 28.2943 22.4067C28.3568 22.5967 28.4189 22.7856 28.4815 22.9732C27.9654 22.9945 27.4328 23.138 26.954 23.3181C26.2917 23.5672 25.6764 23.9077 25.2478 24.1875C24.7193 23.8645 24.2613 23.5389 23.7876 23.1091ZM28.7147 23.6533C28.2644 23.6263 27.7305 23.7447 27.1848 23.9499C26.7147 24.1267 26.2673 24.3561 25.9086 24.5687C27.2377 25.2905 28.704 25.8326 29.9028 26.1858C29.4039 25.4401 29.0412 24.5736 28.7147 23.6533ZM29.4658 26.7736C28.2214 26.3941 26.7337 25.8272 25.3899 25.0774C25.287 25.3783 25.2426 25.7802 25.2708 26.2147C25.2962 26.6057 25.3776 26.979 25.4954 27.2761C26.7922 27.3357 28.1194 27.1531 29.4658 26.7736ZM24.7286 27.2118C23.477 27.0586 22.2565 26.6668 21.0774 25.9948C21.0498 25.9035 21.0253 25.8041 21.0045 25.6966C20.9169 25.2453 20.9018 24.6967 20.9539 24.1233C21.0388 23.1901 21.2951 22.2523 21.6495 21.6021C22.097 22.2473 22.775 23.1388 23.2979 23.6133C23.7881 24.0582 24.2619 24.3979 24.7885 24.7237C24.5908 25.1815 24.537 25.7556 24.5713 26.2841C24.5916 26.5957 24.6439 26.9149 24.7286 27.2118ZM20.2596 25.4784C20.2107 25.0437 20.2124 24.5684 20.2558 24.0904C20.3574 22.9731 20.6956 21.7634 21.2318 20.9767C20.5404 19.9389 19.7101 18.7464 18.8375 17.7037C18.1917 18.5403 17.7276 19.6016 17.4683 20.649C17.3249 21.228 17.2474 21.7895 17.2325 22.2945C17.6627 23.0378 18.2208 23.7541 18.9407 24.4169C19.3734 24.8154 19.8133 25.1684 20.2596 25.4784ZM16.6593 21.1141C16.6949 20.9156 16.7376 20.7156 16.7871 20.5156C17.076 19.3487 17.6093 18.135 18.3859 17.1802C17.5135 16.1895 16.6548 15.2814 15.9667 14.5842C15.8148 16.408 15.7412 18.8213 16.6593 21.1141ZM16.4924 14.1149C17.1735 14.8055 18.0164 15.6967 18.8751 16.6694C19.408 16.1908 20.2028 15.6254 21.1419 15.2221C21.565 15.0404 22.0218 14.8899 22.4999 14.7962C20.2914 13.8242 18.0181 13.8349 16.4924 14.1149ZM23.6018 15.3715C22.835 15.357 22.0854 15.5488 21.4043 15.8413C20.5325 16.2156 19.7954 16.7461 19.3179 17.1792C20.2139 18.2391 21.0626 19.4516 21.7641 20.5012C22.3735 20.1182 23.2795 19.65 24.3163 19.3273C25.1248 19.0757 26.0284 18.9078 26.9398 18.9475C26.5623 18.2277 26.105 17.5431 25.5192 16.9261C24.9149 16.2896 24.2679 15.7783 23.6018 15.3715Z" fill="white" fill-opacity="0.6"/>
<path d="M21.72 9.16003C21.72 8.20003 22.5733 6.81336 23 6.28003C23.4266 6.81336 24.28 8.20003 24.28 9.16003C24.28 10.12 23.4266 10.5467 23 10.76C22.5733 10.5467 21.72 10.12 21.72 9.16003Z" fill="#FEFEFE"/>
<path d="M24.28 32.84C24.28 33.8 23.4267 35.1866 23 35.72C22.5734 35.1866 21.72 33.8 21.72 32.84C21.72 31.88 22.5734 31.4533 23 31.24C23.4267 31.4533 24.28 31.88 24.28 32.84Z" fill="#FEFEFE"/>
<path d="M34.84 19.72C35.8 19.72 37.1866 20.5733 37.72 21C37.1866 21.4266 35.8 22.28 34.84 22.28C33.88 22.28 33.4533 21.4266 33.24 21C33.4533 20.5733 33.88 19.72 34.84 19.72Z" fill="#FEFEFE"/>
<path d="M11.16 22.28C10.2 22.28 8.81336 21.4267 8.28003 21C8.81336 20.5734 10.2 19.72 11.16 19.72C12.12 19.72 12.5467 20.5734 12.76 21C12.5467 21.4267 12.12 22.28 11.16 22.28Z" fill="#FEFEFE"/>
<path d="M27.8115 10.1062C28.2915 9.27483 29.7238 8.50061 30.36 8.25206C30.4628 8.92727 30.5085 10.5548 30.0285 11.3862C29.5485 12.2176 28.5961 12.1604 28.12 12.1319C27.8571 11.7338 27.3315 10.9376 27.8115 10.1062Z" fill="#FEFEFE"/>
<path d="M18.1885 31.8938C17.7085 32.7252 16.2762 33.4994 15.64 33.7479C15.5372 33.0727 15.4915 31.4452 15.9715 30.6138C16.4515 29.7824 17.4039 29.8396 17.88 29.8681C18.1429 30.2662 18.6685 31.0624 18.1885 31.8938Z" fill="#FEFEFE"/>
<path d="M33.8938 25.8115C34.7252 26.2915 35.4994 27.7238 35.7479 28.36C35.0727 28.4628 33.4452 28.5085 32.6138 28.0285C31.7824 27.5485 31.8396 26.5961 31.8681 26.12C32.2662 25.8571 33.0624 25.3315 33.8938 25.8115Z" fill="#FEFEFE"/>
<path d="M12.1062 16.1885C11.2748 15.7085 10.5006 14.2762 10.2521 13.64C10.9273 13.5372 12.5548 13.4915 13.3862 13.9715C14.2176 14.4515 14.1604 15.4039 14.1319 15.88C13.7338 16.1429 12.9376 16.6685 12.1062 16.1885Z" fill="#FEFEFE"/>
<path d="M15.9715 11.3862C15.4915 10.5549 15.5372 8.9273 15.64 8.25209C16.2762 8.50064 17.7085 9.27486 18.1885 10.1062C18.6685 10.9376 18.1428 11.7338 17.88 12.1319C17.4038 12.1605 16.4515 12.2176 15.9715 11.3862Z" fill="#FEFEFE"/>
<path d="M30.0285 30.6138C30.5085 31.4451 30.4628 33.0727 30.36 33.7479C29.7238 33.4994 28.2915 32.7251 27.8115 31.8938C27.3315 31.0624 27.8572 30.2662 28.12 29.8681C28.5962 29.8395 29.5485 29.7824 30.0285 30.6138Z" fill="#FEFEFE"/>
<path d="M32.6138 13.9715C33.4451 13.4915 35.0727 13.5372 35.7479 13.64C35.4994 14.2762 34.7251 15.7085 33.8938 16.1885C33.0624 16.6685 32.2662 16.1428 31.8681 15.88C31.8395 15.4038 31.7824 14.4515 32.6138 13.9715Z" fill="#FEFEFE"/>
<path d="M13.3862 28.0285C12.5549 28.5085 10.9273 28.4628 10.2521 28.36C10.5006 27.7238 11.2749 26.2915 12.1062 25.8115C12.9376 25.3315 13.7338 25.8572 14.1319 26.12C14.1605 26.5962 14.2176 27.5485 13.3862 28.0285Z" fill="#FEFEFE"/>
<circle cx="26.0644" cy="9.56343" r="0.32" transform="rotate(15 26.0644 9.56343)" fill="#FEFEFE"/>
<circle cx="19.9356" cy="32.4365" r="0.32" transform="rotate(15 19.9356 32.4365)" fill="#FEFEFE"/>
<circle cx="34.4366" cy="24.0644" r="0.32" transform="rotate(105 34.4366 24.0644)" fill="#FEFEFE"/>
<circle cx="11.5635" cy="17.9356" r="0.32" transform="rotate(105 11.5635 17.9356)" fill="#FEFEFE"/>
<circle cx="31.3721" cy="12.6278" r="0.32" transform="rotate(45 31.3721 12.6278)" fill="#FEFEFE"/>
<circle cx="14.6279" cy="29.3721" r="0.32" transform="rotate(45 14.6279 29.3721)" fill="#FEFEFE"/>
<circle cx="31.3722" cy="29.3721" r="0.32" transform="rotate(135 31.3722 29.3721)" fill="#FEFEFE"/>
<circle cx="14.6279" cy="12.6278" r="0.32" transform="rotate(135 14.6279 12.6278)" fill="#FEFEFE"/>
<circle cx="19.9356" cy="9.56343" r="0.32" transform="rotate(-15 19.9356 9.56343)" fill="#FEFEFE"/>
<circle cx="26.0644" cy="32.4365" r="0.32" transform="rotate(-15 26.0644 32.4365)" fill="#FEFEFE"/>
<circle cx="34.4366" cy="17.9355" r="0.32" transform="rotate(75 34.4366 17.9355)" fill="#FEFEFE"/>
<circle cx="11.5634" cy="24.0644" r="0.32" transform="rotate(75 11.5634 24.0644)" fill="#FEFEFE"/>
<circle cx="12.12" cy="10.12" r="0.64" fill="#FEFEFE"/>
<circle cx="33.88" cy="10.12" r="0.64" fill="#FEFEFE"/>
<circle cx="12.12" cy="31.88" r="0.64" fill="#FEFEFE"/>
<circle cx="33.88" cy="31.88" r="0.64" fill="#FEFEFE"/>
<circle cx="19.0176" cy="6.13756" r="0.64" transform="rotate(30 19.0176 6.13756)" fill="#FEFEFE"/>
<circle cx="37.8624" cy="17.0176" r="0.64" transform="rotate(30 37.8624 17.0176)" fill="#FEFEFE"/>
<circle cx="8.13758" cy="24.9823" r="0.64" transform="rotate(30 8.13758 24.9823)" fill="#FEFEFE"/>
<circle cx="26.9824" cy="35.8623" r="0.64" transform="rotate(30 26.9824 35.8623)" fill="#FEFEFE"/>
<circle cx="8.13756" cy="17.0176" r="0.64" transform="rotate(-30 8.13756 17.0176)" fill="#FEFEFE"/>
<circle cx="26.9824" cy="6.13758" r="0.64" transform="rotate(-30 26.9824 6.13758)" fill="#FEFEFE"/>
<circle cx="19.0176" cy="35.8623" r="0.64" transform="rotate(-30 19.0176 35.8623)" fill="#FEFEFE"/>
<circle cx="37.8624" cy="24.9823" r="0.64" transform="rotate(-30 37.8624 24.9823)" fill="#FEFEFE"/>
</g>
<defs>
<clipPath id="clip0_4539_6482">
<rect width="50" height="50" fill="white" transform="matrix(-1 0 0 1 50 0)"/>
</clipPath>
</defs>
</svg>
